<svg width="160" height="161" viewBox="0 0 160 161" fill="none" xmlns="http://www.w3.org/2000/svg">
<path d="M19.3939 67.9186H37.5757V140.5H19.3939C16.0467 140.5 13.3333 137.792 13.3333 134.452V73.967C13.3333 70.6266 16.0467 67.9186 19.3939 67.9186ZM51.472 60.0986L90.263 21.3858C91.329 20.3216 93.0175 20.2019 94.2236 21.1049L99.3908 24.9725C102.328 27.1712 103.652 30.9177 102.746 34.4689L95.7563 61.8702H134.545C141.24 61.8702 146.667 67.2861 146.667 73.967V86.6949C146.667 88.2754 146.356 89.8401 145.754 91.3008L127 136.754C126.065 139.021 123.851 140.5 121.396 140.5H55.7575C52.4103 140.5 49.6969 137.792 49.6969 134.452V64.3755C49.6969 62.7714 50.3354 61.233 51.472 60.0986Z" fill="url(#paint0_linear_38_198)"/>
<defs>
<linearGradient id="paint0_linear_38_198" x1="79.9999" y1="20.5" x2="79.9999" y2="140.5" gradientUnits="userSpaceOnUse">
<stop stop-color="#ED2000"/>
<stop offset="1" stop-color="#FF6E4A"/>
</linearGradient>
</defs>
</svg>
