<svg width="160" height="161" viewBox="0 0 160 161" fill="none" xmlns="http://www.w3.org/2000/svg">
<path d="M30.9052 15.3619C40.2245 12.0487 51.0304 14.1217 58.4896 21.5809C65.9509 29.0422 68.023 39.852 64.7058 49.1731L146.667 131.135L130.635 147.167L48.6653 65.2085C39.346 68.5216 28.5401 66.4485 21.0809 58.9895C13.6196 51.5282 11.5475 40.7184 14.8647 31.3973L31.7691 48.3014C36.1963 52.7285 43.3742 52.7285 47.8013 48.3014C52.2286 43.8742 52.2286 36.6963 47.8013 32.2691L30.9052 15.3619ZM109.258 29.597L133.307 16.2368L143.995 26.925L130.635 50.9734L117.274 53.6454L101.242 69.6779L90.554 58.9895L106.586 42.9573L109.258 29.597ZM55.8175 88.3817L71.8495 104.414L34.4412 141.823C30.014 146.25 22.8361 146.25 18.4089 141.823C14.2422 137.656 13.9971 131.052 17.6736 126.599L18.4089 125.791L55.8175 88.3817Z" fill="url(#paint0_linear_38_204)"/>
<defs>
<linearGradient id="paint0_linear_38_204" x1="80" y1="13.8334" x2="80" y2="147.167" gradientUnits="userSpaceOnUse">
<stop stop-color="#ED2000"/>
<stop offset="1" stop-color="#FF6E4A"/>
</linearGradient>
</defs>
</svg>
