<svg width="1802" height="451" viewBox="0 0 1802 451" fill="none" xmlns="http://www.w3.org/2000/svg">
<rect width="1802" height="451" fill="white"/>
<path d="M257.173 171.094C260.612 171.123 263.975 171.47 267.234 172.107V279.266C263.975 279.904 260.612 280.25 257.173 280.279V171.094Z" fill="url(#paint0_linear_935_80)"/>
<path d="M252.811 280.145C250.203 279.961 247.646 279.595 245.152 279.058V172.314C247.646 171.777 250.203 171.411 252.811 171.228V280.145Z" fill="url(#paint1_linear_935_80)"/>
<path d="M271.597 173.148C272.558 173.42 273.508 173.718 274.446 174.041V277.331C273.508 277.654 272.558 277.952 271.597 278.224V173.148Z" fill="url(#paint2_linear_935_80)"/>
<path d="M240.79 277.927C238.575 277.253 236.42 276.443 234.334 275.506V175.867C236.42 174.929 238.575 174.119 240.79 173.445V277.927Z" fill="url(#paint3_linear_935_80)"/>
<path d="M278.808 175.754C282.381 177.338 285.751 179.294 288.871 181.573V269.799C285.751 272.078 282.381 274.034 278.808 275.618V175.754Z" fill="url(#paint4_linear_935_80)"/>
<path d="M229.972 273.304C228.582 272.523 227.231 271.681 225.92 270.785V180.588C227.231 179.692 228.582 178.851 229.972 178.069V273.304Z" fill="url(#paint5_linear_935_80)"/>
<path d="M221.558 267.47C218.245 264.681 215.268 261.505 212.697 258.012V193.361C215.268 189.868 218.245 186.692 221.558 183.903V267.47Z" fill="url(#paint6_linear_935_80)"/>
<path d="M293.233 185.117C296.072 187.675 298.641 190.526 300.892 193.624V257.75C298.641 260.847 296.071 263.697 293.233 266.255V185.117Z" fill="url(#paint7_linear_935_80)"/>
<path d="M208.335 251.04C204.355 243.464 202.102 234.839 202.102 225.687C202.102 216.534 204.355 207.908 208.335 200.332V251.04Z" fill="url(#paint8_linear_935_80)"/>
<path d="M305.254 200.703C309.114 208.189 311.294 216.683 311.294 225.687C311.294 234.69 309.114 243.184 305.254 250.671V200.703Z" fill="url(#paint9_linear_935_80)"/>
<path d="M362.697 312.574L343.574 331.697L293.043 281.167L312.167 262.043L362.697 312.574Z" fill="url(#paint10_linear_935_80)"/>
<path d="M316.529 225.332C316.529 192.086 289.578 165.135 256.332 165.135C223.086 165.135 196.135 192.086 196.135 225.332C196.135 258.578 223.086 285.529 256.332 285.529V312.574C208.149 312.574 169.09 273.514 169.09 225.332C169.09 177.149 208.149 138.09 256.332 138.09C304.514 138.09 343.574 177.149 343.574 225.332C343.574 273.514 304.514 312.574 256.332 312.574V285.529C289.578 285.529 316.529 258.578 316.529 225.332Z" fill="url(#paint11_linear_935_80)"/>
<path d="M256.332 84C334.387 84 397.664 147.276 397.664 225.332C397.664 249.565 391.563 272.373 380.816 292.306L360.631 272.121C367.048 257.84 370.619 242.003 370.619 225.332C370.619 162.213 319.451 111.045 256.332 111.045C193.213 111.045 142.045 162.213 142.045 225.332C142.045 288.451 193.213 339.619 256.332 339.619C292.8 339.619 325.277 322.537 346.203 295.94L365.437 315.174C339.515 346.617 300.265 366.664 256.332 366.664C178.276 366.664 115 303.387 115 225.332C115 147.276 178.276 84 256.332 84Z" fill="url(#paint12_linear_935_80)"/>
<path d="M1591.03 144.369V238.687C1591.03 246.409 1592.68 252.555 1595.99 257.125C1599.46 261.538 1604.97 263.744 1612.54 263.744C1620.1 263.744 1625.7 261.538 1629.32 257.125C1632.95 252.555 1634.76 246.409 1634.76 238.687V144.369H1687V238.687C1687 254.604 1683.69 268.235 1677.07 279.582C1670.45 290.771 1661.39 299.202 1649.89 304.875C1638.38 310.548 1625.54 313.385 1611.36 313.385C1597.17 313.385 1584.57 310.548 1573.53 304.875C1562.66 299.202 1554.15 290.771 1548.01 279.582C1541.86 268.393 1538.79 254.761 1538.79 238.687V144.369H1591.03Z" fill="#1D2639"/>
<path d="M1462.46 311.73L1413.76 239.16V311.73H1361.29V144.369H1413.76V214.812L1461.75 144.369H1521.08L1463.41 224.504L1524.87 311.73H1462.46Z" fill="#1D2639"/>
<path d="M1279.03 313.386C1259.01 313.386 1242.46 308.737 1229.38 299.439C1216.46 289.984 1209.45 276.194 1208.35 258.072H1264.13C1264.92 267.685 1269.18 272.491 1276.9 272.491C1279.73 272.491 1282.1 271.861 1283.99 270.6C1286.04 269.182 1287.06 267.054 1287.06 264.218C1287.06 260.278 1284.93 257.126 1280.68 254.762C1276.42 252.241 1269.81 249.404 1260.82 246.252C1250.11 242.47 1241.2 238.767 1234.11 235.142C1227.18 231.518 1221.19 226.238 1216.15 219.304C1211.1 212.37 1208.66 203.467 1208.82 192.593C1208.82 181.719 1211.58 172.5 1217.09 164.936C1222.77 157.214 1230.41 151.383 1240.02 147.443C1249.79 143.503 1260.74 141.533 1272.88 141.533C1293.37 141.533 1309.6 146.261 1321.57 155.717C1333.71 165.172 1340.09 178.488 1340.72 195.666H1284.23C1284.07 190.938 1282.89 187.55 1280.68 185.501C1278.47 183.453 1275.79 182.428 1272.64 182.428C1270.44 182.428 1268.62 183.216 1267.21 184.792C1265.79 186.21 1265.08 188.259 1265.08 190.938C1265.08 194.72 1267.13 197.872 1271.22 200.394C1275.48 202.757 1282.18 205.673 1291.32 209.14C1301.88 213.08 1310.54 216.862 1317.32 220.486C1324.25 224.111 1330.24 229.154 1335.28 235.615C1340.33 242.076 1342.85 250.192 1342.85 259.963C1342.85 270.206 1340.33 279.425 1335.28 287.62C1330.24 295.657 1322.91 301.961 1313.3 306.531C1303.69 311.101 1292.26 313.386 1279.03 313.386Z" fill="#1D2639"/>
<path d="M1184.08 136.805V311.731H1157.13V136.805H1184.08Z" fill="#1D2639"/>
<path d="M987.938 246.016C987.938 232.936 990.617 221.353 995.976 211.267C1001.49 201.181 1008.9 193.38 1018.2 187.865C1027.65 182.192 1038.05 179.355 1049.4 179.355C1059.64 179.355 1068.55 181.404 1076.11 185.501C1083.83 189.441 1089.98 194.405 1094.55 200.393V181.482H1121.73V311.731H1094.55V292.347C1089.98 298.493 1083.75 303.615 1075.87 307.712C1067.99 311.81 1059.01 313.858 1048.93 313.858C1037.74 313.858 1027.49 311.022 1018.2 305.348C1008.9 299.518 1001.49 291.481 995.976 281.237C990.617 270.836 987.938 259.096 987.938 246.016ZM1094.55 246.488C1094.55 237.506 1092.66 229.705 1088.88 223.086C1085.25 216.467 1080.44 211.425 1074.46 207.958C1068.47 204.491 1062.01 202.757 1055.07 202.757C1048.14 202.757 1041.68 204.491 1035.69 207.958C1029.7 211.267 1024.81 216.231 1021.03 222.85C1017.41 229.311 1015.6 237.033 1015.6 246.016C1015.6 254.998 1017.41 262.878 1021.03 269.654C1024.81 276.431 1029.7 281.631 1035.69 285.256C1041.83 288.723 1048.3 290.456 1055.07 290.456C1062.01 290.456 1068.47 288.723 1074.46 285.256C1080.44 281.789 1085.25 276.746 1088.88 270.127C1092.66 263.351 1094.55 255.471 1094.55 246.488Z" fill="#1D2639"/>
<path d="M863.662 200.866C868.232 194.562 874.457 189.44 882.336 185.501C890.373 181.403 899.277 179.355 909.048 179.355C920.552 179.355 930.953 182.112 940.251 187.628C949.549 193.144 956.877 201.023 962.235 211.267C967.593 221.352 970.272 232.935 970.272 246.015C970.272 259.095 967.593 270.836 962.235 281.237C956.877 291.48 949.47 299.517 940.014 305.348C930.717 311.021 920.394 313.858 909.048 313.858C898.962 313.858 889.979 311.888 882.1 307.948C874.378 304.009 868.232 298.966 863.662 292.82V311.731H836.714V136.805H863.662V200.866ZM942.851 246.015C942.851 237.033 940.96 229.311 937.178 222.85C933.553 216.231 928.668 211.267 922.522 207.957C916.533 204.49 910.072 202.757 903.138 202.757C896.362 202.757 889.901 204.49 883.755 207.957C877.766 211.424 872.881 216.467 869.099 223.086C865.474 229.705 863.662 237.505 863.662 246.488C863.662 255.471 865.474 263.35 869.099 270.127C872.881 276.745 877.766 281.788 883.755 285.255C889.901 288.722 896.362 290.456 903.138 290.456C910.072 290.456 916.533 288.722 922.522 285.255C928.668 281.631 933.553 276.43 937.178 269.654C940.96 262.878 942.851 254.998 942.851 246.015Z" fill="#1D2639"/>
<path d="M742.468 313.858C730.176 313.858 719.066 311.101 709.138 305.585C699.209 299.912 691.409 292.032 685.735 281.946C680.062 271.703 677.226 259.884 677.226 246.488C677.226 233.251 680.141 221.51 685.972 211.267C691.803 201.024 699.761 193.144 709.847 187.628C719.933 182.113 731.2 179.355 743.65 179.355C756.1 179.355 767.367 182.113 777.453 187.628C787.539 193.144 795.497 201.024 801.328 211.267C807.159 221.51 810.074 233.251 810.074 246.488C810.074 259.726 807.08 271.467 801.092 281.71C795.103 291.953 786.909 299.912 776.508 305.585C766.264 311.101 754.918 313.858 742.468 313.858ZM742.468 290.456C749.402 290.456 755.863 288.801 761.852 285.492C767.998 282.183 772.962 277.219 776.744 270.6C780.526 263.981 782.417 255.944 782.417 246.488C782.417 237.033 780.605 229.075 776.98 222.614C773.356 215.995 768.549 211.031 762.561 207.721C756.572 204.412 750.111 202.757 743.177 202.757C736.243 202.757 729.782 204.412 723.794 207.721C717.963 211.031 713.314 215.995 709.847 222.614C706.38 229.075 704.646 237.033 704.646 246.488C704.646 260.514 708.192 271.388 715.284 279.11C722.533 286.674 731.594 290.456 742.468 290.456Z" fill="#1D2639"/>
<path d="M650.592 136.805V311.731H623.644V136.805H650.592Z" fill="#1D2639"/>
<path d="M559.717 194.72C555.462 186.526 549.552 180.38 541.988 176.282C534.423 172.027 525.677 169.9 515.749 169.9C504.875 169.9 495.183 172.343 486.674 177.228C478.164 182.113 471.466 189.047 466.581 198.03C461.853 207.012 459.489 217.413 459.489 229.233C459.489 241.052 461.853 251.532 466.581 260.672C471.466 269.655 478.164 276.589 486.674 281.474C495.183 286.359 504.875 288.802 515.749 288.802C530.405 288.802 542.303 284.705 551.443 276.51C560.584 268.315 566.178 257.205 568.227 243.179H506.53V221.668H597.066V242.707C595.332 255.471 590.762 267.212 583.355 277.928C576.106 288.644 566.572 297.233 554.753 303.694C543.091 309.998 530.09 313.15 515.749 313.15C500.305 313.15 486.201 309.604 473.436 302.512C460.671 295.263 450.507 285.256 442.942 272.491C435.535 259.726 431.832 245.307 431.832 229.233C431.832 213.158 435.535 198.739 442.942 185.974C450.507 173.209 460.671 163.281 473.436 156.19C486.358 148.94 500.463 145.316 515.749 145.316C533.242 145.316 548.764 149.65 562.317 158.317C576.027 166.827 585.956 178.961 592.102 194.72H559.717Z" fill="#1D2639"/>
<path d="M102 313H583" stroke="#FF0000"/>
<path d="M102 313H1687" stroke="#FF0000"/>
<path d="M115 137H1700" stroke="#FF0000"/>
<defs>
<linearGradient id="paint0_linear_935_80" x1="118.94" y1="232.532" x2="397.664" y2="232.532" gradientUnits="userSpaceOnUse">
<stop stop-color="#8BDDD0"/>
<stop offset="1" stop-color="#536FE1"/>
</linearGradient>
<linearGradient id="paint1_linear_935_80" x1="118.94" y1="232.532" x2="397.664" y2="232.532" gradientUnits="userSpaceOnUse">
<stop stop-color="#8BDDD0"/>
<stop offset="1" stop-color="#536FE1"/>
</linearGradient>
<linearGradient id="paint2_linear_935_80" x1="118.94" y1="232.532" x2="397.664" y2="232.532" gradientUnits="userSpaceOnUse">
<stop stop-color="#8BDDD0"/>
<stop offset="1" stop-color="#536FE1"/>
</linearGradient>
<linearGradient id="paint3_linear_935_80" x1="118.94" y1="232.532" x2="397.664" y2="232.532" gradientUnits="userSpaceOnUse">
<stop stop-color="#8BDDD0"/>
<stop offset="1" stop-color="#536FE1"/>
</linearGradient>
<linearGradient id="paint4_linear_935_80" x1="118.94" y1="232.532" x2="397.664" y2="232.532" gradientUnits="userSpaceOnUse">
<stop stop-color="#8BDDD0"/>
<stop offset="1" stop-color="#536FE1"/>
</linearGradient>
<linearGradient id="paint5_linear_935_80" x1="118.94" y1="232.532" x2="397.664" y2="232.532" gradientUnits="userSpaceOnUse">
<stop stop-color="#8BDDD0"/>
<stop offset="1" stop-color="#536FE1"/>
</linearGradient>
<linearGradient id="paint6_linear_935_80" x1="118.94" y1="232.532" x2="397.664" y2="232.532" gradientUnits="userSpaceOnUse">
<stop stop-color="#8BDDD0"/>
<stop offset="1" stop-color="#536FE1"/>
</linearGradient>
<linearGradient id="paint7_linear_935_80" x1="118.94" y1="232.532" x2="397.664" y2="232.532" gradientUnits="userSpaceOnUse">
<stop stop-color="#8BDDD0"/>
<stop offset="1" stop-color="#536FE1"/>
</linearGradient>
<linearGradient id="paint8_linear_935_80" x1="118.94" y1="232.532" x2="397.664" y2="232.532" gradientUnits="userSpaceOnUse">
<stop stop-color="#8BDDD0"/>
<stop offset="1" stop-color="#536FE1"/>
</linearGradient>
<linearGradient id="paint9_linear_935_80" x1="118.94" y1="232.532" x2="397.664" y2="232.532" gradientUnits="userSpaceOnUse">
<stop stop-color="#8BDDD0"/>
<stop offset="1" stop-color="#536FE1"/>
</linearGradient>
<linearGradient id="paint10_linear_935_80" x1="118.94" y1="232.532" x2="397.664" y2="232.532" gradientUnits="userSpaceOnUse">
<stop stop-color="#8BDDD0"/>
<stop offset="1" stop-color="#536FE1"/>
</linearGradient>
<linearGradient id="paint11_linear_935_80" x1="118.94" y1="232.532" x2="397.664" y2="232.532" gradientUnits="userSpaceOnUse">
<stop stop-color="#8BDDD0"/>
<stop offset="1" stop-color="#536FE1"/>
</linearGradient>
<linearGradient id="paint12_linear_935_80" x1="118.94" y1="232.532" x2="397.664" y2="232.532" gradientUnits="userSpaceOnUse">
<stop stop-color="#8BDDD0"/>
<stop offset="1" stop-color="#536FE1"/>
</linearGradient>
</defs>
</svg>
