<svg width="600" height="355" viewBox="0 0 600 355" fill="none" xmlns="http://www.w3.org/2000/svg">
<path d="M234.66 221.229C235.549 220.914 236.525 220.924 237.409 221.26L272.826 234.733L272.921 234.77C273.304 234.927 273.65 235.137 273.952 235.389L289.499 247.715C290.498 248.506 291.049 249.727 290.978 250.992C290.907 252.257 290.224 253.41 289.144 254.088L271.815 264.954L269.346 283.253C269.206 284.287 268.657 285.222 267.822 285.852L267.741 285.912L238.632 306.738C237.932 307.36 237.007 307.739 235.992 307.739C234.98 307.739 234.056 307.362 233.357 306.742L204.242 285.912C203.389 285.301 202.817 284.38 202.652 283.353L202.637 283.253L200.167 264.953L182.84 254.088C181.76 253.41 181.077 252.257 181.006 250.992C180.935 249.727 181.486 248.506 182.485 247.715L198.015 235.402C198.346 235.124 198.729 234.895 199.156 234.733L234.574 221.26L234.66 221.229ZM221.379 274.889C220.062 276.055 218.123 276.214 216.63 275.277L208.886 270.421L210.252 280.543L232.037 296.129V265.459L221.379 274.889ZM239.947 296.128L261.73 280.543L263.096 270.422L255.354 275.277C253.861 276.214 251.922 276.055 250.604 274.889L239.947 265.459V296.128ZM191.757 250.402L218.337 267.071L229.09 257.557L201.031 243.05L191.757 250.402ZM242.894 257.557L253.646 267.071L280.226 250.402L270.952 243.05L242.894 257.557ZM210.178 238.937L235.992 252.284L261.805 238.938L235.991 229.118L210.178 238.937Z" fill="url(#paint0_linear_934_60)"/>
<path d="M248.4 95.48L264.28 105.4L248.4 115.32C247.55 115.89 247 116.85 247 117.88V120.37C247 121.54 247.67 122.6 248.74 123.09L266.98 131.61V150.31C266.98 151.48 267.63 152.54 268.69 153.03L287.29 161.71L306.1 170.49L306.15 170.52C306.33 170.6 306.54 170.68 306.77 170.73C306.98 170.78 307.18 170.81 307.42 170.81C307.52 170.81 307.65 170.81 307.78 170.78C307.83 170.78 307.88 170.78 307.91 170.75C307.96 170.78 307.99 170.75 308.04 170.72C308.27 170.67 308.48 170.59 308.69 170.51L308.72 170.48L346.13 153.02C347.19 152.53 347.84 151.47 347.84 150.3V131.6L366.08 123.08C367.14 122.59 367.82 121.53 367.82 120.36V117.87C367.82 116.83 367.3 115.88 366.42 115.31L350.51 105.39L366.42 95.47C367.3 94.93 367.82 93.94 367.82 92.93V90.42C367.82 90.14 367.79 89.85 367.72 89.57C367.46 88.77 366.87 88.07 366.09 87.7L328.66 70.21C327.75 69.8 326.67 69.87 325.81 70.39L325.63 70.49L307.44 81.86L289.05 70.38C288.2 69.86 287.13 69.78 286.17 70.2L248.74 87.71C247.68 88.2 247 89.26 247 90.43V92.94C247 93.95 247.54 94.93 248.4 95.48ZM344.64 101.99L311.4 86.5L327.56 76.37L360.8 91.89L344.64 101.99ZM343.42 127.04L327.57 134.42L311.41 124.32L344.65 108.8L360.81 118.93L343.43 127.04H343.42ZM310.39 130.79L325.78 140.4C326.25 140.69 326.82 140.87 327.36 140.87C327.8 140.87 328.24 140.74 328.63 140.56L341.82 134.39V148.4L310.4 163.09V130.79H310.39ZM277.08 105.41L307.41 91.27L337.72 105.41L307.41 119.58L277.08 105.41ZM272.99 134.42L286.15 140.56C286.56 140.74 287 140.87 287.45 140.87C287.99 140.87 288.56 140.69 289.03 140.4L304.39 130.82V163.07L272.99 148.41V134.42ZM270.16 108.8L303.4 124.32L287.21 134.42L271.38 127.04L254 118.93L270.16 108.8ZM254 91.88L287.24 76.36L303.4 86.49L270.16 101.98L254 91.88Z" fill="#1D2639"/>
<path d="M277.08 105.41L307.42 119.58L337.72 105.41L307.42 91.26L277.08 105.41Z" fill="white"/>
<path d="M307.57 53C307.45 53.27 307.36 53.56 307.32 53.85C307.36 53.56 307.44 53.27 307.57 53Z" fill="#1D2639"/>
<path d="M254 91.8799L270.16 101.99L303.4 86.4899L287.24 76.3699L254 91.8799Z" fill="url(#paint1_linear_934_60)"/>
<path d="M254 118.93L287.21 134.42L303.4 124.32L270.16 108.8L254 118.93Z" fill="url(#paint2_linear_934_60)"/>
<path d="M272.99 134.42V148.41L304.39 163.07V130.82L289.03 140.4C288.56 140.69 287.99 140.87 287.45 140.87C287.01 140.87 286.57 140.74 286.15 140.56L272.99 134.42Z" fill="url(#paint3_linear_934_60)"/>
<path d="M310.39 130.79V163.09L341.81 148.4V134.39L328.62 140.56C328.23 140.74 327.79 140.87 327.35 140.87C326.81 140.87 326.24 140.69 325.77 140.4L310.38 130.79H310.39Z" fill="url(#paint4_linear_934_60)"/>
<path d="M311.41 86.4899L344.64 101.99L360.81 91.8799L327.57 76.3699L311.41 86.4899Z" fill="url(#paint5_linear_934_60)"/>
<path d="M311.41 124.32L327.57 134.42L360.81 118.93L344.64 108.8L311.41 124.32Z" fill="url(#paint6_linear_934_60)"/>
<path d="M57.5858 91.9673L73.7458 102.077L106.986 86.5773L90.8258 76.4573L57.5858 91.9673Z" fill="#B6D433"/>
<path d="M57.5858 119.017L74.9658 127.127L90.7958 134.507L106.986 124.407L73.7458 108.887L57.5858 119.017Z" fill="#B6D433"/>
<path d="M76.5758 134.507V148.497L107.976 163.157V130.907L92.6158 140.487C92.1458 140.777 91.5758 140.957 91.0358 140.957C90.5958 140.957 90.1558 140.827 89.7358 140.647L76.5758 134.507Z" fill="#879138"/>
<path d="M51.9858 95.5673L67.8658 105.487L51.9858 115.407C51.1358 115.977 50.5858 116.937 50.5858 117.967V120.457C50.5858 121.627 51.2558 122.687 52.3258 123.177L70.5658 131.697V150.397C70.5658 151.567 71.2158 152.627 72.2758 153.117L90.8758 161.797L109.686 170.577L109.736 170.607C109.916 170.687 110.126 170.767 110.356 170.817C110.566 170.867 110.766 170.897 111.006 170.897C111.106 170.897 111.236 170.897 111.366 170.867C111.416 170.867 111.466 170.867 111.496 170.837C111.546 170.867 111.576 170.837 111.626 170.807C111.856 170.757 112.066 170.677 112.276 170.597L112.306 170.567L149.716 153.107C150.776 152.617 151.426 151.557 151.426 150.387V131.687L169.666 123.167C170.726 122.677 171.406 121.617 171.406 120.447V117.957C171.406 116.917 170.886 115.967 170.006 115.397L154.096 105.477L170.006 95.5573C170.886 95.0173 171.406 94.0273 171.406 93.0173V90.5073C171.406 90.2273 171.376 89.9373 171.306 89.6573C171.046 88.8573 170.456 88.1573 169.676 87.7873L132.246 70.2973C131.336 69.8873 130.256 69.9573 129.396 70.4773L129.216 70.5773L111.026 81.9473L92.6358 70.4673C91.7858 69.9473 90.7158 69.8673 89.7558 70.2873L52.3258 87.7973C51.2658 88.2873 50.5858 89.3473 50.5858 90.5173V93.0273C50.5858 94.0373 51.1258 95.0173 51.9858 95.5673ZM148.226 102.077L114.986 86.5873L131.146 76.4573L164.386 91.9773L148.226 102.077ZM147.006 127.127L131.156 134.507L114.996 124.407L148.236 108.887L164.396 119.017L147.016 127.127H147.006ZM113.976 130.877L129.366 140.487C129.836 140.777 130.406 140.957 130.946 140.957C131.386 140.957 131.826 140.827 132.216 140.647L145.406 134.477V148.487L113.986 163.177V130.877H113.976ZM80.6658 105.497L110.996 91.3573L141.306 105.497L110.996 119.667L80.6658 105.497ZM76.5758 134.507L89.7358 140.647C90.1458 140.827 90.5858 140.957 91.0358 140.957C91.5758 140.957 92.1458 140.777 92.6158 140.487L107.976 130.907V163.157L76.5758 148.497V134.507ZM73.7458 108.887L106.986 124.407L90.7958 134.507L74.9658 127.127L57.5858 119.017L73.7458 108.887ZM57.5858 91.9673L90.8258 76.4473L106.986 86.5773L73.7458 102.067L57.5858 91.9673Z" fill="#494345"/>
<path d="M80.6658 105.497L111.006 119.667L141.306 105.497L111.006 91.3473L80.6658 105.497Z" fill="white"/>
<path d="M111.156 53.0873C111.036 53.3573 110.946 53.6473 110.906 53.9373C110.946 53.6473 111.026 53.3573 111.156 53.0873Z" fill="#494345"/>
<path d="M113.976 130.877V163.177L145.396 148.487V134.477L132.206 140.647C131.816 140.827 131.376 140.957 130.936 140.957C130.396 140.957 129.826 140.777 129.356 140.487L113.966 130.877H113.976Z" fill="#879138"/>
<path d="M114.996 86.5773L148.226 102.077L164.396 91.9673L131.156 76.4573L114.996 86.5773Z" fill="#B6D433"/>
<path d="M114.996 124.407L131.156 134.507L147.006 127.127L164.396 119.017L148.226 108.887L114.996 124.407Z" fill="#B6D433"/>
<path d="M119.086 179.357C119.136 179.197 119.196 179.027 119.266 178.867C119.336 178.727 119.396 178.587 119.486 178.467C119.576 178.327 119.676 178.207 119.786 178.097C119.786 178.057 119.836 178.037 119.856 177.997L129.746 167.877C130.086 167.547 130.456 167.307 130.866 167.147C131.916 166.767 133.156 166.987 134.006 167.827C135.186 168.977 135.216 170.887 134.056 172.067L129.046 177.217C136.716 176.847 144.226 174.687 151.026 170.887C167.816 161.467 177.856 142.927 176.556 123.647C176.556 123.497 176.556 123.357 176.566 123.227C176.676 121.757 177.836 120.547 179.346 120.437C180.996 120.357 182.446 121.597 182.556 123.247C183.996 144.807 172.786 165.577 153.966 176.117C146.446 180.337 138.136 182.757 129.636 183.207L135.046 188.357C136.236 189.487 136.296 191.417 135.136 192.597C134.496 193.277 133.596 193.587 132.726 193.517C132.066 193.467 131.416 193.207 130.886 192.707L119.976 182.317L119.936 182.277C119.586 181.957 119.346 181.567 119.166 181.137C119.026 180.727 118.956 180.307 118.996 179.867C119.006 179.677 119.046 179.517 119.076 179.347L119.086 179.357Z" fill="#494345"/>
<path d="M38.0458 95.1873C41.8558 74.9173 56.3858 58.3973 75.9458 52.0273C84.1458 49.3673 92.7558 48.6373 101.186 49.8473L96.8958 43.7473C95.9358 42.3773 96.2758 40.4973 97.6258 39.5473C98.9758 38.5873 100.856 38.9273 101.806 40.2773L110.486 52.6173C110.486 52.6173 110.526 52.6773 110.546 52.6973C110.626 52.8173 110.716 52.9673 110.776 53.0973C110.896 53.3673 110.986 53.6573 111.026 53.9473C111.086 54.2573 111.086 54.5473 111.026 54.8673C111.006 55.0173 110.986 55.1573 110.926 55.3073C110.736 55.9273 110.346 56.4973 109.756 56.8873L109.696 56.9273L98.0658 64.8773C97.5458 65.2273 96.9658 65.3973 96.3758 65.3973C96.2558 65.3973 96.1258 65.3973 96.0258 65.3773C95.1958 65.2773 94.3858 64.8373 93.8858 64.0873C92.9458 62.7173 93.3058 60.8373 94.6758 59.9073L100.626 55.8273C93.0058 54.7073 85.2258 55.3473 77.7958 57.7673C63.0658 62.5573 51.5358 73.8273 46.2458 88.1073C45.2458 90.7473 44.4958 93.4973 43.9558 96.3273C43.6858 97.7673 42.4158 98.7873 41.0058 98.7873C40.8158 98.7873 40.6358 98.7673 40.4458 98.7273C38.8258 98.4173 37.7358 96.8573 38.0558 95.2073L38.0458 95.1873Z" fill="#494345"/>
<path d="M391.242 216.787C392.327 215.976 393.756 215.775 395.026 216.263L430.442 229.858L430.565 229.908C431.824 230.44 432.722 231.587 432.933 232.943C433.151 234.344 432.602 235.754 431.495 236.639L419.738 246.045L431.495 255.451C432.494 256.25 433.045 257.482 432.974 258.758C432.903 260.035 432.22 261.199 431.14 261.882L413.812 272.847L411.343 291.312C411.199 292.389 410.618 293.359 409.738 293.995L380.63 315.009C379.93 315.637 379.005 316.02 377.99 316.02C376.978 316.02 376.055 315.639 375.355 315.014L346.241 293.995C345.361 293.359 344.78 292.389 344.636 291.312L342.167 272.846L324.84 261.882C323.76 261.199 323.077 260.035 323.006 258.758C322.935 257.482 323.486 256.25 324.485 255.451L336.242 246.045L324.485 236.639C323.378 235.753 322.829 234.344 323.047 232.943C323.264 231.543 324.215 230.366 325.538 229.858L360.954 216.263L361.077 216.218C362.358 215.774 363.78 216.017 364.842 216.867L377.99 227.385L391.138 216.867L391.242 216.787ZM363.378 282.872C362.101 284.012 360.242 284.198 358.77 283.349L358.629 283.264L350.885 278.364L352.251 288.577L374.035 304.304V273.357L363.378 282.872ZM381.945 304.303L403.728 288.577L405.093 278.364L397.351 283.264C395.858 284.209 393.92 284.049 392.602 282.872L381.945 273.357V304.303ZM333.757 258.163L360.336 274.983L371.088 265.383L343.031 250.745L333.757 258.163ZM384.892 265.383L395.644 274.983L422.223 258.163L412.949 250.745L384.892 265.383ZM352.177 246.594L377.99 260.062L403.802 246.595L377.989 236.686L352.177 246.594ZM385.847 231.23L412.706 241.54L421.167 234.771L394.308 224.46L385.847 231.23ZM334.812 234.771L343.273 241.539L370.132 231.229L361.672 224.46L334.812 234.771Z" fill="url(#paint7_linear_934_60)"/>
<path d="M427.4 95.5492L443.28 105.469L427.4 115.389C426.55 115.959 426 116.919 426 117.949V120.439C426 121.609 426.67 122.669 427.74 123.159L445.98 131.679V150.379C445.98 151.549 446.63 152.609 447.69 153.099L466.29 161.779L485.1 170.559L485.15 170.589C485.33 170.669 485.54 170.749 485.77 170.799C485.98 170.849 486.18 170.879 486.42 170.879C486.52 170.879 486.65 170.879 486.78 170.849C486.83 170.849 486.88 170.849 486.91 170.819C486.96 170.849 486.99 170.819 487.04 170.789C487.27 170.739 487.48 170.659 487.69 170.579L487.72 170.549L525.13 153.089C526.19 152.599 526.84 151.539 526.84 150.369V131.669L545.08 123.149C546.14 122.659 546.82 121.599 546.82 120.429V117.939C546.82 116.899 546.3 115.949 545.42 115.379L529.51 105.459L545.42 95.5392C546.3 94.9992 546.82 94.0092 546.82 92.9992V90.4892C546.82 90.2092 546.79 89.9192 546.72 89.6392C546.46 88.8392 545.87 88.1392 545.09 87.7692L507.66 70.2792C506.75 69.8692 505.67 69.9392 504.81 70.4592L504.63 70.5592L486.44 81.9292L468.05 70.4492C467.2 69.9292 466.13 69.8492 465.17 70.2692L427.74 87.7792C426.68 88.2692 426 89.3292 426 90.4992V93.0092C426 94.0192 426.54 94.9992 427.4 95.5492ZM523.64 102.059L490.4 86.5692L506.56 76.4392L539.8 91.9592L523.64 102.059ZM522.42 127.109L506.57 134.489L490.41 124.389L523.65 108.869L539.81 118.999L522.43 127.109H522.42ZM489.39 130.859L504.78 140.469C505.25 140.759 505.82 140.939 506.36 140.939C506.8 140.939 507.24 140.809 507.63 140.629L520.82 134.459V148.469L489.4 163.159V130.859H489.39ZM456.08 105.479L486.41 91.3392L516.72 105.479L486.41 119.649L456.08 105.479ZM451.99 134.489L465.15 140.629C465.56 140.809 466 140.939 466.45 140.939C466.99 140.939 467.56 140.759 468.03 140.469L483.39 130.889V163.139L451.99 148.479V134.489ZM449.16 108.869L482.4 124.389L466.21 134.489L450.38 127.109L433 118.999L449.16 108.869ZM433 91.9492L466.24 76.4292L482.4 86.5592L449.16 102.049L433 91.9492Z" fill="url(#paint8_linear_934_60)"/>
<rect x="409.5" y="50.5" width="152" height="139" rx="23.5" stroke="#333333"/>
<defs>
<linearGradient id="paint0_linear_934_60" x1="182.533" y1="266.579" x2="290.984" y2="266.579" gradientUnits="userSpaceOnUse">
<stop stop-color="#8BDDD0"/>
<stop offset="1" stop-color="#536FE1"/>
</linearGradient>
<linearGradient id="paint1_linear_934_60" x1="255.489" y1="121.939" x2="342.84" y2="70.1415" gradientUnits="userSpaceOnUse">
<stop stop-color="#8BDDD0"/>
<stop offset="1" stop-color="#536FE1"/>
</linearGradient>
<linearGradient id="paint2_linear_934_60" x1="255.489" y1="121.939" x2="342.84" y2="70.1415" gradientUnits="userSpaceOnUse">
<stop stop-color="#8BDDD0"/>
<stop offset="1" stop-color="#536FE1"/>
</linearGradient>
<linearGradient id="paint3_linear_934_60" x1="255.489" y1="121.939" x2="342.84" y2="70.1415" gradientUnits="userSpaceOnUse">
<stop stop-color="#8BDDD0"/>
<stop offset="1" stop-color="#536FE1"/>
</linearGradient>
<linearGradient id="paint4_linear_934_60" x1="255.489" y1="121.939" x2="342.84" y2="70.1415" gradientUnits="userSpaceOnUse">
<stop stop-color="#8BDDD0"/>
<stop offset="1" stop-color="#536FE1"/>
</linearGradient>
<linearGradient id="paint5_linear_934_60" x1="255.489" y1="121.939" x2="342.84" y2="70.1415" gradientUnits="userSpaceOnUse">
<stop stop-color="#8BDDD0"/>
<stop offset="1" stop-color="#536FE1"/>
</linearGradient>
<linearGradient id="paint6_linear_934_60" x1="255.489" y1="121.939" x2="342.84" y2="70.1415" gradientUnits="userSpaceOnUse">
<stop stop-color="#8BDDD0"/>
<stop offset="1" stop-color="#536FE1"/>
</linearGradient>
<linearGradient id="paint7_linear_934_60" x1="324.533" y1="268.558" x2="432.98" y2="268.558" gradientUnits="userSpaceOnUse">
<stop stop-color="#8BDDD0"/>
<stop offset="1" stop-color="#536FE1"/>
</linearGradient>
<linearGradient id="paint8_linear_934_60" x1="426" y1="120.439" x2="546.82" y2="120.439" gradientUnits="userSpaceOnUse">
<stop stop-color="#8BDDD0"/>
<stop offset="1" stop-color="#536FE1"/>
</linearGradient>
</defs>
</svg>
