<svg width="865" height="577" viewBox="0 0 865 577" fill="none" xmlns="http://www.w3.org/2000/svg">
<path d="M59.0512 128.604C72.5379 75.0475 126.887 42.5645 180.444 56.0513C234 69.5381 266.483 123.887 252.996 177.443C249.184 192.581 242.106 206.034 232.705 217.243L205.577 190.99C213.321 180.852 217.981 168.233 218.155 154.533L218.16 153.739C218.159 120.083 191.089 92.7489 157.534 92.3237L156.74 92.3188C123.084 92.3191 95.7499 119.39 95.3246 152.945L95.3197 153.739C95.3198 187.66 122.819 215.158 156.74 215.159L157.534 215.154C171.373 214.978 184.108 210.225 194.297 202.34L221.473 228.638C197.636 249.234 164.472 258.272 131.604 249.996C78.0476 236.509 45.5647 182.16 59.0512 128.604Z" fill="url(#paint0_linear_937_166)"/>
<path d="M156.74 108.319C181.824 108.319 202.159 128.654 202.16 153.739C202.159 178.823 181.824 199.159 156.74 199.159C131.655 199.158 111.32 178.823 111.32 153.739C111.32 128.654 131.655 108.319 156.74 108.319Z" fill="url(#paint1_linear_937_166)"/>
<path d="M156.74 108.319C181.824 108.319 202.159 128.654 202.16 153.739C202.159 178.823 181.824 199.159 156.74 199.159C131.655 199.158 111.32 178.823 111.32 153.739C111.32 128.654 131.655 108.319 156.74 108.319Z" fill="url(#paint2_linear_937_166)"/>
<path d="M428 53C483.228 53 528 97.7715 528 153C528 175.331 520.679 195.951 508.308 212.595L479.505 183.792C484.898 174.79 488 164.257 488 153C488 119.863 461.137 93 428 93C394.863 93 368 119.863 368 153C368 186.137 394.863 213 428 213C438.996 213 449.301 210.04 458.163 204.876L487.02 233.732C470.477 245.846 450.074 253 428 253C372.772 253 328 208.228 328 153C328 97.7715 372.772 53 428 53ZM428 123C444.569 123 458 136.431 458 153C458 169.569 444.569 183 428 183C411.431 183 398 169.569 398 153C398 136.431 411.431 123 428 123Z" fill="url(#paint3_linear_937_166)"/>
<mask id="mask0_937_166" style="mask-type:alpha" maskUnits="userSpaceOnUse" x="56" y="324" width="200" height="200">
<circle cx="156" cy="424" r="100" fill="url(#paint4_linear_937_166)"/>
</mask>
<g mask="url(#mask0_937_166)">
<path d="M156 324C211.228 324 256 368.771 256 424C256 442.6 250.921 460.013 242.076 474.93L227.947 460.95C233.646 449.874 236.864 437.313 236.864 424C236.864 379.34 200.66 343.136 156 343.136C111.34 343.136 75.1358 379.34 75.1358 424C75.1358 468.66 111.34 504.864 156 504.864C169.355 504.864 181.953 501.625 193.054 495.892L207.216 509.905C192.236 518.855 174.719 524 156 524C100.772 524 56 479.228 56 424C56 368.771 100.772 324 156 324ZM230.646 490.541C228.179 493.307 225.561 495.933 222.805 498.41L209.174 484.922C211.966 482.483 214.588 479.856 217.022 477.06L230.646 490.541Z" fill="url(#paint5_linear_937_166)"/>
<path d="M182.194 423.915C182.194 409.401 170.428 397.636 155.915 397.636C141.401 397.636 129.636 409.401 129.636 423.915C129.636 438.428 141.402 450.194 155.915 450.194V469.33L155.328 469.326C130.712 469.014 110.816 449.118 110.504 424.502L110.5 423.915C110.5 398.833 130.833 378.5 155.915 378.5L156.502 378.504C181.313 378.818 201.33 399.029 201.33 423.915L201.326 424.502C201.011 449.313 180.801 469.33 155.915 469.33V450.194C170.428 450.194 182.194 438.428 182.194 423.915Z" fill="url(#paint6_linear_937_166)"/>
<path d="M258.531 513L245 526.531L238.234 519.766L251.766 506.234L258.531 513ZM251.766 506.234L238.234 519.766L171.969 453.5L185.5 439.969L251.766 506.234Z" fill="url(#paint7_linear_937_166)"/>
</g>
<mask id="mask1_937_166" style="mask-type:alpha" maskUnits="userSpaceOnUse" x="328" y="324" width="200" height="200">
<circle cx="428" cy="424" r="100" fill="url(#paint8_linear_937_166)"/>
</mask>
<g mask="url(#mask1_937_166)">
<path d="M428 324C483.228 324 528 368.771 528 424C528 441.152 523.68 457.294 516.071 471.401L501.744 457.225C506.318 447.089 508.864 435.842 508.864 424C508.864 379.34 472.66 343.136 428 343.136C383.34 343.136 347.136 379.34 347.136 424C347.136 468.66 383.34 504.864 428 504.864C439.814 504.864 451.036 502.329 461.154 497.776L475.531 512.002C461.394 519.654 445.205 524 428 524C372.772 524 328 479.228 328 424C328 368.771 372.772 324 428 324Z" fill="url(#paint9_linear_937_166)"/>
<path d="M505.2 487.564C501.141 492.488 496.62 497.017 491.704 501.085L478.017 487.542C483.034 483.588 487.572 479.052 491.528 474.036L505.2 487.564Z" fill="url(#paint10_linear_937_166)"/>
<path d="M470.592 424C470.592 400.477 451.523 381.407 428 381.407C404.477 381.407 385.407 400.477 385.407 424C385.407 447.523 404.477 466.593 428 466.593V485.728C393.908 485.728 366.271 458.092 366.271 424C366.271 389.908 393.908 362.272 428 362.272C462.092 362.272 489.728 389.908 489.728 424C489.728 458.092 462.092 485.728 428 485.728V466.593C451.523 466.593 470.592 447.523 470.592 424Z" fill="url(#paint11_linear_937_166)"/>
<path d="M511.284 493.753L497.753 507.284L454.593 464.123L468.123 450.593L511.284 493.753Z" fill="url(#paint12_linear_937_166)"/>
</g>
<rect x="577.5" y="170.5" width="230" height="236" rx="23.5" fill="#F8F8F8" stroke="#8F8F8F"/>
<path d="M767.259 349.728L753.728 363.259L717.975 327.506L731.506 313.975L767.259 349.728Z" fill="url(#paint13_linear_937_166)"/>
<path d="M734.593 288C734.593 264.477 715.523 245.407 692 245.407C668.477 245.407 649.407 264.477 649.407 288C649.407 311.523 668.477 330.593 692 330.593V349.728C657.908 349.728 630.272 322.092 630.272 288C630.272 253.908 657.908 226.272 692 226.272C726.092 226.272 753.728 253.908 753.728 288C753.728 322.092 726.092 349.728 692 349.728V330.593C715.523 330.593 734.593 311.523 734.593 288Z" fill="url(#paint14_linear_937_166)"/>
<path d="M692 188C747.228 188 792 232.772 792 288C792 305.146 787.683 321.284 780.079 335.388L765.797 321.106C770.337 311.001 772.864 299.796 772.864 288C772.864 243.34 736.66 207.136 692 207.136C647.34 207.136 611.136 243.34 611.136 288C611.136 332.66 647.34 368.864 692 368.864C717.803 368.864 740.783 356.778 755.589 337.959L769.198 351.568C750.857 373.816 723.085 388 692 388C636.772 388 592 343.228 592 288C592 232.772 636.772 188 692 188Z" fill="url(#paint15_linear_937_166)"/>
<defs>
<linearGradient id="paint0_linear_937_166" x1="55.9998" y1="152.999" x2="256" y2="152.999" gradientUnits="userSpaceOnUse">
<stop stop-color="#8BDDD0"/>
<stop offset="1" stop-color="#536FE1"/>
</linearGradient>
<linearGradient id="paint1_linear_937_166" x1="55.9998" y1="152.999" x2="256" y2="152.999" gradientUnits="userSpaceOnUse">
<stop stop-color="#8BDDD0"/>
<stop offset="1" stop-color="#536FE1"/>
</linearGradient>
<linearGradient id="paint2_linear_937_166" x1="55.9998" y1="152.999" x2="256" y2="152.999" gradientUnits="userSpaceOnUse">
<stop stop-color="#8BDDD0"/>
<stop offset="1" stop-color="#536FE1"/>
</linearGradient>
<linearGradient id="paint3_linear_937_166" x1="328" y1="157.5" x2="528" y2="158" gradientUnits="userSpaceOnUse">
<stop stop-color="#8BDDD0"/>
<stop offset="1" stop-color="#536FE1"/>
</linearGradient>
<linearGradient id="paint4_linear_937_166" x1="56" y1="428.5" x2="256" y2="429" gradientUnits="userSpaceOnUse">
<stop stop-color="#8BDDD0"/>
<stop offset="1" stop-color="#536FE1"/>
</linearGradient>
<linearGradient id="paint5_linear_937_166" x1="56" y1="429.823" x2="258.531" y2="430.329" gradientUnits="userSpaceOnUse">
<stop stop-color="#8BDDD0"/>
<stop offset="1" stop-color="#536FE1"/>
</linearGradient>
<linearGradient id="paint6_linear_937_166" x1="56" y1="429.823" x2="258.531" y2="430.329" gradientUnits="userSpaceOnUse">
<stop stop-color="#8BDDD0"/>
<stop offset="1" stop-color="#536FE1"/>
</linearGradient>
<linearGradient id="paint7_linear_937_166" x1="56" y1="429.823" x2="258.531" y2="430.329" gradientUnits="userSpaceOnUse">
<stop stop-color="#8BDDD0"/>
<stop offset="1" stop-color="#536FE1"/>
</linearGradient>
<linearGradient id="paint8_linear_937_166" x1="328" y1="428.5" x2="528" y2="429" gradientUnits="userSpaceOnUse">
<stop stop-color="#8BDDD0"/>
<stop offset="1" stop-color="#536FE1"/>
</linearGradient>
<linearGradient id="paint9_linear_937_166" x1="328" y1="428.5" x2="528" y2="429" gradientUnits="userSpaceOnUse">
<stop stop-color="#8BDDD0"/>
<stop offset="1" stop-color="#536FE1"/>
</linearGradient>
<linearGradient id="paint10_linear_937_166" x1="328" y1="428.5" x2="528" y2="429" gradientUnits="userSpaceOnUse">
<stop stop-color="#8BDDD0"/>
<stop offset="1" stop-color="#536FE1"/>
</linearGradient>
<linearGradient id="paint11_linear_937_166" x1="366.271" y1="438.041" x2="511.284" y2="438.403" gradientUnits="userSpaceOnUse">
<stop stop-color="#8BDDD0"/>
<stop offset="1" stop-color="#536FE1"/>
</linearGradient>
<linearGradient id="paint12_linear_937_166" x1="366.271" y1="438.041" x2="511.284" y2="438.403" gradientUnits="userSpaceOnUse">
<stop stop-color="#8BDDD0"/>
<stop offset="1" stop-color="#536FE1"/>
</linearGradient>
<linearGradient id="paint13_linear_937_166" x1="594.788" y1="293.095" x2="792" y2="293.095" gradientUnits="userSpaceOnUse">
<stop stop-color="#8BDDD0"/>
<stop offset="1" stop-color="#536FE1"/>
</linearGradient>
<linearGradient id="paint14_linear_937_166" x1="594.788" y1="293.095" x2="792" y2="293.095" gradientUnits="userSpaceOnUse">
<stop stop-color="#8BDDD0"/>
<stop offset="1" stop-color="#536FE1"/>
</linearGradient>
<linearGradient id="paint15_linear_937_166" x1="594.788" y1="293.095" x2="792" y2="293.095" gradientUnits="userSpaceOnUse">
<stop stop-color="#8BDDD0"/>
<stop offset="1" stop-color="#536FE1"/>
</linearGradient>
</defs>
</svg>
