<svg width="999" height="438" viewBox="0 0 999 438" fill="none" xmlns="http://www.w3.org/2000/svg">
<rect width="999" height="219" fill="white"/>
<path d="M110.009 76.6884C112.09 76.7061 114.124 76.9156 116.096 77.3012V142.128C114.124 142.514 112.09 142.723 110.009 142.741V76.6884Z" fill="url(#paint0_linear_927_100)"/>
<path d="M107.37 142.66C105.793 142.549 104.246 142.327 102.737 142.002V77.4264C104.246 77.1016 105.793 76.8803 107.37 76.7693V142.66Z" fill="url(#paint1_linear_927_100)"/>
<path d="M118.735 77.931C119.316 78.0956 119.891 78.276 120.459 78.4712V140.958C119.891 141.153 119.316 141.333 118.735 141.498V77.931Z" fill="url(#paint2_linear_927_100)"/>
<path d="M100.098 141.318C98.7582 140.91 97.4543 140.42 96.1924 139.853V79.5757C97.4542 79.0084 98.7583 78.5184 100.098 78.1109V141.318Z" fill="url(#paint3_linear_927_100)"/>
<path d="M123.098 79.5076C125.259 80.466 127.298 81.6491 129.185 83.0279V136.401C127.298 137.78 125.259 138.963 123.098 139.921V79.5076Z" fill="url(#paint4_linear_927_100)"/>
<path d="M93.5535 138.521C92.7129 138.048 91.8953 137.54 91.1023 136.997V82.4321C91.8953 81.8898 92.7129 81.3809 93.5535 80.908V138.521Z" fill="url(#paint5_linear_927_100)"/>
<path d="M88.4634 134.992C86.4591 133.304 84.6582 131.384 83.1031 129.27V90.1591C84.6583 88.0458 86.459 86.1244 88.4634 84.437V134.992Z" fill="url(#paint6_linear_927_100)"/>
<path d="M131.824 85.172C133.541 86.7193 135.096 88.4441 136.457 90.3178V129.112C135.096 130.985 133.541 132.71 131.824 134.257V85.172Z" fill="url(#paint7_linear_927_100)"/>
<path d="M80.4642 125.053C78.0565 120.469 76.6935 115.251 76.6935 109.715C76.6935 104.178 78.0563 98.9595 80.4642 94.3761V125.053Z" fill="url(#paint8_linear_927_100)"/>
<path d="M139.096 94.6003C141.431 99.1294 142.75 104.268 142.75 109.715C142.75 115.161 141.431 120.3 139.096 124.829V94.6003Z" fill="url(#paint9_linear_927_100)"/>
<path d="M173.847 162.278L162.278 173.847L131.709 143.278L143.278 131.709L173.847 162.278Z" fill="url(#paint10_linear_927_100)"/>
<path d="M145.917 109.5C145.917 89.3876 129.613 73.0833 109.5 73.0833C89.3879 73.0833 73.0835 89.3876 73.0835 109.5C73.0835 129.612 89.3879 145.917 109.5 145.917V162.278C80.3519 162.278 56.7223 138.648 56.7223 109.5C56.7223 80.3516 80.3519 56.7222 109.5 56.7222C138.649 56.7222 162.278 80.3516 162.278 109.5C162.278 138.648 138.649 162.278 109.5 162.278V145.917C129.613 145.917 145.917 129.612 145.917 109.5Z" fill="url(#paint11_linear_927_100)"/>
<path d="M109.5 24C156.721 24 195.001 62.2797 195.001 109.5C195.001 124.16 191.31 137.958 184.808 150.017L172.597 137.806C176.479 129.166 178.639 119.585 178.639 109.5C178.639 71.3156 147.685 40.3611 109.5 40.3611C71.3158 40.3611 40.3612 71.3156 40.3612 109.5C40.3612 147.684 71.3158 178.639 109.5 178.639C131.562 178.639 151.21 168.305 163.869 152.215L175.505 163.851C159.823 182.873 136.078 195 109.5 195C62.2798 195 24 156.72 24 109.5C24 62.2797 62.2798 24 109.5 24Z" fill="url(#paint12_linear_927_100)"/>
<path d="M916.94 60.521V117.579C916.94 122.251 917.941 125.969 919.943 128.734C922.04 131.403 925.377 132.738 929.953 132.738C934.529 132.738 937.914 131.403 940.107 128.734C942.299 125.969 943.396 122.251 943.396 117.579V60.521H975V117.579C975 127.208 972.998 135.455 968.994 142.319C964.989 149.088 959.508 154.188 952.548 157.621C945.588 161.053 937.819 162.769 929.238 162.769C920.658 162.769 913.031 161.053 906.358 157.621C899.779 154.188 894.631 149.088 890.913 142.319C887.195 135.55 885.336 127.304 885.336 117.579V60.521H916.94Z" fill="#1D2639"/>
<path d="M839.162 161.768L809.703 117.865V161.768H777.956V60.521H809.703V103.136L838.733 60.521H874.627L839.734 108.999L876.915 161.768H839.162Z" fill="#1D2639"/>
<path d="M728.191 162.769C716.083 162.769 706.073 159.957 698.16 154.332C690.342 148.612 686.1 140.27 685.433 129.306H719.182C719.658 135.122 722.232 138.029 726.904 138.029C728.62 138.029 730.05 137.648 731.194 136.885C732.433 136.027 733.053 134.74 733.053 133.024C733.053 130.641 731.766 128.734 729.192 127.304C726.618 125.779 722.614 124.063 717.18 122.156C710.697 119.868 705.31 117.628 701.02 115.435C696.825 113.242 693.203 110.048 690.152 105.854C687.101 101.659 685.623 96.2724 685.719 89.6942C685.719 83.1161 687.387 77.5389 690.724 72.9628C694.156 68.2913 698.78 64.7639 704.595 62.3805C710.506 59.9971 717.132 58.8054 724.473 58.8054C736.867 58.8054 746.686 61.6655 753.932 67.3856C761.273 73.1058 765.134 81.1617 765.515 91.5533H731.337C731.242 88.6932 730.527 86.6435 729.192 85.4041C727.857 84.1647 726.237 83.5451 724.33 83.5451C722.995 83.5451 721.899 84.0217 721.041 84.9751C720.183 85.8331 719.754 87.0725 719.754 88.6932C719.754 90.9813 720.993 92.888 723.472 94.4133C726.046 95.8434 730.098 97.6071 735.627 99.7045C742.015 102.088 747.258 104.376 751.358 106.569C755.552 108.761 759.175 111.812 762.226 115.721C765.277 119.63 766.802 124.539 766.802 130.45C766.802 136.647 765.277 142.224 762.226 147.182C759.175 152.044 754.742 155.857 748.927 158.622C743.111 161.387 736.199 162.769 728.191 162.769Z" fill="#1D2639"/>
<path d="M670.75 55.9451V161.768H654.448V55.9451H670.75Z" fill="#1D2639"/>
<path d="M552.095 122.013C552.095 114.1 553.715 107.093 556.957 100.991C560.294 94.8898 564.774 90.1707 570.399 86.8339C576.119 83.4018 582.412 81.6858 589.276 81.6858C595.473 81.6858 600.859 82.9252 605.435 85.4039C610.107 87.7873 613.825 90.7904 616.59 94.4131V82.9728H633.035V161.768H616.59V150.042C613.825 153.76 610.059 156.858 605.292 159.337C600.525 161.816 595.091 163.055 588.99 163.055C582.221 163.055 576.024 161.339 570.399 157.907C564.774 154.379 560.294 149.517 556.957 143.32C553.715 137.028 552.095 129.926 552.095 122.013ZM616.59 122.299C616.59 116.865 615.446 112.146 613.157 108.141C610.965 104.137 608.057 101.087 604.434 98.9892C600.811 96.8919 596.903 95.8432 592.708 95.8432C588.513 95.8432 584.604 96.8919 580.981 98.9892C577.359 100.991 574.403 103.994 572.115 107.998C569.922 111.907 568.826 116.579 568.826 122.013C568.826 127.447 569.922 132.214 572.115 136.313C574.403 140.413 577.359 143.559 580.981 145.751C584.7 147.849 588.608 148.898 592.708 148.898C596.903 148.898 600.811 147.849 604.434 145.751C608.057 143.654 610.965 140.603 613.157 136.599C615.446 132.5 616.59 127.733 616.59 122.299Z" fill="#1D2639"/>
<path d="M476.912 94.6991C479.677 90.8856 483.443 87.7872 488.209 85.4038C493.072 82.9251 498.458 81.6857 504.369 81.6857C511.328 81.6857 517.621 83.3541 523.245 86.6909C528.87 90.0276 533.303 94.7944 536.545 100.991C539.786 107.093 541.407 114.1 541.407 122.013C541.407 129.926 539.786 137.028 536.545 143.32C533.303 149.517 528.823 154.379 523.102 157.907C517.478 161.339 511.233 163.055 504.369 163.055C498.267 163.055 492.833 161.863 488.066 159.48C483.395 157.096 479.677 154.046 476.912 150.328V161.768H460.61V55.9451H476.912V94.6991ZM524.819 122.013C524.819 116.579 523.675 111.907 521.386 107.998C519.194 103.994 516.238 100.991 512.52 98.9892C508.897 96.8918 504.989 95.8431 500.794 95.8431C496.694 95.8431 492.786 96.8918 489.067 98.9892C485.445 101.087 482.489 104.137 480.201 108.141C478.008 112.146 476.912 116.865 476.912 122.299C476.912 127.733 478.008 132.5 480.201 136.599C482.489 140.603 485.445 143.654 489.067 145.751C492.786 147.849 496.694 148.897 500.794 148.897C504.989 148.897 508.897 147.849 512.52 145.751C516.238 143.559 519.194 140.413 521.386 136.313C523.675 132.214 524.819 127.447 524.819 122.013Z" fill="#1D2639"/>
<path d="M403.594 163.055C396.158 163.055 389.437 161.387 383.431 158.05C377.425 154.618 372.706 149.851 369.273 143.749C365.841 137.553 364.125 130.402 364.125 122.299C364.125 114.291 365.889 107.188 369.416 100.991C372.944 94.7945 377.758 90.0277 383.86 86.6909C389.961 83.3542 396.778 81.6858 404.309 81.6858C411.841 81.6858 418.658 83.3542 424.759 86.6909C430.861 90.0277 435.675 94.7945 439.203 100.991C442.73 107.188 444.494 114.291 444.494 122.299C444.494 130.307 442.682 137.41 439.06 143.606C435.437 149.803 430.479 154.618 424.187 158.05C417.99 161.387 411.126 163.055 403.594 163.055ZM403.594 148.898C407.789 148.898 411.698 147.896 415.321 145.894C419.039 143.892 422.042 140.889 424.33 136.885C426.618 132.881 427.762 128.019 427.762 122.299C427.762 116.579 426.666 111.764 424.473 107.855C422.28 103.851 419.373 100.848 415.75 98.8462C412.127 96.8442 408.218 95.8432 404.023 95.8432C399.829 95.8432 395.92 96.8442 392.297 98.8462C388.77 100.848 385.957 103.851 383.86 107.855C381.762 111.764 380.714 116.579 380.714 122.299C380.714 130.784 382.859 137.362 387.149 142.033C391.534 146.609 397.016 148.898 403.594 148.898Z" fill="#1D2639"/>
<path d="M348.013 55.9451V161.768H331.71V55.9451H348.013Z" fill="#1D2639"/>
<path d="M293.036 90.9813C290.462 86.0238 286.887 82.3057 282.311 79.827C277.735 77.2529 272.444 75.9659 266.438 75.9659C259.859 75.9659 253.996 77.4436 248.848 80.399C243.7 83.3544 239.648 87.5492 236.693 92.9833C233.833 98.4175 232.403 104.71 232.403 111.86C232.403 119.01 233.833 125.35 236.693 130.879C239.648 136.313 243.7 140.508 248.848 143.464C253.996 146.419 259.859 147.897 266.438 147.897C275.304 147.897 282.502 145.418 288.031 140.461C293.561 135.503 296.945 128.782 298.185 120.297H260.86V107.284H315.631V120.011C314.582 127.733 311.818 134.836 307.337 141.319C302.951 147.801 297.184 152.997 290.033 156.906C282.978 160.719 275.113 162.626 266.438 162.626C257.095 162.626 248.562 160.481 240.84 156.191C233.118 151.806 226.968 145.752 222.392 138.03C217.911 130.307 215.671 121.584 215.671 111.86C215.671 102.136 217.911 93.4124 222.392 85.6902C226.968 77.968 233.118 71.9618 240.84 67.6717C248.657 63.2862 257.19 61.0935 266.438 61.0935C277.02 61.0935 286.411 63.7152 294.61 68.9587C302.904 74.1069 308.91 81.4477 312.628 90.9813H293.036Z" fill="#1D2639"/>
<rect width="999" height="219" transform="translate(0 219)" fill="black"/>
<path d="M110.009 295.688C112.09 295.706 114.124 295.916 116.096 296.301V361.128C114.124 361.514 112.09 361.723 110.009 361.741V295.688Z" fill="white"/>
<path d="M107.37 361.66C105.793 361.549 104.246 361.327 102.737 361.002V296.426C104.246 296.102 105.793 295.88 107.37 295.769V361.66Z" fill="white"/>
<path d="M118.735 296.931C119.316 297.096 119.891 297.276 120.459 297.471V359.958C119.891 360.153 119.316 360.333 118.735 360.498V296.931Z" fill="white"/>
<path d="M100.098 360.318C98.7582 359.91 97.4543 359.42 96.1924 358.853V298.576C97.4543 298.008 98.7583 297.518 100.098 297.111V360.318Z" fill="white"/>
<path d="M123.098 298.508C125.259 299.466 127.298 300.649 129.185 302.028V355.401C127.298 356.78 125.259 357.963 123.098 358.921V298.508Z" fill="white"/>
<path d="M93.5535 357.521C92.7129 357.048 91.8953 356.54 91.1023 355.997V301.432C91.8953 300.89 92.7129 300.381 93.5535 299.908V357.521Z" fill="white"/>
<path d="M88.4634 353.992C86.4591 352.304 84.6582 350.384 83.1031 348.27V309.159C84.6583 307.046 86.459 305.124 88.4634 303.437V353.992Z" fill="white"/>
<path d="M131.824 304.172C133.541 305.719 135.096 307.444 136.457 309.318V348.112C135.096 349.985 133.541 351.71 131.824 353.257V304.172Z" fill="white"/>
<path d="M80.4642 344.053C78.0565 339.469 76.6935 334.251 76.6935 328.715C76.6935 323.178 78.0563 317.96 80.4642 313.376V344.053Z" fill="white"/>
<path d="M139.096 313.6C141.431 318.129 142.75 323.268 142.75 328.715C142.75 334.161 141.431 339.3 139.096 343.829V313.6Z" fill="white"/>
<path d="M173.847 381.278L162.278 392.847L131.709 362.278L143.278 350.709L173.847 381.278Z" fill="white"/>
<path d="M145.917 328.5C145.917 308.388 129.613 292.083 109.5 292.083C89.3879 292.083 73.0835 308.388 73.0835 328.5C73.0835 348.612 89.3879 364.917 109.5 364.917V381.278C80.3519 381.278 56.7223 357.648 56.7223 328.5C56.7223 299.352 80.3519 275.722 109.5 275.722C138.649 275.722 162.278 299.352 162.278 328.5C162.278 357.648 138.649 381.278 109.5 381.278V364.917C129.613 364.917 145.917 348.612 145.917 328.5Z" fill="white"/>
<path d="M109.5 243C156.721 243 195.001 281.28 195.001 328.5C195.001 343.16 191.31 356.958 184.808 369.017L172.597 356.806C176.479 348.166 178.64 338.585 178.64 328.5C178.64 290.316 147.685 259.361 109.5 259.361C71.3158 259.361 40.3612 290.316 40.3612 328.5C40.3612 366.684 71.3158 397.639 109.5 397.639C131.562 397.639 151.21 387.305 163.869 371.215L175.505 382.851C159.823 401.873 136.078 414 109.5 414C62.2798 414 24 375.72 24 328.5C24 281.28 62.2798 243 109.5 243Z" fill="white"/>
<path d="M916.94 279.521V336.58C916.94 341.251 917.941 344.97 919.943 347.734C922.04 350.404 925.377 351.738 929.953 351.738C934.529 351.738 937.914 350.404 940.107 347.734C942.299 344.97 943.396 341.251 943.396 336.58V279.521H975V336.58C975 346.209 972.998 354.455 968.994 361.32C964.989 368.088 959.508 373.189 952.548 376.621C945.588 380.053 937.819 381.769 929.238 381.769C920.658 381.769 913.031 380.053 906.358 376.621C899.779 373.189 894.631 368.088 890.913 361.32C887.195 354.551 885.336 346.304 885.336 336.58V279.521H916.94Z" fill="white"/>
<path d="M839.162 380.768L809.703 336.866V380.768H777.956V279.521H809.703V322.137L838.733 279.521H874.627L839.734 328L876.915 380.768H839.162Z" fill="white"/>
<path d="M728.191 381.769C716.083 381.769 706.073 378.957 698.16 373.332C690.342 367.612 686.1 359.27 685.433 348.306H719.182C719.658 354.122 722.232 357.03 726.904 357.03C728.62 357.03 730.05 356.648 731.194 355.886C732.433 355.028 733.053 353.741 733.053 352.025C733.053 349.641 731.766 347.734 729.192 346.304C726.618 344.779 722.614 343.063 717.18 341.156C710.697 338.868 705.31 336.628 701.02 334.435C696.825 332.242 693.203 329.049 690.152 324.854C687.101 320.659 685.623 315.273 685.719 308.694C685.719 302.116 687.387 296.539 690.724 291.963C694.156 287.292 698.78 283.764 704.595 281.381C710.506 278.997 717.132 277.806 724.473 277.806C736.867 277.806 746.686 280.666 753.932 286.386C761.273 292.106 765.134 300.162 765.515 310.554H731.337C731.242 307.693 730.527 305.644 729.192 304.404C727.857 303.165 726.237 302.545 724.33 302.545C722.995 302.545 721.899 303.022 721.041 303.975C720.183 304.833 719.754 306.073 719.754 307.693C719.754 309.981 720.993 311.888 723.472 313.414C726.046 314.844 730.098 316.607 735.627 318.705C742.015 321.088 747.258 323.376 751.358 325.569C755.552 327.762 759.175 330.812 762.226 334.721C765.277 338.63 766.802 343.54 766.802 349.451C766.802 355.647 765.277 361.224 762.226 366.182C759.175 371.044 754.742 374.858 748.927 377.622C743.111 380.387 736.199 381.769 728.191 381.769Z" fill="white"/>
<path d="M670.75 274.945V380.768H654.448V274.945H670.75Z" fill="white"/>
<path d="M552.095 341.013C552.095 333.1 553.715 326.093 556.957 319.992C560.294 313.89 564.774 309.171 570.399 305.834C576.119 302.402 582.412 300.686 589.276 300.686C595.473 300.686 600.859 301.925 605.435 304.404C610.107 306.788 613.825 309.791 616.59 313.413V301.973H633.035V380.768H616.59V369.042C613.825 372.76 610.059 375.858 605.292 378.337C600.525 380.816 595.091 382.055 588.99 382.055C582.221 382.055 576.024 380.339 570.399 376.907C564.774 373.38 560.294 368.517 556.957 362.321C553.715 356.028 552.095 348.926 552.095 341.013ZM616.59 341.299C616.59 335.865 615.446 331.146 613.157 327.142C610.965 323.138 608.057 320.087 604.434 317.989C600.811 315.892 596.903 314.843 592.708 314.843C588.513 314.843 584.604 315.892 580.981 317.989C577.359 319.992 574.403 322.995 572.115 326.999C569.922 330.907 568.826 335.579 568.826 341.013C568.826 346.447 569.922 351.214 572.115 355.313C574.403 359.413 577.359 362.559 580.981 364.752C584.7 366.849 588.608 367.898 592.708 367.898C596.903 367.898 600.811 366.849 604.434 364.752C608.057 362.654 610.965 359.604 613.157 355.599C615.446 351.5 616.59 346.733 616.59 341.299Z" fill="white"/>
<path d="M476.912 313.699C479.677 309.886 483.443 306.787 488.209 304.404C493.072 301.925 498.458 300.686 504.369 300.686C511.328 300.686 517.621 302.354 523.245 305.691C528.87 309.028 533.303 313.795 536.545 319.991C539.786 326.093 541.407 333.1 541.407 341.013C541.407 348.926 539.786 356.028 536.545 362.321C533.303 368.517 528.823 373.38 523.102 376.907C517.478 380.339 511.233 382.055 504.369 382.055C498.267 382.055 492.833 380.863 488.066 378.48C483.395 376.097 479.677 373.046 476.912 369.328V380.768H460.61V274.945H476.912V313.699ZM524.819 341.013C524.819 335.579 523.675 330.907 521.386 326.999C519.194 322.995 516.238 319.991 512.52 317.989C508.897 315.892 504.989 314.843 500.794 314.843C496.694 314.843 492.786 315.892 489.067 317.989C485.445 320.087 482.489 323.138 480.201 327.142C478.008 331.146 476.912 335.865 476.912 341.299C476.912 346.733 478.008 351.5 480.201 355.599C482.489 359.604 485.445 362.654 489.067 364.752C492.786 366.849 496.694 367.898 500.794 367.898C504.989 367.898 508.897 366.849 512.52 364.752C516.238 362.559 519.194 359.413 521.386 355.313C523.675 351.214 524.819 346.447 524.819 341.013Z" fill="white"/>
<path d="M403.594 382.055C396.158 382.055 389.437 380.387 383.431 377.05C377.425 373.618 372.706 368.851 369.273 362.75C365.841 356.553 364.125 349.403 364.125 341.299C364.125 333.291 365.889 326.188 369.416 319.992C372.944 313.795 377.758 309.028 383.86 305.691C389.961 302.354 396.778 300.686 404.309 300.686C411.841 300.686 418.658 302.354 424.759 305.691C430.861 309.028 435.675 313.795 439.203 319.992C442.73 326.188 444.494 333.291 444.494 341.299C444.494 349.307 442.682 356.41 439.06 362.607C435.437 368.803 430.479 373.618 424.187 377.05C417.99 380.387 411.126 382.055 403.594 382.055ZM403.594 367.898C407.789 367.898 411.698 366.897 415.321 364.895C419.039 362.893 422.042 359.89 424.33 355.885C426.618 351.881 427.762 347.019 427.762 341.299C427.762 335.579 426.666 330.764 424.473 326.856C422.28 322.852 419.373 319.849 415.75 317.846C412.127 315.844 408.218 314.843 404.023 314.843C399.829 314.843 395.92 315.844 392.297 317.846C388.77 319.849 385.957 322.852 383.86 326.856C381.762 330.764 380.714 335.579 380.714 341.299C380.714 349.784 382.859 356.362 387.149 361.034C391.534 365.61 397.016 367.898 403.594 367.898Z" fill="white"/>
<path d="M348.013 274.945V380.768H331.71V274.945H348.013Z" fill="white"/>
<path d="M293.036 309.982C290.462 305.024 286.887 301.306 282.311 298.827C277.735 296.253 272.444 294.966 266.438 294.966C259.859 294.966 253.996 296.444 248.848 299.399C243.7 302.355 239.648 306.549 236.693 311.984C233.833 317.418 232.403 323.71 232.403 330.86C232.403 338.01 233.833 344.35 236.693 349.88C239.648 355.314 243.7 359.508 248.848 362.464C253.996 365.419 259.859 366.897 266.438 366.897C275.304 366.897 282.502 364.418 288.031 359.461C293.561 354.503 296.945 347.782 298.185 339.297H260.86V326.284H315.631V339.011C314.582 346.733 311.818 353.836 307.337 360.319C302.951 366.802 297.184 371.997 290.033 375.906C282.978 379.72 275.113 381.626 266.438 381.626C257.095 381.626 248.562 379.481 240.84 375.191C233.118 370.806 226.968 364.752 222.392 357.03C217.911 349.308 215.671 340.584 215.671 330.86C215.671 321.136 217.911 312.413 222.392 304.69C226.968 296.968 233.118 290.962 240.84 286.672C248.657 282.286 257.19 280.094 266.438 280.094C277.02 280.094 286.411 282.715 294.61 287.959C302.904 293.107 308.91 300.448 312.628 309.982H293.036Z" fill="white"/>
<defs>
<linearGradient id="paint0_linear_927_100" x1="26.3836" y1="113.856" x2="195.001" y2="113.856" gradientUnits="userSpaceOnUse">
<stop stop-color="#8BDDD0"/>
<stop offset="1" stop-color="#536FE1"/>
</linearGradient>
<linearGradient id="paint1_linear_927_100" x1="26.3836" y1="113.856" x2="195.001" y2="113.856" gradientUnits="userSpaceOnUse">
<stop stop-color="#8BDDD0"/>
<stop offset="1" stop-color="#536FE1"/>
</linearGradient>
<linearGradient id="paint2_linear_927_100" x1="26.3836" y1="113.856" x2="195.001" y2="113.856" gradientUnits="userSpaceOnUse">
<stop stop-color="#8BDDD0"/>
<stop offset="1" stop-color="#536FE1"/>
</linearGradient>
<linearGradient id="paint3_linear_927_100" x1="26.3836" y1="113.856" x2="195.001" y2="113.856" gradientUnits="userSpaceOnUse">
<stop stop-color="#8BDDD0"/>
<stop offset="1" stop-color="#536FE1"/>
</linearGradient>
<linearGradient id="paint4_linear_927_100" x1="26.3836" y1="113.856" x2="195.001" y2="113.856" gradientUnits="userSpaceOnUse">
<stop stop-color="#8BDDD0"/>
<stop offset="1" stop-color="#536FE1"/>
</linearGradient>
<linearGradient id="paint5_linear_927_100" x1="26.3836" y1="113.856" x2="195.001" y2="113.856" gradientUnits="userSpaceOnUse">
<stop stop-color="#8BDDD0"/>
<stop offset="1" stop-color="#536FE1"/>
</linearGradient>
<linearGradient id="paint6_linear_927_100" x1="26.3836" y1="113.856" x2="195.001" y2="113.856" gradientUnits="userSpaceOnUse">
<stop stop-color="#8BDDD0"/>
<stop offset="1" stop-color="#536FE1"/>
</linearGradient>
<linearGradient id="paint7_linear_927_100" x1="26.3836" y1="113.856" x2="195.001" y2="113.856" gradientUnits="userSpaceOnUse">
<stop stop-color="#8BDDD0"/>
<stop offset="1" stop-color="#536FE1"/>
</linearGradient>
<linearGradient id="paint8_linear_927_100" x1="26.3836" y1="113.856" x2="195.001" y2="113.856" gradientUnits="userSpaceOnUse">
<stop stop-color="#8BDDD0"/>
<stop offset="1" stop-color="#536FE1"/>
</linearGradient>
<linearGradient id="paint9_linear_927_100" x1="26.3836" y1="113.856" x2="195.001" y2="113.856" gradientUnits="userSpaceOnUse">
<stop stop-color="#8BDDD0"/>
<stop offset="1" stop-color="#536FE1"/>
</linearGradient>
<linearGradient id="paint10_linear_927_100" x1="26.3836" y1="113.856" x2="195.001" y2="113.856" gradientUnits="userSpaceOnUse">
<stop stop-color="#8BDDD0"/>
<stop offset="1" stop-color="#536FE1"/>
</linearGradient>
<linearGradient id="paint11_linear_927_100" x1="26.3836" y1="113.856" x2="195.001" y2="113.856" gradientUnits="userSpaceOnUse">
<stop stop-color="#8BDDD0"/>
<stop offset="1" stop-color="#536FE1"/>
</linearGradient>
<linearGradient id="paint12_linear_927_100" x1="26.3836" y1="113.856" x2="195.001" y2="113.856" gradientUnits="userSpaceOnUse">
<stop stop-color="#8BDDD0"/>
<stop offset="1" stop-color="#536FE1"/>
</linearGradient>
</defs>
</svg>
