<svg width="1177" height="1020" viewBox="0 0 1177 1020" fill="none" xmlns="http://www.w3.org/2000/svg">
<g clip-path="url(#clip0_934_59)">
<path d="M745 251.06V213.99C745 211.8 746.79 210 748.89 210C750.99 210 752.88 211.8 752.88 213.99V250.56C752.88 265.61 760.95 274.08 774.21 274.08C787.47 274.08 795.24 266.31 795.24 251.06V213.99C795.24 211.8 797.04 210 799.23 210C801.42 210 803.12 211.8 803.12 213.99V250.46C803.12 270.79 791.46 281.36 774.02 281.36C756.58 281.36 745.02 270.8 745.02 251.06H745Z" fill="#494345"/>
<path d="M811.1 232.12C811.1 229.93 812.79 228.23 814.89 228.23C816.99 228.23 818.78 229.92 818.78 232.12V239.1C822.97 232.92 829.05 227.64 838.51 227.64C850.87 227.64 863.13 237.41 863.13 254.35V254.55C863.13 271.39 850.97 281.36 838.51 281.36C828.94 281.36 822.76 276.18 818.78 270.4V292.82C818.78 295.01 817.18 296.71 814.99 296.71C812.8 296.71 811.1 295.02 811.1 292.82V232.13V232.12ZM855.25 254.64V254.44C855.25 242.28 846.88 234.51 837.11 234.51C827.34 234.51 818.47 242.58 818.47 254.34V254.54C818.47 266.5 827.54 274.47 837.11 274.47C846.68 274.47 855.25 267.1 855.25 254.64Z" fill="#494345"/>
<path d="M866.44 274.78C865.74 274.28 865.04 273.28 865.04 271.99C865.04 270.19 866.54 268.7 868.43 268.7C869.13 268.7 869.83 268.9 870.32 269.3C875.6 272.89 881.08 274.78 886.66 274.78C892.84 274.78 897.32 271.59 897.32 266.61V266.41C897.32 261.23 891.24 259.23 884.46 257.34C876.39 255.05 867.42 252.26 867.42 242.79V242.59C867.42 233.72 874.8 227.84 884.96 227.84C890.44 227.84 896.42 229.54 901.4 232.22C902.4 232.82 903.29 233.92 903.29 235.41C903.29 237.21 901.8 238.7 899.9 238.7C899.2 238.7 898.6 238.5 898.21 238.3C893.83 235.81 889.14 234.31 884.76 234.31C878.68 234.31 874.79 237.5 874.79 241.79V241.99C874.79 246.87 881.17 248.77 888.04 250.86C896.01 253.25 904.58 256.34 904.58 265.61V265.81C904.58 275.58 896.51 281.26 886.24 281.26C879.46 281.26 871.99 278.77 866.41 274.78H866.44Z" fill="#494345"/>
<path d="M915.8 266.6V235.51H911.61C909.82 235.51 908.22 233.92 908.22 232.12C908.22 230.23 909.82 228.73 911.61 228.73H915.8V216.57C915.8 214.48 917.39 212.68 919.59 212.68C921.79 212.68 923.48 214.47 923.48 216.57V228.73H936.83C938.72 228.73 940.32 230.32 940.32 232.12C940.32 234.01 938.72 235.51 936.83 235.51H923.48V265.61C923.48 271.89 926.97 274.18 932.15 274.18C934.84 274.18 936.24 273.48 936.83 273.48C938.62 273.48 940.12 274.97 940.12 276.77C940.12 278.17 939.22 279.26 937.93 279.76C935.74 280.66 933.35 281.16 930.36 281.16C922.09 281.16 915.81 277.07 915.81 266.61L915.8 266.6Z" fill="#494345"/>
<path d="M947.8 232.12C947.8 230.03 949.49 228.23 951.59 228.23C953.69 228.23 955.48 229.92 955.48 232.12V241.79C959.27 233.22 966.74 228.04 973.22 228.04C975.51 228.04 977.01 229.73 977.01 231.93C977.01 234.13 975.61 235.52 973.62 235.82C963.65 237.01 955.48 244.49 955.48 259.34V276.88C955.48 278.97 953.88 280.77 951.69 280.77C949.5 280.77 947.8 279.08 947.8 276.88V232.13V232.12Z" fill="#494345"/>
<path d="M1002.48 281.45C988.33 281.45 976.77 270.59 976.77 254.64V254.44C976.77 239.59 987.23 227.63 1001.49 227.63C1016.74 227.63 1025.41 240.09 1025.41 253.74C1025.41 255.83 1023.72 257.33 1021.82 257.33H984.55C985.64 268.49 993.52 274.77 1002.69 274.77C1009.07 274.77 1013.75 272.28 1017.54 268.79C1018.14 268.29 1018.84 267.89 1019.73 267.89C1021.62 267.89 1023.12 269.38 1023.12 271.18C1023.12 272.08 1022.72 272.98 1021.93 273.67C1017.05 278.36 1011.27 281.44 1002.49 281.44L1002.48 281.45ZM1017.73 251.66C1016.93 242.29 1011.55 234.12 1001.28 234.12C992.31 234.12 985.53 241.6 984.54 251.66H1017.73ZM988.23 218.97C986.43 218.97 985.04 217.48 985.04 215.78C985.04 214.08 986.43 212.59 988.23 212.59H1014.54C1016.34 212.59 1017.73 214.08 1017.73 215.78C1017.73 217.48 1016.33 218.97 1014.54 218.97H988.23Z" fill="#494345"/>
<path d="M1032.45 232.12C1032.45 230.03 1034.15 228.23 1036.24 228.23C1038.33 228.23 1040.13 229.92 1040.13 232.12V237.4C1043.52 232.32 1048.1 227.63 1056.77 227.63C1065.44 227.63 1070.52 232.11 1073.31 237.89C1077 232.21 1082.48 227.63 1091.45 227.63C1103.31 227.63 1110.58 235.6 1110.58 248.36V276.86C1110.58 279.05 1108.88 280.75 1106.79 280.75C1104.7 280.75 1102.9 279.06 1102.9 276.86V250.15C1102.9 240.18 1097.92 234.6 1089.55 234.6C1081.78 234.6 1075.4 240.38 1075.4 250.54V276.85C1075.4 279.04 1073.71 280.74 1071.51 280.74C1069.31 280.74 1067.72 279.05 1067.72 276.85V249.94C1067.72 240.27 1062.64 234.59 1054.46 234.59C1046.28 234.59 1040.11 241.37 1040.11 250.83V276.84C1040.11 279.03 1038.52 280.73 1036.32 280.73C1034.12 280.73 1032.43 279.04 1032.43 276.84V232.09L1032.45 232.12Z" fill="#494345"/>
<path d="M683.923 228.096C673.345 228.096 663.399 223.982 655.922 216.512L630.161 190.791C623.6 184.245 619.99 175.542 619.99 166.277C619.99 157.013 623.6 148.314 630.157 141.763C643.693 128.248 665.717 128.248 679.254 141.763L704.399 166.875L690.411 180.843L665.265 155.731C662.445 152.915 658.692 151.366 654.703 151.366C650.714 151.366 646.965 152.915 644.141 155.731C641.322 158.547 639.769 162.29 639.769 166.273C639.769 170.256 641.322 174.003 644.141 176.819L669.902 202.541C673.647 206.28 678.622 208.339 683.915 208.339C689.209 208.339 694.188 206.28 697.933 202.541L812.723 87.9316C819.137 81.5275 827.669 78 836.74 78C845.81 78 854.344 81.5275 860.757 87.9316C874 101.155 874 122.67 860.757 135.897L800.772 195.791L786.784 181.82L846.768 121.925C852.298 116.404 852.298 107.42 846.768 101.899C844.091 99.222 840.526 97.7491 836.74 97.7491C832.954 97.7491 829.389 99.222 826.712 101.895L711.929 216.517C704.448 223.982 694.505 228.1 683.923 228.1V228.096Z" fill="url(#paint0_linear_934_59)"/>
</g>
<path d="M591 582.06V544.99C591 542.8 592.79 541 594.89 541C596.99 541 598.88 542.8 598.88 544.99V581.56C598.88 596.61 606.95 605.08 620.21 605.08C633.47 605.08 641.24 597.31 641.24 582.06V544.99C641.24 542.8 643.04 541 645.23 541C647.42 541 649.12 542.8 649.12 544.99V581.46C649.12 601.79 637.46 612.36 620.02 612.36C602.58 612.36 591.02 601.8 591.02 582.06H591Z" fill="#494345"/>
<path d="M657.1 563.12C657.1 560.93 658.79 559.23 660.89 559.23C662.99 559.23 664.78 560.92 664.78 563.12V570.1C668.97 563.92 675.05 558.64 684.51 558.64C696.87 558.64 709.13 568.41 709.13 585.35V585.55C709.13 602.39 696.97 612.36 684.51 612.36C674.94 612.36 668.76 607.18 664.78 601.4V623.82C664.78 626.01 663.18 627.71 660.99 627.71C658.8 627.71 657.1 626.02 657.1 623.82V563.13V563.12ZM701.25 585.64V585.44C701.25 573.28 692.88 565.51 683.11 565.51C673.34 565.51 664.47 573.58 664.47 585.34V585.54C664.47 597.5 673.54 605.47 683.11 605.47C692.68 605.47 701.25 598.1 701.25 585.64Z" fill="#494345"/>
<path d="M712.44 605.78C711.74 605.28 711.04 604.28 711.04 602.99C711.04 601.19 712.54 599.7 714.43 599.7C715.13 599.7 715.83 599.9 716.32 600.3C721.6 603.89 727.08 605.78 732.66 605.78C738.84 605.78 743.32 602.59 743.32 597.61V597.41C743.32 592.23 737.24 590.23 730.46 588.34C722.39 586.05 713.42 583.26 713.42 573.79V573.59C713.42 564.72 720.8 558.84 730.96 558.84C736.44 558.84 742.42 560.54 747.4 563.22C748.4 563.82 749.29 564.92 749.29 566.41C749.29 568.21 747.8 569.7 745.9 569.7C745.2 569.7 744.6 569.5 744.21 569.3C739.83 566.81 735.14 565.31 730.76 565.31C724.68 565.31 720.79 568.5 720.79 572.79V572.99C720.79 577.87 727.17 579.77 734.04 581.86C742.01 584.25 750.58 587.34 750.58 596.61V596.81C750.58 606.58 742.51 612.26 732.24 612.26C725.46 612.26 717.99 609.77 712.41 605.78H712.44Z" fill="#494345"/>
<path d="M761.8 597.6V566.51H757.61C755.82 566.51 754.22 564.92 754.22 563.12C754.22 561.23 755.82 559.73 757.61 559.73H761.8V547.57C761.8 545.48 763.39 543.68 765.59 543.68C767.79 543.68 769.48 545.47 769.48 547.57V559.73H782.83C784.72 559.73 786.32 561.32 786.32 563.12C786.32 565.01 784.72 566.51 782.83 566.51H769.48V596.61C769.48 602.89 772.97 605.18 778.15 605.18C780.84 605.18 782.24 604.48 782.83 604.48C784.62 604.48 786.12 605.97 786.12 607.77C786.12 609.17 785.22 610.26 783.93 610.76C781.74 611.66 779.35 612.16 776.36 612.16C768.09 612.16 761.81 608.07 761.81 597.61L761.8 597.6Z" fill="#494345"/>
<path d="M793.8 563.12C793.8 561.03 795.49 559.23 797.59 559.23C799.69 559.23 801.48 560.92 801.48 563.12V572.79C805.27 564.22 812.74 559.04 819.22 559.04C821.51 559.04 823.01 560.73 823.01 562.93C823.01 565.13 821.61 566.52 819.62 566.82C809.65 568.01 801.48 575.49 801.48 590.34V607.88C801.48 609.97 799.88 611.77 797.69 611.77C795.5 611.77 793.8 610.08 793.8 607.88V563.13V563.12Z" fill="#494345"/>
<path d="M848.48 612.45C834.33 612.45 822.77 601.59 822.77 585.64V585.44C822.77 570.59 833.23 558.63 847.49 558.63C862.74 558.63 871.41 571.09 871.41 584.74C871.41 586.83 869.72 588.33 867.82 588.33H830.55C831.64 599.49 839.52 605.77 848.69 605.77C855.07 605.77 859.75 603.28 863.54 599.79C864.14 599.29 864.84 598.89 865.73 598.89C867.62 598.89 869.12 600.38 869.12 602.18C869.12 603.08 868.72 603.98 867.93 604.67C863.05 609.36 857.27 612.44 848.49 612.44L848.48 612.45ZM863.73 582.66C862.93 573.29 857.55 565.12 847.28 565.12C838.31 565.12 831.53 572.6 830.54 582.66H863.73ZM834.23 549.97C832.43 549.97 831.04 548.48 831.04 546.78C831.04 545.08 832.43 543.59 834.23 543.59H860.54C862.34 543.59 863.73 545.08 863.73 546.78C863.73 548.48 862.33 549.97 860.54 549.97H834.23Z" fill="#494345"/>
<path d="M878.45 563.12C878.45 561.03 880.15 559.23 882.24 559.23C884.33 559.23 886.13 560.92 886.13 563.12V568.4C889.52 563.32 894.1 558.63 902.77 558.63C911.44 558.63 916.52 563.11 919.31 568.89C923 563.21 928.48 558.63 937.45 558.63C949.31 558.63 956.58 566.6 956.58 579.36V607.86C956.58 610.05 954.88 611.75 952.79 611.75C950.7 611.75 948.9 610.06 948.9 607.86V581.15C948.9 571.18 943.92 565.6 935.55 565.6C927.78 565.6 921.4 571.38 921.4 581.54V607.85C921.4 610.04 919.71 611.74 917.51 611.74C915.31 611.74 913.72 610.05 913.72 607.85V580.94C913.72 571.27 908.64 565.59 900.46 565.59C892.28 565.59 886.11 572.37 886.11 581.83V607.84C886.11 610.03 884.52 611.73 882.32 611.73C880.12 611.73 878.43 610.04 878.43 607.84V563.09L878.45 563.12Z" fill="#494345"/>
<path d="M219.578 612.321C219.066 611.88 218.641 611.253 218.301 610.437L198.994 563.197L198.789 562.279C198.789 561.668 199.01 561.142 199.452 560.701C199.894 560.261 200.454 560.042 201.137 560.042H212.681C214.178 560.042 215.168 560.754 215.643 562.177L227.186 593.433L238.832 562.177C239.306 560.751 240.296 560.042 241.793 560.042H253.337C253.951 560.042 254.495 560.261 254.973 560.701C255.447 561.146 255.689 561.668 255.689 562.279L255.484 563.197L236.177 610.437C235.833 611.253 235.392 611.88 234.848 612.321C234.303 612.761 233.555 612.981 232.602 612.981H221.774C220.821 612.981 220.089 612.761 219.578 612.321Z" fill="#1D2639"/>
<path d="M262.586 607.383C257.886 602.973 255.435 596.555 255.231 588.141V584.578C255.5 576.572 258.004 570.31 262.741 565.793C267.474 561.28 273.826 559.022 281.795 559.022C287.582 559.022 292.471 560.192 296.456 562.536C300.438 564.875 303.437 568.084 305.447 572.156C307.455 576.229 308.461 580.913 308.461 586.209V588.651C308.461 589.332 308.22 589.923 307.746 590.433C307.267 590.942 306.654 591.195 305.904 591.195H273.212V591.908C273.348 595.1 274.133 597.677 275.561 599.646C276.992 601.615 279.066 602.597 281.795 602.597C283.496 602.597 284.891 602.243 285.983 601.529C287.071 600.816 288.061 599.951 288.945 598.933C289.559 598.186 290.05 597.73 290.426 597.559C290.798 597.392 291.395 597.306 292.213 597.306H304.882C305.495 597.306 306.023 597.494 306.464 597.864C306.907 598.239 307.128 598.729 307.128 599.34C307.128 601.105 306.122 603.143 304.112 605.451C302.104 607.758 299.192 609.76 295.379 611.456C291.563 613.152 287.067 614 281.893 614C273.72 614 267.285 611.794 262.586 607.383ZM290.475 581.113V580.91C290.475 577.582 289.71 574.953 288.176 573.017C286.642 571.08 284.515 570.114 281.791 570.114C279.066 570.114 277.042 571.08 275.508 573.017C273.974 574.949 273.209 577.582 273.209 580.91V581.113H290.475Z" fill="#1D2639"/>
<path d="M314.53 612.271C314.051 611.798 313.815 611.187 313.815 610.437V562.585C313.815 561.838 314.051 561.227 314.53 560.75C315.004 560.277 315.617 560.037 316.372 560.037H328.119C328.869 560.037 329.498 560.277 330.01 560.75C330.521 561.227 330.773 561.838 330.773 562.585V566.453C332.615 564.216 334.979 562.418 337.876 561.055C340.768 559.698 344.056 559.022 347.734 559.022C353.726 559.022 358.598 561.044 362.342 565.079C366.088 569.119 367.961 574.77 367.961 582.03V610.437C367.961 611.117 367.721 611.708 367.245 612.219C366.768 612.728 366.157 612.98 365.405 612.98H352.533C351.848 612.98 351.255 612.728 350.745 612.219C350.234 611.708 349.98 611.117 349.98 610.437V582.642C349.98 579.454 349.194 576.991 347.632 575.259C346.065 573.527 343.815 572.662 340.889 572.662C337.966 572.662 335.782 573.527 334.149 575.259C332.512 576.991 331.698 579.45 331.698 582.642V610.437C331.698 611.117 331.457 611.708 330.983 612.219C330.504 612.728 329.89 612.98 329.142 612.98H316.372C315.622 612.98 315.009 612.744 314.53 612.267V612.271Z" fill="#1D2639"/>
<path d="M379.567 607.738C375.852 603.564 373.829 597.677 373.489 590.074L373.385 586.511L373.489 582.846C373.758 575.516 375.788 569.711 379.567 565.434C383.347 561.158 388.536 559.022 395.147 559.022C401.344 559.022 406.35 561.023 410.163 565.027V543.236C410.163 542.491 410.401 541.879 410.88 541.402C411.354 540.929 411.968 540.689 412.72 540.689H425.184C425.932 540.689 426.548 540.929 427.024 541.402C427.501 541.879 427.741 542.486 427.741 543.236V610.437C427.741 611.117 427.501 611.708 427.024 612.219C426.548 612.728 425.936 612.98 425.184 612.98H413.64C412.958 612.98 412.365 612.728 411.853 612.219C411.341 611.708 411.088 611.117 411.088 610.437V607.18C407.341 611.729 402.028 614 395.151 614C388.276 614 383.285 611.913 379.572 607.738H379.567ZM407.612 597.457C409.108 595.524 409.96 593.029 410.163 589.972C410.229 589.091 410.267 587.799 410.267 586.103C410.267 584.407 410.229 583.217 410.163 582.336C410.024 579.552 409.175 577.245 407.612 575.414C406.044 573.579 403.762 572.666 400.769 572.666C397.565 572.666 395.266 573.616 393.871 575.516C392.477 577.415 391.674 580.033 391.471 583.355C391.4 584.036 391.367 585.088 391.367 586.511C391.367 587.933 391.4 588.989 391.471 589.666C391.674 592.992 392.473 595.606 393.871 597.505C395.266 599.405 397.565 600.355 400.769 600.355C403.97 600.355 406.115 599.389 407.612 597.453V597.457Z" fill="#1D2639"/>
<path d="M436.095 551.688C435.616 551.215 435.378 550.604 435.378 549.854V540.69C435.378 539.943 435.616 539.332 436.095 538.855C436.573 538.378 437.183 538.142 437.935 538.142H450.194C450.943 538.142 451.557 538.382 452.036 538.855C452.51 539.332 452.751 539.943 452.751 540.69V549.854C452.751 550.6 452.51 551.211 452.036 551.688C451.557 552.165 450.948 552.402 450.194 552.402H437.935C437.187 552.402 436.573 552.165 436.095 551.688ZM436.196 612.268C435.717 611.795 435.482 611.184 435.482 610.433V562.582C435.482 561.836 435.717 561.224 436.196 560.747C436.675 560.27 437.284 560.034 438.036 560.034H450.092C450.84 560.034 451.453 560.274 451.932 560.747C452.406 561.224 452.65 561.836 452.65 562.582V610.433C452.65 611.114 452.406 611.705 451.932 612.215C451.453 612.725 450.845 612.978 450.092 612.978H438.036C437.288 612.978 436.675 612.741 436.196 612.264V612.268Z" fill="#1D2639"/>
<path d="M464.7 607.738C460.985 603.564 458.959 597.677 458.622 590.074L458.518 586.511L458.622 582.846C458.891 575.516 460.918 569.711 464.7 565.434C468.48 561.158 473.669 559.022 480.279 559.022C486.477 559.022 491.483 561.023 495.296 565.027V543.236C495.296 542.491 495.534 541.879 496.013 541.402C496.487 540.929 497.101 540.689 497.853 540.689H510.317C511.065 540.689 511.678 540.929 512.157 541.402C512.631 541.879 512.874 542.486 512.874 543.236V610.437C512.874 611.117 512.631 611.708 512.157 612.219C511.678 612.728 511.069 612.98 510.317 612.98H498.773C498.091 612.98 497.498 612.728 496.986 612.219C496.474 611.708 496.22 611.117 496.22 610.437V607.18C492.474 611.729 487.161 614 480.283 614C473.409 614 468.416 611.913 464.7 607.738ZM492.743 597.457C494.241 595.524 495.093 593.029 495.296 589.972C495.362 589.091 495.4 587.799 495.4 586.103C495.4 584.407 495.362 583.217 495.296 582.336C495.157 579.552 494.308 577.245 492.743 575.414C491.177 573.579 488.895 572.666 485.901 572.666C482.698 572.666 480.399 573.616 479.004 575.516C477.61 577.415 476.806 580.033 476.604 583.355C476.533 584.036 476.5 585.088 476.5 586.511C476.5 587.933 476.533 588.989 476.604 589.666C476.806 592.992 477.606 595.606 479.004 597.505C480.399 599.405 482.698 600.355 485.901 600.355C489.102 600.355 491.247 599.389 492.743 597.453V597.457Z" fill="#1D2639"/>
<path d="M521.223 551.688C520.744 551.215 520.506 550.604 520.506 549.854V540.69C520.506 539.943 520.744 539.332 521.223 538.855C521.698 538.382 522.311 538.142 523.063 538.142H535.322C536.072 538.142 536.685 538.382 537.164 538.855C537.638 539.332 537.879 539.943 537.879 540.69V549.854C537.879 550.6 537.638 551.211 537.164 551.688C536.685 552.165 536.076 552.402 535.322 552.402H523.063C522.315 552.402 521.702 552.165 521.223 551.688ZM521.325 612.268C520.846 611.795 520.61 611.184 520.61 610.433V562.582C520.61 561.836 520.846 561.224 521.325 560.747C521.803 560.27 522.412 560.034 523.165 560.034H535.22C535.968 560.034 536.582 560.274 537.061 560.747C537.535 561.224 537.777 561.836 537.777 562.582V610.433C537.777 611.114 537.535 611.705 537.061 612.215C536.582 612.725 535.972 612.978 535.22 612.978H523.165C522.417 612.978 521.803 612.741 521.325 612.264V612.268Z" fill="#1D2639"/>
<path d="M551.881 592.924V573.376H543.913C543.163 573.376 542.534 573.14 542.022 572.663C541.511 572.19 541.259 571.578 541.259 570.828V562.581C541.259 561.835 541.511 561.223 542.022 560.747C542.534 560.273 543.163 560.033 543.913 560.033H551.881V543.233C551.881 542.487 552.134 541.875 552.646 541.399C553.158 540.926 553.751 540.685 554.433 540.685H566.284C567.032 540.685 567.647 540.926 568.124 541.399C568.6 541.875 568.841 542.483 568.841 543.233V560.033H581.611C582.359 560.033 582.99 560.273 583.502 560.747C584.012 561.223 584.266 561.835 584.266 562.581V570.828C584.266 571.575 584.012 572.186 583.502 572.663C582.99 573.14 582.359 573.376 581.611 573.376H568.841V591.501C568.841 596.523 570.78 599.035 574.666 599.035H582.531C583.279 599.035 583.895 599.275 584.371 599.749C584.846 600.225 585.089 600.833 585.089 601.583V610.441C585.089 611.122 584.846 611.713 584.371 612.223C583.895 612.733 583.284 612.985 582.531 612.985H573.028C558.93 612.985 551.881 606.3 551.881 592.928V592.924Z" fill="#1D2639"/>
<mask id="mask0_934_59" style="mask-type:alpha" maskUnits="userSpaceOnUse" x="71" y="422" width="252" height="151">
<path d="M135.18 572.394C124.562 572.394 114.577 568.271 107.07 560.787L81.21 535.014C74.6242 528.455 71 519.735 71 510.452C71 501.169 74.6242 492.453 81.2059 485.89C94.7948 472.347 116.904 472.347 130.493 485.89L155.736 511.051L141.693 525.046L116.45 499.885C113.62 497.064 109.852 495.511 105.847 495.511C101.843 495.511 98.0794 497.064 95.2447 499.885C92.4141 502.706 90.8555 506.457 90.8555 510.448C90.8555 514.439 92.4141 518.193 95.2447 521.014L121.105 546.787C124.864 550.534 129.859 552.597 135.172 552.597C140.486 552.597 145.485 550.534 149.244 546.787L264.479 431.951C270.918 425.535 279.483 422 288.589 422C297.694 422 306.261 425.535 312.699 431.951C325.993 445.2 325.993 466.758 312.699 480.011L252.482 540.024L238.439 526.025L298.656 466.012C304.207 460.48 304.207 451.479 298.656 445.947C295.968 443.264 292.39 441.788 288.589 441.788C284.788 441.788 281.209 443.264 278.522 445.942L163.295 560.791C155.785 568.271 145.804 572.397 135.18 572.397V572.394Z" fill="#888888"/>
</mask>
<g mask="url(#mask0_934_59)">
<rect x="71" y="422" width="251.413" height="150.098" fill="url(#paint1_linear_934_59)"/>
<rect width="251.413" height="150.098" transform="matrix(-1 0 0 1 573.827 422)" fill="url(#paint2_linear_934_59)"/>
</g>
<path d="M593 921.278V903.873C593 902.845 593.84 902 594.826 902C595.812 902 596.7 902.845 596.7 903.873V921.043C596.7 928.109 600.488 932.085 606.714 932.085C612.939 932.085 616.587 928.437 616.587 921.278V903.873C616.587 902.845 617.433 902 618.461 902C619.489 902 620.287 902.845 620.287 903.873V920.996C620.287 930.541 614.813 935.503 606.625 935.503C598.437 935.503 593.009 930.545 593.009 921.278H593Z" fill="#494345"/>
<path d="M624.034 912.385C624.034 911.357 624.827 910.559 625.813 910.559C626.799 910.559 627.639 911.352 627.639 912.385V915.662C629.607 912.761 632.461 910.282 636.903 910.282C642.706 910.282 648.462 914.869 648.462 922.822V922.916C648.462 930.822 642.752 935.503 636.903 935.503C632.41 935.503 629.508 933.071 627.639 930.358V940.884C627.639 941.912 626.888 942.71 625.86 942.71C624.832 942.71 624.034 941.916 624.034 940.884V912.39V912.385ZM644.762 922.958V922.864C644.762 917.155 640.832 913.507 636.245 913.507C631.658 913.507 627.494 917.296 627.494 922.817V922.911C627.494 928.526 631.752 932.268 636.245 932.268C640.738 932.268 644.762 928.808 644.762 922.958Z" fill="#494345"/>
<path d="M650.016 932.414C649.687 932.179 649.358 931.71 649.358 931.104C649.358 930.259 650.063 929.559 650.95 929.559C651.279 929.559 651.607 929.653 651.837 929.841C654.316 931.527 656.889 932.414 659.509 932.414C662.41 932.414 664.514 930.916 664.514 928.578V928.484C664.514 926.052 661.659 925.113 658.476 924.226C654.687 923.151 650.476 921.841 650.476 917.395V917.301C650.476 913.136 653.941 910.376 658.711 910.376C661.284 910.376 664.091 911.174 666.429 912.432C666.899 912.714 667.317 913.23 667.317 913.93C667.317 914.775 666.617 915.474 665.725 915.474C665.396 915.474 665.115 915.381 664.932 915.287C662.875 914.118 660.673 913.413 658.617 913.413C655.762 913.413 653.936 914.911 653.936 916.925V917.019C653.936 919.31 656.931 920.202 660.157 921.184C663.899 922.306 667.922 923.756 667.922 928.109V928.202C667.922 932.789 664.133 935.456 659.312 935.456C656.129 935.456 652.621 934.287 650.002 932.414H650.016Z" fill="#494345"/>
<path d="M673.19 928.574V913.977H671.223C670.383 913.977 669.631 913.23 669.631 912.385C669.631 911.498 670.383 910.794 671.223 910.794H673.19V905.085C673.19 904.103 673.937 903.258 674.97 903.258C676.002 903.258 676.796 904.099 676.796 905.085V910.794H683.064C683.951 910.794 684.702 911.54 684.702 912.385C684.702 913.273 683.951 913.977 683.064 913.977H676.796V928.109C676.796 931.057 678.434 932.132 680.866 932.132C682.129 932.132 682.787 931.804 683.064 931.804C683.904 931.804 684.608 932.503 684.608 933.348C684.608 934.006 684.186 934.517 683.58 934.752C682.552 935.175 681.43 935.409 680.026 935.409C676.143 935.409 673.195 933.489 673.195 928.578L673.19 928.574Z" fill="#494345"/>
<path d="M688.214 912.385C688.214 911.404 689.007 910.559 689.993 910.559C690.979 910.559 691.82 911.352 691.82 912.385V916.925C693.599 912.902 697.106 910.47 700.148 910.47C701.224 910.47 701.928 911.263 701.928 912.296C701.928 913.329 701.271 913.982 700.336 914.122C695.655 914.681 691.82 918.193 691.82 925.165V933.4C691.82 934.381 691.068 935.226 690.04 935.226C689.012 935.226 688.214 934.433 688.214 933.4V912.39V912.385Z" fill="#494345"/>
<path d="M713.886 935.545C707.242 935.545 701.815 930.447 701.815 922.958V922.864C701.815 915.892 706.726 910.277 713.421 910.277C720.581 910.277 724.651 916.127 724.651 922.536C724.651 923.517 723.858 924.221 722.966 924.221H705.468C705.979 929.461 709.679 932.409 713.984 932.409C716.98 932.409 719.177 931.24 720.956 929.602C721.238 929.367 721.567 929.179 721.984 929.179C722.872 929.179 723.576 929.879 723.576 930.724C723.576 931.146 723.388 931.569 723.017 931.893C720.726 934.095 718.013 935.541 713.89 935.541L713.886 935.545ZM721.045 921.559C720.67 917.16 718.144 913.324 713.322 913.324C709.111 913.324 705.928 916.836 705.463 921.559H721.045ZM707.195 906.211C706.35 906.211 705.698 905.512 705.698 904.714C705.698 903.915 706.35 903.216 707.195 903.216H719.548C720.393 903.216 721.045 903.915 721.045 904.714C721.045 905.512 720.388 906.211 719.548 906.211H707.195Z" fill="#494345"/>
<path d="M727.957 912.385C727.957 911.404 728.755 910.559 729.736 910.559C730.717 910.559 731.562 911.352 731.562 912.385V914.864C733.154 912.479 735.304 910.277 739.375 910.277C743.445 910.277 745.83 912.381 747.14 915.094C748.873 912.428 751.446 910.277 755.657 910.277C761.225 910.277 764.638 914.019 764.638 920.01V933.391C764.638 934.419 763.84 935.217 762.859 935.217C761.878 935.217 761.033 934.423 761.033 933.391V920.85C761.033 916.169 758.695 913.55 754.765 913.55C751.117 913.55 748.122 916.263 748.122 921.033V933.386C748.122 934.414 747.328 935.212 746.295 935.212C745.262 935.212 744.516 934.419 744.516 933.386V920.752C744.516 916.212 742.131 913.545 738.29 913.545C734.45 913.545 731.553 916.728 731.553 921.17V933.381C731.553 934.409 730.807 935.207 729.774 935.207C728.741 935.207 727.947 934.414 727.947 933.381V912.371L727.957 912.385Z" fill="#494345"/>
<path d="M221.578 933.321C221.066 932.88 220.641 932.253 220.301 931.437L200.994 884.197L200.789 883.279C200.789 882.668 201.01 882.142 201.452 881.701C201.894 881.261 202.454 881.042 203.137 881.042H214.681C216.178 881.042 217.168 881.754 217.643 883.177L229.186 914.433L240.832 883.177C241.306 881.751 242.296 881.042 243.793 881.042H255.337C255.951 881.042 256.495 881.261 256.973 881.701C257.447 882.146 257.689 882.668 257.689 883.279L257.484 884.197L238.177 931.437C237.833 932.253 237.392 932.88 236.848 933.321C236.303 933.761 235.555 933.981 234.602 933.981H223.774C222.821 933.981 222.089 933.761 221.578 933.321Z" fill="#1D2639"/>
<path d="M264.586 928.383C259.886 923.973 257.435 917.555 257.231 909.141V905.578C257.5 897.572 260.004 891.31 264.741 886.793C269.474 882.28 275.826 880.022 283.795 880.022C289.582 880.022 294.471 881.192 298.456 883.536C302.438 885.875 305.437 889.084 307.447 893.156C309.455 897.229 310.461 901.913 310.461 907.209V909.651C310.461 910.332 310.22 910.923 309.746 911.433C309.267 911.942 308.654 912.195 307.904 912.195H275.212V912.908C275.348 916.1 276.133 918.677 277.561 920.646C278.992 922.615 281.066 923.597 283.795 923.597C285.496 923.597 286.891 923.243 287.983 922.529C289.071 921.816 290.061 920.951 290.945 919.933C291.559 919.186 292.05 918.73 292.426 918.559C292.798 918.392 293.395 918.306 294.213 918.306H306.882C307.495 918.306 308.023 918.494 308.464 918.864C308.907 919.239 309.128 919.729 309.128 920.34C309.128 922.105 308.122 924.143 306.112 926.451C304.104 928.758 301.192 930.76 297.379 932.456C293.563 934.152 289.067 935 283.893 935C275.72 935 269.285 932.794 264.586 928.383ZM292.475 902.113V901.91C292.475 898.582 291.71 895.953 290.176 894.017C288.642 892.08 286.515 891.114 283.79 891.114C281.066 891.114 279.042 892.08 277.508 894.017C275.974 895.949 275.209 898.582 275.209 901.91V902.113H292.475Z" fill="#1D2639"/>
<path d="M316.53 933.271C316.051 932.798 315.815 932.187 315.815 931.437V883.585C315.815 882.838 316.051 882.227 316.53 881.75C317.004 881.277 317.617 881.037 318.372 881.037H330.119C330.869 881.037 331.498 881.277 332.01 881.75C332.521 882.227 332.773 882.838 332.773 883.585V887.453C334.615 885.216 336.979 883.418 339.876 882.055C342.768 880.698 346.056 880.022 349.734 880.022C355.726 880.022 360.598 882.044 364.342 886.079C368.088 890.119 369.961 895.77 369.961 903.03V931.437C369.961 932.117 369.721 932.708 369.245 933.219C368.768 933.728 368.157 933.98 367.405 933.98H354.533C353.848 933.98 353.255 933.728 352.745 933.219C352.234 932.708 351.98 932.117 351.98 931.437V903.642C351.98 900.454 351.194 897.991 349.632 896.259C348.065 894.527 345.815 893.662 342.889 893.662C339.966 893.662 337.782 894.527 336.149 896.259C334.512 897.991 333.698 900.45 333.698 903.642V931.437C333.698 932.117 333.457 932.708 332.983 933.219C332.504 933.728 331.89 933.98 331.142 933.98H318.372C317.622 933.98 317.009 933.744 316.53 933.267V933.271Z" fill="#1D2639"/>
<path d="M381.567 928.738C377.852 924.564 375.829 918.677 375.489 911.074L375.385 907.511L375.489 903.846C375.758 896.516 377.788 890.711 381.567 886.434C385.347 882.158 390.536 880.022 397.147 880.022C403.344 880.022 408.35 882.023 412.163 886.027V864.236C412.163 863.491 412.401 862.879 412.88 862.402C413.354 861.929 413.968 861.689 414.72 861.689H427.184C427.932 861.689 428.548 861.929 429.024 862.402C429.501 862.879 429.741 863.486 429.741 864.236V931.437C429.741 932.117 429.501 932.708 429.024 933.219C428.548 933.728 427.936 933.98 427.184 933.98H415.64C414.958 933.98 414.365 933.728 413.853 933.219C413.341 932.708 413.088 932.117 413.088 931.437V928.18C409.341 932.729 404.028 935 397.151 935C390.276 935 385.285 932.913 381.572 928.738H381.567ZM409.612 918.457C411.108 916.524 411.96 914.029 412.163 910.972C412.229 910.091 412.267 908.799 412.267 907.103C412.267 905.407 412.229 904.217 412.163 903.336C412.024 900.552 411.175 898.245 409.612 896.414C408.044 894.579 405.762 893.666 402.769 893.666C399.565 893.666 397.266 894.616 395.871 896.516C394.477 898.415 393.674 901.033 393.471 904.355C393.4 905.036 393.367 906.088 393.367 907.511C393.367 908.933 393.4 909.989 393.471 910.666C393.674 913.992 394.473 916.606 395.871 918.505C397.266 920.405 399.565 921.355 402.769 921.355C405.97 921.355 408.115 920.389 409.612 918.453V918.457Z" fill="#1D2639"/>
<path d="M438.095 872.688C437.616 872.215 437.378 871.604 437.378 870.854V861.69C437.378 860.943 437.616 860.332 438.095 859.855C438.573 859.378 439.183 859.142 439.935 859.142H452.194C452.943 859.142 453.557 859.382 454.036 859.855C454.51 860.332 454.751 860.943 454.751 861.69V870.854C454.751 871.6 454.51 872.211 454.036 872.688C453.557 873.165 452.948 873.402 452.194 873.402H439.935C439.187 873.402 438.573 873.165 438.095 872.688ZM438.196 933.268C437.717 932.795 437.482 932.184 437.482 931.433V883.582C437.482 882.836 437.717 882.224 438.196 881.747C438.675 881.27 439.284 881.034 440.036 881.034H452.092C452.84 881.034 453.453 881.274 453.932 881.747C454.406 882.224 454.65 882.836 454.65 883.582V931.433C454.65 932.114 454.406 932.705 453.932 933.215C453.453 933.725 452.845 933.978 452.092 933.978H440.036C439.288 933.978 438.675 933.741 438.196 933.264V933.268Z" fill="#1D2639"/>
<path d="M466.7 928.738C462.985 924.564 460.959 918.677 460.622 911.074L460.518 907.511L460.622 903.846C460.891 896.516 462.918 890.711 466.7 886.434C470.48 882.158 475.669 880.022 482.279 880.022C488.477 880.022 493.483 882.023 497.296 886.027V864.236C497.296 863.491 497.534 862.879 498.013 862.402C498.487 861.929 499.101 861.689 499.853 861.689H512.317C513.065 861.689 513.678 861.929 514.157 862.402C514.631 862.879 514.874 863.486 514.874 864.236V931.437C514.874 932.117 514.631 932.708 514.157 933.219C513.678 933.728 513.069 933.98 512.317 933.98H500.773C500.091 933.98 499.498 933.728 498.986 933.219C498.474 932.708 498.22 932.117 498.22 931.437V928.18C494.474 932.729 489.161 935 482.283 935C475.409 935 470.416 932.913 466.7 928.738ZM494.743 918.457C496.241 916.524 497.093 914.029 497.296 910.972C497.362 910.091 497.4 908.799 497.4 907.103C497.4 905.407 497.362 904.217 497.296 903.336C497.157 900.552 496.308 898.245 494.743 896.414C493.177 894.579 490.895 893.666 487.901 893.666C484.698 893.666 482.399 894.616 481.004 896.516C479.61 898.415 478.806 901.033 478.604 904.355C478.533 905.036 478.5 906.088 478.5 907.511C478.5 908.933 478.533 909.989 478.604 910.666C478.806 913.992 479.606 916.606 481.004 918.505C482.399 920.405 484.698 921.355 487.901 921.355C491.102 921.355 493.247 920.389 494.743 918.453V918.457Z" fill="#1D2639"/>
<path d="M523.223 872.688C522.744 872.215 522.506 871.604 522.506 870.854V861.69C522.506 860.943 522.744 860.332 523.223 859.855C523.698 859.382 524.311 859.142 525.063 859.142H537.322C538.072 859.142 538.685 859.382 539.164 859.855C539.638 860.332 539.879 860.943 539.879 861.69V870.854C539.879 871.6 539.638 872.211 539.164 872.688C538.685 873.165 538.076 873.402 537.322 873.402H525.063C524.315 873.402 523.702 873.165 523.223 872.688ZM523.325 933.268C522.846 932.795 522.61 932.184 522.61 931.433V883.582C522.61 882.836 522.846 882.224 523.325 881.747C523.803 881.27 524.412 881.034 525.165 881.034H537.22C537.968 881.034 538.582 881.274 539.061 881.747C539.535 882.224 539.777 882.836 539.777 883.582V931.433C539.777 932.114 539.535 932.705 539.061 933.215C538.582 933.725 537.972 933.978 537.22 933.978H525.165C524.417 933.978 523.803 933.741 523.325 933.264V933.268Z" fill="#1D2639"/>
<path d="M553.881 913.924V894.376H545.913C545.163 894.376 544.534 894.14 544.022 893.663C543.511 893.19 543.259 892.578 543.259 891.828V883.581C543.259 882.835 543.511 882.223 544.022 881.747C544.534 881.273 545.163 881.033 545.913 881.033H553.881V864.233C553.881 863.487 554.134 862.875 554.646 862.399C555.158 861.926 555.751 861.685 556.433 861.685H568.284C569.032 861.685 569.647 861.926 570.124 862.399C570.6 862.875 570.841 863.483 570.841 864.233V881.033H583.611C584.359 881.033 584.99 881.273 585.502 881.747C586.012 882.223 586.266 882.835 586.266 883.581V891.828C586.266 892.575 586.012 893.186 585.502 893.663C584.99 894.14 584.359 894.376 583.611 894.376H570.841V912.501C570.841 917.523 572.78 920.035 576.666 920.035H584.531C585.279 920.035 585.895 920.275 586.371 920.749C586.846 921.225 587.089 921.833 587.089 922.583V931.441C587.089 932.122 586.846 932.713 586.371 933.223C585.895 933.733 585.284 933.985 584.531 933.985H575.028C560.93 933.985 553.881 927.3 553.881 913.928V913.924Z" fill="#1D2639"/>
<mask id="mask1_934_59" style="mask-type:alpha" maskUnits="userSpaceOnUse" x="73" y="743" width="252" height="151">
<path d="M137.18 893.394C126.562 893.394 116.577 889.271 109.07 881.787L83.21 856.014C76.6242 849.455 73 840.735 73 831.452C73 822.169 76.6242 813.453 83.2059 806.89C96.7948 793.347 118.904 793.347 132.493 806.89L157.736 832.051L143.693 846.046L118.45 820.885C115.62 818.064 111.852 816.511 107.847 816.511C103.843 816.511 100.079 818.064 97.2447 820.885C94.4141 823.706 92.8555 827.457 92.8555 831.448C92.8555 835.439 94.4141 839.193 97.2447 842.014L123.105 867.787C126.864 871.534 131.859 873.597 137.172 873.597C142.486 873.597 147.485 871.534 151.244 867.787L266.479 752.951C272.918 746.535 281.483 743 290.589 743C299.694 743 308.261 746.535 314.699 752.951C327.993 766.2 327.993 787.758 314.699 801.011L254.482 861.024L240.439 847.025L300.656 787.012C306.207 781.48 306.207 772.479 300.656 766.947C297.968 764.264 294.39 762.788 290.589 762.788C286.788 762.788 283.209 764.264 280.522 766.942L165.295 881.791C157.785 889.271 147.804 893.397 137.18 893.397V893.394Z" fill="#888888"/>
</mask>
<g mask="url(#mask1_934_59)">
<rect x="73" y="743" width="251.413" height="150.098" fill="url(#paint3_linear_934_59)"/>
<rect width="251.413" height="150.098" transform="matrix(-1 0 0 1 575.827 743)" fill="url(#paint4_linear_934_59)"/>
</g>
<path d="M406 308.543V290.899C406 289.857 406.852 289 407.851 289C408.851 289 409.751 289.857 409.751 290.899V308.305C409.751 315.468 413.592 319.499 419.903 319.499C426.214 319.499 429.912 315.801 429.912 308.543V290.899C429.912 289.857 430.769 289 431.811 289C432.853 289 433.663 289.857 433.663 290.899V308.257C433.663 317.933 428.113 322.964 419.812 322.964C411.512 322.964 406.01 317.938 406.01 308.543H406Z" fill="#494345"/>
<path d="M437.461 299.528C437.461 298.486 438.265 297.677 439.265 297.677C440.264 297.677 441.116 298.481 441.116 299.528V302.85C443.11 299.909 446.004 297.396 450.507 297.396C456.389 297.396 462.225 302.046 462.225 310.109V310.204C462.225 318.219 456.437 322.964 450.507 322.964C445.952 322.964 443.01 320.499 441.116 317.748V328.419C441.116 329.461 440.355 330.27 439.312 330.27C438.27 330.27 437.461 329.466 437.461 328.419V299.533V299.528ZM458.474 310.247V310.151C458.474 304.364 454.49 300.666 449.84 300.666C445.19 300.666 440.968 304.507 440.968 310.104V310.199C440.968 315.892 445.285 319.685 449.84 319.685C454.395 319.685 458.474 316.177 458.474 310.247Z" fill="#494345"/>
<path d="M463.8 319.832C463.467 319.594 463.134 319.119 463.134 318.505C463.134 317.648 463.848 316.939 464.747 316.939C465.08 316.939 465.414 317.034 465.647 317.224C468.16 318.933 470.768 319.832 473.424 319.832C476.365 319.832 478.498 318.314 478.498 315.944V315.849C478.498 313.383 475.604 312.431 472.377 311.532C468.536 310.442 464.267 309.114 464.267 304.607V304.511C464.267 300.29 467.779 297.491 472.615 297.491C475.223 297.491 478.069 298.3 480.44 299.576C480.915 299.861 481.339 300.385 481.339 301.094C481.339 301.951 480.63 302.66 479.726 302.66C479.392 302.66 479.107 302.565 478.921 302.47C476.837 301.284 474.604 300.571 472.52 300.571C469.626 300.571 467.774 302.089 467.774 304.131V304.226C467.774 306.549 470.811 307.453 474.081 308.448C477.874 309.585 481.953 311.056 481.953 315.468V315.563C481.953 320.213 478.112 322.917 473.224 322.917C469.997 322.917 466.442 321.732 463.786 319.832H463.8Z" fill="#494345"/>
<path d="M487.293 315.939V301.142H485.299C484.447 301.142 483.686 300.385 483.686 299.528C483.686 298.629 484.447 297.915 485.299 297.915H487.293V292.127C487.293 291.132 488.05 290.276 489.097 290.276C490.144 290.276 490.949 291.128 490.949 292.127V297.915H497.303C498.202 297.915 498.964 298.671 498.964 299.528C498.964 300.428 498.202 301.142 497.303 301.142H490.949V315.468C490.949 318.457 492.61 319.547 495.075 319.547C496.355 319.547 497.022 319.214 497.303 319.214C498.155 319.214 498.869 319.923 498.869 320.78C498.869 321.446 498.44 321.965 497.826 322.203C496.784 322.631 495.646 322.869 494.223 322.869C490.287 322.869 487.298 320.922 487.298 315.944L487.293 315.939Z" fill="#494345"/>
<path d="M502.524 299.528C502.524 298.533 503.328 297.677 504.328 297.677C505.327 297.677 506.179 298.481 506.179 299.528V304.131C507.983 300.052 511.539 297.586 514.623 297.586C515.713 297.586 516.427 298.391 516.427 299.438C516.427 300.485 515.76 301.146 514.813 301.289C510.068 301.856 506.179 305.416 506.179 312.484V320.832C506.179 321.827 505.418 322.683 504.375 322.683C503.333 322.683 502.524 321.879 502.524 320.832V299.533V299.528Z" fill="#494345"/>
<path d="M528.549 323.007C521.814 323.007 516.312 317.838 516.312 310.247V310.152C516.312 303.084 521.291 297.391 528.078 297.391C535.336 297.391 539.463 303.322 539.463 309.818C539.463 310.813 538.658 311.527 537.754 311.527H520.015C520.534 316.839 524.285 319.828 528.649 319.828C531.686 319.828 533.913 318.643 535.717 316.982C536.003 316.744 536.336 316.553 536.759 316.553C537.659 316.553 538.373 317.262 538.373 318.119C538.373 318.547 538.182 318.976 537.806 319.304C535.484 321.536 532.733 323.002 528.554 323.002L528.549 323.007ZM535.807 308.828C535.427 304.369 532.866 300.48 527.978 300.48C523.709 300.48 520.482 304.04 520.01 308.828H535.807ZM521.767 293.269C520.91 293.269 520.248 292.56 520.248 291.751C520.248 290.942 520.91 290.233 521.767 290.233H534.289C535.146 290.233 535.807 290.942 535.807 291.751C535.807 292.56 535.141 293.269 534.289 293.269H521.767Z" fill="#494345"/>
<path d="M542.813 299.528C542.813 298.533 543.623 297.677 544.617 297.677C545.612 297.677 546.469 298.481 546.469 299.528V302.041C548.082 299.623 550.262 297.391 554.389 297.391C558.515 297.391 560.933 299.523 562.261 302.274C564.017 299.571 566.626 297.391 570.895 297.391C576.54 297.391 580 301.184 580 307.258V320.822C580 321.865 579.191 322.674 578.196 322.674C577.201 322.674 576.345 321.87 576.345 320.822V308.11C576.345 303.364 573.974 300.709 569.991 300.709C566.292 300.709 563.256 303.46 563.256 308.295V320.818C563.256 321.86 562.451 322.669 561.404 322.669C560.357 322.669 559.6 321.865 559.6 320.818V308.01C559.6 303.407 557.183 300.704 553.289 300.704C549.396 300.704 546.459 303.931 546.459 308.433V320.813C546.459 321.855 545.703 322.664 544.655 322.664C543.608 322.664 542.804 321.86 542.804 320.813V299.514L542.813 299.528Z" fill="#494345"/>
<path d="M214.578 281.321C214.066 280.88 213.641 280.253 213.301 279.437L193.994 232.197L193.789 231.279C193.789 230.668 194.01 230.142 194.452 229.701C194.894 229.261 195.454 229.042 196.137 229.042H207.681C209.178 229.042 210.168 229.754 210.643 231.177L222.186 262.433L233.832 231.177C234.306 229.751 235.296 229.042 236.793 229.042H248.337C248.951 229.042 249.495 229.261 249.973 229.701C250.447 230.146 250.689 230.668 250.689 231.279L250.484 232.197L231.177 279.437C230.833 280.253 230.392 280.88 229.848 281.321C229.303 281.761 228.555 281.981 227.602 281.981H216.774C215.821 281.981 215.089 281.761 214.578 281.321Z" fill="#1D2639"/>
<path d="M257.586 276.383C252.886 271.973 250.435 265.555 250.231 257.141V253.578C250.5 245.572 253.004 239.31 257.741 234.793C262.474 230.28 268.826 228.022 276.795 228.022C282.582 228.022 287.471 229.192 291.456 231.536C295.438 233.875 298.437 237.084 300.447 241.156C302.455 245.229 303.461 249.913 303.461 255.209V257.651C303.461 258.332 303.22 258.923 302.746 259.433C302.267 259.942 301.654 260.195 300.904 260.195H268.212V260.908C268.348 264.1 269.133 266.677 270.561 268.646C271.992 270.615 274.066 271.597 276.795 271.597C278.496 271.597 279.891 271.243 280.983 270.529C282.071 269.816 283.061 268.951 283.945 267.933C284.559 267.186 285.05 266.73 285.426 266.559C285.798 266.392 286.395 266.306 287.213 266.306H299.882C300.495 266.306 301.023 266.494 301.464 266.864C301.907 267.239 302.128 267.729 302.128 268.34C302.128 270.105 301.122 272.143 299.112 274.451C297.104 276.758 294.192 278.76 290.379 280.456C286.563 282.152 282.067 283 276.893 283C268.72 283 262.285 280.794 257.586 276.383ZM285.475 250.113V249.91C285.475 246.582 284.71 243.953 283.176 242.017C281.642 240.08 279.515 239.114 276.79 239.114C274.066 239.114 272.042 240.08 270.508 242.017C268.974 243.949 268.209 246.582 268.209 249.91V250.113H285.475Z" fill="#1D2639"/>
<path d="M309.53 281.271C309.051 280.798 308.815 280.187 308.815 279.437V231.585C308.815 230.838 309.051 230.227 309.53 229.75C310.004 229.277 310.617 229.037 311.372 229.037H323.119C323.869 229.037 324.498 229.277 325.01 229.75C325.521 230.227 325.773 230.838 325.773 231.585V235.453C327.615 233.216 329.979 231.418 332.876 230.055C335.768 228.698 339.056 228.022 342.734 228.022C348.726 228.022 353.598 230.044 357.342 234.079C361.088 238.119 362.961 243.77 362.961 251.03V279.437C362.961 280.117 362.721 280.708 362.245 281.219C361.768 281.728 361.157 281.98 360.405 281.98H347.533C346.848 281.98 346.255 281.728 345.745 281.219C345.234 280.708 344.98 280.117 344.98 279.437V251.642C344.98 248.454 344.194 245.991 342.632 244.259C341.065 242.527 338.815 241.662 335.889 241.662C332.966 241.662 330.782 242.527 329.149 244.259C327.512 245.991 326.698 248.45 326.698 251.642V279.437C326.698 280.117 326.457 280.708 325.983 281.219C325.504 281.728 324.89 281.98 324.142 281.98H311.372C310.622 281.98 310.009 281.744 309.53 281.267V281.271Z" fill="#1D2639"/>
<path d="M374.567 276.738C370.852 272.564 368.829 266.677 368.489 259.074L368.385 255.511L368.489 251.846C368.758 244.516 370.788 238.711 374.567 234.434C378.347 230.158 383.536 228.022 390.147 228.022C396.344 228.022 401.35 230.024 405.163 234.027V212.236C405.163 211.491 405.401 210.879 405.88 210.402C406.354 209.929 406.968 209.689 407.72 209.689H420.184C420.932 209.689 421.548 209.929 422.024 210.402C422.501 210.879 422.741 211.486 422.741 212.236V279.437C422.741 280.117 422.501 280.708 422.024 281.219C421.548 281.728 420.936 281.98 420.184 281.98H408.64C407.958 281.98 407.365 281.728 406.853 281.219C406.341 280.708 406.088 280.117 406.088 279.437V276.18C402.341 280.729 397.028 283 390.151 283C383.276 283 378.285 280.913 374.572 276.738H374.567ZM402.612 266.457C404.108 264.524 404.96 262.029 405.163 258.972C405.229 258.091 405.267 256.799 405.267 255.103C405.267 253.407 405.229 252.217 405.163 251.336C405.024 248.552 404.175 246.245 402.612 244.414C401.044 242.579 398.762 241.666 395.769 241.666C392.565 241.666 390.266 242.616 388.871 244.516C387.477 246.415 386.674 249.033 386.471 252.356C386.4 253.036 386.367 254.088 386.367 255.511C386.367 256.934 386.4 257.989 386.471 258.666C386.674 261.992 387.473 264.606 388.871 266.505C390.266 268.405 392.565 269.355 395.769 269.355C398.97 269.355 401.115 268.389 402.612 266.453V266.457Z" fill="#1D2639"/>
<path d="M431.095 220.688C430.616 220.215 430.378 219.604 430.378 218.854V209.69C430.378 208.943 430.616 208.332 431.095 207.855C431.573 207.378 432.183 207.142 432.935 207.142H445.194C445.943 207.142 446.557 207.382 447.036 207.855C447.51 208.332 447.751 208.943 447.751 209.69V218.854C447.751 219.6 447.51 220.211 447.036 220.688C446.557 221.165 445.948 221.402 445.194 221.402H432.935C432.187 221.402 431.573 221.165 431.095 220.688ZM431.196 281.268C430.717 280.795 430.482 280.184 430.482 279.433V231.582C430.482 230.836 430.717 230.224 431.196 229.747C431.675 229.27 432.284 229.034 433.036 229.034H445.092C445.84 229.034 446.453 229.274 446.932 229.747C447.406 230.224 447.65 230.836 447.65 231.582V279.433C447.65 280.114 447.406 280.705 446.932 281.215C446.453 281.725 445.845 281.978 445.092 281.978H433.036C432.288 281.978 431.675 281.741 431.196 281.264V281.268Z" fill="#1D2639"/>
<path d="M459.7 276.738C455.985 272.564 453.959 266.677 453.622 259.074L453.518 255.511L453.622 251.846C453.891 244.516 455.918 238.711 459.7 234.434C463.48 230.158 468.669 228.022 475.279 228.022C481.477 228.022 486.483 230.024 490.296 234.027V212.236C490.296 211.491 490.534 210.879 491.013 210.402C491.487 209.929 492.101 209.689 492.853 209.689H505.317C506.065 209.689 506.678 209.929 507.157 210.402C507.631 210.879 507.874 211.486 507.874 212.236V279.437C507.874 280.117 507.631 280.708 507.157 281.219C506.678 281.728 506.069 281.98 505.317 281.98H493.773C493.091 281.98 492.498 281.728 491.986 281.219C491.474 280.708 491.22 280.117 491.22 279.437V276.18C487.474 280.729 482.161 283 475.283 283C468.409 283 463.416 280.913 459.7 276.738ZM487.743 266.457C489.241 264.524 490.093 262.029 490.296 258.972C490.362 258.091 490.4 256.799 490.4 255.103C490.4 253.407 490.362 252.217 490.296 251.336C490.157 248.552 489.308 246.245 487.743 244.414C486.177 242.579 483.895 241.666 480.901 241.666C477.698 241.666 475.399 242.616 474.004 244.516C472.61 246.415 471.806 249.033 471.604 252.356C471.533 253.036 471.5 254.088 471.5 255.511C471.5 256.934 471.533 257.989 471.604 258.666C471.806 261.992 472.606 264.606 474.004 266.505C475.399 268.405 477.698 269.355 480.901 269.355C484.102 269.355 486.247 268.389 487.743 266.453V266.457Z" fill="#1D2639"/>
<path d="M516.223 220.688C515.744 220.215 515.506 219.604 515.506 218.854V209.69C515.506 208.943 515.744 208.332 516.223 207.855C516.698 207.382 517.311 207.142 518.063 207.142H530.322C531.072 207.142 531.685 207.382 532.164 207.855C532.638 208.332 532.879 208.943 532.879 209.69V218.854C532.879 219.6 532.638 220.211 532.164 220.688C531.685 221.165 531.076 221.402 530.322 221.402H518.063C517.315 221.402 516.702 221.165 516.223 220.688ZM516.325 281.268C515.846 280.795 515.61 280.184 515.61 279.433V231.582C515.61 230.836 515.846 230.224 516.325 229.747C516.803 229.27 517.412 229.034 518.165 229.034H530.22C530.968 229.034 531.582 229.274 532.061 229.747C532.535 230.224 532.777 230.836 532.777 231.582V279.433C532.777 280.114 532.535 280.705 532.061 281.215C531.582 281.725 530.972 281.978 530.22 281.978H518.165C517.417 281.978 516.803 281.741 516.325 281.264V281.268Z" fill="#1D2639"/>
<path d="M546.881 261.924V242.376H538.913C538.163 242.376 537.534 242.14 537.022 241.663C536.511 241.19 536.259 240.578 536.259 239.828V231.581C536.259 230.835 536.511 230.223 537.022 229.747C537.534 229.273 538.163 229.033 538.913 229.033H546.881V212.233C546.881 211.487 547.134 210.875 547.646 210.399C548.158 209.926 548.751 209.685 549.433 209.685H561.284C562.032 209.685 562.647 209.926 563.124 210.399C563.6 210.875 563.841 211.483 563.841 212.233V229.033H576.611C577.359 229.033 577.99 229.273 578.502 229.747C579.012 230.223 579.266 230.835 579.266 231.581V239.828C579.266 240.575 579.012 241.186 578.502 241.663C577.99 242.14 577.359 242.376 576.611 242.376H563.841V260.501C563.841 265.523 565.78 268.035 569.666 268.035H577.531C578.279 268.035 578.895 268.275 579.371 268.749C579.846 269.225 580.089 269.833 580.089 270.583V279.441C580.089 280.122 579.846 280.713 579.371 281.223C578.895 281.733 578.284 281.985 577.531 281.985H568.028C553.93 281.985 546.881 275.3 546.881 261.928V261.924Z" fill="#1D2639"/>
<mask id="mask2_934_59" style="mask-type:alpha" maskUnits="userSpaceOnUse" x="66" y="91" width="252" height="151">
<path d="M130.18 241.394C119.562 241.394 109.577 237.271 102.07 229.787L76.21 204.014C69.6242 197.455 66 188.735 66 179.452C66 170.169 69.6242 161.453 76.2059 154.89C89.7948 141.347 111.904 141.347 125.493 154.89L150.736 180.051L136.693 194.046L111.45 168.885C108.62 166.064 104.852 164.511 100.847 164.511C96.8429 164.511 93.0794 166.064 90.2447 168.885C87.4141 171.706 85.8555 175.457 85.8555 179.448C85.8555 183.439 87.4141 187.193 90.2447 190.014L116.105 215.787C119.864 219.534 124.859 221.597 130.172 221.597C135.486 221.597 140.485 219.534 144.244 215.787L259.479 100.951C265.918 94.5345 274.483 91 283.589 91C292.694 91 301.261 94.5345 307.699 100.951C320.993 114.2 320.993 135.758 307.699 149.011L247.482 209.024L233.439 195.025L293.656 135.012C299.207 129.48 299.207 120.479 293.656 114.947C290.968 112.264 287.39 110.788 283.589 110.788C279.788 110.788 276.209 112.264 273.522 114.942L158.295 229.791C150.785 237.271 140.804 241.397 130.18 241.397V241.394Z" fill="#888888"/>
</mask>
<g mask="url(#mask2_934_59)">
<rect x="66" y="91" width="251.413" height="150.098" fill="url(#paint5_linear_934_59)"/>
<rect width="251.413" height="150.098" transform="matrix(-1 0 0 1 568.827 91)" fill="url(#paint6_linear_934_59)"/>
</g>
<defs>
<linearGradient id="paint0_linear_934_59" x1="619.99" y1="153.05" x2="870.692" y2="153.05" gradientUnits="userSpaceOnUse">
<stop stop-color="#8BDDD0"/>
<stop offset="1" stop-color="#536FE1"/>
</linearGradient>
<linearGradient id="paint1_linear_934_59" x1="322.413" y1="497.049" x2="71" y2="497.049" gradientUnits="userSpaceOnUse">
<stop stop-color="#536FE1"/>
<stop offset="1" stop-color="#8BDDD0"/>
</linearGradient>
<linearGradient id="paint2_linear_934_59" x1="251.413" y1="75.0489" x2="0" y2="75.0489" gradientUnits="userSpaceOnUse">
<stop stop-color="#536FE1"/>
<stop offset="0.595" stop-color="#6FA7D8"/>
<stop offset="1" stop-color="#8BDDD0"/>
</linearGradient>
<linearGradient id="paint3_linear_934_59" x1="324.413" y1="818.049" x2="73" y2="818.049" gradientUnits="userSpaceOnUse">
<stop stop-color="#536FE1"/>
<stop offset="1" stop-color="#8BDDD0"/>
</linearGradient>
<linearGradient id="paint4_linear_934_59" x1="251.413" y1="75.0489" x2="0" y2="75.0489" gradientUnits="userSpaceOnUse">
<stop stop-color="#536FE1"/>
<stop offset="0.595" stop-color="#6FA7D8"/>
<stop offset="1" stop-color="#8BDDD0"/>
</linearGradient>
<linearGradient id="paint5_linear_934_59" x1="317.413" y1="166.049" x2="66" y2="166.049" gradientUnits="userSpaceOnUse">
<stop stop-color="#536FE1"/>
<stop offset="1" stop-color="#8BDDD0"/>
</linearGradient>
<linearGradient id="paint6_linear_934_59" x1="251.413" y1="75.0489" x2="0" y2="75.0489" gradientUnits="userSpaceOnUse">
<stop stop-color="#536FE1"/>
<stop offset="0.595" stop-color="#6FA7D8"/>
<stop offset="1" stop-color="#8BDDD0"/>
</linearGradient>
<clipPath id="clip0_934_59">
<rect width="491" height="219" fill="white" transform="translate(620 78)"/>
</clipPath>
</defs>
</svg>
