<svg width="572" height="242" viewBox="0 0 572 242" fill="none" xmlns="http://www.w3.org/2000/svg">
<rect width="571.97" height="120.879" fill="white"/>
<path d="M11.4 35.5492L27.28 45.4692L11.4 55.3892C10.55 55.9592 10 56.9192 10 57.9492V60.4392C10 61.6092 10.67 62.6692 11.74 63.1592L29.98 71.6792V90.3792C29.98 91.5492 30.63 92.6092 31.69 93.0992L69.1 110.559L69.15 110.589C69.33 110.669 69.54 110.749 69.77 110.799C69.98 110.849 70.18 110.879 70.42 110.879C70.52 110.879 70.65 110.879 70.78 110.849C70.83 110.849 70.88 110.849 70.91 110.819C70.96 110.849 70.99 110.819 71.04 110.789C71.27 110.739 71.48 110.659 71.69 110.579L71.72 110.549L109.13 93.0892C110.19 92.5992 110.84 91.5392 110.84 90.3692V71.6692L129.08 63.1492C130.14 62.6592 130.82 61.5992 130.82 60.4292V57.9392C130.82 56.8992 130.3 55.9492 129.42 55.3792L113.51 45.4592L129.42 35.5392C130.3 34.9992 130.82 34.0092 130.82 32.9992V30.4892C130.82 30.2092 130.79 29.9192 130.72 29.6392C130.46 28.8392 129.87 28.1392 129.09 27.7692L91.66 10.2792C90.75 9.86922 89.67 9.93922 88.81 10.4592L88.63 10.5592L70.44 21.9292L52.05 10.4492C51.2 9.92922 50.13 9.84922 49.17 10.2692L11.74 27.7792C10.68 28.2692 10 29.3292 10 30.4992V33.0092C10 34.0192 10.54 34.9992 11.4 35.5492ZM107.64 42.0592L74.4 26.5692L90.56 16.4392L123.8 31.9592L107.64 42.0592ZM106.42 67.1092L90.57 74.4892L74.41 64.3892L107.65 48.8692L123.81 58.9992L106.43 67.1092H106.42ZM73.39 70.8592L88.78 80.4692C89.25 80.7592 89.82 80.9392 90.36 80.9392C90.8 80.9392 91.24 80.8092 91.63 80.6292L104.82 74.4592V88.4692L73.4 103.159V70.8592H73.39ZM40.08 45.4792L70.41 31.3392L100.72 45.4792L70.41 59.6492L40.08 45.4792ZM35.99 74.4892L49.15 80.6292C49.56 80.8092 50 80.9392 50.45 80.9392C50.99 80.9392 51.56 80.7592 52.03 80.4692L67.39 70.8892V103.139L35.99 88.4792V74.4892ZM33.16 48.8692L66.4 64.3892L50.21 74.4892L17 58.9992L33.16 48.8692ZM17 31.9492L50.24 16.4292L66.4 26.5592L33.16 42.0492L17 31.9492Z" fill="url(#paint0_linear_927_99)"/>
<path d="M144.82 65.2985V28.2285C144.82 26.0385 146.61 24.2385 148.71 24.2385C150.81 24.2385 152.7 26.0385 152.7 28.2285V64.7985C152.7 79.8485 160.77 88.3185 174.03 88.3185C187.29 88.3185 195.06 80.5485 195.06 65.2985V28.2285C195.06 26.0385 196.86 24.2385 199.05 24.2385C201.24 24.2385 202.94 26.0385 202.94 28.2285V64.6985C202.94 85.0285 191.28 95.5985 173.84 95.5985C156.4 95.5985 144.84 85.0385 144.84 65.2985H144.82Z" fill="#1D2639"/>
<path d="M210.92 46.2893C210.92 44.0993 212.61 42.3993 214.71 42.3993C216.81 42.3993 218.6 44.0893 218.6 46.2893V53.2693C222.79 47.0893 228.87 41.8093 238.33 41.8093C250.69 41.8093 262.95 51.5793 262.95 68.5193V68.7193C262.95 85.5593 250.79 95.5293 238.33 95.5293C228.76 95.5293 222.58 90.3493 218.6 84.5693V106.989C218.6 109.179 217 110.879 214.81 110.879C212.62 110.879 210.92 109.189 210.92 106.989V46.2893ZM255.07 68.8093V68.6093C255.07 56.4493 246.7 48.6793 236.93 48.6793C227.16 48.6793 218.29 56.7493 218.29 68.5093V68.7093C218.29 80.6693 227.36 88.6393 236.93 88.6393C246.5 88.6393 255.07 81.2693 255.07 68.8093Z" fill="#1D2639"/>
<path d="M266.26 88.9493C265.56 88.4493 264.86 87.4493 264.86 86.1593C264.86 84.3593 266.36 82.8693 268.25 82.8693C268.95 82.8693 269.65 83.0693 270.14 83.4693C275.42 87.0593 280.9 88.9493 286.48 88.9493C292.66 88.9493 297.14 85.7593 297.14 80.7793V80.5793C297.14 75.3993 291.06 73.3993 284.28 71.5093C276.21 69.2193 267.24 66.4293 267.24 56.9593V56.7593C267.24 47.8893 274.62 42.0093 284.78 42.0093C290.26 42.0093 296.24 43.7093 301.22 46.3893C302.22 46.9893 303.11 48.0893 303.11 49.5793C303.11 51.3793 301.62 52.8693 299.72 52.8693C299.02 52.8693 298.42 52.6693 298.03 52.4693C293.65 49.9793 288.96 48.4793 284.58 48.4793C278.5 48.4793 274.61 51.6693 274.61 55.9593V56.1593C274.61 61.0393 280.99 62.9393 287.86 65.0293C295.83 67.4193 304.4 70.5093 304.4 79.7793V79.9793C304.4 89.7493 296.33 95.4293 286.06 95.4293C279.28 95.4293 271.81 92.9393 266.23 88.9493H266.26Z" fill="#1D2639"/>
<path d="M315.62 49.6794H311.43C309.64 49.6794 308.04 48.0894 308.04 46.2894C308.04 44.3994 309.64 42.8994 311.43 42.8994H315.62V30.7394C315.62 28.6494 317.21 26.8494 319.41 26.8494C321.61 26.8494 323.3 28.6394 323.3 30.7394V42.8994H336.65C338.54 42.8994 340.14 44.4894 340.14 46.2894C340.14 48.1794 338.54 49.6794 336.65 49.6794H323.3V79.7794C323.3 86.0594 326.79 88.3494 331.97 88.3494C334.66 88.3494 336.06 87.6494 336.65 87.6494C338.44 87.6494 339.94 89.1394 339.94 90.9394C339.94 92.3394 339.04 93.4294 337.75 93.9294C335.56 94.8294 333.17 95.3294 330.18 95.3294C321.91 95.3294 315.63 91.2394 315.63 80.7794H315.62V49.6794Z" fill="#1D2639"/>
<path d="M347.62 46.2892C347.62 44.1992 349.31 42.3992 351.41 42.3992C353.51 42.3992 355.3 44.0892 355.3 46.2892V55.9592C359.09 47.3892 366.56 42.2092 373.04 42.2092C375.33 42.2092 376.83 43.8992 376.83 46.0992C376.83 48.2992 375.43 49.6892 373.44 49.9892C363.47 51.1792 355.3 58.6592 355.3 73.5092V91.0492C355.3 93.1392 353.7 94.9392 351.51 94.9392C349.32 94.9392 347.62 93.2492 347.62 91.0492V46.2892Z" fill="#1D2639"/>
<path d="M402.3 95.6193C388.15 95.6193 376.59 84.7593 376.59 68.8093V68.6093C376.59 53.7593 387.05 41.7993 401.31 41.7993C416.56 41.7993 425.23 54.2593 425.23 67.9093C425.23 69.9993 423.54 71.4993 421.64 71.4993H384.37C385.46 82.6593 393.34 88.9393 402.51 88.9393C408.89 88.9393 413.57 86.4493 417.36 82.9593C417.96 82.4593 418.66 82.0593 419.55 82.0593C421.44 82.0593 422.94 83.5493 422.94 85.3493C422.94 86.2493 422.54 87.1493 421.75 87.8393C416.87 92.5293 411.09 95.6093 402.31 95.6093L402.3 95.6193ZM417.55 65.8293C416.75 56.4593 411.37 48.2893 401.1 48.2893C392.13 48.2893 385.35 55.7693 384.36 65.8293H417.55Z" fill="#1D2639"/>
<path d="M483.84 46.2893C483.84 44.1993 485.54 42.3993 487.63 42.3993C489.72 42.3993 491.52 44.0893 491.52 46.2893V51.5693C494.91 46.4893 499.49 41.7993 508.16 41.7993C516.83 41.7993 521.91 46.2793 524.7 52.0593C528.39 46.3793 533.87 41.7993 542.84 41.7993C554.7 41.7993 561.97 49.7693 561.97 62.5293V91.0293C561.97 93.2193 560.27 94.9193 558.18 94.9193C556.09 94.9193 554.29 93.2293 554.29 91.0293V64.3193C554.29 54.3493 549.31 48.7693 540.94 48.7693C533.17 48.7693 526.79 54.5493 526.79 64.7093V91.0193C526.79 93.2093 525.1 94.9093 522.9 94.9093C520.7 94.9093 519.11 93.2193 519.11 91.0193V64.1093C519.11 54.4393 514.03 48.7593 505.85 48.7593C497.67 48.7593 491.5 55.5393 491.5 64.9993V91.0093C491.5 93.1993 489.91 94.8993 487.71 94.8993C485.51 94.8993 483.82 93.2093 483.82 91.0093V46.2593L483.84 46.2893Z" fill="#1D2639"/>
<path d="M449.85 95.6194C424.21 96.0794 423.77 67.0494 448.83 65.4694C453.47 65.1794 467.78 65.0194 467.78 65.0194C467.78 60.4894 467.9 53.8194 463.88 51.0894C459.54 48.1394 453.46 47.3594 447.14 49.6094C445.78 50.0894 444.3 50.6394 441.08 52.5794C435.72 55.7994 431.96 50.6994 436.27 47.4194C438.16 46.1694 440.18 45.1294 442.34 44.2794C445.72 42.9794 449.25 42.3394 452.92 42.3394C460.55 42.3394 466.31 44.0994 470.2 47.6294C474.09 51.1594 475.03 56.3794 475.03 63.2894V91.0494C475.03 92.8194 473.83 94.4294 472.09 94.7794C469.7 95.2594 467.6 93.4494 467.6 91.1494V86.9394C463.2 92.3394 457.14 95.3894 449.82 95.6194H449.85ZM448.65 90.1394C460.75 90.0094 467.79 83.7294 467.79 70.6394C467.79 70.6394 448.64 69.8094 443.35 72.1694C432.04 77.1994 436.71 90.2693 448.65 90.1394Z" fill="#1D2639"/>
<rect width="571.97" height="120.879" transform="translate(0 121)" fill="#171717"/>
<path d="M11.4 156.549L27.28 166.469L11.4 176.389C10.55 176.959 10 177.919 10 178.949V181.439C10 182.609 10.67 183.669 11.74 184.159L29.98 192.679V211.379C29.98 212.549 30.63 213.609 31.69 214.099L69.1 231.559L69.15 231.589C69.33 231.669 69.54 231.749 69.77 231.799C69.98 231.849 70.18 231.879 70.42 231.879C70.52 231.879 70.65 231.879 70.78 231.849C70.83 231.849 70.88 231.849 70.91 231.819C70.96 231.849 70.99 231.819 71.04 231.789C71.27 231.739 71.48 231.659 71.69 231.579L71.72 231.549L109.13 214.089C110.19 213.599 110.84 212.539 110.84 211.369V192.669L129.08 184.149C130.14 183.659 130.82 182.599 130.82 181.429V178.939C130.82 177.899 130.3 176.949 129.42 176.379L113.51 166.459L129.42 156.539C130.3 155.999 130.82 155.009 130.82 153.999V151.489C130.82 151.209 130.79 150.919 130.72 150.639C130.46 149.839 129.87 149.139 129.09 148.769L91.66 131.279C90.75 130.869 89.67 130.939 88.81 131.459L88.63 131.559L70.44 142.929L52.05 131.449C51.2 130.929 50.13 130.849 49.17 131.269L11.74 148.779C10.68 149.269 10 150.329 10 151.499V154.009C10 155.019 10.54 155.999 11.4 156.549ZM107.64 163.059L74.4 147.569L90.56 137.439L123.8 152.959L107.64 163.059ZM106.42 188.109L90.57 195.489L74.41 185.389L107.65 169.869L123.81 179.999L106.43 188.109H106.42ZM73.39 191.859L88.78 201.469C89.25 201.759 89.82 201.939 90.36 201.939C90.8 201.939 91.24 201.809 91.63 201.629L104.82 195.459V209.469L73.4 224.159V191.859H73.39ZM40.08 166.479L70.41 152.339L100.72 166.479L70.41 180.649L40.08 166.479ZM35.99 195.489L49.15 201.629C49.56 201.809 50 201.939 50.45 201.939C50.99 201.939 51.56 201.759 52.03 201.469L67.39 191.889V224.139L35.99 209.479V195.489ZM33.16 169.869L66.4 185.389L50.21 195.489L17 179.999L33.16 169.869ZM17 152.949L50.24 137.429L66.4 147.559L33.16 163.049L17 152.949Z" fill="white"/>
<path d="M144.82 186.299V149.229C144.82 147.039 146.61 145.239 148.71 145.239C150.81 145.239 152.7 147.039 152.7 149.229V185.799C152.7 200.849 160.77 209.319 174.03 209.319C187.29 209.319 195.06 201.549 195.06 186.299V149.229C195.06 147.039 196.86 145.239 199.05 145.239C201.24 145.239 202.94 147.039 202.94 149.229V185.699C202.94 206.029 191.28 216.599 173.84 216.599C156.4 216.599 144.84 206.039 144.84 186.299H144.82Z" fill="white"/>
<path d="M210.92 167.289C210.92 165.099 212.61 163.399 214.71 163.399C216.81 163.399 218.6 165.089 218.6 167.289V174.269C222.79 168.089 228.87 162.809 238.33 162.809C250.69 162.809 262.95 172.579 262.95 189.519V189.719C262.95 206.559 250.79 216.529 238.33 216.529C228.76 216.529 222.58 211.349 218.6 205.569V227.989C218.6 230.179 217 231.879 214.81 231.879C212.62 231.879 210.92 230.189 210.92 227.989V167.289ZM255.07 189.809V189.609C255.07 177.449 246.7 169.679 236.93 169.679C227.16 169.679 218.29 177.749 218.29 189.509V189.709C218.29 201.669 227.36 209.639 236.93 209.639C246.5 209.639 255.07 202.269 255.07 189.809Z" fill="white"/>
<path d="M266.26 209.949C265.56 209.449 264.86 208.449 264.86 207.159C264.86 205.359 266.36 203.869 268.25 203.869C268.95 203.869 269.65 204.069 270.14 204.469C275.42 208.059 280.9 209.949 286.48 209.949C292.66 209.949 297.14 206.759 297.14 201.779V201.579C297.14 196.399 291.06 194.399 284.28 192.509C276.21 190.219 267.24 187.429 267.24 177.959V177.759C267.24 168.889 274.62 163.009 284.78 163.009C290.26 163.009 296.24 164.709 301.22 167.389C302.22 167.989 303.11 169.089 303.11 170.579C303.11 172.379 301.62 173.869 299.72 173.869C299.02 173.869 298.42 173.669 298.03 173.469C293.65 170.979 288.96 169.479 284.58 169.479C278.5 169.479 274.61 172.669 274.61 176.959V177.159C274.61 182.039 280.99 183.939 287.86 186.029C295.83 188.419 304.4 191.509 304.4 200.779V200.979C304.4 210.749 296.33 216.429 286.06 216.429C279.28 216.429 271.81 213.939 266.23 209.949H266.26Z" fill="white"/>
<path d="M315.62 170.679H311.43C309.64 170.679 308.04 169.089 308.04 167.289C308.04 165.399 309.64 163.899 311.43 163.899H315.62V151.739C315.62 149.649 317.21 147.849 319.41 147.849C321.61 147.849 323.3 149.639 323.3 151.739V163.899H336.65C338.54 163.899 340.14 165.489 340.14 167.289C340.14 169.179 338.54 170.679 336.65 170.679H323.3V200.779C323.3 207.059 326.79 209.349 331.97 209.349C334.66 209.349 336.06 208.649 336.65 208.649C338.44 208.649 339.94 210.139 339.94 211.939C339.94 213.339 339.04 214.429 337.75 214.929C335.56 215.829 333.17 216.329 330.18 216.329C321.91 216.329 315.63 212.239 315.63 201.779H315.62V170.679Z" fill="white"/>
<path d="M347.62 167.289C347.62 165.199 349.31 163.399 351.41 163.399C353.51 163.399 355.3 165.089 355.3 167.289V176.959C359.09 168.389 366.56 163.209 373.04 163.209C375.33 163.209 376.83 164.899 376.83 167.099C376.83 169.299 375.43 170.689 373.44 170.989C363.47 172.179 355.3 179.659 355.3 194.509V212.049C355.3 214.139 353.7 215.939 351.51 215.939C349.32 215.939 347.62 214.249 347.62 212.049V167.289Z" fill="white"/>
<path d="M402.3 216.619C388.15 216.619 376.59 205.759 376.59 189.809V189.609C376.59 174.759 387.05 162.799 401.31 162.799C416.56 162.799 425.23 175.259 425.23 188.909C425.23 190.999 423.54 192.499 421.64 192.499H384.37C385.46 203.659 393.34 209.939 402.51 209.939C408.89 209.939 413.57 207.449 417.36 203.959C417.96 203.459 418.66 203.059 419.55 203.059C421.44 203.059 422.94 204.549 422.94 206.349C422.94 207.249 422.54 208.149 421.75 208.839C416.87 213.529 411.09 216.609 402.31 216.609L402.3 216.619ZM417.55 186.829C416.75 177.459 411.37 169.289 401.1 169.289C392.13 169.289 385.35 176.769 384.36 186.829H417.55Z" fill="white"/>
<path d="M483.84 167.289C483.84 165.199 485.54 163.399 487.63 163.399C489.72 163.399 491.52 165.089 491.52 167.289V172.569C494.91 167.489 499.49 162.799 508.16 162.799C516.83 162.799 521.91 167.279 524.7 173.059C528.39 167.379 533.87 162.799 542.84 162.799C554.7 162.799 561.97 170.769 561.97 183.529V212.029C561.97 214.219 560.27 215.919 558.18 215.919C556.09 215.919 554.29 214.229 554.29 212.029V185.319C554.29 175.349 549.31 169.769 540.94 169.769C533.17 169.769 526.79 175.549 526.79 185.709V212.019C526.79 214.209 525.1 215.909 522.9 215.909C520.7 215.909 519.11 214.219 519.11 212.019V185.109C519.11 175.439 514.03 169.759 505.85 169.759C497.67 169.759 491.5 176.539 491.5 185.999V212.009C491.5 214.199 489.91 215.899 487.71 215.899C485.51 215.899 483.82 214.209 483.82 212.009V167.259L483.84 167.289Z" fill="white"/>
<path d="M449.85 216.619C424.21 217.079 423.77 188.049 448.83 186.469C453.47 186.179 467.78 186.019 467.78 186.019C467.78 181.489 467.9 174.819 463.88 172.089C459.54 169.139 453.46 168.359 447.14 170.609C445.78 171.089 444.3 171.639 441.08 173.579C435.72 176.799 431.96 171.699 436.27 168.419C438.16 167.169 440.18 166.129 442.34 165.279C445.72 163.979 449.25 163.339 452.92 163.339C460.55 163.339 466.31 165.099 470.2 168.629C474.09 172.159 475.03 177.379 475.03 184.289V212.049C475.03 213.819 473.83 215.429 472.09 215.779C469.7 216.259 467.6 214.449 467.6 212.149V207.939C463.2 213.339 457.14 216.389 449.82 216.619H449.85ZM448.65 211.139C460.75 211.009 467.79 204.729 467.79 191.639C467.79 191.639 448.64 190.809 443.35 193.169C432.04 198.199 436.71 211.269 448.65 211.139Z" fill="white"/>
<defs>
<linearGradient id="paint0_linear_927_99" x1="10" y1="60.4392" x2="130.82" y2="60.4392" gradientUnits="userSpaceOnUse">
<stop stop-color="#8BDDD0"/>
<stop offset="1" stop-color="#536FE1"/>
</linearGradient>
</defs>
</svg>
