<svg width="1076" height="388" viewBox="0 0 1076 388" fill="none" xmlns="http://www.w3.org/2000/svg">
<path d="M766.88 298.672C765.797 296.395 764.229 294.64 762.176 293.408C760.123 292.139 757.733 291.504 755.008 291.504C752.283 291.504 749.819 292.139 747.616 293.408C745.451 294.64 743.733 296.432 742.464 298.784C741.232 301.099 740.616 303.787 740.616 306.848C740.616 309.91 741.232 312.598 742.464 314.912C743.733 317.227 745.451 319.019 747.616 320.288C749.819 321.52 752.283 322.136 755.008 322.136C758.816 322.136 761.952 320.998 764.416 318.72C766.88 316.443 768.317 313.363 768.728 309.48H753.16V305.336H774.16V309.256C773.861 312.467 772.853 315.416 771.136 318.104C769.419 320.755 767.16 322.864 764.36 324.432C761.56 325.963 758.443 326.728 755.008 326.728C751.387 326.728 748.083 325.888 745.096 324.208C742.109 322.491 739.739 320.12 737.984 317.096C736.267 314.072 735.408 310.656 735.408 306.848C735.408 303.04 736.267 299.624 737.984 296.6C739.739 293.539 742.109 291.168 745.096 289.488C748.083 287.771 751.387 286.912 755.008 286.912C759.152 286.912 762.811 287.939 765.984 289.992C769.195 292.046 771.528 294.939 772.984 298.672H766.88ZM785.994 284.952V326.392H780.898V284.952H785.994ZM808.063 326.896C805.189 326.896 802.575 326.243 800.223 324.936C797.909 323.63 796.079 321.782 794.735 319.392C793.429 316.966 792.775 314.166 792.775 310.992C792.775 307.856 793.447 305.094 794.791 302.704C796.173 300.278 798.039 298.43 800.391 297.16C802.743 295.854 805.375 295.2 808.287 295.2C811.199 295.2 813.831 295.854 816.183 297.16C818.535 298.43 820.383 300.259 821.727 302.648C823.109 305.038 823.799 307.819 823.799 310.992C823.799 314.166 823.09 316.966 821.671 319.392C820.29 321.782 818.405 323.63 816.015 324.936C813.626 326.243 810.975 326.896 808.063 326.896ZM808.063 322.416C809.893 322.416 811.61 321.987 813.215 321.128C814.821 320.27 816.109 318.982 817.079 317.264C818.087 315.547 818.591 313.456 818.591 310.992C818.591 308.528 818.106 306.438 817.135 304.72C816.165 303.003 814.895 301.734 813.327 300.912C811.759 300.054 810.061 299.624 808.231 299.624C806.365 299.624 804.647 300.054 803.079 300.912C801.549 301.734 800.317 303.003 799.383 304.72C798.45 306.438 797.983 308.528 797.983 310.992C797.983 313.494 798.431 315.603 799.327 317.32C800.261 319.038 801.493 320.326 803.023 321.184C804.554 322.006 806.234 322.416 808.063 322.416ZM835.596 301.416C836.641 299.587 838.172 298.094 840.188 296.936C842.204 295.779 844.5 295.2 847.076 295.2C849.838 295.2 852.321 295.854 854.524 297.16C856.726 298.467 858.462 300.315 859.732 302.704C861.001 305.056 861.636 307.8 861.636 310.936C861.636 314.035 861.001 316.798 859.732 319.224C858.462 321.651 856.707 323.536 854.467 324.88C852.265 326.224 849.801 326.896 847.076 326.896C844.425 326.896 842.092 326.318 840.076 325.16C838.097 324.003 836.604 322.528 835.596 320.736V326.392H830.5V284.952H835.596V301.416ZM856.428 310.936C856.428 308.622 855.961 306.606 855.028 304.888C854.094 303.171 852.825 301.864 851.22 300.968C849.652 300.072 847.916 299.624 846.012 299.624C844.145 299.624 842.409 300.091 840.804 301.024C839.236 301.92 837.966 303.246 836.996 305C836.062 306.718 835.596 308.715 835.596 310.992C835.596 313.307 836.062 315.342 836.996 317.096C837.966 318.814 839.236 320.139 840.804 321.072C842.409 321.968 844.145 322.416 846.012 322.416C847.916 322.416 849.652 321.968 851.22 321.072C852.825 320.139 854.094 318.814 855.028 317.096C855.961 315.342 856.428 313.288 856.428 310.936ZM866.439 310.936C866.439 307.8 867.074 305.056 868.343 302.704C869.613 300.315 871.349 298.467 873.551 297.16C875.791 295.854 878.274 295.2 880.999 295.2C883.687 295.2 886.021 295.779 887.999 296.936C889.978 298.094 891.453 299.55 892.423 301.304V295.704H897.575V326.392H892.423V320.68C891.415 322.472 889.903 323.966 887.887 325.16C885.909 326.318 883.594 326.896 880.943 326.896C878.218 326.896 875.754 326.224 873.551 324.88C871.349 323.536 869.613 321.651 868.343 319.224C867.074 316.798 866.439 314.035 866.439 310.936ZM892.423 310.992C892.423 308.678 891.957 306.662 891.023 304.944C890.09 303.227 888.821 301.92 887.215 301.024C885.647 300.091 883.911 299.624 882.007 299.624C880.103 299.624 878.367 300.072 876.799 300.968C875.231 301.864 873.981 303.171 873.047 304.888C872.114 306.606 871.647 308.622 871.647 310.936C871.647 313.288 872.114 315.342 873.047 317.096C873.981 318.814 875.231 320.139 876.799 321.072C878.367 321.968 880.103 322.416 882.007 322.416C883.911 322.416 885.647 321.968 887.215 321.072C888.821 320.139 890.09 318.814 891.023 317.096C891.957 315.342 892.423 313.307 892.423 310.992ZM911.283 284.952V326.392H906.187V284.952H911.283ZM933.352 326.784C930.478 326.784 927.902 326.318 925.624 325.384C923.347 324.451 921.518 323.07 920.136 321.24C918.792 319.411 918.083 317.208 918.008 314.632H928.2C928.35 316.088 928.854 317.208 929.712 317.992C930.571 318.739 931.691 319.112 933.072 319.112C934.491 319.112 935.611 318.795 936.432 318.16C937.254 317.488 937.664 316.574 937.664 315.416C937.664 314.446 937.328 313.643 936.656 313.008C936.022 312.374 935.219 311.851 934.248 311.44C933.315 311.03 931.971 310.563 930.216 310.04C927.678 309.256 925.606 308.472 924 307.688C922.395 306.904 921.014 305.747 919.856 304.216C918.699 302.686 918.12 300.688 918.12 298.224C918.12 294.566 919.446 291.71 922.096 289.656C924.747 287.566 928.2 286.52 932.456 286.52C936.787 286.52 940.278 287.566 942.928 289.656C945.579 291.71 946.998 294.584 947.184 298.28H936.824C936.75 297.011 936.283 296.022 935.424 295.312C934.566 294.566 933.464 294.192 932.12 294.192C930.963 294.192 930.03 294.51 929.32 295.144C928.611 295.742 928.256 296.619 928.256 297.776C928.256 299.046 928.854 300.035 930.048 300.744C931.243 301.454 933.11 302.219 935.648 303.04C938.187 303.899 940.24 304.72 941.808 305.504C943.414 306.288 944.795 307.427 945.952 308.92C947.11 310.414 947.688 312.336 947.688 314.688C947.688 316.928 947.11 318.963 945.952 320.792C944.832 322.622 943.19 324.078 941.024 325.16C938.859 326.243 936.302 326.784 933.352 326.784ZM976.373 326.392L963.157 309.032V326.392H953.581V287.08H963.157V304.328L976.261 287.08H987.517L972.285 306.344L988.077 326.392H976.373ZM1002.04 287.08V310.6C1002.04 312.952 1002.61 314.763 1003.77 316.032C1004.93 317.302 1006.63 317.936 1008.87 317.936C1011.11 317.936 1012.83 317.302 1014.02 316.032C1015.21 314.763 1015.81 312.952 1015.81 310.6V287.08H1025.39V310.544C1025.39 314.054 1024.64 317.022 1023.15 319.448C1021.65 321.875 1019.64 323.704 1017.1 324.936C1014.6 326.168 1011.8 326.784 1008.7 326.784C1005.6 326.784 1002.82 326.187 1000.36 324.992C997.93 323.76 996.007 321.931 994.588 319.504C993.17 317.04 992.46 314.054 992.46 310.544V287.08H1002.04Z" fill="black"/>
<circle cx="881" cy="165.392" r="102" transform="rotate(14.1345 881 165.392)" fill="#111827" stroke="#111827" stroke-width="4"/>
<mask id="mask0_937_165" style="mask-type:alpha" maskUnits="userSpaceOnUse" x="780" y="65" width="202" height="201">
<circle cx="881" cy="165.392" r="100" transform="rotate(14.1345 881 165.392)" fill="#385DF5"/>
</mask>
<g mask="url(#mask0_937_165)">
<path d="M837.979 210.453C877.406 248.706 931.953 256.438 959.813 227.723L998.218 193.364L978.149 86.7348L890.159 57.3584L829.683 68.4252L826.386 81.5164C823.02 83.6984 819.888 86.256 817.036 89.1955C789.175 117.911 798.552 172.199 837.979 210.453Z" fill="#08238F"/>
<ellipse cx="922.32" cy="123.952" rx="58.5595" ry="40.9623" transform="rotate(44.1345 922.32 123.952)" fill="#0C36E1"/>
<ellipse cx="930.847" cy="114.563" rx="21.0466" ry="14.4168" transform="rotate(44.1345 930.847 114.563)" fill="#244DF3"/>
</g>
<circle cx="46" cy="46" r="44" transform="matrix(-1 0 0 1 891 152.392)" fill="#57A7F0" stroke="#111827" stroke-width="4"/>
<path d="M788.881 259.167C787.349 260.758 784.817 260.806 783.225 259.274C781.634 257.741 781.586 255.209 783.119 253.618L788.881 259.167ZM786 256.392L783.119 253.618L809.119 226.618L812 229.392L814.881 232.167L788.881 259.167L786 256.392Z" fill="#111827"/>
<path d="M80.88 299.304C79.7973 297.027 78.2293 295.272 76.176 294.04C74.1227 292.771 71.7333 292.136 69.008 292.136C66.2827 292.136 63.8187 292.771 61.616 294.04C59.4507 295.272 57.7333 297.064 56.464 299.416C55.232 301.731 54.616 304.419 54.616 307.48C54.616 310.541 55.232 313.229 56.464 315.544C57.7333 317.859 59.4507 319.651 61.616 320.92C63.8187 322.152 66.2827 322.768 69.008 322.768C72.816 322.768 75.952 321.629 78.416 319.352C80.88 317.075 82.3173 313.995 82.728 310.112H67.16V305.968H88.16V309.888C87.8613 313.099 86.8533 316.048 85.136 318.736C83.4187 321.387 81.16 323.496 78.36 325.064C75.56 326.595 72.4427 327.36 69.008 327.36C65.3867 327.36 62.0827 326.52 59.096 324.84C56.1093 323.123 53.7387 320.752 51.984 317.728C50.2667 314.704 49.408 311.288 49.408 307.48C49.408 303.672 50.2667 300.256 51.984 297.232C53.7387 294.171 56.1093 291.8 59.096 290.12C62.0827 288.403 65.3867 287.544 69.008 287.544C73.152 287.544 76.8107 288.571 79.984 290.624C83.1947 292.677 85.528 295.571 86.984 299.304H80.88ZM99.9939 285.584V327.024H94.8979V285.584H99.9939ZM122.063 327.528C119.189 327.528 116.575 326.875 114.223 325.568C111.909 324.261 110.079 322.413 108.735 320.024C107.429 317.597 106.775 314.797 106.775 311.624C106.775 308.488 107.447 305.725 108.791 303.336C110.173 300.909 112.039 299.061 114.391 297.792C116.743 296.485 119.375 295.832 122.287 295.832C125.199 295.832 127.831 296.485 130.183 297.792C132.535 299.061 134.383 300.891 135.727 303.28C137.109 305.669 137.799 308.451 137.799 311.624C137.799 314.797 137.09 317.597 135.671 320.024C134.29 322.413 132.405 324.261 130.015 325.568C127.626 326.875 124.975 327.528 122.063 327.528ZM122.063 323.048C123.893 323.048 125.61 322.619 127.215 321.76C128.821 320.901 130.109 319.613 131.079 317.896C132.087 316.179 132.591 314.088 132.591 311.624C132.591 309.16 132.106 307.069 131.135 305.352C130.165 303.635 128.895 302.365 127.327 301.544C125.759 300.685 124.061 300.256 122.231 300.256C120.365 300.256 118.647 300.685 117.079 301.544C115.549 302.365 114.317 303.635 113.383 305.352C112.45 307.069 111.983 309.16 111.983 311.624C111.983 314.125 112.431 316.235 113.327 317.952C114.261 319.669 115.493 320.957 117.023 321.816C118.554 322.637 120.234 323.048 122.063 323.048ZM149.596 302.048C150.641 300.219 152.172 298.725 154.188 297.568C156.204 296.411 158.5 295.832 161.076 295.832C163.838 295.832 166.321 296.485 168.524 297.792C170.726 299.099 172.462 300.947 173.732 303.336C175.001 305.688 175.636 308.432 175.636 311.568C175.636 314.667 175.001 317.429 173.732 319.856C172.462 322.283 170.707 324.168 168.467 325.512C166.265 326.856 163.801 327.528 161.076 327.528C158.425 327.528 156.092 326.949 154.076 325.792C152.097 324.635 150.604 323.16 149.596 321.368V327.024H144.5V285.584H149.596V302.048ZM170.428 311.568C170.428 309.253 169.961 307.237 169.028 305.52C168.094 303.803 166.825 302.496 165.22 301.6C163.652 300.704 161.916 300.256 160.012 300.256C158.145 300.256 156.409 300.723 154.804 301.656C153.236 302.552 151.966 303.877 150.996 305.632C150.062 307.349 149.596 309.347 149.596 311.624C149.596 313.939 150.062 315.973 150.996 317.728C151.966 319.445 153.236 320.771 154.804 321.704C156.409 322.6 158.145 323.048 160.012 323.048C161.916 323.048 163.652 322.6 165.22 321.704C166.825 320.771 168.094 319.445 169.028 317.728C169.961 315.973 170.428 313.92 170.428 311.568ZM180.439 311.568C180.439 308.432 181.074 305.688 182.343 303.336C183.613 300.947 185.349 299.099 187.551 297.792C189.791 296.485 192.274 295.832 194.999 295.832C197.687 295.832 200.021 296.411 201.999 297.568C203.978 298.725 205.453 300.181 206.423 301.936V296.336H211.575V327.024H206.423V321.312C205.415 323.104 203.903 324.597 201.887 325.792C199.909 326.949 197.594 327.528 194.943 327.528C192.218 327.528 189.754 326.856 187.551 325.512C185.349 324.168 183.613 322.283 182.343 319.856C181.074 317.429 180.439 314.667 180.439 311.568ZM206.423 311.624C206.423 309.309 205.957 307.293 205.023 305.576C204.09 303.859 202.821 302.552 201.215 301.656C199.647 300.723 197.911 300.256 196.007 300.256C194.103 300.256 192.367 300.704 190.799 301.6C189.231 302.496 187.981 303.803 187.047 305.52C186.114 307.237 185.647 309.253 185.647 311.568C185.647 313.92 186.114 315.973 187.047 317.728C187.981 319.445 189.231 320.771 190.799 321.704C192.367 322.6 194.103 323.048 196.007 323.048C197.911 323.048 199.647 322.6 201.215 321.704C202.821 320.771 204.09 319.445 205.023 317.728C205.957 315.973 206.423 313.939 206.423 311.624ZM225.283 285.584V327.024H220.187V285.584H225.283ZM247.352 327.416C244.478 327.416 241.902 326.949 239.624 326.016C237.347 325.083 235.518 323.701 234.136 321.872C232.792 320.043 232.083 317.84 232.008 315.264H242.2C242.35 316.72 242.854 317.84 243.712 318.624C244.571 319.371 245.691 319.744 247.072 319.744C248.491 319.744 249.611 319.427 250.432 318.792C251.254 318.12 251.664 317.205 251.664 316.048C251.664 315.077 251.328 314.275 250.656 313.64C250.022 313.005 249.219 312.483 248.248 312.072C247.315 311.661 245.971 311.195 244.216 310.672C241.678 309.888 239.606 309.104 238 308.32C236.395 307.536 235.014 306.379 233.856 304.848C232.699 303.317 232.12 301.32 232.12 298.856C232.12 295.197 233.446 292.341 236.096 290.288C238.747 288.197 242.2 287.152 246.456 287.152C250.787 287.152 254.278 288.197 256.928 290.288C259.579 292.341 260.998 295.216 261.184 298.912H250.824C250.75 297.643 250.283 296.653 249.424 295.944C248.566 295.197 247.464 294.824 246.12 294.824C244.963 294.824 244.03 295.141 243.32 295.776C242.611 296.373 242.256 297.251 242.256 298.408C242.256 299.677 242.854 300.667 244.048 301.376C245.243 302.085 247.11 302.851 249.648 303.672C252.187 304.531 254.24 305.352 255.808 306.136C257.414 306.92 258.795 308.059 259.952 309.552C261.11 311.045 261.688 312.968 261.688 315.32C261.688 317.56 261.11 319.595 259.952 321.424C258.832 323.253 257.19 324.709 255.024 325.792C252.859 326.875 250.302 327.416 247.352 327.416ZM290.373 327.024L277.157 309.664V327.024H267.581V287.712H277.157V304.96L290.261 287.712H301.517L286.285 306.976L302.077 327.024H290.373ZM316.036 287.712V311.232C316.036 313.584 316.615 315.395 317.772 316.664C318.93 317.933 320.628 318.568 322.868 318.568C325.108 318.568 326.826 317.933 328.02 316.664C329.215 315.395 329.812 313.584 329.812 311.232V287.712H339.388V311.176C339.388 314.685 338.642 317.653 337.148 320.08C335.655 322.507 333.639 324.336 331.1 325.568C328.599 326.8 325.799 327.416 322.7 327.416C319.602 327.416 316.82 326.819 314.356 325.624C311.93 324.392 310.007 322.563 308.588 320.136C307.17 317.672 306.46 314.685 306.46 311.176V287.712H316.036Z" fill="black"/>
<path d="M96.0874 141.115C109.844 86.4882 165.28 53.3555 219.908 67.1116C274.535 80.868 307.668 136.304 293.912 190.932C280.155 245.559 224.719 278.692 170.091 264.936C115.464 251.179 82.331 195.743 96.0874 141.115Z" fill="#111827" stroke="#111827" stroke-width="4"/>
<mask id="mask1_937_165" style="mask-type:alpha" maskUnits="userSpaceOnUse" x="94" y="66" width="202" height="201">
<path d="M291.972 190.444C278.486 244 224.136 276.483 170.58 262.996C117.024 249.51 84.5406 195.16 98.0273 141.604C111.514 88.0475 165.863 55.5645 219.42 69.0513C272.976 82.538 305.459 136.887 291.972 190.444Z" fill="#385DF5"/>
</mask>
<g mask="url(#mask1_937_165)">
<path d="M151.979 211.084C191.406 249.337 245.953 257.069 273.813 228.354L281.5 221.131C281.5 221.131 292.149 203.131 296.5 173.631C300.851 144.131 291.313 126.631 273.813 103.131C256.313 79.6314 236.211 68.7562 203 64.6312C179.174 61.6718 149 75.1313 149 75.1313L140.386 82.1477C137.02 84.3297 133.888 86.8873 131.036 89.8268C103.175 118.542 112.552 172.831 151.979 211.084Z" fill="#08238F"/>
<path d="M278.348 165.362C262.595 181.598 231.008 176.504 207.796 153.983C184.584 131.462 178.538 100.043 194.291 83.8063C210.045 67.5697 241.632 72.6641 264.844 95.185C288.056 117.706 294.102 149.125 278.348 165.362Z" fill="#0C36E1"/>
<path d="M259.953 129.85C254.408 135.564 243.151 133.635 234.808 125.541C226.466 117.447 224.198 106.253 229.742 100.539C235.287 94.8242 246.544 96.7532 254.887 104.847C263.229 112.941 265.497 124.135 259.953 129.85Z" fill="#244DF3"/>
</g>
<circle cx="153.5" cy="207.132" r="39.5" fill="#57A7F0" stroke="white" stroke-width="4"/>
<path d="M203.061 264.345C204.559 265.968 207.09 266.069 208.713 264.571C210.336 263.072 210.438 260.542 208.939 258.918L203.061 264.345ZM206 261.632L208.939 258.918L184.939 232.918L182 235.632L179.061 238.345L203.061 264.345L206 261.632Z" fill="white"/>
<path d="M423.88 299.304C422.797 297.027 421.229 295.272 419.176 294.04C417.123 292.771 414.733 292.136 412.008 292.136C409.283 292.136 406.819 292.771 404.616 294.04C402.451 295.272 400.733 297.064 399.464 299.416C398.232 301.731 397.616 304.419 397.616 307.48C397.616 310.541 398.232 313.229 399.464 315.544C400.733 317.859 402.451 319.651 404.616 320.92C406.819 322.152 409.283 322.768 412.008 322.768C415.816 322.768 418.952 321.629 421.416 319.352C423.88 317.075 425.317 313.995 425.728 310.112H410.16V305.968H431.16V309.888C430.861 313.099 429.853 316.048 428.136 318.736C426.419 321.387 424.16 323.496 421.36 325.064C418.56 326.595 415.443 327.36 412.008 327.36C408.387 327.36 405.083 326.52 402.096 324.84C399.109 323.123 396.739 320.752 394.984 317.728C393.267 314.704 392.408 311.288 392.408 307.48C392.408 303.672 393.267 300.256 394.984 297.232C396.739 294.171 399.109 291.8 402.096 290.12C405.083 288.403 408.387 287.544 412.008 287.544C416.152 287.544 419.811 288.571 422.984 290.624C426.195 292.677 428.528 295.571 429.984 299.304H423.88ZM442.994 285.584V327.024H437.898V285.584H442.994ZM465.063 327.528C462.189 327.528 459.575 326.875 457.223 325.568C454.909 324.261 453.079 322.413 451.735 320.024C450.429 317.597 449.775 314.797 449.775 311.624C449.775 308.488 450.447 305.725 451.791 303.336C453.173 300.909 455.039 299.061 457.391 297.792C459.743 296.485 462.375 295.832 465.287 295.832C468.199 295.832 470.831 296.485 473.183 297.792C475.535 299.061 477.383 300.891 478.727 303.28C480.109 305.669 480.799 308.451 480.799 311.624C480.799 314.797 480.09 317.597 478.671 320.024C477.29 322.413 475.405 324.261 473.015 325.568C470.626 326.875 467.975 327.528 465.063 327.528ZM465.063 323.048C466.893 323.048 468.61 322.619 470.215 321.76C471.821 320.901 473.109 319.613 474.079 317.896C475.087 316.179 475.591 314.088 475.591 311.624C475.591 309.16 475.106 307.069 474.135 305.352C473.165 303.635 471.895 302.365 470.327 301.544C468.759 300.685 467.061 300.256 465.231 300.256C463.365 300.256 461.647 300.685 460.079 301.544C458.549 302.365 457.317 303.635 456.383 305.352C455.45 307.069 454.983 309.16 454.983 311.624C454.983 314.125 455.431 316.235 456.327 317.952C457.261 319.669 458.493 320.957 460.023 321.816C461.554 322.637 463.234 323.048 465.063 323.048ZM492.596 302.048C493.641 300.219 495.172 298.725 497.188 297.568C499.204 296.411 501.5 295.832 504.076 295.832C506.838 295.832 509.321 296.485 511.524 297.792C513.726 299.099 515.462 300.947 516.732 303.336C518.001 305.688 518.636 308.432 518.636 311.568C518.636 314.667 518.001 317.429 516.732 319.856C515.462 322.283 513.707 324.168 511.467 325.512C509.265 326.856 506.801 327.528 504.076 327.528C501.425 327.528 499.092 326.949 497.076 325.792C495.097 324.635 493.604 323.16 492.596 321.368V327.024H487.5V285.584H492.596V302.048ZM513.428 311.568C513.428 309.253 512.961 307.237 512.028 305.52C511.094 303.803 509.825 302.496 508.22 301.6C506.652 300.704 504.916 300.256 503.012 300.256C501.145 300.256 499.409 300.723 497.804 301.656C496.236 302.552 494.966 303.877 493.996 305.632C493.062 307.349 492.596 309.347 492.596 311.624C492.596 313.939 493.062 315.973 493.996 317.728C494.966 319.445 496.236 320.771 497.804 321.704C499.409 322.6 501.145 323.048 503.012 323.048C504.916 323.048 506.652 322.6 508.22 321.704C509.825 320.771 511.094 319.445 512.028 317.728C512.961 315.973 513.428 313.92 513.428 311.568ZM523.439 311.568C523.439 308.432 524.074 305.688 525.343 303.336C526.613 300.947 528.349 299.099 530.551 297.792C532.791 296.485 535.274 295.832 537.999 295.832C540.687 295.832 543.021 296.411 544.999 297.568C546.978 298.725 548.453 300.181 549.423 301.936V296.336H554.575V327.024H549.423V321.312C548.415 323.104 546.903 324.597 544.887 325.792C542.909 326.949 540.594 327.528 537.943 327.528C535.218 327.528 532.754 326.856 530.551 325.512C528.349 324.168 526.613 322.283 525.343 319.856C524.074 317.429 523.439 314.667 523.439 311.568ZM549.423 311.624C549.423 309.309 548.957 307.293 548.023 305.576C547.09 303.859 545.821 302.552 544.215 301.656C542.647 300.723 540.911 300.256 539.007 300.256C537.103 300.256 535.367 300.704 533.799 301.6C532.231 302.496 530.981 303.803 530.047 305.52C529.114 307.237 528.647 309.253 528.647 311.568C528.647 313.92 529.114 315.973 530.047 317.728C530.981 319.445 532.231 320.771 533.799 321.704C535.367 322.6 537.103 323.048 539.007 323.048C540.911 323.048 542.647 322.6 544.215 321.704C545.821 320.771 547.09 319.445 548.023 317.728C548.957 315.973 549.423 313.939 549.423 311.624ZM568.283 285.584V327.024H563.187V285.584H568.283ZM590.352 327.416C587.478 327.416 584.902 326.949 582.624 326.016C580.347 325.083 578.518 323.701 577.136 321.872C575.792 320.043 575.083 317.84 575.008 315.264H585.2C585.35 316.72 585.854 317.84 586.712 318.624C587.571 319.371 588.691 319.744 590.072 319.744C591.491 319.744 592.611 319.427 593.432 318.792C594.254 318.12 594.664 317.205 594.664 316.048C594.664 315.077 594.328 314.275 593.656 313.64C593.022 313.005 592.219 312.483 591.248 312.072C590.315 311.661 588.971 311.195 587.216 310.672C584.678 309.888 582.606 309.104 581 308.32C579.395 307.536 578.014 306.379 576.856 304.848C575.699 303.317 575.12 301.32 575.12 298.856C575.12 295.197 576.446 292.341 579.096 290.288C581.747 288.197 585.2 287.152 589.456 287.152C593.787 287.152 597.278 288.197 599.928 290.288C602.579 292.341 603.998 295.216 604.184 298.912H593.824C593.75 297.643 593.283 296.653 592.424 295.944C591.566 295.197 590.464 294.824 589.12 294.824C587.963 294.824 587.03 295.141 586.32 295.776C585.611 296.373 585.256 297.251 585.256 298.408C585.256 299.677 585.854 300.667 587.048 301.376C588.243 302.085 590.11 302.851 592.648 303.672C595.187 304.531 597.24 305.352 598.808 306.136C600.414 306.92 601.795 308.059 602.952 309.552C604.11 311.045 604.688 312.968 604.688 315.32C604.688 317.56 604.11 319.595 602.952 321.424C601.832 323.253 600.19 324.709 598.024 325.792C595.859 326.875 593.302 327.416 590.352 327.416ZM633.373 327.024L620.157 309.664V327.024H610.581V287.712H620.157V304.96L633.261 287.712H644.517L629.285 306.976L645.077 327.024H633.373ZM659.036 287.712V311.232C659.036 313.584 659.615 315.395 660.772 316.664C661.93 317.933 663.628 318.568 665.868 318.568C668.108 318.568 669.826 317.933 671.02 316.664C672.215 315.395 672.812 313.584 672.812 311.232V287.712H682.388V311.176C682.388 314.685 681.642 317.653 680.148 320.08C678.655 322.507 676.639 324.336 674.1 325.568C671.599 326.8 668.799 327.416 665.7 327.416C662.602 327.416 659.82 326.819 657.356 325.624C654.93 324.392 653.007 322.563 651.588 320.136C650.17 317.672 649.46 314.685 649.46 311.176V287.712H659.036Z" fill="black"/>
<path d="M634.972 190.444C621.486 244 567.136 276.483 513.58 262.997C460.024 249.51 427.541 195.161 441.027 141.604C454.514 88.0477 508.863 55.5648 562.42 69.0515C615.976 82.5382 648.459 136.887 634.972 190.444Z" fill="#536FE1"/>
<mask id="mask2_937_165" style="mask-type:alpha" maskUnits="userSpaceOnUse" x="437" y="66" width="202" height="201">
<path d="M634.972 190.444C621.486 244 567.136 276.483 513.58 262.996C460.024 249.51 427.541 195.16 441.027 141.604C454.514 88.0475 508.863 55.5645 562.42 69.0513C615.976 82.538 648.459 136.887 634.972 190.444Z" fill="#618BDD"/>
</mask>
<g mask="url(#mask2_937_165)">
<path d="M494.979 211.084C534.406 249.337 588.953 257.069 616.813 228.354L624.5 221.131C624.5 221.131 635.149 203.131 639.5 173.631C643.851 144.131 634.313 126.631 616.813 103.131C599.313 79.6314 579.211 68.7562 546 64.6312C522.174 61.6718 492 75.1313 492 75.1313L483.386 82.1477C480.02 84.3297 476.888 86.8873 474.036 89.8268C446.175 118.542 455.552 172.831 494.979 211.084Z" fill="#6FA6D9"/>
<path d="M621.348 165.362C605.595 181.598 574.008 176.504 550.796 153.983C527.584 131.462 521.538 100.043 537.291 83.8063C553.045 67.5697 584.632 72.6641 607.844 95.185C631.056 117.706 637.102 149.125 621.348 165.362Z" fill="#7DC2D4"/>
<path d="M602.953 129.85C597.408 135.564 586.151 133.635 577.808 125.541C569.466 117.447 567.198 106.253 572.742 100.539C578.287 94.8242 589.544 96.7532 597.887 104.847C606.229 112.941 608.497 124.135 602.953 129.85Z" fill="#8BDDD0"/>
</g>
<circle cx="496.5" cy="207.132" r="37.5" fill="url(#paint0_linear_937_165)" fill-opacity="0.5" stroke="#111827" stroke-width="8"/>
<path d="M445.939 264.713C444.441 266.336 441.91 266.438 440.287 264.939C438.664 263.441 438.562 260.91 440.061 259.287L445.939 264.713ZM443 262L440.061 259.287L464.061 233.287L467 236L469.939 238.713L445.939 264.713L443 262Z" fill="#111827"/>
<defs>
<linearGradient id="paint0_linear_937_165" x1="456.157" y1="209.246" x2="530.639" y2="173.387" gradientUnits="userSpaceOnUse">
<stop stop-color="#8BDDD0"/>
<stop offset="1" stop-color="#536FE1"/>
</linearGradient>
</defs>
</svg>
