<svg width="1075" height="275" viewBox="0 0 1075 275" fill="none" xmlns="http://www.w3.org/2000/svg">
<path d="M938.595 99.6238C941.028 99.6445 943.408 99.8896 945.714 100.341V176.162C943.408 176.613 941.028 176.858 938.595 176.878V99.6238Z" fill="url(#paint0_linear_937_178)"/>
<path d="M935.509 176.783C933.664 176.653 931.854 176.394 930.09 176.014V100.487C931.854 100.107 933.664 99.8483 935.509 99.7184V176.783Z" fill="url(#paint1_linear_937_178)"/>
<path d="M948.801 101.077C949.481 101.27 950.153 101.481 950.817 101.709V174.793C950.153 175.021 949.481 175.232 948.801 175.424V101.077Z" fill="url(#paint2_linear_937_178)"/>
<path d="M927.003 175.214C925.436 174.737 923.911 174.164 922.435 173.501V103.001C923.911 102.337 925.436 101.764 927.003 101.288V175.214Z" fill="url(#paint3_linear_937_178)"/>
<path d="M953.903 102.921C956.431 104.042 958.816 105.426 961.023 107.038V169.463C958.816 171.076 956.431 172.459 953.903 173.58V102.921Z" fill="url(#paint4_linear_937_178)"/>
<path d="M919.349 171.943C918.366 171.39 917.409 170.795 916.482 170.161V106.342C917.409 105.707 918.366 105.112 919.349 104.559V171.943Z" fill="url(#paint5_linear_937_178)"/>
<path d="M913.395 167.815C911.051 165.841 908.945 163.595 907.126 161.123V115.379C908.945 112.907 911.051 110.66 913.395 108.687V167.815Z" fill="url(#paint6_linear_937_178)"/>
<path d="M964.11 109.546C966.118 111.356 967.936 113.373 969.529 115.565V160.937C967.936 163.129 966.118 165.146 964.11 166.955V109.546Z" fill="url(#paint7_linear_937_178)"/>
<path d="M904.04 156.19C901.224 150.83 899.63 144.727 899.63 138.251C899.63 131.775 901.223 125.672 904.04 120.311V156.19Z" fill="url(#paint8_linear_937_178)"/>
<path d="M972.615 120.573C975.346 125.871 976.889 131.881 976.889 138.251C976.889 144.621 975.346 150.631 972.615 155.929V120.573Z" fill="url(#paint9_linear_937_178)"/>
<path d="M1013.26 199.728L999.728 213.259L963.975 177.506L977.506 163.975L1013.26 199.728Z" fill="url(#paint10_linear_937_178)"/>
<path d="M980.593 138C980.593 114.477 961.523 95.4074 938 95.4074C914.477 95.4074 895.407 114.477 895.407 138C895.407 161.523 914.477 180.593 938 180.593V199.728C903.908 199.728 876.272 172.092 876.272 138C876.272 103.908 903.908 76.2716 938 76.2716C972.092 76.2716 999.728 103.908 999.728 138C999.728 172.092 972.092 199.728 938 199.728V180.593C961.523 180.593 980.593 161.523 980.593 138Z" fill="url(#paint11_linear_937_178)"/>
<path d="M938 38C993.228 38 1038 82.7715 1038 138C1038 155.146 1033.68 171.284 1026.08 185.388L1011.8 171.106C1016.34 161.001 1018.86 149.796 1018.86 138C1018.86 93.3399 982.66 57.1358 938 57.1358C893.34 57.1358 857.136 93.3399 857.136 138C857.136 182.66 893.34 218.864 938 218.864C963.803 218.864 986.783 206.778 1001.59 187.959L1015.2 201.568C996.857 223.816 969.085 238 938 238C882.772 238 838 193.228 838 138C838 82.7715 882.772 38 938 38Z" fill="url(#paint12_linear_937_178)"/>
<path d="M212.259 199.728L198.728 213.259L162.975 177.506L176.506 163.975L212.259 199.728Z" fill="url(#paint13_linear_937_178)"/>
<path d="M179.593 138C179.593 114.477 160.523 95.4074 137 95.4074C113.477 95.4074 94.4074 114.477 94.4074 138C94.4074 161.523 113.477 180.593 137 180.593V199.728C102.908 199.728 75.2716 172.092 75.2716 138C75.2716 103.908 102.908 76.2716 137 76.2716C171.092 76.2716 198.728 103.908 198.728 138C198.728 172.092 171.092 199.728 137 199.728V180.593C160.523 180.593 179.593 161.523 179.593 138Z" fill="url(#paint14_linear_937_178)"/>
<path d="M137 38C192.228 38 237 82.7715 237 138C237 155.146 232.683 171.284 225.079 185.388L210.797 171.106C215.337 161.001 217.864 149.796 217.864 138C217.864 93.3399 181.66 57.1358 137 57.1358C92.3399 57.1358 56.1358 93.3399 56.1358 138C56.1358 182.66 92.3399 218.864 137 218.864C162.803 218.864 185.783 206.778 200.589 187.959L214.198 201.568C195.857 223.816 168.085 238 137 238C81.7715 238 37 193.228 37 138C37 82.7715 81.7715 38 137 38Z" fill="url(#paint15_linear_937_178)"/>
<g filter="url(#filter0_d_937_178)">
<path d="M358.432 140.688H346.504V152.784H341.744V140.688H329.872V136.376H341.744V124.224H346.504V136.376H358.432V140.688Z" fill="#616161"/>
</g>
<g filter="url(#filter1_d_937_178)">
<path d="M743.776 130.328V134.64H714.656V130.328H743.776ZM743.776 142.368V146.68H714.656V142.368H743.776Z" fill="#616161"/>
</g>
<path d="M612.739 96C617.158 96 620.739 99.5817 620.739 104V172.985C620.739 177.404 617.158 180.985 612.739 180.985H460C455.582 180.985 452 177.404 452 172.985V104C452 99.7199 455.361 96.2252 459.588 96.0107L460 96H612.739ZM460 172.985H612.739V104H460V172.985ZM472.71 163.786H470.14V112.23H472.71V163.786ZM483.635 163.786H479.779V112.23H483.635V163.786ZM497.13 163.786H490.703V112.23H497.13V163.786ZM506.126 163.786H504.198V112.23H506.126V163.786ZM517.693 163.786H513.195V112.23H517.693V163.786ZM526.047 163.786H524.762V112.23H526.047V163.786ZM538.257 163.786H533.116V112.23H538.257V163.786ZM547.896 163.786H545.325V112.23H547.896V163.786ZM561.391 163.786H554.965V112.23H561.391V163.786ZM572.958 163.786H568.459V112.23H572.958V163.786ZM581.954 163.786H580.026V112.23H581.954V163.786ZM594.164 163.786H589.022V112.23H594.164V163.786ZM603.803 163.786H601.232V112.23H603.803V163.786Z" fill="url(#paint16_linear_937_178)"/>
<defs>
<filter id="filter0_d_937_178" x="325.872" y="120.224" width="36.5598" height="36.56" filterUnits="userSpaceOnUse" color-interpolation-filters="sRGB">
<feFlood flood-opacity="0" result="BackgroundImageFix"/>
<feColorMatrix in="SourceAlpha" type="matrix" values="0 0 0 0 0 0 0 0 0 0 0 0 0 0 0 0 0 0 127 0" result="hardAlpha"/>
<feOffset/>
<feGaussianBlur stdDeviation="2"/>
<feComposite in2="hardAlpha" operator="out"/>
<feColorMatrix type="matrix" values="0 0 0 0 0 0 0 0 0 0 0 0 0 0 0 0 0 0 0.25 0"/>
<feBlend mode="normal" in2="BackgroundImageFix" result="effect1_dropShadow_937_178"/>
<feBlend mode="normal" in="SourceGraphic" in2="effect1_dropShadow_937_178" result="shape"/>
</filter>
<filter id="filter1_d_937_178" x="710.656" y="126.328" width="37.1199" height="24.352" filterUnits="userSpaceOnUse" color-interpolation-filters="sRGB">
<feFlood flood-opacity="0" result="BackgroundImageFix"/>
<feColorMatrix in="SourceAlpha" type="matrix" values="0 0 0 0 0 0 0 0 0 0 0 0 0 0 0 0 0 0 127 0" result="hardAlpha"/>
<feOffset/>
<feGaussianBlur stdDeviation="2"/>
<feComposite in2="hardAlpha" operator="out"/>
<feColorMatrix type="matrix" values="0 0 0 0 0 0 0 0 0 0 0 0 0 0 0 0 0 0 0.25 0"/>
<feBlend mode="normal" in2="BackgroundImageFix" result="effect1_dropShadow_937_178"/>
<feBlend mode="normal" in="SourceGraphic" in2="effect1_dropShadow_937_178" result="shape"/>
</filter>
<linearGradient id="paint0_linear_937_178" x1="840.788" y1="143.095" x2="1038" y2="143.095" gradientUnits="userSpaceOnUse">
<stop stop-color="#8BDDD0"/>
<stop offset="1" stop-color="#536FE1"/>
</linearGradient>
<linearGradient id="paint1_linear_937_178" x1="840.788" y1="143.095" x2="1038" y2="143.095" gradientUnits="userSpaceOnUse">
<stop stop-color="#8BDDD0"/>
<stop offset="1" stop-color="#536FE1"/>
</linearGradient>
<linearGradient id="paint2_linear_937_178" x1="840.788" y1="143.095" x2="1038" y2="143.095" gradientUnits="userSpaceOnUse">
<stop stop-color="#8BDDD0"/>
<stop offset="1" stop-color="#536FE1"/>
</linearGradient>
<linearGradient id="paint3_linear_937_178" x1="840.788" y1="143.095" x2="1038" y2="143.095" gradientUnits="userSpaceOnUse">
<stop stop-color="#8BDDD0"/>
<stop offset="1" stop-color="#536FE1"/>
</linearGradient>
<linearGradient id="paint4_linear_937_178" x1="840.788" y1="143.095" x2="1038" y2="143.095" gradientUnits="userSpaceOnUse">
<stop stop-color="#8BDDD0"/>
<stop offset="1" stop-color="#536FE1"/>
</linearGradient>
<linearGradient id="paint5_linear_937_178" x1="840.788" y1="143.095" x2="1038" y2="143.095" gradientUnits="userSpaceOnUse">
<stop stop-color="#8BDDD0"/>
<stop offset="1" stop-color="#536FE1"/>
</linearGradient>
<linearGradient id="paint6_linear_937_178" x1="840.788" y1="143.095" x2="1038" y2="143.095" gradientUnits="userSpaceOnUse">
<stop stop-color="#8BDDD0"/>
<stop offset="1" stop-color="#536FE1"/>
</linearGradient>
<linearGradient id="paint7_linear_937_178" x1="840.788" y1="143.095" x2="1038" y2="143.095" gradientUnits="userSpaceOnUse">
<stop stop-color="#8BDDD0"/>
<stop offset="1" stop-color="#536FE1"/>
</linearGradient>
<linearGradient id="paint8_linear_937_178" x1="840.788" y1="143.095" x2="1038" y2="143.095" gradientUnits="userSpaceOnUse">
<stop stop-color="#8BDDD0"/>
<stop offset="1" stop-color="#536FE1"/>
</linearGradient>
<linearGradient id="paint9_linear_937_178" x1="840.788" y1="143.095" x2="1038" y2="143.095" gradientUnits="userSpaceOnUse">
<stop stop-color="#8BDDD0"/>
<stop offset="1" stop-color="#536FE1"/>
</linearGradient>
<linearGradient id="paint10_linear_937_178" x1="840.788" y1="143.095" x2="1038" y2="143.095" gradientUnits="userSpaceOnUse">
<stop stop-color="#8BDDD0"/>
<stop offset="1" stop-color="#536FE1"/>
</linearGradient>
<linearGradient id="paint11_linear_937_178" x1="840.788" y1="143.095" x2="1038" y2="143.095" gradientUnits="userSpaceOnUse">
<stop stop-color="#8BDDD0"/>
<stop offset="1" stop-color="#536FE1"/>
</linearGradient>
<linearGradient id="paint12_linear_937_178" x1="840.788" y1="143.095" x2="1038" y2="143.095" gradientUnits="userSpaceOnUse">
<stop stop-color="#8BDDD0"/>
<stop offset="1" stop-color="#536FE1"/>
</linearGradient>
<linearGradient id="paint13_linear_937_178" x1="39.7879" y1="143.095" x2="237" y2="143.095" gradientUnits="userSpaceOnUse">
<stop stop-color="#8BDDD0"/>
<stop offset="1" stop-color="#536FE1"/>
</linearGradient>
<linearGradient id="paint14_linear_937_178" x1="39.7879" y1="143.095" x2="237" y2="143.095" gradientUnits="userSpaceOnUse">
<stop stop-color="#8BDDD0"/>
<stop offset="1" stop-color="#536FE1"/>
</linearGradient>
<linearGradient id="paint15_linear_937_178" x1="39.7879" y1="143.095" x2="237" y2="143.095" gradientUnits="userSpaceOnUse">
<stop stop-color="#8BDDD0"/>
<stop offset="1" stop-color="#536FE1"/>
</linearGradient>
<linearGradient id="paint16_linear_937_178" x1="454.352" y1="140.657" x2="620.739" y2="140.657" gradientUnits="userSpaceOnUse">
<stop stop-color="#8BDDD0"/>
<stop offset="1" stop-color="#536FE1"/>
</linearGradient>
</defs>
</svg>
