<svg width="1178" height="574" viewBox="0 0 1178 574" fill="none" xmlns="http://www.w3.org/2000/svg">
<circle cx="666" cy="164" r="100" fill="#385DF5"/>
<mask id="mask0_937_142" style="mask-type:alpha" maskUnits="userSpaceOnUse" x="566" y="64" width="200" height="200">
<circle cx="666" cy="164" r="100" fill="#385DF5"/>
</mask>
<g mask="url(#mask0_937_142)">
<path d="M619.809 244.308C668.634 272.497 728.288 260.581 753.05 217.693L791 158.5L758.5 78.9999L700.5 57.4999L634 57.4999L576.237 91.4999L576.237 115.61C551.475 158.498 570.983 216.118 619.809 244.308Z" fill="white" fill-opacity="0.2"/>
<path d="M635.285 218.202C682.86 245.669 737.643 239.847 757.648 205.197L786.5 162.5L741 64L648.5 57L592.557 82.5L592.557 96C589.826 98.938 587.413 102.183 585.365 105.73C565.361 140.379 587.71 190.735 635.285 218.202Z" fill="white" fill-opacity="0.2"/>
<path d="M654.006 185.814C695.272 209.639 742.405 205.257 759.281 176.027C763.423 168.852 765.357 160.848 765.308 152.5L764 126.5L731.5 60L669 56L643 66.647C628.566 70.0912 616.705 77.8674 609.845 89.7501C592.969 118.98 612.74 161.989 654.006 185.814Z" fill="white" fill-opacity="0.2"/>
<ellipse cx="695.949" cy="113.724" rx="58.5595" ry="40.9623" transform="rotate(30 695.949 113.724)" fill="white" fill-opacity="0.2"/>
<ellipse cx="701.926" cy="102.537" rx="21.0466" ry="14.4168" transform="rotate(30 701.926 102.537)" fill="white" fill-opacity="0.2"/>
</g>
<circle cx="415" cy="164" r="100" fill="#385DF5"/>
<mask id="mask1_937_142" style="mask-type:alpha" maskUnits="userSpaceOnUse" x="315" y="64" width="200" height="200">
<circle cx="415" cy="164" r="100" fill="#385DF5"/>
</mask>
<g mask="url(#mask1_937_142)">
<path d="M368.809 244.308C417.634 272.497 477.288 260.581 502.05 217.693L540 158.5L507.5 78.9999L449.5 57.4999L383 57.4999L325.237 91.4999L325.237 115.61C300.475 158.498 319.983 216.118 368.809 244.308Z" fill="black" fill-opacity="0.2"/>
<path d="M384.285 218.202C431.86 245.669 486.643 239.847 506.648 205.197L535.5 162.5L490 64L397.5 57L341.557 82.5L341.557 96C338.826 98.938 336.413 102.183 334.365 105.73C314.361 140.379 336.71 190.735 384.285 218.202Z" fill="black" fill-opacity="0.2"/>
<path d="M403.006 185.814C444.272 209.639 491.405 205.257 508.281 176.027C512.423 168.852 514.357 160.848 514.308 152.5L513 126.5L480.5 60L418 56L392 66.647C377.566 70.0912 365.705 77.8674 358.845 89.7501C341.969 118.98 361.74 161.989 403.006 185.814Z" fill="black" fill-opacity="0.2"/>
<ellipse cx="444.949" cy="113.724" rx="58.5595" ry="40.9623" transform="rotate(30 444.949 113.724)" fill="black" fill-opacity="0.2"/>
<ellipse cx="450.926" cy="102.537" rx="21.0466" ry="14.4168" transform="rotate(30 450.926 102.537)" fill="black" fill-opacity="0.2"/>
</g>
<circle cx="171" cy="164" r="100" fill="#111827"/>
<mask id="mask2_937_142" style="mask-type:alpha" maskUnits="userSpaceOnUse" x="71" y="64" width="200" height="200">
<circle cx="171" cy="164" r="100" fill="#385DF5"/>
</mask>
<g mask="url(#mask2_937_142)">
<path d="M124.809 244.308C173.634 272.497 233.288 260.581 258.05 217.693L296 158.5L263.5 78.9999L205.5 57.4999L139 57.4999L81.2369 91.4999L81.2369 115.61C56.4754 158.498 75.9831 216.118 124.809 244.308Z" fill="#051966"/>
<path d="M140.285 218.202C187.86 245.669 242.643 239.847 262.648 205.197L291.5 162.5L246 64L153.5 57L97.5573 82.5L97.5573 96C94.8255 98.938 92.4132 102.183 90.3654 105.73C70.3606 140.379 92.7104 190.735 140.285 218.202Z" fill="#08238F"/>
<path d="M159.006 185.814C200.272 209.639 247.405 205.257 264.281 176.027C268.423 168.852 270.357 160.848 270.308 152.5L269 126.5L236.5 60L174 56L148 66.647C133.566 70.0912 121.705 77.8674 114.845 89.7501C97.9687 118.98 117.74 161.989 159.006 185.814Z" fill="#0A2CB8"/>
<ellipse cx="200.949" cy="113.724" rx="58.5595" ry="40.9623" transform="rotate(30 200.949 113.724)" fill="#0C36E1"/>
<ellipse cx="206.926" cy="102.537" rx="21.0466" ry="14.4168" transform="rotate(30 206.926 102.537)" fill="#244DF3"/>
</g>
<path d="M517.283 432.103C503.122 488.337 446.055 522.444 389.821 508.283C333.587 494.122 299.48 437.055 313.641 380.821C327.802 324.587 384.869 290.48 441.103 304.641C497.337 318.802 531.444 375.869 517.283 432.103Z" fill="url(#paint0_linear_937_142)"/>
<path d="M512.435 430.882C498.948 484.438 444.599 516.921 391.042 503.434C337.486 489.948 305.003 435.599 318.49 382.042C331.976 328.486 386.326 296.003 439.882 309.489C493.438 322.976 525.921 377.325 512.435 430.882Z" fill="url(#paint1_linear_937_142)"/>
<mask id="mask3_937_142" style="mask-type:alpha" maskUnits="userSpaceOnUse" x="315" y="306" width="201" height="201">
<path d="M512.435 430.882C498.948 484.438 444.599 516.921 391.042 503.434C337.486 489.948 305.003 435.599 318.49 382.042C331.976 328.486 386.326 296.003 439.882 309.489C493.438 322.976 525.921 377.325 512.435 430.882Z" fill="#385DF5"/>
</mask>
<g mask="url(#mask3_937_142)">
<path d="M372.441 451.522C411.868 489.776 466.415 497.508 494.275 468.793L532.68 434.433L512.611 327.804L424.621 298.428L364.145 309.495L360.848 322.586C357.482 324.768 354.35 327.326 351.498 330.265C323.638 358.98 333.014 413.269 372.441 451.522Z" fill="black" fill-opacity="0.2"/>
<path d="M498.81 405.8C483.057 422.036 451.47 416.942 428.258 394.421C405.046 371.9 399 340.481 414.753 324.244C430.507 308.008 462.094 313.102 485.306 335.623C508.517 358.144 514.564 389.563 498.81 405.8Z" fill="black" fill-opacity="0.2"/>
<path d="M480.415 370.288C474.871 376.003 463.613 374.074 455.271 365.98C446.928 357.885 444.66 346.691 450.204 340.977C455.749 335.262 467.006 337.191 475.349 345.286C483.691 353.38 485.959 364.574 480.415 370.288Z" fill="black" fill-opacity="0.2"/>
</g>
<path d="M772.283 432.103C758.122 488.337 701.055 522.444 644.821 508.283C588.587 494.122 554.48 437.055 568.641 380.821C582.802 324.587 639.869 290.48 696.103 304.641C752.337 318.802 786.444 375.869 772.283 432.103Z" fill="url(#paint2_linear_937_142)"/>
<path d="M767.435 430.882C753.948 484.438 699.599 516.921 646.042 503.434C592.486 489.948 560.003 435.599 573.49 382.042C586.976 328.486 641.326 296.003 694.882 309.489C748.438 322.976 780.921 377.325 767.435 430.882Z" fill="url(#paint3_linear_937_142)"/>
<mask id="mask4_937_142" style="mask-type:alpha" maskUnits="userSpaceOnUse" x="570" y="306" width="201" height="201">
<path d="M767.435 430.882C753.948 484.438 699.599 516.921 646.042 503.434C592.486 489.948 560.003 435.599 573.49 382.042C586.976 328.486 641.326 296.003 694.882 309.489C748.438 322.976 780.921 377.325 767.435 430.882Z" fill="#385DF5"/>
</mask>
<g mask="url(#mask4_937_142)">
<path d="M627.441 451.522C666.868 489.776 721.415 497.508 749.275 468.793L787.68 434.433L767.611 327.804L679.621 298.428L619.145 309.495L615.848 322.586C612.482 324.768 609.35 327.326 606.498 330.265C578.638 358.98 588.014 413.269 627.441 451.522Z" fill="black" fill-opacity="0.2"/>
<path d="M753.81 405.8C738.057 422.036 706.47 416.942 683.258 394.421C660.046 371.9 654 340.481 669.753 324.244C685.507 308.008 717.094 313.102 740.306 335.623C763.517 358.144 769.564 389.563 753.81 405.8Z" fill="black" fill-opacity="0.2"/>
<path d="M735.415 370.288C729.871 376.003 718.613 374.074 710.271 365.98C701.928 357.885 699.66 346.691 705.204 340.977C710.749 335.262 722.006 337.191 730.349 345.286C738.691 353.38 740.959 364.574 735.415 370.288Z" fill="black" fill-opacity="0.2"/>
</g>
<circle cx="160" cy="407" r="105" fill="url(#paint4_linear_937_142)"/>
<circle cx="160" cy="407" r="100" fill="url(#paint5_linear_937_142)"/>
<mask id="mask5_937_142" style="mask-type:alpha" maskUnits="userSpaceOnUse" x="60" y="307" width="200" height="200">
<circle cx="160" cy="407" r="100" fill="#385DF5"/>
</mask>
<g mask="url(#mask5_937_142)">
<path d="M113.809 487.308C162.634 515.497 222.288 503.581 247.05 460.693L285 401.5L252.5 322L194.5 300.5L128 300.5L70.2369 334.5L70.2369 358.61C45.4754 401.498 64.9831 459.118 113.809 487.308Z" fill="black" fill-opacity="0.1"/>
<path d="M129.285 461.202C176.86 488.669 231.643 482.847 251.648 448.197L280.5 405.5L235 307L142.5 300L86.5573 325.5L86.5573 339C83.8255 341.938 81.4132 345.183 79.3654 348.73C59.3606 383.379 81.7104 433.735 129.285 461.202Z" fill="black" fill-opacity="0.1"/>
<path d="M148.006 428.814C189.272 452.639 236.405 448.257 253.281 419.027C257.423 411.852 259.357 403.848 259.308 395.5L258 369.5L225.5 303L163 299L137 309.647C122.566 313.091 110.705 320.867 103.845 332.75C86.9687 361.98 106.74 404.989 148.006 428.814Z" fill="black" fill-opacity="0.1"/>
<ellipse cx="189.949" cy="356.724" rx="58.5595" ry="40.9623" transform="rotate(30 189.949 356.724)" fill="black" fill-opacity="0.1"/>
<ellipse cx="195.926" cy="345.537" rx="21.0466" ry="14.4168" transform="rotate(30 195.926 345.537)" fill="black" fill-opacity="0.1"/>
</g>
<path d="M1068.47 251.444C1054.99 305 1000.64 337.483 947.08 323.996C893.524 310.51 861.041 256.16 874.528 202.604C888.014 149.047 942.364 116.565 995.92 130.051C1049.48 143.538 1081.96 197.887 1068.47 251.444Z" fill="#6FA6D9"/>
<path d="M913 145.919C911.084 147.417 909.259 149.052 907.536 150.827C879.676 179.542 889.052 233.83 928.479 272.084C966.619 309.089 1018.91 317.531 1047.5 292.048C1023.59 319.952 985.135 333.579 947.08 323.996C893.524 310.509 861.041 256.16 874.528 202.603C880.514 178.83 894.554 159.21 913 145.919Z" fill="#536FE1"/>
<path d="M1054.85 226.361C1039.1 242.598 1007.51 237.503 984.296 214.983C961.084 192.462 955.038 161.043 970.791 144.806C986.545 128.569 1018.13 133.664 1041.34 156.185C1064.56 178.706 1070.6 210.125 1054.85 226.361Z" fill="#7DC2D4"/>
<path d="M1036.45 190.85C1030.91 196.564 1019.65 194.635 1011.31 186.541C1002.97 178.447 1000.7 167.253 1006.24 161.538C1011.79 155.824 1023.04 157.753 1031.39 165.847C1039.73 173.941 1042 185.135 1036.45 190.85Z" fill="#8BDDD0"/>
<path d="M914.052 346.328C912.969 344.05 911.401 342.296 909.348 341.064C907.295 339.794 904.905 339.16 902.18 339.16C899.455 339.16 896.991 339.794 894.788 341.064C892.623 342.296 890.905 344.088 889.636 346.44C888.404 348.754 887.788 351.442 887.788 354.504C887.788 357.565 888.404 360.253 889.636 362.568C890.905 364.882 892.623 366.674 894.788 367.944C896.991 369.176 899.455 369.792 902.18 369.792C905.988 369.792 909.124 368.653 911.588 366.376C914.052 364.098 915.489 361.018 915.9 357.136H900.332V352.992H921.332V356.912C921.033 360.122 920.025 363.072 918.308 365.76C916.591 368.41 914.332 370.52 911.532 372.088C908.732 373.618 905.615 374.384 902.18 374.384C898.559 374.384 895.255 373.544 892.268 371.864C889.281 370.146 886.911 367.776 885.156 364.752C883.439 361.728 882.58 358.312 882.58 354.504C882.58 350.696 883.439 347.28 885.156 344.256C886.911 341.194 889.281 338.824 892.268 337.144C895.255 335.426 898.559 334.568 902.18 334.568C906.324 334.568 909.983 335.594 913.156 337.648C916.367 339.701 918.7 342.594 920.156 346.328H914.052ZM933.166 332.608V374.048H928.07V332.608H933.166ZM955.235 374.552C952.36 374.552 949.747 373.898 947.395 372.592C945.08 371.285 943.251 369.437 941.907 367.048C940.6 364.621 939.947 361.821 939.947 358.648C939.947 355.512 940.619 352.749 941.963 350.36C943.344 347.933 945.211 346.085 947.563 344.816C949.915 343.509 952.547 342.856 955.459 342.856C958.371 342.856 961.003 343.509 963.355 344.816C965.707 346.085 967.555 347.914 968.899 350.304C970.28 352.693 970.971 355.474 970.971 358.648C970.971 361.821 970.262 364.621 968.843 367.048C967.462 369.437 965.576 371.285 963.187 372.592C960.798 373.898 958.147 374.552 955.235 374.552ZM955.235 370.072C957.064 370.072 958.782 369.642 960.387 368.784C961.992 367.925 963.28 366.637 964.251 364.92C965.259 363.202 965.763 361.112 965.763 358.648C965.763 356.184 965.278 354.093 964.307 352.376C963.336 350.658 962.067 349.389 960.499 348.568C958.931 347.709 957.232 347.28 955.403 347.28C953.536 347.28 951.819 347.709 950.251 348.568C948.72 349.389 947.488 350.658 946.555 352.376C945.622 354.093 945.155 356.184 945.155 358.648C945.155 361.149 945.603 363.258 946.499 364.976C947.432 366.693 948.664 367.981 950.195 368.84C951.726 369.661 953.406 370.072 955.235 370.072ZM982.767 349.072C983.813 347.242 985.343 345.749 987.359 344.592C989.375 343.434 991.671 342.856 994.247 342.856C997.01 342.856 999.493 343.509 1001.7 344.816C1003.9 346.122 1005.63 347.97 1006.9 350.36C1008.17 352.712 1008.81 355.456 1008.81 358.592C1008.81 361.69 1008.17 364.453 1006.9 366.88C1005.63 369.306 1003.88 371.192 1001.64 372.536C999.437 373.88 996.973 374.552 994.247 374.552C991.597 374.552 989.263 373.973 987.247 372.816C985.269 371.658 983.775 370.184 982.767 368.392V374.048H977.671V332.608H982.767V349.072ZM1003.6 358.592C1003.6 356.277 1003.13 354.261 1002.2 352.544C1001.27 350.826 999.997 349.52 998.391 348.624C996.823 347.728 995.087 347.28 993.183 347.28C991.317 347.28 989.581 347.746 987.975 348.68C986.407 349.576 985.138 350.901 984.167 352.656C983.234 354.373 982.767 356.37 982.767 358.648C982.767 360.962 983.234 362.997 984.167 364.752C985.138 366.469 986.407 367.794 987.975 368.728C989.581 369.624 991.317 370.072 993.183 370.072C995.087 370.072 996.823 369.624 998.391 368.728C999.997 367.794 1001.27 366.469 1002.2 364.752C1003.13 362.997 1003.6 360.944 1003.6 358.592ZM1013.61 358.592C1013.61 355.456 1014.25 352.712 1015.52 350.36C1016.78 347.97 1018.52 346.122 1020.72 344.816C1022.96 343.509 1025.45 342.856 1028.17 342.856C1030.86 342.856 1033.19 343.434 1035.17 344.592C1037.15 345.749 1038.62 347.205 1039.6 348.96V343.36H1044.75V374.048H1039.6V368.336C1038.59 370.128 1037.08 371.621 1035.06 372.816C1033.08 373.973 1030.77 374.552 1028.12 374.552C1025.39 374.552 1022.93 373.88 1020.72 372.536C1018.52 371.192 1016.78 369.306 1015.52 366.88C1014.25 364.453 1013.61 361.69 1013.61 358.592ZM1039.6 358.648C1039.6 356.333 1039.13 354.317 1038.2 352.6C1037.26 350.882 1035.99 349.576 1034.39 348.68C1032.82 347.746 1031.08 347.28 1029.18 347.28C1027.28 347.28 1025.54 347.728 1023.97 348.624C1022.4 349.52 1021.15 350.826 1020.22 352.544C1019.29 354.261 1018.82 356.277 1018.82 358.592C1018.82 360.944 1019.29 362.997 1020.22 364.752C1021.15 366.469 1022.4 367.794 1023.97 368.728C1025.54 369.624 1027.28 370.072 1029.18 370.072C1031.08 370.072 1032.82 369.624 1034.39 368.728C1035.99 367.794 1037.26 366.469 1038.2 364.752C1039.13 362.997 1039.6 360.962 1039.6 358.648ZM1058.45 332.608V374.048H1053.36V332.608H1058.45Z" fill="black"/>
<path d="M908.456 446.685C903.785 446.685 899.599 445.926 895.898 444.41C892.198 442.893 889.225 440.648 886.98 437.676C884.796 434.703 883.644 431.124 883.522 426.938H900.084C900.327 429.304 901.146 431.124 902.541 432.398C903.937 433.611 905.757 434.218 908.001 434.218C910.307 434.218 912.127 433.702 913.461 432.671C914.796 431.579 915.463 430.092 915.463 428.212C915.463 426.634 914.917 425.33 913.825 424.299C912.794 423.267 911.49 422.418 909.912 421.751C908.396 421.083 906.212 420.325 903.36 419.476C899.235 418.202 895.868 416.928 893.259 415.654C890.651 414.38 888.406 412.499 886.525 410.012C884.645 407.524 883.704 404.279 883.704 400.275C883.704 394.329 885.858 389.688 890.165 386.352C894.473 382.954 900.084 381.256 907 381.256C914.038 381.256 919.71 382.954 924.017 386.352C928.325 389.688 930.63 394.36 930.933 400.366H914.098C913.977 398.303 913.219 396.695 911.823 395.543C910.428 394.329 908.638 393.723 906.454 393.723C904.574 393.723 903.057 394.238 901.904 395.27C900.752 396.24 900.175 397.666 900.175 399.547C900.175 401.609 901.146 403.217 903.087 404.37C905.029 405.522 908.062 406.766 912.187 408.101C916.313 409.496 919.649 410.831 922.197 412.105C924.806 413.379 927.051 415.229 928.931 417.656C930.812 420.082 931.752 423.207 931.752 427.029C931.752 430.669 930.812 433.975 928.931 436.948C927.111 439.92 924.442 442.286 920.923 444.046C917.405 445.805 913.249 446.685 908.456 446.685ZM978.366 446.048L956.89 417.838V446.048H941.329V382.166H956.89V410.194L978.184 382.166H996.475L971.723 413.47L997.385 446.048H978.366ZM1020.07 382.166V420.386C1020.07 424.208 1021.01 427.15 1022.89 429.213C1024.77 431.275 1027.53 432.307 1031.17 432.307C1034.81 432.307 1037.6 431.275 1039.54 429.213C1041.48 427.15 1042.45 424.208 1042.45 420.386V382.166H1058.01V420.295C1058.01 425.997 1056.8 430.82 1054.37 434.764C1051.95 438.707 1048.67 441.68 1044.55 443.682C1040.48 445.684 1035.93 446.685 1030.9 446.685C1025.86 446.685 1021.34 445.714 1017.34 443.773C1013.39 441.771 1010.27 438.798 1007.96 434.855C1005.66 430.851 1004.51 425.997 1004.51 420.295V382.166H1020.07Z" fill="black"/>
<defs>
<linearGradient id="paint0_linear_937_142" x1="315.173" y1="386.723" x2="515.977" y2="437.29" gradientUnits="userSpaceOnUse">
<stop stop-color="#8BDDD0"/>
<stop offset="1" stop-color="#536FE1"/>
</linearGradient>
<linearGradient id="paint1_linear_937_142" x1="319.949" y1="387.663" x2="511.191" y2="435.822" gradientUnits="userSpaceOnUse">
<stop stop-color="#8BDDD0"/>
<stop offset="1" stop-color="#536FE1"/>
</linearGradient>
<linearGradient id="paint2_linear_937_142" x1="570.173" y1="386.723" x2="770.977" y2="437.29" gradientUnits="userSpaceOnUse">
<stop stop-color="#8BDDD0"/>
<stop offset="1" stop-color="#536FE1"/>
</linearGradient>
<linearGradient id="paint3_linear_937_142" x1="574.949" y1="387.663" x2="766.191" y2="435.822" gradientUnits="userSpaceOnUse">
<stop stop-color="#8BDDD0"/>
<stop offset="1" stop-color="#536FE1"/>
</linearGradient>
<linearGradient id="paint4_linear_937_142" x1="290.057" y1="412.349" x2="101.608" y2="503.077" gradientUnits="userSpaceOnUse">
<stop stop-color="#8BDDD0"/>
<stop offset="1" stop-color="#536FE1"/>
</linearGradient>
<linearGradient id="paint5_linear_937_142" x1="283.864" y1="412.095" x2="104.389" y2="498.502" gradientUnits="userSpaceOnUse">
<stop stop-color="#8BDDD0"/>
<stop offset="1" stop-color="#536FE1"/>
</linearGradient>
</defs>
</svg>
