<svg width="1104" height="392" viewBox="0 0 1104 392" fill="none" xmlns="http://www.w3.org/2000/svg">
<path d="M0 391C0 347.922 34.9218 313 78 313H475C475 356.078 440.078 391 397 391H0Z" fill="#FF3300"/>
<path d="M70 312C70 268.922 104.922 234 148 234H545C545 277.078 510.078 312 467 312H70Z" fill="#FF3300"/>
<path d="M621 314H1096C1096 357.078 1061.08 392 1018 392H699C655.922 392 621 357.078 621 314Z" fill="#FF3300"/>
<path d="M1096 234C1096 277.078 1061.08 312 1018 312H621C621 268.922 655.922 234 699 234H1096Z" fill="#FF3300"/>
<path d="M629 82C629 125.078 663.922 160 707 160H1104V160C1104 116.922 1069.08 82 1026 82H629V82Z" fill="#FF3300"/>
<path d="M1104 0C1104 43.0782 1069.08 78 1026 78H629V78C629 34.9218 663.922 0 707 0H1104V0Z" fill="#FF3300"/>
<path d="M570 60C570 115.228 525.228 160 470 160H95V100C95 44.7715 139.772 0 195 0H570V60Z" fill="#FF3300"/>
</svg>
