<svg width="689" height="226" viewBox="0 0 689 226" fill="none" xmlns="http://www.w3.org/2000/svg">
<rect width="689" height="225" transform="translate(0 0.0637817)" fill="#CECECE"/>
<path d="M102.316 126.064L70.5542 205.191H55.7613L24 126.064H37.1614C38.5754 126.064 39.7175 126.409 40.5877 127.1C41.4941 127.754 42.1649 128.609 42.5999 129.663L59.6771 175.253C60.3297 176.961 60.9642 178.834 61.5806 180.87C62.2332 182.869 62.8315 184.978 63.3753 187.195C63.8467 184.978 64.3543 182.869 64.8981 180.87C65.4782 178.834 66.0946 176.961 66.7472 175.253L83.7156 129.663C84.0782 128.754 84.7127 127.936 85.6191 127.209C86.5618 126.446 87.722 126.064 89.0998 126.064H102.316Z" fill="#ED2000"/>
<path d="M142.784 192.231C145.431 192.231 147.806 191.795 149.909 190.922C152.012 190.013 153.788 188.741 155.238 187.105C156.689 185.469 157.795 183.487 158.556 181.161C159.317 178.834 159.698 176.216 159.698 173.308V126.064H176.014V173.308C176.014 178.107 175.234 182.524 173.675 186.559C172.152 190.559 169.959 194.012 167.095 196.921C164.23 199.829 160.75 202.101 156.652 203.737C152.555 205.373 147.933 206.191 142.784 206.191C137.636 206.191 132.995 205.373 128.861 203.737C124.764 202.101 121.284 199.829 118.419 196.921C115.555 194.012 113.343 190.559 111.784 186.559C110.261 182.524 109.5 178.107 109.5 173.308V126.064H125.816V173.308C125.816 176.216 126.196 178.834 126.958 181.161C127.719 183.487 128.825 185.469 130.275 187.105C131.726 188.741 133.502 190.013 135.605 190.922C137.708 191.795 140.101 192.231 142.784 192.231Z" fill="#ED2000"/>
<path d="M237.493 191.885V205.191H190.667V126.064H206.983V191.885H237.493Z" fill="#ED2000"/>
<path d="M275.145 165.437C280.257 165.437 283.992 164.201 286.348 161.728C288.741 159.256 289.938 155.875 289.938 151.585C289.938 149.622 289.63 147.841 289.013 146.241C288.433 144.605 287.527 143.224 286.294 142.097C285.098 140.933 283.575 140.043 281.726 139.424C279.876 138.806 277.683 138.497 275.145 138.497H264.812V165.437H275.145ZM275.145 126.064C280.547 126.064 285.206 126.7 289.122 127.973C293.074 129.245 296.319 131.026 298.857 133.317C301.395 135.571 303.262 138.261 304.459 141.388C305.692 144.514 307.308 147.913 307.308 151.585C307.308 155.475 305.673 159.038 304.404 162.274C303.135 165.509 301.214 168.291 298.64 170.617C296.065 172.944 292.82 174.762 288.905 176.071C284.989 177.343 280.402 177.979 275.145 177.979H264.812V205.191H248.496V126.064H275.145Z" fill="#ED2000"/>
<path d="M334.475 205.191H318.05V126.064H334.475V205.191Z" fill="#ED2000"/>
<path d="M418.221 126.064V205.191H409.791C408.522 205.191 407.453 204.991 406.582 204.591C405.712 204.155 404.86 203.428 404.026 202.41L364.705 152.24C364.814 153.512 364.887 154.766 364.923 156.003C364.995 157.239 365.032 158.384 365.032 159.438V205.191H350.619V126.064H359.212C359.901 126.064 360.481 126.1 360.953 126.173C361.46 126.209 361.914 126.337 362.312 126.555C362.711 126.736 363.092 126.991 363.455 127.318C363.817 127.645 364.216 128.082 364.651 128.627L404.244 179.015C404.099 177.634 403.99 176.307 403.918 175.035C403.845 173.726 403.809 172.49 403.809 171.326V126.064H418.221Z" fill="#ED2000"/>
<path d="M449.172 138.879V159.22H483V171.599H449.172V192.376H483V205.191H432.747V126.064H483V138.879H449.172Z" fill="#ED2000"/>
<mask id="mask0_7102_4" style="mask-type:alpha" maskUnits="userSpaceOnUse" x="496" y="125" width="169" height="81">
<path d="M496 205.064C496 160.881 531.817 125.064 576 125.064H665C665 169.247 629.183 205.064 585 205.064H496Z" fill="#ED2000"/>
</mask>
<g mask="url(#mask0_7102_4)">
<path d="M496 205.064C496 160.881 531.817 125.064 576 125.064H665V180.064C665 193.871 653.807 205.064 640 205.064H496Z" fill="#ED2000"/>
<path d="M603 125.064L665 125.064V205.064H603V125.064Z" fill="white"/>
<path d="M587.481 125.064H570.239C562.932 125.064 557 131.042 557 138.405C557 145.769 562.932 151.747 570.239 151.747H587.481" fill="#FF6E4A"/>
<path d="M587.481 151.722H570.239C562.932 151.722 557 157.7 557 165.064C557 172.427 562.932 178.405 570.239 178.405H587.481" fill="#FF6E4A"/>
<path d="M587.481 178.405H570.239C562.932 178.405 557 184.383 557 191.747C557 199.11 562.932 205.088 570.239 205.088H587.481" fill="#FF6E4A"/>
<path d="M604 125.088L587.119 125.064C579.813 125.064 573.88 131.042 573.88 138.405C573.88 145.769 579.813 151.747 587.119 151.747L604 151.771" fill="#FFB3A4"/>
<path d="M604 151.747L587.119 151.722C579.813 151.722 573.88 157.7 573.88 165.064C573.88 172.427 579.813 178.405 587.119 178.405L604 178.43" fill="#FFB3A4"/>
<path d="M604 178.43L587.119 178.405C579.813 178.405 573.88 184.383 573.88 191.747C573.88 199.11 579.813 205.088 587.119 205.088L604 205.112" fill="#FFB3A4"/>
<path d="M604 125.064C596.693 125.064 590.761 131.042 590.761 138.405C590.761 145.769 596.693 151.747 604 151.747" fill="white"/>
<path d="M604 151.722C596.693 151.722 590.761 157.7 590.761 165.064C590.761 172.427 596.693 178.405 604 178.405" fill="white"/>
<path d="M604 178.405C596.693 178.405 590.761 184.383 590.761 191.747C590.761 199.11 596.693 205.088 604 205.088" fill="white"/>
</g>
<mask id="mask1_7102_4" style="mask-type:alpha" maskUnits="userSpaceOnUse" x="496" y="19" width="169" height="81">
<path d="M496 99.0638C496 54.881 531.817 19.0638 576 19.0638H665C665 63.2466 629.183 99.0638 585 99.0638H496Z" fill="#ED2000"/>
</mask>
<g mask="url(#mask1_7102_4)">
<path d="M496 99.0638C496 54.881 531.817 19.0638 576 19.0638H665C665 63.2466 629.183 99.0638 585 99.0638H496Z" fill="#ED2000"/>
<path d="M582.929 19.0638H570.379C562.995 19.0638 557 25.0419 557 32.4052C557 39.7685 562.995 45.7467 570.379 45.7467H582.929" fill="#FF6E4A"/>
<path d="M582.929 45.7224H570.379C562.995 45.7224 557 51.7005 557 59.0638C557 66.4271 562.995 72.4052 570.379 72.4052H582.929" fill="#FF6E4A"/>
<path d="M582.929 72.4052H570.379C562.995 72.4052 557 78.3833 557 85.7466C557 93.11 562.995 99.0881 570.379 99.0881H582.929" fill="#FF6E4A"/>
<path d="M585 19.0638H577.689C570.306 19.0638 564.311 25.0419 564.311 32.4052C564.311 39.7685 570.306 45.7467 577.689 45.7467H585" fill="#FFB3A4"/>
<path d="M585 45.7224H577.689C570.306 45.7224 564.311 51.7005 564.311 59.0638C564.311 66.4271 570.306 72.4052 577.689 72.4052H585" fill="#FFB3A4"/>
<path d="M585 72.4052H577.689C570.306 72.4052 564.311 78.3833 564.311 85.7466C564.311 93.11 570.306 99.0881 577.689 99.0881H585" fill="#FFB3A4"/>
<path d="M585 19.0638C577.616 19.0638 571.621 25.0419 571.621 32.4052C571.621 39.7685 577.616 45.7467 585 45.7467" fill="white"/>
<path d="M585 45.7224C577.616 45.7224 571.621 51.7005 571.621 59.0638C571.621 66.4271 577.616 72.4052 585 72.4052" fill="white"/>
<path d="M585 72.4052C577.616 72.4052 571.621 78.3833 571.621 85.7466C571.621 93.11 577.616 99.0881 585 99.0881" fill="white"/>
<path d="M585 19.0638H665C665 63.2466 629.183 99.0638 585 99.0638V19.0638Z" fill="white"/>
</g>
<path d="M102.316 20.0638L70.5542 99.1913H55.7613L24 20.0638H37.1614C38.5754 20.0638 39.7175 20.4092 40.5877 21.0999C41.4941 21.7543 42.1649 22.6087 42.5999 23.663L59.6771 69.2526C60.3297 70.9613 60.9642 72.8336 61.5806 74.8695C62.2332 76.8691 62.8315 78.9777 63.3753 81.1954C63.8467 78.9777 64.3543 76.8691 64.8981 74.8695C65.4782 72.8336 66.0946 70.9613 66.7472 69.2526L83.7156 23.663C84.0782 22.7541 84.7127 21.9361 85.6191 21.209C86.5618 20.4455 87.722 20.0638 89.0998 20.0638H102.316Z" fill="#ED2000"/>
<path d="M142.784 86.2309C145.431 86.2309 147.806 85.7946 149.909 84.9221C152.012 84.0132 153.788 82.7407 155.238 81.1047C156.689 79.4688 157.795 77.4874 158.556 75.1606C159.317 72.8339 159.698 70.2163 159.698 67.3079V20.0638H176.014V67.3079C176.014 72.1068 175.234 76.524 173.675 80.5594C172.152 84.5585 169.959 88.0123 167.095 90.9207C164.23 93.8291 160.75 96.1013 156.652 97.7373C152.555 99.3733 147.933 100.191 142.784 100.191C137.636 100.191 132.995 99.3733 128.861 97.7373C124.764 96.1013 121.284 93.8291 118.419 90.9207C115.555 88.0123 113.343 84.5585 111.784 80.5594C110.261 76.524 109.5 72.1068 109.5 67.3079V20.0638H125.816V67.3079C125.816 70.2163 126.196 72.8339 126.958 75.1606C127.719 77.4874 128.825 79.4688 130.275 81.1047C131.726 82.7407 133.502 84.0132 135.605 84.9221C137.708 85.7946 140.101 86.2309 142.784 86.2309Z" fill="#ED2000"/>
<path d="M237.493 85.8852V99.1913H190.667V20.0638H206.983V85.8852H237.493Z" fill="#ED2000"/>
<path d="M275.145 59.4367C280.257 59.4367 283.992 58.2006 286.348 55.7284C288.741 53.2563 289.938 49.8752 289.938 45.5853C289.938 43.6221 289.63 41.8407 289.013 40.241C288.433 38.6051 287.527 37.2236 286.294 36.0965C285.098 34.9332 283.575 34.0425 281.726 33.4244C279.876 32.8064 277.683 32.4974 275.145 32.4974H264.812V59.4367H275.145ZM275.145 20.0638C280.547 20.0638 285.206 20.7 289.122 21.9725C293.074 23.2449 296.319 25.0263 298.857 27.3167C301.395 29.5707 303.262 32.261 304.459 35.3876C305.692 38.5142 307.308 41.9134 307.308 45.5853C307.308 49.4753 305.673 53.0381 304.404 56.2738C303.135 59.5094 301.214 62.2906 298.64 64.6173C296.065 66.9441 292.82 68.7618 288.905 70.0706C284.989 71.3431 280.402 71.9793 275.145 71.9793H264.812V99.1913H248.496V20.0638H275.145Z" fill="#ED2000"/>
<path d="M334.475 99.1913H318.05V20.0638H334.475V99.1913Z" fill="#ED2000"/>
<path d="M418.221 20.0638V99.1913H409.791C408.522 99.1913 407.453 98.9913 406.582 98.5914C405.712 98.1552 404.86 97.428 404.026 96.4101L364.705 46.2397C364.814 47.5121 364.887 48.7664 364.923 50.0025C364.995 51.2385 365.032 52.3837 365.032 53.438V99.1913H350.619V20.0638H359.212C359.901 20.0638 360.481 20.1002 360.953 20.1729C361.46 20.2092 361.914 20.3365 362.312 20.5546C362.711 20.7364 363.092 20.9909 363.455 21.3181C363.817 21.6453 364.216 22.0815 364.651 22.6269L404.244 73.0154C404.099 71.6339 403.99 70.3069 403.918 69.0345C403.845 67.7257 403.809 66.4896 403.809 65.3263V20.0638H418.221Z" fill="#ED2000"/>
<path d="M449.172 32.8791V53.2199H483V65.5989H449.172V86.376H483V99.1913H432.747V20.0638H483V32.8791H449.172Z" fill="#ED2000"/>
</svg>
