<svg width="1230" height="550" viewBox="0 0 1230 550" fill="none" xmlns="http://www.w3.org/2000/svg">
<rect width="1230" height="550" fill="#CECECE"/>
<path d="M123.682 111H103.057V52.8182H123.852C129.705 52.8182 134.742 53.983 138.966 56.3125C143.189 58.6231 146.438 61.947 148.71 66.2841C151.002 70.6212 152.148 75.8106 152.148 81.8523C152.148 87.9129 151.002 93.1212 148.71 97.4773C146.438 101.833 143.17 105.176 138.909 107.506C134.667 109.835 129.591 111 123.682 111ZM115.358 100.46H123.17C126.807 100.46 129.866 99.8163 132.347 98.5284C134.847 97.2216 136.722 95.2045 137.972 92.4773C139.241 89.7311 139.875 86.1894 139.875 81.8523C139.875 77.553 139.241 74.0398 137.972 71.3125C136.722 68.5852 134.856 66.5777 132.375 65.2898C129.894 64.0019 126.835 63.358 123.199 63.358H115.358V100.46ZM161.26 111V52.8182H200.464V62.9602H173.561V76.8239H198.447V86.9659H173.561V100.858H200.578V111H161.26ZM241.807 69.5511C241.58 67.2595 240.604 65.4792 238.881 64.2102C237.157 62.9413 234.818 62.3068 231.864 62.3068C229.856 62.3068 228.161 62.5909 226.778 63.1591C225.396 63.7083 224.335 64.4754 223.597 65.4602C222.877 66.4451 222.517 67.5625 222.517 68.8125C222.479 69.8542 222.697 70.7633 223.17 71.5398C223.663 72.3163 224.335 72.9886 225.188 73.5568C226.04 74.1061 227.025 74.589 228.142 75.0057C229.259 75.4034 230.453 75.7443 231.722 76.0284L236.949 77.2784C239.487 77.8466 241.816 78.6042 243.938 79.5511C246.059 80.4981 247.896 81.6629 249.449 83.0455C251.002 84.428 252.205 86.0568 253.057 87.9318C253.928 89.8068 254.373 91.9564 254.392 94.3807C254.373 97.9413 253.464 101.028 251.665 103.642C249.884 106.237 247.309 108.254 243.938 109.693C240.585 111.114 236.542 111.824 231.807 111.824C227.11 111.824 223.019 111.104 219.534 109.665C216.068 108.225 213.36 106.095 211.409 103.273C209.477 100.432 208.464 96.9186 208.369 92.733H220.273C220.405 94.6837 220.964 96.3125 221.949 97.6193C222.953 98.9072 224.288 99.8826 225.955 100.545C227.64 101.189 229.544 101.511 231.665 101.511C233.748 101.511 235.557 101.208 237.091 100.602C238.644 99.9962 239.847 99.1534 240.699 98.0739C241.551 96.9943 241.977 95.7538 241.977 94.3523C241.977 93.0455 241.589 91.947 240.812 91.0568C240.055 90.1667 238.938 89.4091 237.46 88.7841C236.002 88.1591 234.212 87.5909 232.091 87.0795L225.756 85.4886C220.85 84.2955 216.977 82.4299 214.136 79.892C211.295 77.3542 209.884 73.9356 209.903 69.6364C209.884 66.1136 210.822 63.036 212.716 60.4034C214.629 57.7708 217.252 55.7159 220.585 54.2386C223.919 52.7614 227.706 52.0227 231.949 52.0227C236.267 52.0227 240.036 52.7614 243.256 54.2386C246.494 55.7159 249.013 57.7708 250.812 60.4034C252.612 63.036 253.54 66.0852 253.597 69.5511H241.807ZM274.967 52.8182V111H262.666V52.8182H274.967ZM323.668 71.625C323.27 70.2424 322.711 69.0208 321.991 67.9602C321.272 66.8807 320.391 65.9716 319.349 65.233C318.327 64.4754 317.152 63.8977 315.827 63.5C314.52 63.1023 313.071 62.9034 311.48 62.9034C308.507 62.9034 305.893 63.642 303.639 65.1193C301.404 66.5966 299.662 68.7462 298.412 71.5682C297.162 74.3712 296.537 77.7992 296.537 81.8523C296.537 85.9053 297.152 89.3523 298.384 92.1932C299.615 95.0341 301.357 97.2027 303.611 98.6989C305.865 100.176 308.526 100.915 311.594 100.915C314.378 100.915 316.755 100.422 318.724 99.4375C320.713 98.4337 322.228 97.0227 323.27 95.2045C324.33 93.3864 324.861 91.2367 324.861 88.7557L327.361 89.125H312.361V79.8636H336.707V87.1932C336.707 92.3068 335.628 96.7008 333.469 100.375C331.31 104.03 328.336 106.852 324.548 108.841C320.76 110.811 316.423 111.795 311.537 111.795C306.082 111.795 301.291 110.593 297.162 108.188C293.033 105.763 289.813 102.326 287.503 97.875C285.211 93.4053 284.065 88.1023 284.065 81.9659C284.065 77.25 284.747 73.0455 286.111 69.3523C287.493 65.6402 289.425 62.4962 291.906 59.9205C294.387 57.3447 297.276 55.3845 300.571 54.0398C303.866 52.6951 307.437 52.0227 311.281 52.0227C314.577 52.0227 317.645 52.5057 320.486 53.4716C323.327 54.4186 325.846 55.7633 328.043 57.5057C330.259 59.2481 332.067 61.322 333.469 63.7273C334.87 66.1136 335.77 68.7462 336.168 71.625H323.668ZM394.612 52.8182V111H383.987L358.675 74.3807H358.249V111H345.947V52.8182H356.743L381.857 89.4091H382.368V52.8182H394.612Z" fill="black"/>
<path d="M152 370C152 324.16 189.16 287 235 287H659C659 332.84 621.84 370 576 370H152Z" fill="white"/>
<path d="M41 370C41 324.16 78.1604 287 124 287H566V370H41Z" fill="#FF3300"/>
<path d="M103.508 297.945H117.219L136.398 344.508L155.578 297.945H169.289L142.531 359H130.266L103.508 297.945ZM176.164 297.945H188.547V331.578C188.547 334.339 188.924 336.799 189.68 338.961C190.435 341.096 191.555 342.906 193.039 344.391C194.549 345.875 196.411 347.008 198.625 347.789C200.839 348.544 203.417 348.922 206.359 348.922C209.276 348.922 211.841 348.544 214.055 347.789C216.294 347.008 218.156 345.875 219.641 344.391C221.151 342.906 222.284 341.096 223.039 338.961C223.794 336.799 224.172 334.339 224.172 331.578V297.945H236.555V333.062C236.555 337.073 235.878 340.719 234.523 344C233.169 347.281 231.203 350.094 228.625 352.438C226.047 354.781 222.883 356.591 219.133 357.867C215.409 359.143 211.151 359.781 206.359 359.781C201.568 359.781 197.297 359.143 193.547 357.867C189.823 356.591 186.672 354.781 184.094 352.438C181.516 350.094 179.549 347.281 178.195 344C176.841 340.719 176.164 337.073 176.164 333.062V297.945ZM251.672 297.945H264.055V348.141H299.562V359H251.672V297.945ZM311.594 297.945H343.781C348.469 297.945 352.531 298.453 355.969 299.469C359.406 300.484 362.258 301.956 364.523 303.883C366.789 305.784 368.469 308.115 369.562 310.875C370.682 313.635 371.242 316.747 371.242 320.211C371.242 323.466 370.695 326.474 369.602 329.234C368.508 331.995 366.828 334.391 364.562 336.422C362.323 338.427 359.484 340.003 356.047 341.148C352.609 342.268 348.547 342.828 343.859 342.828L323.977 342.789V359H311.594V297.945ZM344.094 332.086C346.438 332.086 348.482 331.812 350.227 331.266C351.997 330.693 353.469 329.898 354.641 328.883C355.839 327.841 356.724 326.591 357.297 325.133C357.896 323.648 358.195 322.008 358.195 320.211C358.195 316.591 357.01 313.779 354.641 311.773C352.297 309.742 348.781 308.727 344.094 308.727H323.977V332.086H344.094ZM383.234 297.945H395.695V359H383.234V297.945ZM411.438 297.945H423.82L461.867 317.867V297.945H474.25V359H461.867V330.992L423.82 311.188V359H411.438V297.945ZM491.516 297.945H543.508V308.805H503.898V320.992H538.977V331.188H503.898V348.18H544.328V359H491.516V297.945Z" fill="white"/>
<path d="M566 342C561.757 342 557.687 343.475 554.686 346.101C551.686 348.726 550 352.287 550 356C550 359.713 551.686 363.274 554.686 365.899C557.687 368.525 561.757 370 566 370L566 342Z" fill="white"/>
<path d="M566 315C561.757 315 557.687 316.422 554.686 318.954C551.686 321.486 550 324.92 550 328.5C550 332.08 551.686 335.514 554.686 338.046C557.687 340.578 561.757 342 566 342L566 315Z" fill="white"/>
<path d="M566 287C561.757 287 557.687 288.475 554.686 291.101C551.686 293.726 550 297.287 550 301C550 304.713 551.686 308.274 554.686 310.899C557.687 313.525 561.757 315 566 315L566 287Z" fill="white"/>
<path d="M777 368C777 322.16 814.16 285 860 285H1189C1189 330.84 1151.84 368 1106 368H777Z" fill="white"/>
<path d="M736 303C736 293.059 743.675 285 753.143 285H1096V368H774.095C753.056 368 736 350.091 736 328V303Z" fill="#FF3300"/>
<path d="M810.12 297.96L781.52 356H771L756.64 297.96H765.96C766.973 297.96 767.773 298.213 768.36 298.72C768.947 299.2 769.307 299.8 769.44 300.52L776.44 334.8C776.76 336 777.053 337.307 777.32 338.72C777.587 340.133 777.813 341.627 778 343.2C779.067 340.027 780.213 337.227 781.44 334.8L796.6 300.52C796.893 299.907 797.413 299.333 798.16 298.8C798.933 298.24 799.8 297.96 800.76 297.96H810.12ZM831.458 346.84C833.218 346.84 834.831 346.507 836.298 345.84C837.765 345.173 839.045 344.227 840.138 343C841.231 341.747 842.138 340.253 842.858 338.52C843.578 336.76 844.058 334.813 844.298 332.68L848.578 297.96H860.138L855.898 332.68C855.471 336.147 854.551 339.347 853.138 342.28C851.725 345.213 849.911 347.747 847.698 349.88C845.485 351.987 842.898 353.64 839.938 354.84C837.005 356.04 833.778 356.64 830.258 356.64C826.738 356.64 823.645 356.04 820.978 354.84C818.338 353.64 816.165 351.987 814.458 349.88C812.778 347.747 811.591 345.213 810.898 342.28C810.231 339.347 810.111 336.147 810.538 332.68L814.698 297.96H826.298L822.058 332.68C821.791 334.813 821.805 336.76 822.098 338.52C822.391 340.253 822.938 341.747 823.738 343C824.538 344.227 825.578 345.173 826.858 345.84C828.165 346.507 829.698 346.84 831.458 346.84ZM896.965 346.6L895.805 356H863.845L871.005 297.96H882.565L876.565 346.6H896.965ZM924.631 327.04C926.605 327.04 928.285 326.747 929.671 326.16C931.085 325.573 932.231 324.76 933.111 323.72C933.991 322.653 934.631 321.4 935.031 319.96C935.458 318.493 935.671 316.88 935.671 315.12C935.671 313.893 935.498 312.773 935.151 311.76C934.805 310.72 934.271 309.827 933.551 309.08C932.858 308.333 931.965 307.76 930.871 307.36C929.805 306.96 928.538 306.76 927.071 306.76H920.351L917.831 327.04H924.631ZM928.191 297.96C931.551 297.96 934.431 298.373 936.831 299.2C939.231 300 941.205 301.12 942.751 302.56C944.325 304 945.471 305.707 946.191 307.68C946.938 309.653 947.311 311.8 947.311 314.12C947.311 317.267 946.818 320.173 945.831 322.84C944.871 325.48 943.405 327.773 941.431 329.72C939.485 331.64 937.018 333.147 934.031 334.24C931.045 335.333 927.538 335.88 923.511 335.88H916.751L914.271 356H902.751L909.831 297.96H928.191ZM961.501 356H949.861L956.941 297.96H968.581L961.501 356ZM1026.23 297.96L1019.07 356H1013.07C1012.16 356 1011.43 355.853 1010.87 355.56C1010.31 355.24 1009.77 354.733 1009.27 354.04L987.788 316.12C987.734 316.813 987.668 317.493 987.588 318.16C987.534 318.8 987.481 319.4 987.428 319.96L983.148 356H972.908L980.068 297.96H986.148C986.654 297.96 987.081 297.987 987.428 298.04C987.774 298.067 988.068 298.147 988.308 298.28C988.574 298.387 988.814 298.56 989.028 298.8C989.241 299.04 989.468 299.36 989.708 299.76L1011.31 337.72C1011.36 336.867 1011.43 336.04 1011.51 335.24C1011.59 334.44 1011.67 333.693 1011.75 333L1015.99 297.96H1026.23ZM1048.24 307.04L1046.36 322.4H1063.84L1062.68 331.16H1045.28L1043.32 346.92H1065.92L1064.8 356H1030.56L1037.72 297.96H1071.88L1070.72 307.04H1048.24Z" fill="white"/>
<path d="M1096 340C1091.76 340 1087.69 341.475 1084.69 344.101C1081.69 346.726 1080 350.287 1080 354C1080 357.713 1081.69 361.274 1084.69 363.899C1087.69 366.525 1091.76 368 1096 368L1096 340Z" fill="white"/>
<path d="M1096 313C1091.76 313 1087.69 314.422 1084.69 316.954C1081.69 319.486 1080 322.92 1080 326.5C1080 330.08 1081.69 333.514 1084.69 336.046C1087.69 338.578 1091.76 340 1096 340L1096 313Z" fill="white"/>
<path d="M1096 285C1091.76 285 1087.69 286.475 1084.69 289.101C1081.69 291.726 1080 295.287 1080 299C1080 302.713 1081.69 306.274 1084.69 308.899C1087.69 311.525 1091.76 313 1096 313L1096 285Z" fill="white"/>
<path d="M567 127V132C567 179.116 527.426 217 479 217H464V127H567Z" fill="white" stroke="black" stroke-width="10"/>
<path d="M522.131 127C535.436 127 544.403 141.841 535.499 152.925L535.498 152.924L489.479 210.567L489.478 210.566C486.267 214.657 481.267 216.931 476.101 216.931H132.609V217H127.609C120.883 217 114.562 213.08 111.975 206.802V206.801L88.1904 149.148L88.1885 149.145C83.6384 138.093 92.4665 127.094 103.856 127H522.131Z" fill="#FF3300" stroke="black" stroke-width="10" stroke-miterlimit="10"/>
<path d="M127.61 211.931H476.101C479.845 211.931 483.368 210.276 485.571 207.448L531.601 149.793C537.474 142.483 531.894 132 522.13 132H103.897C95.5284 132.069 89.8022 139.931 92.8121 147.241L116.598 204.897C118.36 209.172 122.765 212 127.61 212V211.931Z" fill="#FF3300"/>
<path d="M469 185.012C464.757 185.012 460.687 186.434 457.686 188.964C454.686 191.495 453 194.927 453 198.506C453 202.085 454.686 205.517 457.686 208.048C460.687 210.578 464.757 212 469 212L469 185.012Z" fill="white"/>
<path d="M469 158.988C464.757 158.988 460.687 160.359 457.686 162.799C454.686 165.239 453 168.549 453 172C453 175.451 454.686 178.761 457.686 181.201C460.687 183.641 464.757 185.012 469 185.012V158.988Z" fill="white"/>
<path d="M469 132C464.757 132 460.687 133.422 457.686 135.952C454.686 138.483 453 141.915 453 145.494C453 149.073 454.686 152.505 457.686 155.036C460.687 157.566 464.757 158.988 469 158.988V132Z" fill="white"/>
<path d="M469 132L562 132C562 176.183 524.84 212 479 212H469L469 132Z" fill="white"/>
<path d="M162.88 142.96L139.52 201H128.64L105.28 142.96H114.96C116 142.96 116.84 143.213 117.48 143.72C118.147 144.2 118.64 144.827 118.96 145.6L131.52 179.04C132 180.293 132.467 181.667 132.92 183.16C133.4 184.627 133.84 186.173 134.24 187.8C134.587 186.173 134.96 184.627 135.36 183.16C135.787 181.667 136.24 180.293 136.72 179.04L149.2 145.6C149.467 144.933 149.933 144.333 150.6 143.8C151.293 143.24 152.147 142.96 153.16 142.96H162.88Z" fill="white"/>
<path d="M192.012 191.4C193.959 191.4 195.705 191.08 197.252 190.44C198.799 189.773 200.105 188.84 201.172 187.64C202.239 186.44 203.052 184.987 203.612 183.28C204.172 181.573 204.452 179.653 204.452 177.52V142.96H216.452V177.52C216.452 181.04 215.879 184.28 214.732 187.24C213.612 190.173 211.999 192.707 209.892 194.84C207.785 196.973 205.225 198.64 202.212 199.84C199.199 201.04 195.799 201.64 192.012 201.64C188.225 201.64 184.812 201.04 181.772 199.84C178.759 198.64 176.199 196.973 174.092 194.84C171.985 192.707 170.359 190.173 169.212 187.24C168.092 184.28 167.532 181.04 167.532 177.52V142.96H179.532V177.52C179.532 179.653 179.812 181.573 180.372 183.28C180.932 184.987 181.745 186.44 182.812 187.64C183.879 188.84 185.185 189.773 186.732 190.44C188.279 191.08 190.039 191.4 192.012 191.4Z" fill="white"/>
<path d="M262.301 191.24V201H227.861V142.96H239.861V191.24H262.301Z" fill="white"/>
<path d="M289.258 171.84C293.018 171.84 295.765 170.933 297.498 169.12C299.258 167.307 300.138 164.827 300.138 161.68C300.138 160.24 299.911 158.933 299.458 157.76C299.031 156.56 298.365 155.547 297.458 154.72C296.578 153.867 295.458 153.213 294.098 152.76C292.738 152.307 291.125 152.08 289.258 152.08H281.658V171.84H289.258ZM289.258 142.96C293.231 142.96 296.658 143.427 299.538 144.36C302.445 145.293 304.831 146.6 306.698 148.28C308.565 149.933 309.938 151.907 310.818 154.2C311.725 156.493 312.178 158.987 312.178 161.68C312.178 164.533 311.711 167.147 310.778 169.52C309.845 171.893 308.431 173.933 306.538 175.64C304.645 177.347 302.258 178.68 299.378 179.64C296.498 180.573 293.125 181.04 289.258 181.04H281.658V201H269.658V142.96H289.258Z" fill="white"/>
<path d="M332.894 201H320.814V142.96H332.894V201Z" fill="white"/>
<path d="M393.753 142.96V201H387.553C386.62 201 385.833 200.853 385.193 200.56C384.553 200.24 383.927 199.707 383.313 198.96L354.393 162.16C354.473 163.093 354.526 164.013 354.553 164.92C354.606 165.827 354.633 166.667 354.633 167.44V201H344.033V142.96H350.353C350.86 142.96 351.286 142.987 351.633 143.04C352.006 143.067 352.34 143.16 352.633 143.32C352.926 143.453 353.206 143.64 353.473 143.88C353.74 144.12 354.033 144.44 354.353 144.84L383.473 181.8C383.366 180.787 383.286 179.813 383.233 178.88C383.18 177.92 383.153 177.013 383.153 176.16V142.96H393.753Z" fill="white"/>
<path d="M417.988 152.36V167.28H442.868V176.36H417.988V191.6H442.868V201H405.908V142.96H442.868V152.36H417.988Z" fill="white"/>
<path d="M1194 116V121C1194 168.116 1154.43 206 1106 206H1091V116H1194Z" fill="white" stroke="white" stroke-width="10"/>
<path d="M1149.13 116C1162.44 116 1171.4 130.841 1162.5 141.925L1162.5 141.924L1116.48 199.567L1116.48 199.566C1113.27 203.657 1108.27 205.931 1103.1 205.931H759.609V206H754.609C747.883 206 741.562 202.08 738.975 195.802V195.801L715.19 138.148L715.188 138.145C710.638 127.093 719.467 116.094 730.856 116H1149.13Z" fill="#FF3300" stroke="white" stroke-width="10" stroke-miterlimit="10"/>
<path d="M754.61 200.931H1103.1C1106.84 200.931 1110.37 199.276 1112.57 196.448L1158.6 138.793C1164.47 131.483 1158.89 121 1149.13 121H730.897C722.528 121.069 716.802 128.931 719.812 136.241L743.598 193.897C745.36 198.172 749.765 201 754.61 201V200.931Z" fill="#FF3300"/>
<path d="M1183.83 126C1181.16 164.942 1147.49 196 1106 196H1101V126H1183.83ZM1091 195.055C1089.84 194.589 1088.79 193.968 1087.91 193.226C1085.91 191.541 1085 189.457 1085 187.506C1085 185.555 1085.91 183.471 1087.91 181.786C1088.79 181.044 1089.84 180.421 1091 179.956V195.055ZM1091 168.112C1089.81 167.658 1088.73 167.048 1087.84 166.321C1085.85 164.701 1085 162.752 1085 161C1085 159.248 1085.85 157.299 1087.84 155.679C1088.73 154.952 1089.81 154.341 1091 153.887V168.112ZM1091 142.043C1089.84 141.578 1088.79 140.956 1087.91 140.214C1085.91 138.529 1085 136.445 1085 134.494C1085 132.543 1085.91 130.459 1087.91 128.774C1088.79 128.032 1089.84 127.41 1091 126.944V142.043Z" fill="white" stroke="white" stroke-width="10"/>
<mask id="path-23-inside-1_7102_2" fill="white">
<path d="M789.88 131.96L766.52 190H755.64L732.28 131.96H741.96C743 131.96 743.84 132.213 744.48 132.72C745.147 133.2 745.64 133.827 745.96 134.6L758.52 168.04C759 169.293 759.467 170.667 759.92 172.16C760.4 173.627 760.84 175.173 761.24 176.8C761.587 175.173 761.96 173.627 762.36 172.16C762.787 170.667 763.24 169.293 763.72 168.04L776.2 134.6C776.467 133.933 776.933 133.333 777.6 132.8C778.293 132.24 779.147 131.96 780.16 131.96H789.88Z"/>
<path d="M819.012 180.4C820.959 180.4 822.705 180.08 824.252 179.44C825.799 178.773 827.105 177.84 828.172 176.64C829.239 175.44 830.052 173.987 830.612 172.28C831.172 170.573 831.452 168.653 831.452 166.52V131.96H843.452V166.52C843.452 170.04 842.879 173.28 841.732 176.24C840.612 179.173 838.999 181.707 836.892 183.84C834.785 185.973 832.225 187.64 829.212 188.84C826.199 190.04 822.799 190.64 819.012 190.64C815.225 190.64 811.812 190.04 808.772 188.84C805.759 187.64 803.199 185.973 801.092 183.84C798.985 181.707 797.359 179.173 796.212 176.24C795.092 173.28 794.532 170.04 794.532 166.52V131.96H806.532V166.52C806.532 168.653 806.812 170.573 807.372 172.28C807.932 173.987 808.745 175.44 809.812 176.64C810.879 177.84 812.185 178.773 813.732 179.44C815.279 180.08 817.039 180.4 819.012 180.4Z"/>
<path d="M889.301 180.24V190H854.861V131.96H866.861V180.24H889.301Z"/>
<path d="M916.258 160.84C920.018 160.84 922.765 159.933 924.498 158.12C926.258 156.307 927.138 153.827 927.138 150.68C927.138 149.24 926.911 147.933 926.458 146.76C926.031 145.56 925.365 144.547 924.458 143.72C923.578 142.867 922.458 142.213 921.098 141.76C919.738 141.307 918.125 141.08 916.258 141.08H908.658V160.84H916.258ZM916.258 131.96C920.231 131.96 923.658 132.427 926.538 133.36C929.445 134.293 931.831 135.6 933.698 137.28C935.565 138.933 936.938 140.907 937.818 143.2C938.725 145.493 939.178 147.987 939.178 150.68C939.178 153.533 938.711 156.147 937.778 158.52C936.845 160.893 935.431 162.933 933.538 164.64C931.645 166.347 929.258 167.68 926.378 168.64C923.498 169.573 920.125 170.04 916.258 170.04H908.658V190H896.658V131.96H916.258Z"/>
<path d="M959.894 190H947.814V131.96H959.894V190Z"/>
<path d="M1020.75 131.96V190H1014.55C1013.62 190 1012.83 189.853 1012.19 189.56C1011.55 189.24 1010.93 188.707 1010.31 187.96L981.393 151.16C981.473 152.093 981.526 153.013 981.553 153.92C981.606 154.827 981.633 155.667 981.633 156.44V190H971.033V131.96H977.353C977.86 131.96 978.286 131.987 978.633 132.04C979.006 132.067 979.34 132.16 979.633 132.32C979.926 132.453 980.206 132.64 980.473 132.88C980.74 133.12 981.033 133.44 981.353 133.84L1010.47 170.8C1010.37 169.787 1010.29 168.813 1010.23 167.88C1010.18 166.92 1010.15 166.013 1010.15 165.16V131.96H1020.75Z"/>
<path d="M1044.99 141.36V156.28H1069.87V165.36H1044.99V180.6H1069.87V190H1032.91V131.96H1069.87V141.36H1044.99Z"/>
</mask>
<path d="M789.88 131.96L766.52 190H755.64L732.28 131.96H741.96C743 131.96 743.84 132.213 744.48 132.72C745.147 133.2 745.64 133.827 745.96 134.6L758.52 168.04C759 169.293 759.467 170.667 759.92 172.16C760.4 173.627 760.84 175.173 761.24 176.8C761.587 175.173 761.96 173.627 762.36 172.16C762.787 170.667 763.24 169.293 763.72 168.04L776.2 134.6C776.467 133.933 776.933 133.333 777.6 132.8C778.293 132.24 779.147 131.96 780.16 131.96H789.88Z" fill="white"/>
<path d="M819.012 180.4C820.959 180.4 822.705 180.08 824.252 179.44C825.799 178.773 827.105 177.84 828.172 176.64C829.239 175.44 830.052 173.987 830.612 172.28C831.172 170.573 831.452 168.653 831.452 166.52V131.96H843.452V166.52C843.452 170.04 842.879 173.28 841.732 176.24C840.612 179.173 838.999 181.707 836.892 183.84C834.785 185.973 832.225 187.64 829.212 188.84C826.199 190.04 822.799 190.64 819.012 190.64C815.225 190.64 811.812 190.04 808.772 188.84C805.759 187.64 803.199 185.973 801.092 183.84C798.985 181.707 797.359 179.173 796.212 176.24C795.092 173.28 794.532 170.04 794.532 166.52V131.96H806.532V166.52C806.532 168.653 806.812 170.573 807.372 172.28C807.932 173.987 808.745 175.44 809.812 176.64C810.879 177.84 812.185 178.773 813.732 179.44C815.279 180.08 817.039 180.4 819.012 180.4Z" fill="white"/>
<path d="M889.301 180.24V190H854.861V131.96H866.861V180.24H889.301Z" fill="white"/>
<path d="M916.258 160.84C920.018 160.84 922.765 159.933 924.498 158.12C926.258 156.307 927.138 153.827 927.138 150.68C927.138 149.24 926.911 147.933 926.458 146.76C926.031 145.56 925.365 144.547 924.458 143.72C923.578 142.867 922.458 142.213 921.098 141.76C919.738 141.307 918.125 141.08 916.258 141.08H908.658V160.84H916.258ZM916.258 131.96C920.231 131.96 923.658 132.427 926.538 133.36C929.445 134.293 931.831 135.6 933.698 137.28C935.565 138.933 936.938 140.907 937.818 143.2C938.725 145.493 939.178 147.987 939.178 150.68C939.178 153.533 938.711 156.147 937.778 158.52C936.845 160.893 935.431 162.933 933.538 164.64C931.645 166.347 929.258 167.68 926.378 168.64C923.498 169.573 920.125 170.04 916.258 170.04H908.658V190H896.658V131.96H916.258Z" fill="white"/>
<path d="M959.894 190H947.814V131.96H959.894V190Z" fill="white"/>
<path d="M1020.75 131.96V190H1014.55C1013.62 190 1012.83 189.853 1012.19 189.56C1011.55 189.24 1010.93 188.707 1010.31 187.96L981.393 151.16C981.473 152.093 981.526 153.013 981.553 153.92C981.606 154.827 981.633 155.667 981.633 156.44V190H971.033V131.96H977.353C977.86 131.96 978.286 131.987 978.633 132.04C979.006 132.067 979.34 132.16 979.633 132.32C979.926 132.453 980.206 132.64 980.473 132.88C980.74 133.12 981.033 133.44 981.353 133.84L1010.47 170.8C1010.37 169.787 1010.29 168.813 1010.23 167.88C1010.18 166.92 1010.15 166.013 1010.15 165.16V131.96H1020.75Z" fill="white"/>
<path d="M1044.99 141.36V156.28H1069.87V165.36H1044.99V180.6H1069.87V190H1032.91V131.96H1069.87V141.36H1044.99Z" fill="white"/>
<path d="M789.88 131.96L766.52 190H755.64L732.28 131.96H741.96C743 131.96 743.84 132.213 744.48 132.72C745.147 133.2 745.64 133.827 745.96 134.6L758.52 168.04C759 169.293 759.467 170.667 759.92 172.16C760.4 173.627 760.84 175.173 761.24 176.8C761.587 175.173 761.96 173.627 762.36 172.16C762.787 170.667 763.24 169.293 763.72 168.04L776.2 134.6C776.467 133.933 776.933 133.333 777.6 132.8C778.293 132.24 779.147 131.96 780.16 131.96H789.88Z" stroke="white" stroke-width="2" mask="url(#path-23-inside-1_7102_2)"/>
<path d="M819.012 180.4C820.959 180.4 822.705 180.08 824.252 179.44C825.799 178.773 827.105 177.84 828.172 176.64C829.239 175.44 830.052 173.987 830.612 172.28C831.172 170.573 831.452 168.653 831.452 166.52V131.96H843.452V166.52C843.452 170.04 842.879 173.28 841.732 176.24C840.612 179.173 838.999 181.707 836.892 183.84C834.785 185.973 832.225 187.64 829.212 188.84C826.199 190.04 822.799 190.64 819.012 190.64C815.225 190.64 811.812 190.04 808.772 188.84C805.759 187.64 803.199 185.973 801.092 183.84C798.985 181.707 797.359 179.173 796.212 176.24C795.092 173.28 794.532 170.04 794.532 166.52V131.96H806.532V166.52C806.532 168.653 806.812 170.573 807.372 172.28C807.932 173.987 808.745 175.44 809.812 176.64C810.879 177.84 812.185 178.773 813.732 179.44C815.279 180.08 817.039 180.4 819.012 180.4Z" stroke="white" stroke-width="2" mask="url(#path-23-inside-1_7102_2)"/>
<path d="M889.301 180.24V190H854.861V131.96H866.861V180.24H889.301Z" stroke="white" stroke-width="2" mask="url(#path-23-inside-1_7102_2)"/>
<path d="M916.258 160.84C920.018 160.84 922.765 159.933 924.498 158.12C926.258 156.307 927.138 153.827 927.138 150.68C927.138 149.24 926.911 147.933 926.458 146.76C926.031 145.56 925.365 144.547 924.458 143.72C923.578 142.867 922.458 142.213 921.098 141.76C919.738 141.307 918.125 141.08 916.258 141.08H908.658V160.84H916.258ZM916.258 131.96C920.231 131.96 923.658 132.427 926.538 133.36C929.445 134.293 931.831 135.6 933.698 137.28C935.565 138.933 936.938 140.907 937.818 143.2C938.725 145.493 939.178 147.987 939.178 150.68C939.178 153.533 938.711 156.147 937.778 158.52C936.845 160.893 935.431 162.933 933.538 164.64C931.645 166.347 929.258 167.68 926.378 168.64C923.498 169.573 920.125 170.04 916.258 170.04H908.658V190H896.658V131.96H916.258Z" stroke="white" stroke-width="2" mask="url(#path-23-inside-1_7102_2)"/>
<path d="M959.894 190H947.814V131.96H959.894V190Z" stroke="white" stroke-width="2" mask="url(#path-23-inside-1_7102_2)"/>
<path d="M1020.75 131.96V190H1014.55C1013.62 190 1012.83 189.853 1012.19 189.56C1011.55 189.24 1010.93 188.707 1010.31 187.96L981.393 151.16C981.473 152.093 981.526 153.013 981.553 153.92C981.606 154.827 981.633 155.667 981.633 156.44V190H971.033V131.96H977.353C977.86 131.96 978.286 131.987 978.633 132.04C979.006 132.067 979.34 132.16 979.633 132.32C979.926 132.453 980.206 132.64 980.473 132.88C980.74 133.12 981.033 133.44 981.353 133.84L1010.47 170.8C1010.37 169.787 1010.29 168.813 1010.23 167.88C1010.18 166.92 1010.15 166.013 1010.15 165.16V131.96H1020.75Z" stroke="white" stroke-width="2" mask="url(#path-23-inside-1_7102_2)"/>
<path d="M1044.99 141.36V156.28H1069.87V165.36H1044.99V180.6H1069.87V190H1032.91V131.96H1069.87V141.36H1044.99Z" stroke="white" stroke-width="2" mask="url(#path-23-inside-1_7102_2)"/>
<path d="M480 437L573 437C573 481.183 535.84 517 490 517H480L480 437Z" fill="white"/>
<path d="M138.61 516.931H487.101C490.845 516.931 494.368 515.276 496.571 512.448L542.601 454.793C548.474 447.483 542.894 437 533.13 437H114.897C106.528 437.069 100.802 444.931 103.812 452.241L127.598 509.897C129.36 514.172 133.765 517 138.61 517V516.931Z" fill="#FF3300"/>
<path d="M138.61 516.931H487.101C490.845 516.931 494.368 515.276 496.571 512.448L542.601 454.793C548.474 447.483 542.894 437 533.13 437H114.897C106.528 437.069 100.802 444.931 103.812 452.241L127.598 509.897C129.36 514.172 133.765 517 138.61 517V516.931Z" fill="#FF3300"/>
<path d="M480 490.012C475.757 490.012 471.687 491.434 468.686 493.964C465.686 496.495 464 499.927 464 503.506C464 507.085 465.686 510.517 468.686 513.048C471.687 515.578 475.757 517 480 517L480 490.012Z" fill="#3C2413"/>
<path d="M480 463.988C475.757 463.988 471.687 465.359 468.686 467.799C465.686 470.239 464 473.549 464 477C464 480.451 465.686 483.761 468.686 486.201C471.687 488.641 475.757 490.012 480 490.012V463.988Z" fill="#3C2413"/>
<path d="M480 437C475.757 437 471.687 438.422 468.686 440.952C465.686 443.483 464 446.915 464 450.494C464 454.073 465.686 457.505 468.686 460.036C471.687 462.566 475.757 463.988 480 463.988V437Z" fill="#3C2413"/>
<path d="M480 437L573 437C573 481.183 535.84 517 490 517H480L480 437Z" fill="#3C2413"/>
<path d="M490 490.012C485.757 490.012 481.687 491.434 478.686 493.964C475.686 496.495 474 499.927 474 503.506C474 507.085 475.686 510.517 478.686 513.048C481.687 515.578 485.757 517 490 517L490 490.012Z" fill="white"/>
<path d="M490 463.988C485.757 463.988 481.687 465.359 478.686 467.799C475.686 470.239 474 473.549 474 477C474 480.451 475.686 483.761 478.686 486.201C481.687 488.641 485.757 490.012 490 490.012V463.988Z" fill="white"/>
<path d="M490 437C485.757 437 481.687 438.422 478.686 440.952C475.686 443.483 474 446.915 474 450.494C474 454.073 475.686 457.505 478.686 460.036C481.687 462.566 485.757 463.988 490 463.988V437Z" fill="white"/>
<path d="M490 437L583 437C583 481.183 545.84 517 500 517H490L490 437Z" fill="white"/>
<path d="M173.88 447.96L150.52 506H139.64L116.28 447.96H125.96C127 447.96 127.84 448.213 128.48 448.72C129.147 449.2 129.64 449.827 129.96 450.6L142.52 484.04C143 485.293 143.467 486.667 143.92 488.16C144.4 489.627 144.84 491.173 145.24 492.8C145.587 491.173 145.96 489.627 146.36 488.16C146.787 486.667 147.24 485.293 147.72 484.04L160.2 450.6C160.467 449.933 160.933 449.333 161.6 448.8C162.293 448.24 163.147 447.96 164.16 447.96H173.88Z" fill="white"/>
<path d="M203.012 496.4C204.959 496.4 206.705 496.08 208.252 495.44C209.799 494.773 211.105 493.84 212.172 492.64C213.239 491.44 214.052 489.987 214.612 488.28C215.172 486.573 215.452 484.653 215.452 482.52V447.96H227.452V482.52C227.452 486.04 226.879 489.28 225.732 492.24C224.612 495.173 222.999 497.707 220.892 499.84C218.785 501.973 216.225 503.64 213.212 504.84C210.199 506.04 206.799 506.64 203.012 506.64C199.225 506.64 195.812 506.04 192.772 504.84C189.759 503.64 187.199 501.973 185.092 499.84C182.985 497.707 181.359 495.173 180.212 492.24C179.092 489.28 178.532 486.04 178.532 482.52V447.96H190.532V482.52C190.532 484.653 190.812 486.573 191.372 488.28C191.932 489.987 192.745 491.44 193.812 492.64C194.879 493.84 196.185 494.773 197.732 495.44C199.279 496.08 201.039 496.4 203.012 496.4Z" fill="white"/>
<path d="M273.301 496.24V506H238.861V447.96H250.861V496.24H273.301Z" fill="white"/>
<path d="M300.258 476.84C304.018 476.84 306.765 475.933 308.498 474.12C310.258 472.307 311.138 469.827 311.138 466.68C311.138 465.24 310.911 463.933 310.458 462.76C310.031 461.56 309.365 460.547 308.458 459.72C307.578 458.867 306.458 458.213 305.098 457.76C303.738 457.307 302.125 457.08 300.258 457.08H292.658V476.84H300.258ZM300.258 447.96C304.231 447.96 307.658 448.427 310.538 449.36C313.445 450.293 315.831 451.6 317.698 453.28C319.565 454.933 320.938 456.907 321.818 459.2C322.725 461.493 323.178 463.987 323.178 466.68C323.178 469.533 322.711 472.147 321.778 474.52C320.845 476.893 319.431 478.933 317.538 480.64C315.645 482.347 313.258 483.68 310.378 484.64C307.498 485.573 304.125 486.04 300.258 486.04H292.658V506H280.658V447.96H300.258Z" fill="white"/>
<path d="M343.894 506H331.814V447.96H343.894V506Z" fill="white"/>
<path d="M404.753 447.96V506H398.553C397.62 506 396.833 505.853 396.193 505.56C395.553 505.24 394.927 504.707 394.313 503.96L365.393 467.16C365.473 468.093 365.526 469.013 365.553 469.92C365.606 470.827 365.633 471.667 365.633 472.44V506H355.033V447.96H361.353C361.86 447.96 362.286 447.987 362.633 448.04C363.006 448.067 363.34 448.16 363.633 448.32C363.926 448.453 364.206 448.64 364.473 448.88C364.74 449.12 365.033 449.44 365.353 449.84L394.473 486.8C394.366 485.787 394.286 484.813 394.233 483.88C394.18 482.92 394.153 482.013 394.153 481.16V447.96H404.753Z" fill="white"/>
<path d="M428.988 457.36V472.28H453.868V481.36H428.988V496.6H453.868V506H416.908V447.96H453.868V457.36H428.988Z" fill="white"/>
<path d="M1096 427L1189 427C1189 471.183 1151.84 507 1106 507H1096L1096 427Z" fill="white"/>
<path d="M754.61 506.931H1103.1C1106.84 506.931 1110.37 505.276 1112.57 502.448L1158.6 444.793C1164.47 437.483 1158.89 427 1149.13 427H730.897C722.528 427.069 716.802 434.931 719.812 442.241L743.598 499.897C745.36 504.172 749.765 507 754.61 507V506.931Z" fill="url(#paint0_linear_7102_2)"/>
<path d="M754.61 506.931H1103.1C1106.84 506.931 1110.37 505.276 1112.57 502.448L1158.6 444.793C1164.47 437.483 1158.89 427 1149.13 427H730.897C722.528 427.069 716.802 434.931 719.812 442.241L743.598 499.897C745.36 504.172 749.765 507 754.61 507V506.931Z" fill="url(#paint1_linear_7102_2)"/>
<path d="M1096 480.012C1091.76 480.012 1087.69 481.434 1084.69 483.964C1081.69 486.495 1080 489.927 1080 493.506C1080 497.085 1081.69 500.517 1084.69 503.048C1087.69 505.578 1091.76 507 1096 507L1096 480.012Z" fill="white"/>
<path d="M1096 453.988C1091.76 453.988 1087.69 455.359 1084.69 457.799C1081.69 460.239 1080 463.549 1080 467C1080 470.451 1081.69 473.761 1084.69 476.201C1087.69 478.641 1091.76 480.012 1096 480.012V453.988Z" fill="white"/>
<path d="M1096 427C1091.76 427 1087.69 428.422 1084.69 430.952C1081.69 433.483 1080 436.915 1080 440.494C1080 444.073 1081.69 447.505 1084.69 450.036C1087.69 452.566 1091.76 453.988 1096 453.988V427Z" fill="white"/>
<path d="M1096 427L1189 427C1189 471.183 1151.84 507 1106 507H1096L1096 427Z" fill="white"/>
<path d="M789.88 437.96L766.52 496H755.64L732.28 437.96H741.96C743 437.96 743.84 438.213 744.48 438.72C745.147 439.2 745.64 439.827 745.96 440.6L758.52 474.04C759 475.293 759.467 476.667 759.92 478.16C760.4 479.627 760.84 481.173 761.24 482.8C761.587 481.173 761.96 479.627 762.36 478.16C762.787 476.667 763.24 475.293 763.72 474.04L776.2 440.6C776.467 439.933 776.933 439.333 777.6 438.8C778.293 438.24 779.147 437.96 780.16 437.96H789.88Z" fill="white"/>
<path d="M819.012 486.4C820.959 486.4 822.705 486.08 824.252 485.44C825.799 484.773 827.105 483.84 828.172 482.64C829.239 481.44 830.052 479.987 830.612 478.28C831.172 476.573 831.452 474.653 831.452 472.52V437.96H843.452V472.52C843.452 476.04 842.879 479.28 841.732 482.24C840.612 485.173 838.999 487.707 836.892 489.84C834.785 491.973 832.225 493.64 829.212 494.84C826.199 496.04 822.799 496.64 819.012 496.64C815.225 496.64 811.812 496.04 808.772 494.84C805.759 493.64 803.199 491.973 801.092 489.84C798.985 487.707 797.359 485.173 796.212 482.24C795.092 479.28 794.532 476.04 794.532 472.52V437.96H806.532V472.52C806.532 474.653 806.812 476.573 807.372 478.28C807.932 479.987 808.745 481.44 809.812 482.64C810.879 483.84 812.185 484.773 813.732 485.44C815.279 486.08 817.039 486.4 819.012 486.4Z" fill="white"/>
<path d="M889.301 486.24V496H854.861V437.96H866.861V486.24H889.301Z" fill="white"/>
<path d="M916.258 466.84C920.018 466.84 922.765 465.933 924.498 464.12C926.258 462.307 927.138 459.827 927.138 456.68C927.138 455.24 926.911 453.933 926.458 452.76C926.031 451.56 925.365 450.547 924.458 449.72C923.578 448.867 922.458 448.213 921.098 447.76C919.738 447.307 918.125 447.08 916.258 447.08H908.658V466.84H916.258ZM916.258 437.96C920.231 437.96 923.658 438.427 926.538 439.36C929.445 440.293 931.831 441.6 933.698 443.28C935.565 444.933 936.938 446.907 937.818 449.2C938.725 451.493 939.178 453.987 939.178 456.68C939.178 459.533 938.711 462.147 937.778 464.52C936.845 466.893 935.431 468.933 933.538 470.64C931.645 472.347 929.258 473.68 926.378 474.64C923.498 475.573 920.125 476.04 916.258 476.04H908.658V496H896.658V437.96H916.258Z" fill="white"/>
<path d="M959.894 496H947.814V437.96H959.894V496Z" fill="white"/>
<path d="M1020.75 437.96V496H1014.55C1013.62 496 1012.83 495.853 1012.19 495.56C1011.55 495.24 1010.93 494.707 1010.31 493.96L981.393 457.16C981.473 458.093 981.526 459.013 981.553 459.92C981.606 460.827 981.633 461.667 981.633 462.44V496H971.033V437.96H977.353C977.86 437.96 978.286 437.987 978.633 438.04C979.006 438.067 979.34 438.16 979.633 438.32C979.926 438.453 980.206 438.64 980.473 438.88C980.74 439.12 981.033 439.44 981.353 439.84L1010.47 476.8C1010.37 475.787 1010.29 474.813 1010.23 473.88C1010.18 472.92 1010.15 472.013 1010.15 471.16V437.96H1020.75Z" fill="white"/>
<path d="M1044.99 447.36V462.28H1069.87V471.36H1044.99V486.6H1069.87V496H1032.91V437.96H1069.87V447.36H1044.99Z" fill="white"/>
<path d="M406.655 111V80.4545H418.885C421.132 80.4545 423.006 80.7876 424.508 81.4538C426.009 82.12 427.138 83.0447 427.893 84.228C428.649 85.4013 429.027 86.7536 429.027 88.2848C429.027 89.478 428.788 90.527 428.311 91.4318C427.834 92.3267 427.178 93.0625 426.342 93.6392C425.517 94.206 424.572 94.6087 423.509 94.8473V95.1456C424.672 95.1953 425.761 95.5234 426.775 96.13C427.799 96.7365 428.629 97.5866 429.266 98.6804C429.902 99.7642 430.22 101.057 430.22 102.558C430.22 104.179 429.817 105.626 429.012 106.898C428.217 108.161 427.038 109.161 425.477 109.896C423.916 110.632 421.992 111 419.705 111H406.655ZM413.113 105.72H418.378C420.178 105.72 421.49 105.377 422.315 104.691C423.141 103.995 423.553 103.07 423.553 101.917C423.553 101.072 423.349 100.326 422.942 99.6797C422.534 99.0334 421.952 98.5263 421.197 98.1584C420.451 97.7905 419.561 97.6065 418.527 97.6065H413.113V105.72ZM413.113 93.2365H417.901C418.786 93.2365 419.571 93.0824 420.257 92.7741C420.953 92.456 421.5 92.0085 421.898 91.4318C422.305 90.8551 422.509 90.1641 422.509 89.3587C422.509 88.255 422.116 87.3651 421.331 86.6889C420.555 86.0128 419.452 85.6747 418.02 85.6747H413.113V93.2365ZM432.633 80.4545H439.866L446.831 93.6094H447.13L454.095 80.4545H461.329L450.187 100.202V111H443.774V100.202L432.633 80.4545Z" fill="black"/>
<defs>
<linearGradient id="paint0_linear_7102_2" x1="719" y1="467" x2="1161" y2="467" gradientUnits="userSpaceOnUse">
<stop stop-color="#FF3300"/>
<stop offset="1" stop-color="#FF7700"/>
</linearGradient>
<linearGradient id="paint1_linear_7102_2" x1="719" y1="467" x2="1161" y2="467" gradientUnits="userSpaceOnUse">
<stop stop-color="#FF3300"/>
<stop offset="1" stop-color="#FF7700"/>
</linearGradient>
</defs>
</svg>
