<svg width="667" height="401" viewBox="0 0 667 401" fill="none" xmlns="http://www.w3.org/2000/svg">
<path d="M92.6096 14L60.3235 95.3108H45.2861L13 14H26.3788C27.8162 14 28.9772 14.3549 29.8618 15.0648C30.7832 15.7372 31.465 16.6151 31.9073 17.6985L49.2666 64.5461C49.93 66.3019 50.575 68.2259 51.2015 70.318C51.865 72.3727 52.4731 74.5395 53.0259 76.8183C53.5051 74.5395 54.0211 72.3727 54.5739 70.318C55.1636 68.2259 55.7902 66.3019 56.4536 64.5461L73.7023 17.6985C74.0709 16.7646 74.7159 15.924 75.6373 15.1768C76.5955 14.3923 77.7749 14 79.1755 14H92.6096Z" fill="#ED2000"/>
<path d="M133.747 81.9927C136.437 81.9927 138.851 81.5444 140.989 80.6478C143.127 79.7139 144.933 78.4063 146.407 76.7252C147.881 75.0441 149.005 73.008 149.779 70.6171C150.553 68.2261 150.94 65.5363 150.94 62.5477V14H167.526V62.5477C167.526 67.479 166.733 72.018 165.148 76.1648C163.6 80.2743 161.371 83.8233 158.459 86.812C155.547 89.8007 152.009 92.1356 147.844 93.8167C143.68 95.4978 138.98 96.3384 133.747 96.3384C128.513 96.3384 123.796 95.4978 119.594 93.8167C115.429 92.1356 111.891 89.8007 108.979 86.812C106.068 83.8233 103.82 80.2743 102.235 76.1648C100.687 72.018 99.9128 67.479 99.9128 62.5477V14H116.498V62.5477C116.498 65.5363 116.885 68.2261 117.659 70.6171C118.433 73.008 119.557 75.0441 121.031 76.7252C122.506 78.4063 124.312 79.7139 126.449 80.6478C128.587 81.5444 131.019 81.9927 133.747 81.9927Z" fill="#ED2000"/>
<path d="M230.021 81.6376V95.3108H182.421V14H199.006V81.6376H230.021Z" fill="#ED2000"/>
<path d="M268.295 54.4593C273.491 54.4593 277.288 53.1891 279.683 50.6487C282.116 48.1083 283.332 44.634 283.332 40.2257C283.332 38.2083 283.019 36.3778 282.392 34.734C281.803 33.0529 280.881 31.6332 279.628 30.4751C278.412 29.2797 276.864 28.3644 274.984 27.7293C273.104 27.0942 270.875 26.7766 268.295 26.7766H257.791V54.4593H268.295ZM268.295 14C273.786 14 278.522 14.6538 282.503 15.9614C286.52 17.2689 289.819 19.0995 292.399 21.453C294.979 23.7693 296.877 26.5338 298.093 29.7466C299.346 32.9595 300.989 36.4525 300.989 40.2257C300.989 44.223 299.328 47.8842 298.038 51.2091C296.748 54.534 294.794 57.3919 292.178 59.7829C289.561 62.1738 286.262 64.0417 282.282 65.3866C278.301 66.6942 273.639 67.3479 268.295 67.3479H257.791V95.3108H241.205V14H268.295Z" fill="#ED2000"/>
<path d="M328.605 95.3108H311.909V14H328.605V95.3108Z" fill="#ED2000"/>
<path d="M413.735 14V95.3108H405.166C403.876 95.3108 402.789 95.1053 401.904 94.6944C401.019 94.246 400.153 93.4989 399.306 92.4529L359.335 40.8981C359.446 42.2057 359.519 43.4946 359.556 44.7647C359.63 46.0349 359.667 47.2117 359.667 48.2951V95.3108H345.016V14H353.751C354.452 14 355.041 14.0374 355.52 14.1121C356.036 14.1495 356.497 14.2802 356.902 14.5044C357.308 14.6912 357.695 14.9527 358.063 15.2889C358.432 15.6251 358.837 16.0734 359.28 16.6338L399.527 68.4127C399.379 66.993 399.269 65.6295 399.195 64.3219C399.121 62.977 399.085 61.7068 399.085 60.5113V14H413.735Z" fill="#ED2000"/>
<path d="M445.197 27.1689V48.071H479.584V60.7915H445.197V82.1419H479.584V95.3108H428.501V14H479.584V27.1689H445.197Z" fill="#ED2000"/>
<path d="M654 14V19.3122C654 61.3636 619.911 95.453 577.859 95.453H493.75V90.1409C493.75 48.0894 527.839 14 569.891 14V19.3122C530.773 19.3122 499.062 51.0233 499.062 90.1409H577.859C616.977 90.1409 648.688 58.4298 648.688 19.3122H569.891V14H654Z" fill="#ED2000"/>
<mask id="mask0_7104_73" style="mask-type:alpha" maskUnits="userSpaceOnUse" x="499" y="19" width="150" height="72">
<path d="M499.062 90.1409C499.062 51.0232 530.773 19.3121 569.891 19.3121H648.688C648.688 58.4298 616.977 90.1409 577.859 90.1409H499.062Z" fill="#ED2000"/>
</mask>
<g mask="url(#mask0_7104_73)">
<path d="M499.062 90.1409C499.062 51.0232 530.773 19.3121 569.891 19.3121L648.688 19.3121V65.1409C648.688 78.948 637.495 90.1409 623.688 90.1409L499.062 90.1409Z" fill="#ED2000"/>
<path d="M593.796 19.3121L648.688 19.3121V90.1409H593.796V19.3121Z" fill="white"/>
<path d="M580.056 19.3121L564.79 19.3121C558.321 19.3121 553.069 24.6049 553.069 31.1241C553.069 37.6433 558.321 42.9361 564.79 42.9361H580.056" fill="#FF6E4A"/>
<path d="M580.056 42.9146H564.79C558.321 42.9146 553.069 48.2073 553.069 54.7265C553.069 61.2457 558.321 66.5385 564.79 66.5385H580.056" fill="#FF6E4A"/>
<path d="M580.056 66.5385H564.79C558.321 66.5385 553.069 71.8312 553.069 78.3504C553.069 84.8696 558.321 90.1624 564.79 90.1624H580.056" fill="#FF6E4A"/>
<path d="M594.681 19.3336L579.736 19.3121C573.266 19.3121 568.014 24.6049 568.014 31.1241C568.014 37.6433 573.266 42.9361 579.736 42.9361L594.681 42.9576" fill="#FFB3A4"/>
<path d="M594.681 42.9361L579.736 42.9146C573.266 42.9146 568.014 48.2073 568.014 54.7265C568.014 61.2457 573.266 66.5385 579.736 66.5385L594.681 66.56" fill="#FFB3A4"/>
<path d="M594.681 66.56L579.736 66.5385C573.266 66.5385 568.014 71.8312 568.014 78.3504C568.014 84.8696 573.266 90.1624 579.736 90.1624L594.681 90.1839" fill="#FFB3A4"/>
<path d="M594.681 19.3121C588.212 19.3121 582.96 24.6049 582.96 31.1241C582.96 37.6433 588.212 42.9361 594.681 42.9361" fill="white"/>
<path d="M594.681 42.9146C588.212 42.9146 582.96 48.2073 582.96 54.7265C582.96 61.2457 588.212 66.5385 594.681 66.5385" fill="white"/>
<path d="M594.681 66.5385C588.212 66.5385 582.96 71.8312 582.96 78.3504C582.96 84.8696 588.212 90.1624 594.681 90.1624" fill="white"/>
</g>
<mask id="mask1_7104_73" style="mask-type:alpha" maskUnits="userSpaceOnUse" x="377" y="117" width="169" height="80">
<path d="M377 197C377 152.817 412.817 117 457 117H546C546 161.183 510.183 197 466 197H377Z" fill="#ED2000"/>
</mask>
<g mask="url(#mask1_7104_73)">
<path d="M377 197C377 152.817 412.817 117 457 117H546V172C546 185.807 534.807 197 521 197H377Z" fill="#ED2000"/>
<path d="M484 117L546 117V197H484V117Z" fill="white"/>
<path d="M468.481 117H451.239C443.932 117 438 122.978 438 130.341C438 137.705 443.932 143.683 451.239 143.683H468.481" fill="#B11800"/>
<path d="M468.481 143.659H451.239C443.932 143.659 438 149.637 438 157C438 164.363 443.932 170.341 451.239 170.341H468.481" fill="#B11800"/>
<path d="M468.481 170.341H451.239C443.932 170.341 438 176.32 438 183.683C438 191.046 443.932 197.024 451.239 197.024H468.481" fill="#B11800"/>
<path d="M485 117.024L468.119 117C460.813 117 454.88 122.978 454.88 130.341C454.88 137.705 460.813 143.683 468.119 143.683L485 143.707" fill="#7B1000"/>
<path d="M485 143.683L468.119 143.659C460.813 143.659 454.88 149.637 454.88 157C454.88 164.363 460.813 170.341 468.119 170.341L485 170.366" fill="#7B1000"/>
<path d="M485 170.366L468.119 170.341C460.813 170.341 454.88 176.32 454.88 183.683C454.88 191.046 460.813 197.024 468.119 197.024L485 197.049" fill="#7B1000"/>
<path d="M485 117C477.693 117 471.761 122.978 471.761 130.341C471.761 137.705 477.693 143.683 485 143.683" fill="white"/>
<path d="M485 143.659C477.693 143.659 471.761 149.637 471.761 157C471.761 164.363 477.693 170.341 485 170.341" fill="white"/>
<path d="M485 170.341C477.693 170.341 471.761 176.32 471.761 183.683C471.761 191.046 477.693 197.024 485 197.024" fill="white"/>
</g>
<path d="M457 123.5H539.216C535.926 161.048 504.403 190.5 466 190.5H383.784C387.074 152.952 418.597 123.5 457 123.5Z" stroke="#ED2000" stroke-width="13"/>
<path d="M194 295V301C194 348.496 155.496 387 108 387H13V381C13 333.504 51.5035 295 99 295V301C54.8172 301 19 336.817 19 381H108C152.183 381 188 345.183 188 301H99V295H194Z" fill="#ED2000"/>
<mask id="mask2_7104_73" style="mask-type:alpha" maskUnits="userSpaceOnUse" x="19" y="301" width="169" height="80">
<path d="M19 381C19 336.817 54.8172 301 99 301H188C188 345.183 152.183 381 108 381H19Z" fill="#ED2000"/>
</mask>
<g mask="url(#mask2_7104_73)">
<path d="M19 381C19 336.817 54.8172 301 99 301H188V356C188 369.807 176.807 381 163 381H19Z" fill="#ED2000"/>
<path d="M126 301H188V381H126L126 301Z" fill="white"/>
<path d="M110.481 301H93.2391C85.9323 301 80 306.978 80 314.341C80 321.705 85.9323 327.683 93.2391 327.683H110.481" fill="#FF6E4A"/>
<path d="M110.481 327.659H93.2391C85.9323 327.659 80 333.637 80 341C80 348.363 85.9323 354.341 93.2391 354.341H110.481" fill="#FF6E4A"/>
<path d="M110.481 354.341H93.2391C85.9323 354.341 80 360.32 80 367.683C80 375.046 85.9323 381.024 93.2391 381.024H110.481" fill="#FF6E4A"/>
<path d="M127 301.024L110.119 301C102.813 301 96.8804 306.978 96.8804 314.341C96.8804 321.705 102.813 327.683 110.119 327.683L127 327.707" fill="#FFB3A4"/>
<path d="M127 327.683L110.119 327.659C102.813 327.659 96.8804 333.637 96.8804 341C96.8804 348.363 102.813 354.341 110.119 354.341L127 354.366" fill="#FFB3A4"/>
<path d="M127 354.366L110.119 354.341C102.813 354.341 96.8804 360.32 96.8804 367.683C96.8804 375.046 102.813 381.024 110.119 381.024L127 381.049" fill="#FFB3A4"/>
<path d="M127 301C119.693 301 113.761 306.978 113.761 314.341C113.761 321.705 119.693 327.683 127 327.683" fill="white"/>
<path d="M127 327.659C119.693 327.659 113.761 333.637 113.761 341C113.761 348.363 119.693 354.341 127 354.341" fill="white"/>
<path d="M127 354.341C119.693 354.341 113.761 360.32 113.761 367.683C113.761 375.046 119.693 381.024 127 381.024" fill="white"/>
</g>
<path d="M200 203V209C200 256.496 161.496 295 114 295H19V289C19 241.504 57.5035 203 105 203V209C60.8172 209 25 244.817 25 289H114C158.183 289 194 253.183 194 209H105V203H200Z" fill="#ED2000"/>
<mask id="mask3_7104_73" style="mask-type:alpha" maskUnits="userSpaceOnUse" x="25" y="209" width="169" height="80">
<path d="M25 289C25 244.817 60.8172 209 105 209H194C194 253.183 158.183 289 114 289H25Z" fill="#ED2000"/>
</mask>
<g mask="url(#mask3_7104_73)">
<path d="M25 289C25 244.817 60.8172 209 105 209L194 209V264C194 277.807 182.807 289 169 289H25Z" fill="#ED2000"/>
<path d="M132 209H194V289H132V209Z" fill="white"/>
<path d="M116.481 209H99.2391C91.9323 209 86 214.978 86 222.341C86 229.705 91.9323 235.683 99.2391 235.683H116.481" fill="#FF6E4A"/>
<path d="M116.481 235.659H99.2391C91.9323 235.659 86 241.637 86 249C86 256.363 91.9323 262.341 99.2391 262.341H116.481" fill="#FF6E4A"/>
<path d="M116.481 262.341H99.2391C91.9323 262.341 86 268.32 86 275.683C86 283.046 91.9323 289.024 99.2391 289.024H116.481" fill="#FF6E4A"/>
<path d="M133 209.024L116.119 209C108.813 209 102.88 214.978 102.88 222.341C102.88 229.705 108.813 235.683 116.119 235.683L133 235.707" fill="#FFB3A4"/>
<path d="M133 235.683L116.119 235.659C108.813 235.659 102.88 241.637 102.88 249C102.88 256.363 108.813 262.341 116.119 262.341L133 262.366" fill="#FFB3A4"/>
<path d="M133 262.366L116.119 262.341C108.813 262.341 102.88 268.32 102.88 275.683C102.88 283.046 108.813 289.024 116.119 289.024L133 289.049" fill="#FFB3A4"/>
<path d="M133 209C125.693 209 119.761 214.978 119.761 222.341C119.761 229.705 125.693 235.683 133 235.683" fill="white"/>
<path d="M133 235.659C125.693 235.659 119.761 241.637 119.761 249C119.761 256.363 125.693 262.341 133 262.341" fill="white"/>
<path d="M133 262.341C125.693 262.341 119.761 268.32 119.761 275.683C119.761 283.046 125.693 289.024 133 289.024" fill="white"/>
</g>
<path d="M197 114V117C197 162.84 159.84 200 114 200H22V197C22 151.16 59.1604 114 105 114H197Z" stroke="black" stroke-width="6"/>
<mask id="mask4_7104_73" style="mask-type:alpha" maskUnits="userSpaceOnUse" x="25" y="117" width="169" height="80">
<path d="M25 197C25 152.817 60.8172 117 105 117H194C194 161.183 158.183 197 114 197H25Z" fill="#ED2000"/>
</mask>
<g mask="url(#mask4_7104_73)">
<path d="M25 197C25 152.817 60.8172 117 105 117H194V172C194 185.807 182.807 197 169 197H25Z" fill="black"/>
<path d="M132 117L194 117V197H132V117Z" fill="white"/>
<path d="M116.481 117H99.2391C91.9323 117 86 122.978 86 130.341C86 137.705 91.9323 143.683 99.2391 143.683H116.481" fill="#5A5A5A"/>
<path d="M116.481 143.659H99.2391C91.9323 143.659 86 149.637 86 157C86 164.363 91.9323 170.341 99.2391 170.341H116.481" fill="#5A5A5A"/>
<path d="M116.481 170.341H99.2391C91.9323 170.341 86 176.32 86 183.683C86 191.046 91.9323 197.024 99.2391 197.024H116.481" fill="#5A5A5A"/>
<path d="M133 117.024L116.119 117C108.813 117 102.88 122.978 102.88 130.341C102.88 137.705 108.813 143.683 116.119 143.683L133 143.707" fill="#C8C8C8"/>
<path d="M133 143.683L116.119 143.659C108.813 143.659 102.88 149.637 102.88 157C102.88 164.363 108.813 170.341 116.119 170.341L133 170.366" fill="#C8C8C8"/>
<path d="M133 170.366L116.119 170.341C108.813 170.341 102.88 176.32 102.88 183.683C102.88 191.046 108.813 197.024 116.119 197.024L133 197.049" fill="#C8C8C8"/>
<path d="M133 117C125.693 117 119.761 122.978 119.761 130.341C119.761 137.705 125.693 143.683 133 143.683" fill="white"/>
<path d="M133 143.659C125.693 143.659 119.761 149.637 119.761 157C119.761 164.363 125.693 170.341 133 170.341" fill="white"/>
<path d="M133 170.341C125.693 170.341 119.761 176.32 119.761 183.683C119.761 191.046 125.693 197.024 133 197.024" fill="white"/>
</g>
<mask id="mask5_7104_73" style="mask-type:luminance" maskUnits="userSpaceOnUse" x="208" y="117" width="169" height="80">
<path d="M208 197C208 152.817 243.817 117 288 117H377C377 161.183 341.183 197 297 197H208Z" fill="white"/>
</mask>
<g mask="url(#mask5_7104_73)">
<path d="M208 197C208 152.817 243.817 117 288 117H377V172C377 185.807 365.807 197 352 197H208Z" fill="#ED2000"/>
<path d="M297 117L377 117C377 161.183 341.183 197 297 197V117Z" fill="white"/>
<path d="M299.481 117H282.239C274.932 117 269 122.978 269 130.341C269 137.705 274.932 143.683 282.239 143.683H299.481" fill="#B11800"/>
<path d="M299.481 143.659H282.239C274.932 143.659 269 149.637 269 157C269 164.363 274.932 170.341 282.239 170.341H299.481" fill="#B11800"/>
<path d="M299.481 170.341H282.239C274.932 170.341 269 176.32 269 183.683C269 191.046 274.932 197.024 282.239 197.024H299.481" fill="#B11800"/>
<path d="M313.588 117H299.119C291.813 117 285.88 122.978 285.88 130.341C285.88 137.705 291.813 143.683 299.119 143.683H313.588" fill="#7B1000"/>
<path d="M313.588 143.659H299.119C291.813 143.659 285.88 149.637 285.88 157C285.88 164.363 291.813 170.341 299.119 170.341H313.588" fill="#7B1000"/>
<path d="M313.588 170.341H299.119C291.813 170.341 285.88 176.32 285.88 183.683C285.88 191.046 291.813 197.024 299.119 197.024H313.588" fill="#7B1000"/>
<path d="M316 117C308.693 117 302.761 122.978 302.761 130.341C302.761 137.705 308.693 143.683 316 143.683" fill="white"/>
<path d="M316 143.659C308.693 143.659 302.761 149.637 302.761 157C302.761 164.363 308.693 170.341 316 170.341" fill="white"/>
<path d="M316 170.341C308.693 170.341 302.761 176.32 302.761 183.683C302.761 191.046 308.693 197.024 316 197.024" fill="white"/>
</g>
<path d="M380 115V118C380 163.323 342.804 200 297 200H205V197C205 151.677 242.196 115 288 115H380Z" stroke="#7B1000" stroke-width="6" stroke-miterlimit="2.3662"/>
<mask id="mask6_7104_73" style="mask-type:alpha" maskUnits="userSpaceOnUse" x="194" y="203" width="169" height="80">
<path d="M194 283C194 238.817 229.817 203 274 203H363C363 247.183 327.183 283 283 283H194Z" fill="#ED2000"/>
</mask>
<g mask="url(#mask6_7104_73)">
<path d="M271 216.341C271 209.1 276.791 203.243 284 203H271.415C264.011 203 258 208.978 258 216.341C258 223.705 264.011 229.683 271.415 229.683H284C276.791 229.44 271 223.583 271 216.341Z" fill="#FF6E4A"/>
<path d="M271 243C271 235.782 276.791 229.902 284 229.683H271.415C264.011 229.683 258 235.661 258 243.024C258 250.388 264.011 256.366 271.415 256.366H284C276.791 256.123 271 250.266 271 243.024V243Z" fill="#FF6E4A"/>
<path d="M271 269.683C271 262.465 276.791 256.584 284 256.366H271.415C264.011 256.366 258 262.344 258 269.707C258 277.07 264.011 283.049 271.415 283.049H284C276.791 282.806 271 276.949 271 269.707V269.683Z" fill="#FF6E4A"/>
<path d="M288 216.341C288 209.1 293.791 203.243 301 203H288.415C281.011 203 275 208.978 275 216.341C275 223.705 281.011 229.683 288.415 229.683H301C293.791 229.44 288 223.583 288 216.341Z" fill="#FFB3A4"/>
<path d="M288 243C288 235.782 293.791 229.902 301 229.683H288.415C281.011 229.683 275 235.661 275 243.024C275 250.388 281.011 256.366 288.415 256.366H301C293.791 256.123 288 250.266 288 243.024V243Z" fill="#FFB3A4"/>
<path d="M288 269.683C288 262.465 293.791 256.584 301 256.366H288.415C281.011 256.366 275 262.344 275 269.707C275 277.07 281.011 283.049 288.415 283.049H301C293.791 282.806 288 276.949 288 269.707V269.683Z" fill="#FFB3A4"/>
<path d="M305 216.341C305 209.1 310.791 203.243 318 203H305.415C298.011 203 292 208.978 292 216.341C292 223.705 298.011 229.683 305.415 229.683H318C310.791 229.44 305 223.583 305 216.341Z" fill="white"/>
<path d="M305 243C305 235.782 310.791 229.902 318 229.683H305.415C298.011 229.683 292 235.661 292 243.024C292 250.388 298.011 256.366 305.415 256.366H318C310.791 256.123 305 250.266 305 243.024V243Z" fill="white"/>
<path d="M305 269.683C305 262.465 310.791 256.584 318 256.366H305.415C298.011 256.366 292 262.344 292 269.707C292 277.07 298.011 283.049 305.415 283.049H318C310.791 282.806 305 276.949 305 269.707V269.683Z" fill="white"/>
<path d="M318 203H392V209C392 249.869 358.869 283 318 283V203Z" fill="white"/>
<rect x="305" y="203" width="13" height="80" fill="white"/>
<path d="M254 216.341C254 209.1 259.791 203.243 267 203H254.415C247.011 203 241 208.978 241 216.341C241 223.705 247.011 229.683 254.415 229.683H267C259.791 229.44 254 223.583 254 216.341Z" fill="#ED2000"/>
<path d="M254 243C254 235.782 259.791 229.902 267 229.683H254.415C247.011 229.683 241 235.661 241 243.024C241 250.388 247.011 256.366 254.415 256.366H267C259.791 256.123 254 250.266 254 243.024V243Z" fill="#ED2000"/>
<path d="M254 269.683C254 262.465 259.791 256.584 267 256.366H254.415C247.011 256.366 241 262.344 241 269.707C241 277.07 247.011 283.049 254.415 283.049H267C259.791 282.806 254 276.949 254 269.707V269.683Z" fill="#ED2000"/>
<path d="M247 283L167 283V283C167 238.817 202.817 203 247 203V203L247 283Z" fill="#ED2000"/>
<rect x="254" y="283" width="13" height="80" transform="rotate(-180 254 283)" fill="#ED2000"/>
</g>
<path d="M274 206H359.942C358.366 247.135 324.521 280 283 280H197.058C198.634 238.865 232.479 206 274 206Z" stroke="#ED2000" stroke-width="6"/>
</svg>
