<svg width="692" height="140" viewBox="0 0 692 140" fill="none" xmlns="http://www.w3.org/2000/svg">
<rect width="692" height="140" fill="white"/>
<path d="M103.316 30L71.5542 109.128H56.7613L25 30H38.1614C39.5754 30 40.7175 30.3454 41.5877 31.0362C42.4941 31.6906 43.1649 32.5449 43.5999 33.5992L60.6771 79.1889C61.3297 80.8976 61.9642 82.7699 62.5806 84.8058C63.2332 86.8053 63.8315 88.9139 64.3753 91.1316C64.8467 88.9139 65.3543 86.8053 65.8981 84.8058C66.4782 82.7699 67.0946 80.8976 67.7472 79.1889L84.7156 33.5992C85.0782 32.6903 85.7127 31.8723 86.6191 31.1452C87.5618 30.3818 88.722 30 90.0998 30H103.316Z" fill="#ED2000"/>
<path d="M143.784 96.1671C146.431 96.1671 148.806 95.7308 150.909 94.8583C153.012 93.9494 154.788 92.677 156.238 91.041C157.689 89.405 158.795 87.4236 159.556 85.0969C160.317 82.7701 160.698 80.1525 160.698 77.2441V30H177.014V77.2441C177.014 82.043 176.234 86.4602 174.675 90.4956C173.152 94.4947 170.959 97.9485 168.095 100.857C165.23 103.765 161.75 106.038 157.652 107.674C153.555 109.31 148.933 110.128 143.784 110.128C138.636 110.128 133.995 109.31 129.861 107.674C125.764 106.038 122.284 103.765 119.419 100.857C116.555 97.9485 114.343 94.4947 112.784 90.4956C111.261 86.4602 110.5 82.043 110.5 77.2441V30H126.816V77.2441C126.816 80.1525 127.196 82.7701 127.958 85.0969C128.719 87.4236 129.825 89.405 131.275 91.041C132.726 92.677 134.502 93.9494 136.605 94.8583C138.708 95.7308 141.101 96.1671 143.784 96.1671Z" fill="#ED2000"/>
<path d="M238.493 95.8214V109.128H191.667V30H207.983V95.8214H238.493Z" fill="#ED2000"/>
<path d="M276.145 69.3729C281.257 69.3729 284.992 68.1368 287.348 65.6647C289.741 63.1925 290.938 59.8114 290.938 55.5215C290.938 53.5583 290.63 51.7769 290.013 50.1773C289.433 48.5413 288.527 47.1598 287.294 46.0328C286.098 44.8694 284.575 43.9787 282.726 43.3606C280.876 42.7426 278.683 42.4336 276.145 42.4336H265.812V69.3729H276.145ZM276.145 30C281.547 30 286.206 30.6363 290.122 31.9087C294.074 33.1811 297.319 34.9625 299.857 37.2529C302.395 39.507 304.262 42.1973 305.459 45.3238C306.692 48.4504 308.308 51.8496 308.308 55.5215C308.308 59.4115 306.673 62.9744 305.404 66.21C304.135 69.4456 302.214 72.2268 299.64 74.5535C297.065 76.8803 293.82 78.698 289.905 80.0068C285.989 81.2793 281.402 81.9155 276.145 81.9155H265.812V109.128H249.496V30H276.145Z" fill="#ED2000"/>
<path d="M335.475 109.128H319.05V30H335.475V109.128Z" fill="#ED2000"/>
<path d="M419.221 30V109.128H410.791C409.522 109.128 408.453 108.928 407.582 108.528C406.712 108.091 405.86 107.364 405.026 106.346L365.705 56.1759C365.814 57.4483 365.887 58.7026 365.923 59.9387C365.995 61.1748 366.032 62.32 366.032 63.3743V109.128H351.619V30H360.212C360.901 30 361.481 30.0364 361.953 30.1091C362.46 30.1455 362.914 30.2727 363.312 30.4908C363.711 30.6726 364.092 30.9271 364.455 31.2543C364.817 31.5815 365.216 32.0178 365.651 32.5631L405.244 82.9516C405.099 81.5701 404.99 80.2432 404.918 78.9707C404.845 77.6619 404.809 76.4258 404.809 75.2625V30H419.221Z" fill="#ED2000"/>
<path d="M450.172 42.8153V63.1561H484V75.5351H450.172V96.3122H484V109.128H433.747V30H484V42.8153H450.172Z" fill="#ED2000"/>
<mask id="mask0_7092_160" style="mask-type:alpha" maskUnits="userSpaceOnUse" x="497" y="29" width="169" height="80">
<path d="M497 109C497 64.8172 532.817 29 577 29H666C666 73.1828 630.183 109 586 109H497Z" fill="#ED2000"/>
</mask>
<g mask="url(#mask0_7092_160)">
<path d="M497 109C497 64.8172 532.817 29 577 29L666 29V84C666 97.8071 654.807 109 641 109L497 109V109Z" fill="#ED2000"/>
<path d="M604 29L666 29V109L604 109V29Z" fill="white"/>
<path d="M588.481 29L571.239 29C563.932 29 558 34.9781 558 42.3414C558 49.7047 563.932 55.6829 571.239 55.6829H588.481" fill="#FF6E4A"/>
<path d="M588.481 55.6586L571.239 55.6586C563.932 55.6586 558 61.6367 558 69C558 76.3633 563.932 82.3414 571.239 82.3414H588.481" fill="#FF6E4A"/>
<path d="M588.481 82.3414H571.239C563.932 82.3414 558 88.3196 558 95.6829C558 103.046 563.932 109.024 571.239 109.024H588.481" fill="#FF6E4A"/>
<path d="M605 29.0243L588.119 29C580.813 29 574.88 34.9781 574.88 42.3414C574.88 49.7047 580.813 55.6829 588.119 55.6829L605 55.7072" fill="#FFB3A4"/>
<path d="M605 55.6829L588.119 55.6586C580.813 55.6586 574.88 61.6367 574.88 69C574.88 76.3633 580.813 82.3414 588.119 82.3414L605 82.3657" fill="#FFB3A4"/>
<path d="M605 82.3657L588.119 82.3414C580.813 82.3414 574.88 88.3196 574.88 95.6829C574.88 103.046 580.813 109.024 588.119 109.024L605 109.049" fill="#FFB3A4"/>
<path d="M605 29C597.693 29 591.761 34.9781 591.761 42.3414C591.761 49.7047 597.693 55.6829 605 55.6829" fill="white"/>
<path d="M605 55.6586C597.693 55.6586 591.761 61.6367 591.761 69C591.761 76.3633 597.693 82.3414 605 82.3414" fill="white"/>
<path d="M605 82.3414C597.693 82.3414 591.761 88.3196 591.761 95.6829C591.761 103.046 597.693 109.024 605 109.024" fill="white"/>
</g>
</svg>
