<svg width="594" height="307" viewBox="0 0 594 307" fill="none" xmlns="http://www.w3.org/2000/svg">
<mask id="mask0_7102_3" style="mask-type:alpha" maskUnits="userSpaceOnUse" x="401" y="214" width="169" height="80">
<path d="M401 294C401 249.817 436.817 214 481 214H570C570 258.183 534.183 294 490 294H401Z" fill="#ED2000"/>
</mask>
<g mask="url(#mask0_7102_3)">
<path d="M401 294C401 249.817 436.817 214 481 214L570 214V269C570 282.807 558.807 294 545 294H401Z" fill="#ED2000"/>
<path d="M508 214H570V294H508V214Z" fill="white"/>
<path d="M492.481 214H475.239C467.932 214 462 219.978 462 227.341C462 234.705 467.932 240.683 475.239 240.683H492.481" fill="#FF6E4A"/>
<path d="M492.481 240.658H475.239C467.932 240.658 462 246.637 462 254C462 261.363 467.932 267.341 475.239 267.341H492.481" fill="#FF6E4A"/>
<path d="M492.481 267.342H475.239C467.932 267.342 462 273.32 462 280.683C462 288.046 467.932 294.024 475.239 294.024H492.481" fill="#FF6E4A"/>
<path d="M509 214.024L492.119 214C484.813 214 478.88 219.978 478.88 227.341C478.88 234.705 484.813 240.683 492.119 240.683L509 240.707" fill="#FFB3A4"/>
<path d="M509 240.683L492.119 240.658C484.813 240.658 478.88 246.637 478.88 254C478.88 261.363 484.813 267.341 492.119 267.341L509 267.366" fill="#FFB3A4"/>
<path d="M509 267.366L492.119 267.342C484.813 267.342 478.88 273.32 478.88 280.683C478.88 288.046 484.813 294.024 492.119 294.024L509 294.049" fill="#FFB3A4"/>
<path d="M509 214C501.693 214 495.761 219.978 495.761 227.341C495.761 234.705 501.693 240.683 509 240.683" fill="white"/>
<path d="M509 240.658C501.693 240.658 495.761 246.637 495.761 254C495.761 261.363 501.693 267.341 509 267.341" fill="white"/>
<path d="M509 267.342C501.693 267.342 495.761 273.32 495.761 280.683C495.761 288.046 501.693 294.024 509 294.024" fill="white"/>
</g>
<path d="M481 220.5H563.216C559.926 258.048 528.403 287.5 490 287.5H407.784C411.074 249.952 442.597 220.5 481 220.5Z" stroke="#ED2000" stroke-width="13"/>
<path d="M45.7189 294.083L23 235H41.0279L54.8248 274.083L68.6217 235H86.7416L64.0227 294.083H45.7189Z" fill="#ED2000"/>
<path d="M118.993 295C113.474 295 108.599 294.113 104.368 292.339C100.198 290.505 96.9175 287.844 94.526 284.358C92.1346 280.81 90.9389 276.468 90.9389 271.33V235H108.231V269.495C108.231 276.713 111.818 280.321 118.993 280.321C122.426 280.321 125.063 279.434 126.903 277.661C128.742 275.887 129.662 273.165 129.662 269.495V235H146.954V271.33C146.954 276.468 145.758 280.81 143.367 284.358C141.037 287.844 137.756 290.505 133.525 292.339C129.356 294.113 124.511 295 118.993 295Z" fill="#ED2000"/>
<path d="M154.814 294.083V235H172.106V280.872H198.78V294.083H154.814Z" fill="#ED2000"/>
<path d="M203.409 294.083V235H233.946C238.79 235 242.776 235.979 245.903 237.936C249.092 239.832 251.452 242.431 252.985 245.734C254.518 249.037 255.285 252.706 255.285 256.743C255.285 260.902 254.396 264.602 252.617 267.844C250.839 271.086 248.325 273.624 245.075 275.459C241.825 277.294 237.993 278.211 233.578 278.211H220.701V294.083H203.409ZM220.701 265H229.623C232.321 265 234.314 264.235 235.601 262.706C236.95 261.177 237.625 259.19 237.625 256.743C237.625 254.113 237.012 252.034 235.785 250.505C234.559 248.976 232.658 248.211 230.083 248.211H220.701V265Z" fill="#ED2000"/>
<path d="M259.908 294.083V235H277.2V294.083H259.908Z" fill="#ED2000"/>
<path d="M285.507 294.083V235H300.224L322.575 266.284V235H339.867V294.083H325.058L302.799 262.89V294.083H285.507Z" fill="#ED2000"/>
<path d="M348.114 294.083V235H393V248.211H365.406V257.844H393V271.239H365.406V280.872H393V294.083H348.114Z" fill="#ED2000"/>
<mask id="mask1_7102_3" style="mask-type:alpha" maskUnits="userSpaceOnUse" x="402" y="12" width="169" height="80">
<path d="M402 92C402 47.8172 437.817 12 482 12H571C571 56.1828 535.183 92 491 92H402Z" fill="#ED2000"/>
</mask>
<g mask="url(#mask1_7102_3)">
<path d="M402 92C402 47.8172 437.817 12 482 12L571 12V67C571 80.8071 559.807 92 546 92L402 92Z" fill="#ED2000"/>
<path d="M509 12L571 12V92L509 92V12Z" fill="white"/>
<path d="M493.481 12L476.239 12C468.932 12 463 17.9781 463 25.3414C463 32.7047 468.932 38.6829 476.239 38.6829H493.481" fill="#B11800"/>
<path d="M493.481 38.6586L476.239 38.6586C468.932 38.6586 463 44.6367 463 52C463 59.3633 468.932 65.3414 476.239 65.3414H493.481" fill="#B11800"/>
<path d="M493.481 65.3414H476.239C468.932 65.3414 463 71.3196 463 78.6829C463 86.0462 468.932 92.0243 476.239 92.0243H493.481" fill="#B11800"/>
<path d="M510 12.0243L493.119 12C485.813 12 479.88 17.9781 479.88 25.3414C479.88 32.7047 485.813 38.6829 493.119 38.6829L510 38.7072" fill="#7B1000"/>
<path d="M510 38.6829L493.119 38.6586C485.813 38.6586 479.88 44.6367 479.88 52C479.88 59.3633 485.813 65.3414 493.119 65.3414L510 65.3657" fill="#7B1000"/>
<path d="M510 65.3657L493.119 65.3414C485.813 65.3414 479.88 71.3196 479.88 78.6829C479.88 86.0462 485.813 92.0243 493.119 92.0243L510 92.0486" fill="#7B1000"/>
<path d="M510 12C502.693 12 496.761 17.9781 496.761 25.3414C496.761 32.7047 502.693 38.6829 510 38.6829" fill="white"/>
<path d="M510 38.6586C502.693 38.6586 496.761 44.6367 496.761 52C496.761 59.3633 502.693 65.3414 510 65.3414" fill="white"/>
<path d="M510 65.3414C502.693 65.3414 496.761 71.3196 496.761 78.6829C496.761 86.0462 502.693 92.0243 510 92.0243" fill="white"/>
</g>
<path d="M482 18.5H564.216C560.926 56.0484 529.403 85.5 491 85.5H408.784C412.074 47.9516 443.597 18.5 482 18.5Z" stroke="#7B1000" stroke-width="13"/>
<path d="M45.7189 91.0826L23 32H41.0279L54.8248 71.0826L68.6217 32H86.7416L64.0227 91.0826H45.7189Z" fill="#7B1000"/>
<path d="M118.993 92C113.474 92 108.599 91.1132 104.368 89.3395C100.198 87.5046 96.9175 84.844 94.526 81.3578C92.1346 77.8104 90.9389 73.4679 90.9389 68.3303V32H108.231V66.4954C108.231 73.7125 111.818 77.3211 118.993 77.3211C122.426 77.3211 125.063 76.4343 126.903 74.6606C128.742 72.8869 129.662 70.1651 129.662 66.4954V32H146.954V68.3303C146.954 73.4679 145.758 77.8104 143.367 81.3578C141.037 84.844 137.756 87.5046 133.525 89.3395C129.356 91.1132 124.511 92 118.993 92Z" fill="#7B1000"/>
<path d="M154.814 91.0826V32H172.106V77.8716H198.78V91.0826H154.814Z" fill="#7B1000"/>
<path d="M203.409 91.0826V32H233.946C238.79 32 242.776 32.9786 245.903 34.9358C249.092 36.8318 251.452 39.4312 252.985 42.7339C254.518 46.0367 255.285 49.7064 255.285 53.7431C255.285 57.9021 254.396 61.6024 252.617 64.844C250.839 68.0856 248.325 70.6239 245.075 72.4587C241.825 74.2936 237.993 75.211 233.578 75.211H220.701V91.0826H203.409ZM220.701 62H229.623C232.321 62 234.314 61.2355 235.601 59.7064C236.95 58.1774 237.625 56.1896 237.625 53.7431C237.625 51.1132 237.012 49.0336 235.785 47.5046C234.559 45.9755 232.658 45.211 230.083 45.211H220.701V62Z" fill="#7B1000"/>
<path d="M259.908 91.0826V32H277.2V91.0826H259.908Z" fill="#7B1000"/>
<path d="M285.507 91.0826V32H300.224L322.575 63.2844V32H339.867V91.0826H325.058L302.799 59.8899V91.0826H285.507Z" fill="#7B1000"/>
<path d="M348.114 91.0826V32H393V45.211H365.406V54.844H393V68.2385H365.406V77.8716H393V91.0826H348.114Z" fill="#7B1000"/>
<mask id="mask2_7102_3" style="mask-type:alpha" maskUnits="userSpaceOnUse" x="402" y="113" width="169" height="80">
<path d="M402 193C402 148.817 437.817 113 482 113H571C571 157.183 535.183 193 491 193H402Z" fill="#ED2000"/>
</mask>
<g mask="url(#mask2_7102_3)">
<path d="M402 193C402 148.817 437.817 113 482 113H571V168C571 181.807 559.807 193 546 193H402Z" fill="#7B1000"/>
<path d="M509 113L571 113V193H509V113Z" fill="white"/>
<path d="M493.481 113H476.239C468.932 113 463 118.978 463 126.341C463 133.705 468.932 139.683 476.239 139.683H493.481" fill="#B11800"/>
<path d="M493.481 139.659H476.239C468.932 139.659 463 145.637 463 153C463 160.363 468.932 166.341 476.239 166.341H493.481" fill="#B11800"/>
<path d="M493.481 166.341H476.239C468.932 166.341 463 172.32 463 179.683C463 187.046 468.932 193.024 476.239 193.024H493.481" fill="#B11800"/>
<path d="M510 113.024L493.119 113C485.813 113 479.88 118.978 479.88 126.341C479.88 133.705 485.813 139.683 493.119 139.683L510 139.707" fill="#E8462D"/>
<path d="M510 139.683L493.119 139.659C485.813 139.659 479.88 145.637 479.88 153C479.88 160.363 485.813 166.341 493.119 166.341L510 166.366" fill="#E8462D"/>
<path d="M510 166.366L493.119 166.341C485.813 166.341 479.88 172.32 479.88 179.683C479.88 187.046 485.813 193.024 493.119 193.024L510 193.049" fill="#E8462D"/>
<path d="M510 113C502.693 113 496.761 118.978 496.761 126.341C496.761 133.705 502.693 139.683 510 139.683" fill="white"/>
<path d="M510 139.659C502.693 139.659 496.761 145.637 496.761 153C496.761 160.363 502.693 166.341 510 166.341" fill="white"/>
<path d="M510 166.341C502.693 166.341 496.761 172.32 496.761 179.683C496.761 187.046 502.693 193.024 510 193.024" fill="white"/>
</g>
<path d="M482 119.5H564.216C560.926 157.048 529.403 186.5 491 186.5H408.784C412.074 148.952 443.597 119.5 482 119.5Z" stroke="#ED2000" stroke-width="13"/>
<path d="M45.7189 192.083L23 133H41.0279L54.8248 172.083L68.6217 133H86.7416L64.0227 192.083H45.7189Z" fill="#ED2000"/>
<path d="M118.993 193C113.474 193 108.599 192.113 104.368 190.339C100.198 188.505 96.9175 185.844 94.526 182.358C92.1346 178.81 90.9389 174.468 90.9389 169.33V133H108.231V167.495C108.231 174.713 111.818 178.321 118.993 178.321C122.426 178.321 125.063 177.434 126.903 175.661C128.742 173.887 129.662 171.165 129.662 167.495V133H146.954V169.33C146.954 174.468 145.758 178.81 143.367 182.358C141.037 185.844 137.756 188.505 133.525 190.339C129.356 192.113 124.511 193 118.993 193Z" fill="#ED2000"/>
<path d="M154.814 192.083V133H172.106V178.872H198.78V192.083H154.814Z" fill="#ED2000"/>
<path d="M203.409 192.083V133H233.946C238.79 133 242.776 133.979 245.903 135.936C249.092 137.832 251.452 140.431 252.985 143.734C254.518 147.037 255.285 150.706 255.285 154.743C255.285 158.902 254.396 162.602 252.617 165.844C250.839 169.086 248.325 171.624 245.075 173.459C241.825 175.294 237.993 176.211 233.578 176.211H220.701V192.083H203.409ZM220.701 163H229.623C232.321 163 234.314 162.235 235.601 160.706C236.95 159.177 237.625 157.19 237.625 154.743C237.625 152.113 237.012 150.034 235.785 148.505C234.559 146.976 232.658 146.211 230.083 146.211H220.701V163Z" fill="#ED2000"/>
<path d="M259.908 192.083V133H277.2V192.083H259.908Z" fill="#ED2000"/>
<path d="M285.507 192.083V133H300.224L322.575 164.284V133H339.867V192.083H325.058L302.799 160.89V192.083H285.507Z" fill="#ED2000"/>
<path d="M348.114 192.083V133H393V146.211H365.406V155.844H393V169.239H365.406V178.872H393V192.083H348.114Z" fill="#ED2000"/>
</svg>
