<svg width="414" height="409" viewBox="0 0 414 409" fill="none" xmlns="http://www.w3.org/2000/svg">
<mask id="mask0_7104_72" style="mask-type:alpha" maskUnits="userSpaceOnUse" x="227" y="203" width="169" height="80">
<path d="M227 283C227 238.817 262.817 203 307 203H396C396 247.183 360.183 283 316 283H227Z" fill="#ED2000"/>
</mask>
<g mask="url(#mask0_7104_72)">
<path d="M227 283C227 238.817 262.817 203 307 203L396 203V258C396 271.807 384.807 283 371 283H227Z" fill="#ED2000"/>
<path d="M334 203H396V283H334V203Z" fill="white"/>
<path d="M318.481 203H301.239C293.932 203 288 208.978 288 216.341C288 223.705 293.932 229.683 301.239 229.683H318.481" fill="#FF6E4A"/>
<path d="M318.481 229.659H301.239C293.932 229.659 288 235.637 288 243C288 250.363 293.932 256.341 301.239 256.341H318.481" fill="#FF6E4A"/>
<path d="M318.481 256.341H301.239C293.932 256.341 288 262.32 288 269.683C288 277.046 293.932 283.024 301.239 283.024H318.481" fill="#FF6E4A"/>
<path d="M335 203.024L318.119 203C310.813 203 304.88 208.978 304.88 216.341C304.88 223.705 310.813 229.683 318.119 229.683L335 229.707" fill="#FFB3A4"/>
<path d="M335 229.683L318.119 229.659C310.813 229.659 304.88 235.637 304.88 243C304.88 250.363 310.813 256.341 318.119 256.341L335 256.366" fill="#FFB3A4"/>
<path d="M335 256.366L318.119 256.341C310.813 256.341 304.88 262.32 304.88 269.683C304.88 277.046 310.813 283.024 318.119 283.024L335 283.049" fill="#FFB3A4"/>
<path d="M335 203C327.693 203 321.761 208.978 321.761 216.341C321.761 223.705 327.693 229.683 335 229.683" fill="white"/>
<path d="M335 229.659C327.693 229.659 321.761 235.637 321.761 243C321.761 250.363 327.693 256.341 335 256.341" fill="white"/>
<path d="M335 256.341C327.693 256.341 321.761 262.32 321.761 269.683C321.761 277.046 327.693 283.024 335 283.024" fill="white"/>
</g>
<path d="M307 209.5H389.216C385.926 247.048 354.403 276.5 316 276.5H233.784C237.074 238.952 268.597 209.5 307 209.5Z" stroke="#ED2000" stroke-width="13"/>
<path d="M103 16H188.942C187.366 57.1355 153.521 90 112 90H26.0576C27.6335 48.8645 61.4787 16 103 16Z" stroke="black" stroke-width="6"/>
<mask id="mask1_7104_72" style="mask-type:alpha" maskUnits="userSpaceOnUse" x="23" y="13" width="169" height="80">
<path d="M23 93C23 48.8172 58.8172 13 103 13H192C192 57.1828 156.183 93 112 93H23Z" fill="#ED2000"/>
</mask>
<g mask="url(#mask1_7104_72)">
<path d="M102 26.3414C102 19.0996 107.791 13.243 115 13H102.415C95.0113 13 89 18.9781 89 26.3414C89 33.7047 95.0113 39.6829 102.415 39.6829H115C107.791 39.4399 102 33.5832 102 26.3414Z" fill="black"/>
<path d="M102 53C102 45.7825 107.791 39.9016 115 39.6829H102.415C95.0113 39.6829 89 45.661 89 53.0243C89 60.3876 95.0113 66.3657 102.415 66.3657H115C107.791 66.1227 102 60.2661 102 53.0243V53Z" fill="black"/>
<path d="M102 79.6829C102 72.4654 107.791 66.5844 115 66.3657H102.415C95.0113 66.3657 89 72.3439 89 79.7072C89 87.0705 95.0113 93.0486 102.415 93.0486H115C107.791 92.8056 102 86.949 102 79.7072V79.6829Z" fill="black"/>
<path d="M121 26.3414C121 19.0996 126.791 13.243 134 13H121.415C114.011 13 108 18.9781 108 26.3414C108 33.7047 114.011 39.6829 121.415 39.6829H134C126.791 39.4399 121 33.5832 121 26.3414Z" fill="black"/>
<path d="M121 53C121 45.7825 126.791 39.9016 134 39.6829H121.415C114.011 39.6829 108 45.661 108 53.0243C108 60.3876 114.011 66.3657 121.415 66.3657H134C126.791 66.1227 121 60.2661 121 53.0243V53Z" fill="black"/>
<path d="M121 79.6829C121 72.4654 126.791 66.5844 134 66.3657H121.415C114.011 66.3657 108 72.3439 108 79.7072C108 87.0705 114.011 93.0486 121.415 93.0486H134C126.791 92.8056 121 86.949 121 79.7072V79.6829Z" fill="black"/>
<path d="M83 26.3414C83 19.0996 88.7914 13.243 96 13H83.4154C76.0113 13 70 18.9781 70 26.3414C70 33.7047 76.0113 39.6829 83.4154 39.6829H96C88.7914 39.4399 83 33.5832 83 26.3414Z" fill="black"/>
<path d="M83 53C83 45.7825 88.7914 39.9016 96 39.6829H83.4154C76.0113 39.6829 70 45.661 70 53.0243C70 60.3876 76.0113 66.3657 83.4154 66.3657H96C88.7914 66.1227 83 60.2661 83 53.0243V53Z" fill="black"/>
<path d="M83 79.6829C83 72.4654 88.7914 66.5844 96 66.3657H83.4154C76.0113 66.3657 70 72.3439 70 79.7072C70 87.0705 76.0113 93.0486 83.4154 93.0486H96C88.7914 92.8056 83 86.949 83 79.7072V79.6829Z" fill="black"/>
<path d="M72 93L-4.00001 93L-4.00001 89C-4 47.0264 30.0264 13 72 13V13L72 93Z" fill="black"/>
<rect x="83" y="93" width="13" height="80" transform="rotate(-180 83 93)" fill="black"/>
</g>
<path d="M98 206H183.942C182.366 247.135 148.521 280 107 280H21.0576C22.6335 238.865 56.4787 206 98 206Z" stroke="black" stroke-width="6"/>
<mask id="mask2_7104_72" style="mask-type:alpha" maskUnits="userSpaceOnUse" x="18" y="203" width="169" height="80">
<path d="M18 283C18 238.817 53.8172 203 98 203H187C187 247.183 151.183 283 107 283H18Z" fill="#ED2000"/>
</mask>
<g mask="url(#mask2_7104_72)">
<path d="M104 216.341C104 209.1 109.791 203.243 117 203H104.415C97.0113 203 91 208.978 91 216.341C91 223.705 97.0113 229.683 104.415 229.683H117C109.791 229.44 104 223.583 104 216.341Z" fill="black"/>
<path d="M104 243C104 235.782 109.791 229.902 117 229.683H104.415C97.0113 229.683 91 235.661 91 243.024C91 250.388 97.0113 256.366 104.415 256.366H117C109.791 256.123 104 250.266 104 243.024V243Z" fill="black"/>
<path d="M104 269.683C104 262.465 109.791 256.584 117 256.366H104.415C97.0113 256.366 91 262.344 91 269.707C91 277.07 97.0113 283.049 104.415 283.049H117C109.791 282.806 104 276.949 104 269.707V269.683Z" fill="black"/>
<path d="M130 216.341C130 209.1 135.791 203.243 143 203H130.415C123.011 203 117 208.978 117 216.341C117 223.705 123.011 229.683 130.415 229.683H143C135.791 229.44 130 223.583 130 216.341Z" fill="black"/>
<path d="M130 243C130 235.782 135.791 229.902 143 229.683H130.415C123.011 229.683 117 235.661 117 243.024C117 250.388 123.011 256.366 130.415 256.366H143C135.791 256.123 130 250.266 130 243.024V243Z" fill="black"/>
<path d="M130 269.683C130 262.465 135.791 256.584 143 256.366H130.415C123.011 256.366 117 262.344 117 269.707C117 277.07 123.011 283.049 130.415 283.049H143C135.791 282.806 130 276.949 130 269.707V269.683Z" fill="black"/>
<path d="M78 216.341C78 209.1 83.7914 203.243 91 203H78.4154C71.0113 203 65 208.978 65 216.341C65 223.705 71.0113 229.683 78.4154 229.683H91C83.7914 229.44 78 223.583 78 216.341Z" fill="black"/>
<path d="M78 243C78 235.782 83.7914 229.902 91 229.683H78.4154C71.0113 229.683 65 235.661 65 243.024C65 250.388 71.0113 256.366 78.4154 256.366H91C83.7914 256.123 78 250.266 78 243.024V243Z" fill="black"/>
<path d="M78 269.683C78 262.465 83.7914 256.584 91 256.366H78.4154C71.0113 256.366 65 262.344 65 269.707C65 277.07 71.0113 283.049 78.4154 283.049H91C83.7914 282.806 78 276.949 78 269.707V269.683Z" fill="black"/>
<path d="M72 283L-9.00001 283V283C-9 238.817 26.8172 203 71 203L72 203L72 283Z" fill="black"/>
<rect x="78" y="283" width="13" height="80" transform="rotate(-180 78 283)" fill="black"/>
</g>
<path d="M103 111H188.942C187.366 152.135 153.521 185 112 185H26.0576C27.6335 143.865 61.4787 111 103 111Z" stroke="black" stroke-width="6"/>
<mask id="mask3_7104_72" style="mask-type:alpha" maskUnits="userSpaceOnUse" x="23" y="108" width="169" height="80">
<path d="M23 188C23 143.817 58.8172 108 103 108H192C192 152.183 156.183 188 112 188H23Z" fill="#ED2000"/>
</mask>
<g mask="url(#mask3_7104_72)">
<path d="M120 121.341C120 114.1 125.791 108.243 133 108H120.415C113.011 108 107 113.978 107 121.341C107 128.705 113.011 134.683 120.415 134.683H133C125.791 134.44 120 128.583 120 121.341Z" fill="black"/>
<path d="M120 148C120 140.782 125.791 134.902 133 134.683H120.415C113.011 134.683 107 140.661 107 148.024C107 155.388 113.011 161.366 120.415 161.366H133C125.791 161.123 120 155.266 120 148.024V148Z" fill="black"/>
<path d="M120 174.683C120 167.465 125.791 161.584 133 161.366H120.415C113.011 161.366 107 167.344 107 174.707C107 182.07 113.011 188.049 120.415 188.049H133C125.791 187.806 120 181.949 120 174.707V174.683Z" fill="black"/>
<path d="M94 121.341C94 114.1 99.7914 108.243 107 108H94.4154C87.0113 108 81 113.978 81 121.341C81 128.705 87.0113 134.683 94.4154 134.683H107C99.7914 134.44 94 128.583 94 121.341Z" fill="black"/>
<path d="M94 148C94 140.782 99.7914 134.902 107 134.683H94.4154C87.0113 134.683 81 140.661 81 148.024C81 155.388 87.0113 161.366 94.4154 161.366H107C99.7914 161.123 94 155.266 94 148.024V148Z" fill="black"/>
<path d="M94 174.683C94 167.465 99.7914 161.584 107 161.366H94.4154C87.0113 161.366 81 167.344 81 174.707C81 182.07 87.0113 188.049 94.4154 188.049H107C99.7914 187.806 94 181.949 94 174.707V174.683Z" fill="black"/>
<path d="M93 188L-4.00001 188V188C-4 143.817 31.8172 108 76 108L93 108L93 188Z" fill="black"/>
<rect x="94" y="188" width="13" height="80" transform="rotate(-180 94 188)" fill="black"/>
</g>
<mask id="mask4_7104_72" style="mask-type:alpha" maskUnits="userSpaceOnUse" x="241" y="103" width="151" height="80">
<path d="M302 183H241C241 145.364 266.989 113.798 302 105.27V183ZM314 182.975C313.335 182.991 312.669 183 312 183H308V104.052C309.977 103.729 311.977 103.477 314 103.302V182.975ZM326 103V181.777C324.024 182.126 322.023 182.403 320 182.604V103.006C320.333 103.002 320.666 103 321 103H326ZM392 103C392 140.277 366.505 171.599 332 180.479V103H392Z" fill="black"/>
</mask>
<g mask="url(#mask4_7104_72)">
<rect x="241" y="103" width="61" height="80" fill="#ED2000"/>
<rect x="332" y="103" width="63" height="80" fill="white"/>
<rect x="320" y="103" width="6" height="80" fill="#FFB3A4"/>
<rect x="308" y="103" width="6" height="80" fill="#FF6E4A"/>
</g>
<mask id="mask5_7104_72" style="mask-type:alpha" maskUnits="userSpaceOnUse" x="241" y="13" width="151" height="80">
<path d="M302 93H241C241 55.364 266.989 23.7977 302 15.2695V93ZM314 92.9746C313.335 92.9909 312.669 93 312 93H308V14.0518C309.977 13.7287 311.977 13.4771 314 13.3018V92.9746ZM326 13V91.7773C324.024 92.1261 322.023 92.4026 320 92.6035V13.0059C320.333 13.0018 320.666 13 321 13H326ZM392 13C392 50.2768 366.505 81.5986 332 90.4795V13H392Z" fill="black"/>
</mask>
<g mask="url(#mask5_7104_72)">
<rect x="241" y="13" width="61" height="80" fill="black"/>
<rect x="332" y="13" width="63" height="80" fill="black"/>
<rect x="320" y="13" width="6" height="80" fill="black"/>
<rect x="308" y="13" width="6" height="80" fill="black"/>
</g>
<path d="M200 322.5H282.216C278.926 360.048 247.403 389.5 209 389.5H126.784C130.074 351.952 161.597 322.5 200 322.5Z" stroke="black" stroke-width="13"/>
<mask id="mask6_7104_72" style="mask-type:alpha" maskUnits="userSpaceOnUse" x="120" y="316" width="169" height="80">
<path d="M120 396C120 351.817 155.817 316 200 316H289C289 360.183 253.183 396 209 396H120Z" fill="#ED2000"/>
</mask>
<g mask="url(#mask6_7104_72)">
<path d="M215 329.341C215 322.1 220.791 316.243 228 316H211.415C204.011 316 198 321.978 198 329.341C198 336.705 204.011 342.683 211.415 342.683H228C220.791 342.44 215 336.583 215 329.341Z" fill="black"/>
<path d="M215 356C215 348.782 220.791 342.902 228 342.683H211.415C204.011 342.683 198 348.661 198 356.024C198 363.388 204.011 369.366 211.415 369.366H228C220.791 369.123 215 363.266 215 356.024V356Z" fill="black"/>
<path d="M215 382.683C215 375.465 220.791 369.584 228 369.366H211.415C204.011 369.366 198 375.344 198 382.707C198 390.07 204.011 396.049 211.415 396.049H228C220.791 395.806 215 389.949 215 382.707V382.683Z" fill="black"/>
<path d="M181 329.341C181 322.1 186.791 316.243 194 316H181.415C174.011 316 168 321.978 168 329.341C168 336.705 174.011 342.683 181.415 342.683H194C186.791 342.44 181 336.583 181 329.341Z" fill="black"/>
<path d="M181 356C181 348.782 186.791 342.902 194 342.683H181.415C174.011 342.683 168 348.661 168 356.024C168 363.388 174.011 369.366 181.415 369.366H194C186.791 369.123 181 363.266 181 356.024V356Z" fill="black"/>
<path d="M181 382.683C181 375.465 186.791 369.584 194 369.366H181.415C174.011 369.366 168 375.344 168 382.707C168 390.07 174.011 396.049 181.415 396.049H194C186.791 395.806 181 389.949 181 382.707V382.683Z" fill="black"/>
<path d="M172 396L93 396L93 395C93 351.37 128.37 316 172 316V316L172 396Z" fill="black"/>
<rect x="181" y="396" width="14" height="80" transform="rotate(-180 181 396)" fill="black"/>
</g>
</svg>
