<svg width="160" height="161" viewBox="0 0 160 161" fill="none" xmlns="http://www.w3.org/2000/svg">
<path d="M42.5487 45.3769C52.8133 37.557 65.8333 32.881 80 32.881C94.1667 32.881 107.187 37.557 117.451 45.3769L127.141 36.1491L136.569 45.1282L126.879 54.356C135.09 64.1317 140 76.5318 140 90.0239C140 121.583 113.137 147.167 80 147.167C46.8629 147.167 20 121.583 20 90.0239C20 76.5318 24.9098 64.1317 33.1207 54.356L23.4315 45.1282L32.8595 36.1491L42.5487 45.3769ZM86.6667 83.6747V55.0727L53.3333 96.3731H73.3333V124.944L106.667 83.6747H86.6667ZM53.3333 13.8334H106.667V26.5318H53.3333V13.8334Z" fill="url(#paint0_linear_38_192)"/>
<defs>
<linearGradient id="paint0_linear_38_192" x1="80" y1="13.8334" x2="80" y2="147.167" gradientUnits="userSpaceOnUse">
<stop stop-color="#ED2000"/>
<stop offset="1" stop-color="#FF6E4A"/>
</linearGradient>
</defs>
</svg>
