<svg width="32" height="32" viewBox="0 0 32 32" fill="none" xmlns="http://www.w3.org/2000/svg">
<mask id="mask0_71_17545" style="mask-type:alpha" maskUnits="userSpaceOnUse" x="0" y="8" width="32" height="16">
<path d="M0 23.1479C0 14.782 6.78196 8 15.1479 8H32C32 16.366 25.218 23.1479 16.8521 23.1479H0Z" fill="#ED2000"/>
</mask>
<g mask="url(#mask0_71_17545)">
<path d="M0 23.1479C0 14.782 6.78196 8 15.1479 8L32 8V8C32 16.366 25.218 23.1479 16.8521 23.1479H0V23.1479Z" fill="#ED2000"/>
<path d="M20.2607 8L32.0004 8V23.1479H20.2607L20.2607 8Z" fill="white"/>
<path d="M17.3214 8.29468H14.0566C12.6731 8.29468 11.5498 9.47554 11.5498 10.93C11.5498 12.3845 12.6731 13.5654 14.0566 13.5654H17.3214" fill="#FF6E4A"/>
<path d="M17.3214 13.5605H14.0566C12.6731 13.5605 11.5498 14.7414 11.5498 16.1959C11.5498 17.6504 12.6731 18.8312 14.0566 18.8312H17.3214" fill="#FF6E4A"/>
<path d="M17.3214 18.8311H14.0566C12.6731 18.8311 11.5498 20.0119 11.5498 21.4664C11.5498 22.9209 12.6731 24.1017 14.0566 24.1017H17.3214" fill="#FF6E4A"/>
<path d="M20.4502 8.29948L17.2539 8.29468C15.8703 8.29468 14.7471 9.47554 14.7471 10.93C14.7471 12.3845 15.8703 13.5654 17.2539 13.5654L20.4502 13.5702" fill="#FFB3A4"/>
<path d="M20.4502 13.5653L17.2539 13.5605C15.8703 13.5605 14.7471 14.7414 14.7471 16.1959C14.7471 17.6504 15.8703 18.8312 17.2539 18.8312L20.4502 18.836" fill="#FFB3A4"/>
<path d="M20.4502 18.8359L17.2539 18.8311C15.8703 18.8311 14.7471 20.0119 14.7471 21.4664C14.7471 22.9209 15.8703 24.1017 17.2539 24.1017L20.4502 24.1065" fill="#FFB3A4"/>
<path d="M20.4492 8.29468C19.0657 8.29468 17.9424 9.47554 17.9424 10.93C17.9424 12.3845 19.0657 13.5654 20.4492 13.5654" fill="white"/>
<path d="M20.4492 13.5605C19.0657 13.5605 17.9424 14.7414 17.9424 16.1959C17.9424 17.6504 19.0657 18.8312 20.4492 18.8312" fill="white"/>
<path d="M20.4492 18.8311C19.0657 18.8311 17.9424 20.0119 17.9424 21.4664C17.9424 22.9209 19.0657 24.1017 20.4492 24.1017" fill="white"/>
</g>
<path d="M32 8C32 16.366 25.218 23.1479 16.8521 23.1479V20.6864C23.0164 20.6864 28.1535 16.2899 29.2996 10.4615H15.1479C8.98365 10.4615 3.84647 14.858 2.70044 20.6864H16.8521V23.1479H0C0 14.782 6.78196 8 15.1479 8H32Z" fill="#ED2000"/>
</svg>
