<svg width="309" height="222" viewBox="0 0 309 222" fill="none" xmlns="http://www.w3.org/2000/svg" xmlns:xlink="http://www.w3.org/1999/xlink">
<rect width="309" height="222" fill="url(#pattern0_69_17022)"/>
<path d="M239 121C239 165.183 203.183 201 159 201V188C191.555 188 218.686 164.781 224.738 134H150C117.445 134 90.3142 157.219 84.2617 188H159V201H70C70 156.817 105.817 121 150 121H239Z" fill="#1A0300"/>
<mask id="mask0_69_17022" style="mask-type:alpha" maskUnits="userSpaceOnUse" x="70" y="121" width="169" height="80">
<path d="M70 201C70 156.817 105.817 121 150 121H239C239 165.183 203.183 201 159 201H70Z" fill="#ED2000"/>
</mask>
<g mask="url(#mask0_69_17022)">
<path d="M165 134.341C165 127.1 170.791 121.243 178 121H161.415C154.011 121 148 126.978 148 134.341C148 141.705 154.011 147.683 161.415 147.683H178C170.791 147.44 165 141.583 165 134.341Z" fill="#1A0300"/>
<path d="M165 161C165 153.782 170.791 147.901 178 147.683H161.415C154.011 147.683 148 153.661 148 161.024C148 168.387 154.011 174.365 161.415 174.365H178C170.791 174.122 165 168.266 165 161.024V161Z" fill="#1A0300"/>
<path d="M165 187.683C165 180.466 170.791 174.585 178 174.366H161.415C154.011 174.366 148 180.344 148 187.708C148 195.071 154.011 201.049 161.415 201.049H178C170.791 200.806 165 194.949 165 187.708V187.683Z" fill="#1A0300"/>
<path d="M131 134.341C131 127.1 136.791 121.243 144 121H131.415C124.011 121 118 126.978 118 134.341C118 141.705 124.011 147.683 131.415 147.683H144C136.791 147.44 131 141.583 131 134.341Z" fill="#1A0300"/>
<path d="M131 161C131 153.782 136.791 147.901 144 147.683H131.415C124.011 147.683 118 153.661 118 161.024C118 168.387 124.011 174.365 131.415 174.365H144C136.791 174.122 131 168.266 131 161.024V161Z" fill="#1A0300"/>
<path d="M131 187.683C131 180.466 136.791 174.585 144 174.366H131.415C124.011 174.366 118 180.344 118 187.708C118 195.071 124.011 201.049 131.415 201.049H144C136.791 200.806 131 194.949 131 187.708V187.683Z" fill="#1A0300"/>
<path d="M129 201L55 201L55 195C55 154.131 88.1309 121 129 121V121L129 201Z" fill="#1A0300"/>
<rect x="131" y="201" width="14" height="80" transform="rotate(-180 131 201)" fill="#1A0300"/>
</g>
<mask id="mask1_69_17022" style="mask-type:alpha" maskUnits="userSpaceOnUse" x="70" y="21" width="169" height="80">
<path d="M70 101C70 56.8172 105.817 21 150 21H239C239 65.1828 203.183 101 159 101H70Z" fill="#ED2000"/>
</mask>
<g mask="url(#mask1_69_17022)">
<path d="M70 101C70 56.8172 105.817 21 150 21L239 21V76C239 89.8071 227.807 101 214 101L70 101V101Z" fill="#ED2000"/>
<path d="M177 21L239 21V101L177 101V21Z" fill="white"/>
<path d="M161.481 21L144.239 21C136.932 21 131 26.9781 131 34.3414C131 41.7047 136.932 47.6829 144.239 47.6829H161.481" fill="#FF6E4A"/>
<path d="M161.481 47.6582L144.239 47.6582C136.932 47.6582 131 53.6363 131 60.9996C131 68.3629 136.932 74.3411 144.239 74.3411H161.481" fill="#FF6E4A"/>
<path d="M161.481 74.3418H144.239C136.932 74.3418 131 80.3199 131 87.6832C131 95.0465 136.932 101.025 144.239 101.025H161.481" fill="#FF6E4A"/>
<path d="M178 21.0243L161.12 21C153.813 21 147.88 26.9781 147.88 34.3414C147.88 41.7047 153.813 47.6829 161.12 47.6829L178 47.7072" fill="#FFB3A4"/>
<path d="M178 47.6825L161.12 47.6582C153.813 47.6582 147.88 53.6363 147.88 60.9996C147.88 68.3629 153.813 74.3411 161.12 74.3411L178 74.3654" fill="#FFB3A4"/>
<path d="M178 74.3661L161.12 74.3418C153.813 74.3418 147.88 80.3199 147.88 87.6832C147.88 95.0465 153.813 101.025 161.12 101.025L178 101.049" fill="#FFB3A4"/>
<path d="M178 21C170.693 21 164.761 26.9781 164.761 34.3414C164.761 41.7047 170.693 47.6829 178 47.6829" fill="white"/>
<path d="M178 47.6582C170.693 47.6582 164.761 53.6363 164.761 60.9996C164.761 68.3629 170.693 74.3411 178 74.3411" fill="white"/>
<path d="M178 74.3418C170.693 74.3418 164.761 80.3199 164.761 87.6832C164.761 95.0465 170.693 101.025 178 101.025" fill="white"/>
</g>
<path d="M239 21C239 65.1828 203.183 101 159 101V88C191.555 88 218.686 64.781 224.738 34H150C117.445 34 90.3142 57.219 84.2617 88H159V101H70C70 56.8172 105.817 21 150 21H239Z" fill="#ED2000"/>
<defs>
<pattern id="pattern0_69_17022" patternUnits="userSpaceOnUse" viewBox="-6933 7798 80 80" width="21.488672707073125%" height="29.909909308493678%" x="121.3" y="77.8" patternContentUnits="objectBoundingBox">
<rect x="-6933" y="7798" width="80" height="80" fill="#F7FAFC"/>
<path d="M-6933 7838H-6853" stroke="#DCDCDC" stroke-dasharray="10 10"/>
<path d="M-6893 7798L-6893 7878" stroke="#DCDCDC" stroke-dasharray="10 10"/>
</pattern></defs>
</svg>
