<svg width="309" height="222" viewBox="0 0 309 222" fill="none" xmlns="http://www.w3.org/2000/svg" xmlns:xlink="http://www.w3.org/1999/xlink">
<rect width="309" height="222" fill="url(#pattern0_69_17018)"/>
<path d="M226.824 89.2769C228.15 89.2881 229.447 89.4204 230.704 89.6639V130.607C229.447 130.851 228.15 130.983 226.824 130.994V89.2769Z" fill="url(#paint0_linear_69_17018)"/>
<path d="M225.142 130.943C224.137 130.873 223.151 130.733 222.189 130.528V89.743C223.151 89.5379 224.137 89.3981 225.142 89.328V130.943Z" fill="url(#paint1_linear_69_17018)"/>
<path d="M232.386 90.0617C232.757 90.1656 233.123 90.2796 233.485 90.4028V129.868C233.123 129.991 232.757 130.105 232.386 130.209V90.0617Z" fill="url(#paint2_linear_69_17018)"/>
<path d="M220.507 130.096C219.653 129.838 218.822 129.529 218.017 129.17V91.1004C218.822 90.7421 219.653 90.4327 220.507 90.1753V130.096Z" fill="url(#paint3_linear_69_17018)"/>
<path d="M235.167 91.0575C236.545 91.6627 237.845 92.4099 239.048 93.2808V126.99C237.845 127.861 236.545 128.608 235.167 129.213V91.0575Z" fill="url(#paint4_linear_69_17018)"/>
<path d="M216.335 128.329C215.799 128.031 215.278 127.709 214.773 127.367V92.9045C215.278 92.562 215.799 92.2405 216.335 91.9419V128.329Z" fill="url(#paint5_linear_69_17018)"/>
<path d="M213.091 126.1C211.813 125.034 210.665 123.821 209.674 122.486V97.7847C210.665 96.4499 211.813 95.2365 213.091 94.1707V126.1Z" fill="url(#paint6_linear_69_17018)"/>
<path d="M240.73 94.6349C241.824 95.6122 242.815 96.7015 243.683 97.8849V122.386C242.815 123.57 241.824 124.659 240.73 125.636V94.6349Z" fill="url(#paint7_linear_69_17018)"/>
<path d="M207.992 119.823C206.457 116.928 205.588 113.632 205.588 110.136C205.588 106.639 206.457 103.343 207.992 100.448V119.823Z" fill="url(#paint8_linear_69_17018)"/>
<path d="M245.365 100.59C246.854 103.45 247.694 106.696 247.694 110.136C247.694 113.576 246.854 116.821 245.365 119.681V100.59Z" fill="url(#paint9_linear_69_17018)"/>
<path d="M267.516 143.333L260.142 150.64L240.657 131.333L248.031 124.027L267.516 143.333Z" fill="url(#paint10_linear_69_17018)"/>
<path d="M249.713 110C249.713 97.2975 239.32 87 226.5 87C213.68 87 203.287 97.2975 203.287 110C203.287 122.703 213.68 133 226.5 133V143.333C207.92 143.333 192.858 128.409 192.858 110C192.858 91.5905 207.92 76.6667 226.5 76.6667C245.08 76.6667 260.142 91.5905 260.142 110C260.142 128.409 245.08 143.333 226.5 143.333V133C239.32 133 249.713 122.703 249.713 110Z" fill="url(#paint11_linear_69_17018)"/>
<path d="M226.5 56C256.6 56 281 80.1766 281 110C281 119.259 278.647 127.974 274.503 135.59L266.72 127.877C269.194 122.421 270.571 116.37 270.571 110C270.571 85.8836 250.84 66.3333 226.5 66.3333C202.16 66.3333 182.429 85.8836 182.429 110C182.429 134.116 202.16 153.667 226.5 153.667C240.563 153.667 253.087 147.14 261.156 136.978L268.573 144.327C258.577 156.341 243.441 164 226.5 164C196.4 164 172 139.823 172 110C172 80.1766 196.4 56 226.5 56Z" fill="url(#paint12_linear_69_17018)"/>
<path d="M29.5411 84.1125L47.022 95.0277L29.5411 105.943C28.6054 106.57 28 107.626 28 108.76V111.5C28 112.787 28.7375 113.953 29.9154 114.492L49.9942 123.867V144.443C49.9942 145.731 50.7097 146.897 51.8766 147.436L93.0579 166.648L93.113 166.681C93.3111 166.769 93.5423 166.857 93.7955 166.912C94.0267 166.967 94.2468 167 94.511 167C94.6211 167 94.7642 167 94.9073 166.967C94.9623 166.967 95.0174 166.967 95.0504 166.934C95.1054 166.967 95.1385 166.934 95.1935 166.901C95.4467 166.846 95.6779 166.758 95.909 166.67L95.9421 166.637L137.123 147.425C138.29 146.886 139.006 145.72 139.006 144.432V123.856L159.085 114.481C160.251 113.942 161 112.776 161 111.489V108.749C161 107.604 160.428 106.559 159.459 105.932L141.945 95.0167L159.459 84.1015C160.428 83.5073 161 82.418 161 81.3066V78.5448C161 78.2367 160.967 77.9176 160.89 77.6095C160.604 76.7293 159.954 75.9591 159.096 75.5519L117.892 56.3072C116.891 55.8561 115.702 55.9331 114.755 56.5053L114.557 56.6153L94.533 69.126L74.2891 56.4943C73.3534 55.9221 72.1755 55.8341 71.1188 56.2962L29.9154 75.5629C28.7486 76.1021 28 77.2684 28 78.5558V81.3176C28 82.429 28.5944 83.5073 29.5411 84.1125ZM135.483 91.2756L98.8922 74.2315L116.681 63.0852L153.272 80.1623L135.483 91.2756ZM134.14 118.839L116.692 126.959L98.9032 115.846L135.494 98.7688L153.283 109.915L134.151 118.839H134.14ZM97.7804 122.965L114.722 133.539C115.239 133.858 115.867 134.056 116.461 134.056C116.946 134.056 117.43 133.913 117.859 133.715L132.379 126.926V142.342L97.7914 158.505V122.965H97.7804ZM61.1124 95.0387L94.5 79.4801L127.866 95.0387L94.5 110.63L61.1124 95.0387ZM56.6101 126.959L71.0968 133.715C71.5481 133.913 72.0324 134.056 72.5278 134.056C73.1222 134.056 73.7497 133.858 74.2671 133.539L91.1755 122.998V158.483L56.6101 142.353V126.959ZM53.4948 98.7688L90.0857 115.846L72.2636 126.959L35.7057 109.915L53.4948 98.7688ZM35.7057 80.1513L72.2966 63.0742L90.0857 74.2205L53.4948 91.2646L35.7057 80.1513Z" fill="url(#paint13_linear_69_17018)"/>
<defs>
<linearGradient id="paint0_linear_69_17018" x1="173.519" y1="112.751" x2="281" y2="112.751" gradientUnits="userSpaceOnUse">
<stop stop-color="#8BDDD0"/>
<stop offset="1" stop-color="#536FE1"/>
</linearGradient>
<linearGradient id="paint1_linear_69_17018" x1="173.519" y1="112.751" x2="281" y2="112.751" gradientUnits="userSpaceOnUse">
<stop stop-color="#8BDDD0"/>
<stop offset="1" stop-color="#536FE1"/>
</linearGradient>
<linearGradient id="paint2_linear_69_17018" x1="173.519" y1="112.751" x2="281" y2="112.751" gradientUnits="userSpaceOnUse">
<stop stop-color="#8BDDD0"/>
<stop offset="1" stop-color="#536FE1"/>
</linearGradient>
<linearGradient id="paint3_linear_69_17018" x1="173.519" y1="112.751" x2="281" y2="112.751" gradientUnits="userSpaceOnUse">
<stop stop-color="#8BDDD0"/>
<stop offset="1" stop-color="#536FE1"/>
</linearGradient>
<linearGradient id="paint4_linear_69_17018" x1="173.519" y1="112.751" x2="281" y2="112.751" gradientUnits="userSpaceOnUse">
<stop stop-color="#8BDDD0"/>
<stop offset="1" stop-color="#536FE1"/>
</linearGradient>
<linearGradient id="paint5_linear_69_17018" x1="173.519" y1="112.751" x2="281" y2="112.751" gradientUnits="userSpaceOnUse">
<stop stop-color="#8BDDD0"/>
<stop offset="1" stop-color="#536FE1"/>
</linearGradient>
<linearGradient id="paint6_linear_69_17018" x1="173.519" y1="112.751" x2="281" y2="112.751" gradientUnits="userSpaceOnUse">
<stop stop-color="#8BDDD0"/>
<stop offset="1" stop-color="#536FE1"/>
</linearGradient>
<linearGradient id="paint7_linear_69_17018" x1="173.519" y1="112.751" x2="281" y2="112.751" gradientUnits="userSpaceOnUse">
<stop stop-color="#8BDDD0"/>
<stop offset="1" stop-color="#536FE1"/>
</linearGradient>
<linearGradient id="paint8_linear_69_17018" x1="173.519" y1="112.751" x2="281" y2="112.751" gradientUnits="userSpaceOnUse">
<stop stop-color="#8BDDD0"/>
<stop offset="1" stop-color="#536FE1"/>
</linearGradient>
<linearGradient id="paint9_linear_69_17018" x1="173.519" y1="112.751" x2="281" y2="112.751" gradientUnits="userSpaceOnUse">
<stop stop-color="#8BDDD0"/>
<stop offset="1" stop-color="#536FE1"/>
</linearGradient>
<linearGradient id="paint10_linear_69_17018" x1="173.519" y1="112.751" x2="281" y2="112.751" gradientUnits="userSpaceOnUse">
<stop stop-color="#8BDDD0"/>
<stop offset="1" stop-color="#536FE1"/>
</linearGradient>
<linearGradient id="paint11_linear_69_17018" x1="173.519" y1="112.751" x2="281" y2="112.751" gradientUnits="userSpaceOnUse">
<stop stop-color="#8BDDD0"/>
<stop offset="1" stop-color="#536FE1"/>
</linearGradient>
<linearGradient id="paint12_linear_69_17018" x1="173.519" y1="112.751" x2="281" y2="112.751" gradientUnits="userSpaceOnUse">
<stop stop-color="#8BDDD0"/>
<stop offset="1" stop-color="#536FE1"/>
</linearGradient>
<linearGradient id="paint13_linear_69_17018" x1="28" y1="111.5" x2="161" y2="111.5" gradientUnits="userSpaceOnUse">
<stop stop-color="#8BDDD0"/>
<stop offset="1" stop-color="#536FE1"/>
</linearGradient>
<pattern id="pattern0_69_17018" patternUnits="userSpaceOnUse" viewBox="-2458 2116 80 80" width="21.488672707073125%" height="29.909909308493678%" x="121.3" y="77.8" patternContentUnits="objectBoundingBox">
<rect x="-2458" y="2116" width="80" height="80" fill="#F7FAFC"/>
<path d="M-2458 2156H-2378" stroke="#DCDCDC" stroke-dasharray="10 10"/>
<path d="M-2418 2116L-2418 2196" stroke="#DCDCDC" stroke-dasharray="10 10"/>
</pattern></defs>
</svg>
