<svg width="2682" height="96" viewBox="0 0 2682 96" fill="none" xmlns="http://www.w3.org/2000/svg">
<path d="M1030.56 93.0126C1039.47 93.0118 1043.93 82.241 1037.63 75.9413L965.281 3.58979C963.408 1.71679 960.868 0.663517 958.219 0.661076L837.051 0.564407C836.636 0.514804 836.208 0.487724 835.771 0.488235L799.113 0.534137L720.694 0.470667C720.067 0.470181 719.457 0.527004 718.87 0.632777L697.456 0.659146C694.817 0.662484 692.287 1.70935 690.416 3.57028L634.425 59.2675C632.551 61.1308 630.014 62.1785 627.372 62.1787L330.91 62.1787C328.267 62.1788 325.731 63.2249 323.857 65.0889L312.967 75.9229C306.643 82.215 311.099 93.0125 320.02 93.0127L1030.56 93.0126Z" fill="#606060"/>
<path d="M304.693 2.92883L377.7 75.9405C383.999 82.2402 379.538 93.0113 370.629 93.0113L24.1423 93.0126C15.2332 93.0126 10.7715 82.2412 17.0712 75.9415L90.0841 2.9286C91.9594 1.05324 94.503 -0.000328064 97.1551 -0.000328064L297.622 -0.000343323C300.274 -0.000343323 302.818 1.05331 304.693 2.92883Z" fill="#606060"/>
<path d="M2144.75 67.8512L2133.84 78.7013C2127.52 84.9937 2131.97 95.79 2140.89 95.79L2483.47 95.79L2583.93 95.79C2586.57 95.79 2589.11 94.7425 2590.98 92.8767L2663.88 20.3041C2670.2 14.0067 2665.73 3.2064 2656.81 3.21745L2518.44 3.38892C2515.81 3.39218 2513.27 4.43865 2511.4 6.30018L2455.4 62.0287C2453.52 63.8932 2450.99 64.9399 2448.34 64.9399L2151.8 64.9399C2149.16 64.9399 2146.62 65.9866 2144.75 67.8512Z" fill="#606060"/>
<path d="M2151.33 0.53125C2160.24 0.53125 2164.7 11.3029 2158.4 17.6025L2086.06 89.9492C2084.18 91.8226 2081.64 92.8768 2078.99 92.8789L1957.82 92.9756C1957.41 93.0252 1956.98 93.0523 1956.54 93.0518L1920.01 93.0059L1841.47 93.0693C1840.84 93.0698 1840.23 93.0126 1839.64 92.9062L1818.23 92.8799C1815.59 92.8765 1813.06 91.8305 1811.19 89.9697L1755.2 34.2744C1753.33 32.4106 1750.79 31.3643 1748.15 31.3643H1451.68C1449.04 31.3641 1446.51 30.3178 1444.63 28.4541L1433.74 17.6211C1427.42 11.3291 1431.87 0.531349 1440.79 0.53125H2151.33Z" fill="#606060"/>
<path d="M1104.82 93.0782C1102.18 93.0781 1099.64 92.0306 1097.77 90.1651L1024.89 17.6094C1018.56 11.3121 1023.03 0.511741 1031.96 0.522524L1170.29 0.694387C1172.93 0.69766 1175.46 1.74401 1177.33 3.60552L1233.33 59.3223C1235.2 61.1869 1237.74 62.2334 1240.38 62.2334L1267.45 62.2334L1222.61 17.5918C1216.29 11.2944 1220.75 0.494852 1229.68 0.505905L1368.04 0.676792C1370.68 0.680056 1373.21 1.72658 1375.08 3.58792L1431.09 59.3164C1432.97 61.181 1435.5 62.2276 1438.15 62.2276L1734.69 62.2275C1737.33 62.2276 1739.87 63.2751 1741.74 65.1396L1752.65 75.9893C1758.97 82.2817 1754.52 93.0781 1745.59 93.0781L1104.82 93.0782Z" fill="#606060"/>
<path d="M2206.2 6.28547L2195.66 17.341C2189.58 23.7056 2194.1 34.2431 2202.89 34.2431L2435.52 34.2431C2438.24 34.2431 2440.84 33.134 2442.73 31.1717L2453.35 20.1162C2459.46 13.7612 2454.96 3.1876 2446.14 3.1876L2213.44 3.18756C2210.7 3.18756 2208.09 4.30704 2206.2 6.28547Z" fill="#606060"/>
<path d="M90.0859 3.17755L76.1879 17.0324C69.8552 23.3455 74.359 34.1615 83.3008 34.1143L609.25 31.3357C611.953 31.3214 614.535 30.2135 616.408 28.2644L627.053 17.1864C633.159 10.8315 628.655 0.257853 619.842 0.257882L97.146 0.259606C94.4992 0.259613 91.9604 1.30892 90.0859 3.17755Z" fill="#606060"/>
</svg>
