<svg width="2682" height="96" viewBox="0 0 2682 96" fill="none" xmlns="http://www.w3.org/2000/svg">
<path d="M1030.56 93.0132C1039.47 93.0126 1043.93 82.2416 1037.63 75.9419L965.281 3.59035C963.408 1.7171 960.867 0.663943 958.218 0.661636L837.051 0.564967C836.636 0.515351 836.208 0.488282 835.771 0.488795L799.112 0.534697L720.693 0.471227C720.066 0.470778 719.457 0.527521 718.869 0.633336L697.456 0.659706C694.818 0.663089 692.286 1.70995 690.415 3.57084L634.424 59.2681C632.55 61.1312 630.014 62.179 627.372 62.1792L330.91 62.1793C328.267 62.1794 325.731 63.2255 323.858 65.0894L312.967 75.9234C306.644 82.2154 311.098 93.0125 320.019 93.0133L1030.56 93.0132Z" fill="black"/>
<path d="M304.693 2.92939L377.7 75.941C383.999 82.2408 379.538 93.0118 370.629 93.0119L24.1423 93.0132C15.2332 93.0132 10.7715 82.2418 17.0712 75.9421L90.0841 2.92916C91.9594 1.0538 94.503 0.000231634 97.1551 0.000231634L297.622 0.000216375C300.274 0.000216375 302.818 1.05387 304.693 2.92939Z" fill="black"/>
<path d="M2144.75 67.8518L2133.84 78.7018C2127.52 84.9943 2131.97 95.7905 2140.89 95.7905L2483.47 95.7906L2583.93 95.7906C2586.57 95.7906 2589.11 94.7431 2590.98 92.8773L2663.88 20.3047C2670.2 14.0072 2665.73 3.20696 2656.81 3.21801L2518.44 3.38948C2515.81 3.39274 2513.27 4.43921 2511.4 6.30074L2455.4 62.0292C2453.52 63.8938 2450.99 64.9405 2448.34 64.9405L2151.8 64.9405C2149.16 64.9405 2146.62 65.9872 2144.75 67.8518Z" fill="black"/>
<path d="M2151.33 0.53181C2160.24 0.532203 2164.7 11.3036 2158.4 17.6031L2086.06 89.9498C2084.18 91.8232 2081.64 92.8773 2078.99 92.8795L1957.82 92.9761C1957.41 93.0258 1956.98 93.0529 1956.54 93.0523L1920.01 93.0064L1841.47 93.0699C1840.84 93.0704 1840.23 93.0132 1839.64 92.9068L1818.23 92.8804C1815.59 92.8771 1813.06 91.831 1811.19 89.9703L1755.2 34.275C1753.33 32.4112 1750.79 31.3649 1748.15 31.3648H1451.69C1449.04 31.3648 1446.51 30.3185 1444.63 28.4547L1433.74 17.6217C1427.42 11.3297 1431.87 0.531958 1440.79 0.53181H2151.33Z" fill="black"/>
<path d="M1104.82 93.0787C1102.18 93.0787 1099.64 92.0314 1097.77 90.1657L1024.89 17.61C1018.56 11.3125 1023.03 0.512023 1031.96 0.523084L1170.29 0.694947C1172.93 0.698219 1175.46 1.74469 1177.33 3.60608L1233.33 59.3229C1235.2 61.1874 1237.74 62.234 1240.38 62.234L1267.45 62.234L1222.61 17.5924C1216.29 11.295 1220.75 0.495448 1229.68 0.506465L1368.04 0.677351C1370.68 0.680667 1373.21 1.72699 1375.09 3.58848L1431.09 59.317C1432.97 61.1814 1435.5 62.228 1438.15 62.2281L1734.69 62.2281C1737.33 62.2281 1739.87 63.2756 1741.74 65.1402L1752.65 75.9898C1758.97 82.2822 1754.52 93.0787 1745.59 93.0787L1104.82 93.0787Z" fill="black"/>
<path d="M2206.2 6.28603L2195.66 17.3416C2189.58 23.7062 2194.1 34.2437 2202.89 34.2437L2435.52 34.2437C2438.24 34.2437 2440.84 33.1346 2442.73 31.1722L2453.35 20.1167C2459.46 13.7618 2454.96 3.18816 2446.14 3.18816L2213.44 3.18812C2210.7 3.18812 2208.09 4.3076 2206.2 6.28603Z" fill="black"/>
<path d="M90.0859 3.17811L76.1879 17.0329C69.8552 23.3461 74.359 34.1621 83.3008 34.1149L609.25 31.3362C611.953 31.3219 614.535 30.214 616.408 28.2649L627.053 17.187C633.159 10.832 628.655 0.258412 619.842 0.258442L97.146 0.260166C94.4992 0.260173 91.9604 1.30948 90.0859 3.17811Z" fill="black"/>
</svg>
