<svg width="9442" height="7254" viewBox="0 0 9442 7254" fill="none" xmlns="http://www.w3.org/2000/svg">
<path d="M354.412 3562.96L434.412 3482.56C440.704 3476.23 451.5 3480.69 451.5 3489.61L451.5 4650.24C451.5 4652.89 450.447 4655.44 448.571 4657.31L354.447 4751.43C352.561 4753.32 351.507 4755.88 351.519 4758.55L352.982 5087.73C352.993 5090.39 351.948 5092.94 350.076 5094.83L168.455 5277.64C162.16 5283.98 151.349 5279.52 151.36 5270.58L151.995 4758.5C151.998 4755.86 153.045 4753.33 154.906 4751.46L348.589 4556.81C350.453 4554.93 351.5 4552.4 351.5 4549.75L351.5 3570.01C351.5 3567.37 352.547 3564.83 354.412 3562.96Z" fill="#B73F3F"/>
<path d="M97.0888 5344.81L17.0888 5425.21C10.7964 5431.53 0.000144154 5427.08 0.0001463 5418.15L0.000333826 4638.52C0.000334464 4635.87 1.0539 4633.33 2.92927 4631.45L97.0714 4537.31C98.9468 4535.44 100 4532.89 100 4530.24L100 4197.07C100 4194.39 101.075 4191.82 102.983 4189.94L282.483 4013.14C288.804 4006.92 299.5 4011.4 299.5 4020.27L299.5 4530.25C299.5 4532.9 298.454 4535.43 296.589 4537.31L102.912 4731.96C101.047 4733.83 100 4736.37 100 4739.01L100 5337.75C100 5340.4 98.9534 5342.93 97.0888 5344.81Z" fill="#B73F3F"/>
<path d="M1831.93 5230.3L1912.33 5150.3C1918.65 5144.01 1914.19 5133.21 1905.27 5133.21L740.5 5133.21L405.629 5133.21C402.985 5133.21 400.448 5134.26 398.574 5136.12L117.193 5416.26C110.867 5422.56 115.335 5433.36 124.26 5433.35L636.38 5432.72C639.019 5432.71 641.55 5431.67 643.421 5429.8L838.074 5236.12C839.948 5234.26 842.484 5233.21 845.127 5233.21L1824.87 5233.21C1827.52 5233.21 1830.05 5232.16 1831.93 5230.3Z" fill="#B73F3F"/>
<path d="M1768.02 5542C1759.11 5542 1754.65 5552.77 1760.95 5559.07L2040.28 5838.41C2042.16 5840.28 2044.7 5841.33 2047.35 5841.33L2396.42 5841.61C2397.27 5841.85 2398.18 5841.97 2399.14 5841.97L2572.5 5841.76L2862.04 5841.99C2863.27 5841.99 2864.42 5841.78 2865.48 5841.39L2911.11 5841.34C2913.75 5841.33 2916.28 5840.29 2918.15 5838.43L3112.75 5644.85C3114.62 5642.99 3117.16 5641.94 3119.8 5641.94H4672.9C4675.54 5641.94 4678.08 5640.9 4679.95 5639.03L4760.32 5559.09C4766.64 5552.8 4762.19 5542 4753.27 5542H1768.02Z" fill="#B73F3F"/>
<path d="M1763.02 5441.99C1754.11 5441.99 1749.65 5431.22 1755.95 5424.92L2035.28 5145.58C2037.16 5143.71 2039.7 5142.66 2042.35 5142.66L2391.42 5142.38C2392.27 5142.14 2393.18 5142.02 2394.14 5142.02L2567.34 5142.23L2857.04 5142C2858.27 5142 2859.42 5142.21 2860.48 5142.6L2906.11 5142.65C2908.75 5142.66 2911.28 5143.7 2913.15 5145.56L3107.75 5339.14C3109.62 5341 3112.16 5342.05 3114.8 5342.05L4094.28 5342.05C4096.92 5342.05 4099.46 5343.09 4101.33 5344.96L4181.7 5424.9C4188.02 5431.19 4183.57 5441.99 4174.65 5441.99L1763.02 5441.99Z" fill="#B73F3F"/>
<path d="M2248.02 5041.99C2239.11 5041.99 2234.65 5031.22 2240.95 5024.92L2520.28 4745.58C2522.16 4743.71 2524.7 4742.66 2527.35 4742.66L2876.42 4742.38C2877.27 4742.14 2878.18 4742.02 2879.14 4742.02L3052.5 4742.23L3342.04 4742C3343.27 4742 3344.42 4742.21 3345.48 4742.6L3391.11 4742.65C3393.75 4742.66 3396.28 4743.7 3398.15 4745.56L3592.75 4939.14C3594.62 4941 3597.16 4942.05 3599.8 4942.05H4544.61L4641.07 4845.58C4642.94 4843.71 4645.48 4842.66 4648.13 4842.65L5454.28 4842.01C5463.22 4842 5467.67 4852.84 5461.31 4859.12L5279.01 5039.1C5277.14 5040.95 5274.62 5041.99 5271.99 5041.99L4659.66 5041.99H2248.02Z" fill="#B73F3F"/>
<path d="M8792.65 5142C8801.55 5142 8806.02 5152.77 8799.72 5159.07L8520.38 5438.42C8518.51 5440.29 8515.97 5441.35 8513.32 5441.35L8164.25 5441.63C8163.4 5441.86 8162.49 5441.98 8161.52 5441.98L7988.16 5441.77L7698.62 5442C7697.4 5442 7696.25 5441.79 7695.19 5441.41L7649.56 5441.35C7646.92 5441.35 7644.39 5440.3 7642.51 5438.44L7447.92 5244.86C7446.04 5243 7443.51 5241.95 7440.86 5241.95H6461.39C6458.74 5241.95 6456.21 5240.9 6454.33 5239.04L6373.97 5159.09C6367.64 5152.8 6372.1 5142 6381.02 5142H8792.65Z" fill="#B73F3F"/>
<path d="M100.495 10.0198C100.495 1.11123 111.267 -3.35059 117.566 2.94854L396.911 282.283C398.785 284.157 399.839 286.698 399.841 289.349L400.289 1284.96C400.412 1285.6 400.478 1286.26 400.477 1286.96L400.34 1396.9L400.5 1749.86C400.501 1751.09 400.286 1752.25 399.899 1753.31L399.843 1798.92C399.84 1801.56 398.793 1804.09 396.932 1805.96L203.353 2000.56C201.489 2002.44 200.442 2004.97 200.442 2007.62L200.441 2952.42L296.919 3048.89C298.792 3050.76 299.846 3053.31 299.848 3055.95L300.511 3882.34C300.513 3884.99 299.459 3887.54 297.582 3889.42L117.566 4069.43C111.267 4075.73 100.495 4071.27 100.495 4062.36L100.494 3067.47L100.495 10.0198Z" fill="#B73F3F"/>
<path d="M557.501 2286.96C557.501 2289.6 556.454 2292.14 554.589 2294.01L457.5 2391.56L457.5 3063.36C457.5 3072.27 446.729 3076.73 440.429 3070.43L261.093 2891.1C259.22 2889.22 258.167 2886.68 258.165 2884.04L257.914 2571.06C257.665 2570.18 257.53 2569.24 257.531 2568.24L257.762 2381.69L257.518 2077.89C257.517 2076.61 257.742 2075.42 258.143 2074.33L258.165 2056.27C258.168 2053.63 259.215 2051.1 261.076 2049.23L454.647 1854.63C456.511 1852.76 457.557 1850.22 457.557 1847.58L457.558 868.103C457.558 865.459 458.604 862.924 460.468 861.05L540.411 780.684C546.703 774.358 557.501 778.814 557.501 787.735L557.501 2286.96Z" fill="#B73F3F"/>
<path d="M3426.15 6041.48C3428.79 6041.47 3431.32 6040.43 3433.19 6038.56L3627.85 5844.88C3629.72 5843.02 3632.26 5841.97 3634.9 5841.97H3653.1C3653.71 5842.08 3654.34 5842.14 3655 5842.14H5154.64C5157.29 5842.14 5159.82 5841.1 5161.7 5839.23L5443.08 5559.09C5449.4 5552.79 5444.94 5541.99 5436.01 5542L4923.89 5542.64C4921.25 5542.64 4918.72 5543.69 4916.85 5545.55L4722.2 5739.23C4720.32 5741.1 4717.79 5742.14 4715.14 5742.14H4696.95C4696.34 5742.03 4695.7 5741.97 4695.04 5741.97H3160.4C3157.76 5741.97 3155.22 5743.02 3153.35 5744.88L2871.96 6025.03C2865.64 6031.32 2870.1 6042.12 2879.03 6042.11L3426.15 6041.48Z" fill="#B73F3F"/>
<path d="M5259.66 5142C5262.31 5142 5264.84 5143.05 5266.72 5144.91L5548.1 5425.05C5554.43 5431.35 5549.96 5442.15 5541.03 5442.14L5028.91 5441.51C5026.27 5441.5 5023.74 5440.46 5021.87 5438.59L4827.22 5244.91C4825.34 5243.05 4822.81 5242 4820.16 5242H4682.24L4866.1 5425.05C4872.43 5431.35 4867.96 5442.15 4859.03 5442.14L4346.91 5441.51C4344.27 5441.5 4341.74 5440.46 4339.87 5438.59L4145.22 5244.91C4143.34 5243.05 4140.81 5242 4138.16 5242H3158.42C3155.78 5242 3153.24 5240.95 3151.37 5239.09L3070.97 5159.09C3064.64 5152.8 3069.1 5142 3078.02 5142H5259.66Z" fill="#B73F3F"/>
<path d="M1632.64 5430.44L1762.03 5300.44C1768.3 5294.13 1763.84 5283.38 1754.94 5283.38L865.142 5283.38C862.49 5283.38 859.946 5284.44 858.071 5286.31L728.071 5416.31C721.771 5422.61 726.233 5433.38 735.142 5433.38L1625.55 5433.38C1628.21 5433.38 1630.76 5432.32 1632.64 5430.44Z" fill="#B73F3F"/>
<path d="M9265 7253.5L9441.5 7077" stroke="black"/>
<path d="M6481.23 5338.43L6660.57 5159.08C6666.87 5152.78 6662.41 5142.01 6653.5 5142.01L5422.14 5142C5413.23 5142 5408.77 5152.77 5415.07 5159.07L5595.09 5339.09C5596.96 5340.97 5599.51 5342.02 5602.17 5342.02L6474.17 5341.36C6476.82 5341.36 6479.36 5340.31 6481.23 5338.43Z" fill="#B73F3F"/>
<path d="M5586.4 5045C5573.6 5045 5562 5042.1 5551.6 5036.3C5541.2 5030.3 5532.9 5022.1 5526.7 5011.7C5520.7 5001.3 5517.7 4989.3 5517.7 4975.7V4902.5C5517.7 4888.9 5520.7 4876.9 5526.7 4866.5C5532.9 4856.1 5541.2 4848 5551.6 4842.2C5562 4836.2 5573.6 4833.2 5586.4 4833.2H5592.1C5605.1 4833.2 5616.7 4836.2 5626.9 4842.2C5637.3 4848 5645.5 4856.1 5651.5 4866.5C5657.5 4876.9 5660.5 4888.9 5660.5 4902.5V4975.7C5660.5 4989.3 5657.5 5001.3 5651.5 5011.7C5645.5 5022.1 5637.3 5030.3 5626.9 5036.3C5616.7 5042.1 5605.1 5045 5592.1 5045H5586.4ZM5589.1 5021C5596.9 5021 5603.9 5019.2 5610.1 5015.6C5616.3 5011.8 5621.1 5006.8 5624.5 5000.6C5628.1 4994.4 5629.9 4987.4 5629.9 4979.6V4898.6C5629.9 4890.6 5628.1 4883.5 5624.5 4877.3C5621.1 4871.1 5616.3 4866.2 5610.1 4862.6C5603.9 4859 5596.9 4857.2 5589.1 4857.2C5581.3 4857.2 5574.3 4859 5568.1 4862.6C5562.1 4866.2 5557.3 4871.1 5553.7 4877.3C5550.1 4883.5 5548.3 4890.6 5548.3 4898.6V4979.6C5548.3 4987.4 5550.1 4994.4 5553.7 5000.6C5557.3 5006.8 5562.1 5011.8 5568.1 5015.6C5574.3 5019.2 5581.3 5021 5589.1 5021ZM5775.17 5045C5761.37 5045 5749.27 5042.3 5738.87 5036.9C5728.67 5031.3 5720.67 5023.5 5714.87 5013.5C5709.27 5003.3 5706.47 4991.4 5706.47 4977.8H5734.67C5734.67 4990.8 5738.37 5001.2 5745.77 5009C5753.37 5016.6 5762.97 5020.4 5774.57 5020.4C5782.57 5020.4 5789.57 5018.7 5795.57 5015.3C5801.77 5011.7 5806.67 5006.8 5810.27 5000.6C5813.87 4994.4 5815.67 4987.4 5815.67 4979.6V4942.7C5810.07 4949.9 5802.97 4955.6 5794.37 4959.8C5785.77 4963.8 5777.07 4965.8 5768.27 4965.8C5756.07 4965.8 5745.07 4963.2 5735.27 4958C5725.47 4952.6 5717.67 4945.1 5711.87 4935.5C5706.07 4925.7 5703.17 4914.3 5703.17 4901.3C5703.17 4887.5 5706.27 4875.5 5712.47 4865.3C5718.87 4855.1 5727.47 4847.2 5738.27 4841.6C5749.27 4836 5761.57 4833.2 5775.17 4833.2C5788.97 4833.2 5801.17 4836.1 5811.77 4841.9C5822.57 4847.7 5830.97 4855.8 5836.97 4866.2C5843.17 4876.4 5846.27 4888.5 5846.27 4902.5V4975.7C5846.27 4989.5 5843.17 5001.7 5836.97 5012.3C5830.77 5022.7 5822.37 5030.8 5811.77 5036.6C5801.17 5042.2 5788.97 5045 5775.17 5045ZM5774.57 4944.5C5782.97 4944.5 5790.17 4942.6 5796.17 4938.8C5802.37 4935 5807.17 4929.8 5810.57 4923.2C5813.97 4916.6 5815.67 4909.1 5815.67 4900.7C5815.67 4891.7 5813.97 4884 5810.57 4877.6C5807.17 4871 5802.37 4865.9 5796.17 4862.3C5789.97 4858.7 5782.77 4856.9 5774.57 4856.9C5766.17 4856.9 5758.87 4858.8 5752.67 4862.6C5746.47 4866.2 5741.67 4871.3 5738.27 4877.9C5735.07 4884.5 5733.47 4892.1 5733.47 4900.7C5733.47 4909.5 5735.17 4917.2 5738.57 4923.8C5741.97 4930.2 5746.77 4935.3 5752.97 4939.1C5759.17 4942.7 5766.37 4944.5 5774.57 4944.5ZM5884.74 4974.8V4946.9H5960.94V4974.8H5884.74ZM6071.02 5045C6057.82 5045 6046.02 5042.1 6035.62 5036.3C6025.22 5030.3 6017.02 5022.1 6011.02 5011.7C6005.22 5001.3 6002.32 4989.3 6002.32 4975.7V4902.5C6002.32 4888.7 6005.32 4876.6 6011.32 4866.2C6017.32 4855.8 6025.52 4847.7 6035.92 4841.9C6046.32 4836.1 6058.12 4833.2 6071.32 4833.2H6074.92C6087.52 4833.2 6098.82 4835.9 6108.82 4841.3C6118.82 4846.5 6126.72 4854.1 6132.52 4864.1C6138.32 4874.1 6141.22 4886.2 6141.22 4900.4H6113.02C6113.02 4886.6 6109.22 4876.1 6101.62 4868.9C6094.22 4861.5 6084.82 4857.8 6073.42 4857.8C6065.62 4857.8 6058.62 4859.6 6052.42 4863.2C6046.22 4866.6 6041.32 4871.4 6037.72 4877.6C6034.32 4883.8 6032.62 4890.8 6032.62 4898.6V4935.2C6038.42 4927.8 6045.62 4922.2 6054.22 4918.4C6062.82 4914.4 6071.52 4912.4 6080.32 4912.4C6092.52 4912.4 6103.52 4915.1 6113.32 4920.5C6123.12 4925.7 6130.92 4933.1 6136.72 4942.7C6142.52 4952.3 6145.42 4963.7 6145.42 4976.9C6145.42 4990.5 6142.22 5002.4 6135.82 5012.6C6129.62 5022.8 6121.12 5030.8 6110.32 5036.6C6099.52 5042.2 6087.52 5045 6074.32 5045H6071.02ZM6074.02 5021.3C6082.62 5021.3 6089.92 5019.5 6095.92 5015.9C6101.92 5012.1 6106.62 5006.9 6110.02 5000.3C6113.42 4993.7 6115.12 4986.1 6115.12 4977.5C6115.12 4968.5 6113.32 4960.8 6109.72 4954.4C6106.32 4947.8 6101.52 4942.7 6095.32 4939.1C6089.32 4935.5 6082.22 4933.7 6074.02 4933.7C6065.82 4933.7 6058.62 4935.6 6052.42 4939.4C6046.22 4943 6041.32 4948.1 6037.72 4954.7C6034.32 4961.1 6032.62 4968.6 6032.62 4977.2C6032.62 4986.2 6034.32 4994 6037.72 5000.6C6041.32 5007.2 6046.22 5012.3 6052.42 5015.9C6058.82 5019.5 6066.02 5021.3 6074.02 5021.3ZM6190.79 5042V5017.1H6245.09V4871H6190.79V4852.7C6197.39 4852.1 6204.69 4851 6212.69 4849.4C6220.69 4847.6 6229.09 4845.4 6237.89 4842.8C6246.89 4840 6255.69 4836.8 6264.29 4833.2H6275.39V5017.1H6329.09V5042H6190.79ZM6440.76 5045C6425.96 5045 6413.26 5042.1 6402.66 5036.3C6392.26 5030.3 6384.16 5022.3 6378.36 5012.3C6372.76 5002.1 6369.96 4990.4 6369.96 4977.2H6398.46C6398.46 4985.2 6400.06 4992.5 6403.26 4999.1C6406.66 5005.5 6411.46 5010.6 6417.66 5014.4C6424.06 5018.2 6431.76 5020.1 6440.76 5020.1C6449.76 5020.1 6457.36 5018.1 6463.56 5014.1C6469.96 5010.1 6474.76 5004.7 6477.96 4997.9C6481.36 4991.1 6483.06 4983.8 6483.06 4976C6483.06 4962.8 6479.26 4952.2 6471.66 4944.2C6464.06 4936 6453.86 4931.9 6441.06 4931.9C6433.06 4931.9 6425.56 4933.9 6418.56 4937.9C6411.76 4941.9 6406.46 4947 6402.66 4953.2L6377.16 4949.6L6385.86 4836.2H6502.26V4863.8H6410.76L6406.26 4924.1C6411.46 4919.3 6417.56 4915.4 6424.56 4912.4C6431.76 4909.4 6439.96 4907.9 6449.16 4907.9C6462.16 4907.9 6473.46 4910.6 6483.06 4916C6492.66 4921.4 6500.06 4929.2 6505.26 4939.4C6510.66 4949.4 6513.36 4961.3 6513.36 4975.1C6513.36 4988.1 6510.26 4999.9 6504.06 5010.5C6498.06 5021.1 6489.56 5029.5 6478.56 5035.7C6467.76 5041.9 6455.16 5045 6440.76 5045ZM6552.73 5042V5032.7C6552.73 5020.1 6555.43 5009.3 6560.83 5000.3C6566.23 4991.3 6574.03 4983.2 6584.23 4976L6641.53 4936.4C6648.13 4931.8 6653.73 4926.2 6658.33 4919.6C6662.93 4913 6665.23 4905.1 6665.23 4895.9C6665.23 4884.1 6661.73 4874.9 6654.73 4868.3C6647.93 4861.7 6637.93 4858.4 6624.73 4858.4C6616.73 4858.4 6609.53 4860.2 6603.13 4863.8C6596.93 4867.4 6592.03 4872.3 6588.43 4878.5C6584.83 4884.7 6583.03 4891.7 6583.03 4899.5C6583.03 4900.9 6583.03 4902.2 6583.03 4903.4C6583.03 4904.6 6583.13 4905.8 6583.33 4907H6554.83C6554.83 4905.6 6554.83 4904.6 6554.83 4904C6554.83 4903.2 6554.83 4902.4 6554.83 4901.6C6554.83 4888.2 6557.83 4876.4 6563.83 4866.2C6570.03 4855.8 6578.43 4847.7 6589.03 4841.9C6599.83 4836.1 6612.13 4833.2 6625.93 4833.2H6629.53C6643.53 4833.2 6655.43 4835.8 6665.23 4841C6675.23 4846.2 6682.83 4853.4 6688.03 4862.6C6693.43 4871.6 6696.13 4882.3 6696.13 4894.7C6696.13 4905.1 6694.33 4914.2 6690.73 4922C6687.33 4929.8 6682.63 4936.6 6676.63 4942.4C6670.83 4948.2 6664.23 4953.6 6656.83 4958.6L6603.43 4995.5C6600.43 4997.5 6597.83 4999.8 6595.63 5002.4C6593.43 5004.8 6591.73 5007.2 6590.53 5009.6C6589.53 5011.8 6588.83 5013.8 6588.43 5015.6H6697.03V5042H6552.73ZM6829.7 5042V4989.5H6732.5V4964.9C6735.1 4960.9 6738.5 4955.2 6742.7 4947.8C6746.9 4940.4 6751.4 4931.9 6756.2 4922.3C6761.2 4912.7 6766.1 4902.7 6770.9 4892.3C6775.7 4881.7 6780.2 4871.3 6784.4 4861.1C6788.8 4850.9 6792.4 4841.6 6795.2 4833.2H6824C6821.6 4842.2 6818.3 4851.9 6814.1 4862.3C6809.9 4872.5 6805.3 4882.8 6800.3 4893.2C6795.5 4903.4 6790.4 4913.2 6785 4922.6C6779.8 4932 6774.8 4940.4 6770 4947.8C6765.2 4955 6760.8 4960.8 6756.8 4965.2H6829.7V4903.7C6831.1 4901.5 6832.6 4898.7 6834.2 4895.3C6836 4891.7 6837.7 4888.1 6839.3 4884.5C6841.1 4880.7 6842.7 4877.1 6844.1 4873.7C6845.7 4870.1 6846.8 4867 6847.4 4864.4H6859.7V4965.2H6885.8V4989.5H6859.7V5042H6829.7ZM6921.87 5042V5032.7C6921.87 5020.1 6924.57 5009.3 6929.97 5000.3C6935.37 4991.3 6943.17 4983.2 6953.37 4976L7010.67 4936.4C7017.27 4931.8 7022.87 4926.2 7027.47 4919.6C7032.07 4913 7034.37 4905.1 7034.37 4895.9C7034.37 4884.1 7030.87 4874.9 7023.87 4868.3C7017.07 4861.7 7007.07 4858.4 6993.87 4858.4C6985.87 4858.4 6978.67 4860.2 6972.27 4863.8C6966.07 4867.4 6961.17 4872.3 6957.57 4878.5C6953.97 4884.7 6952.17 4891.7 6952.17 4899.5C6952.17 4900.9 6952.17 4902.2 6952.17 4903.4C6952.17 4904.6 6952.27 4905.8 6952.47 4907H6923.97C6923.97 4905.6 6923.97 4904.6 6923.97 4904C6923.97 4903.2 6923.97 4902.4 6923.97 4901.6C6923.97 4888.2 6926.97 4876.4 6932.97 4866.2C6939.17 4855.8 6947.57 4847.7 6958.17 4841.9C6968.97 4836.1 6981.27 4833.2 6995.07 4833.2H6998.67C7012.67 4833.2 7024.57 4835.8 7034.37 4841C7044.37 4846.2 7051.97 4853.4 7057.17 4862.6C7062.57 4871.6 7065.27 4882.3 7065.27 4894.7C7065.27 4905.1 7063.47 4914.2 7059.87 4922C7056.47 4929.8 7051.77 4936.6 7045.77 4942.4C7039.97 4948.2 7033.37 4953.6 7025.97 4958.6L6972.57 4995.5C6969.57 4997.5 6966.97 4999.8 6964.77 5002.4C6962.57 5004.8 6960.87 5007.2 6959.67 5009.6C6958.67 5011.8 6957.97 5013.8 6957.57 5015.6H7066.17V5042H6921.87ZM7179.04 5045C7164.24 5045 7151.54 5042.1 7140.94 5036.3C7130.54 5030.3 7122.44 5022.3 7116.64 5012.3C7111.04 5002.1 7108.24 4990.4 7108.24 4977.2H7136.74C7136.74 4985.2 7138.34 4992.5 7141.54 4999.1C7144.94 5005.5 7149.74 5010.6 7155.94 5014.4C7162.34 5018.2 7170.04 5020.1 7179.04 5020.1C7188.04 5020.1 7195.64 5018.1 7201.84 5014.1C7208.24 5010.1 7213.04 5004.7 7216.24 4997.9C7219.64 4991.1 7221.34 4983.8 7221.34 4976C7221.34 4962.8 7217.54 4952.2 7209.94 4944.2C7202.34 4936 7192.14 4931.9 7179.34 4931.9C7171.34 4931.9 7163.84 4933.9 7156.84 4937.9C7150.04 4941.9 7144.74 4947 7140.94 4953.2L7115.44 4949.6L7124.14 4836.2H7240.54V4863.8H7149.04L7144.54 4924.1C7149.74 4919.3 7155.84 4915.4 7162.84 4912.4C7170.04 4909.4 7178.24 4907.9 7187.44 4907.9C7200.44 4907.9 7211.74 4910.6 7221.34 4916C7230.94 4921.4 7238.34 4929.2 7243.54 4939.4C7248.94 4949.4 7251.64 4961.3 7251.64 4975.1C7251.64 4988.1 7248.54 4999.9 7242.34 5010.5C7236.34 5021.1 7227.84 5029.5 7216.84 5035.7C7206.04 5041.9 7193.44 5045 7179.04 5045ZM7325.81 5042C7325.81 5024 7328.01 5006.6 7332.41 4989.8C7336.81 4973 7342.61 4957 7349.81 4941.8C7357.01 4926.4 7365.01 4912.1 7373.81 4898.9C7382.61 4885.5 7391.31 4873.4 7399.91 4862.6H7292.81V4836.2H7438.01V4851.2C7425.81 4866 7414.71 4881 7404.71 4896.2C7394.91 4911.4 7386.51 4926.9 7379.51 4942.7C7372.71 4958.5 7367.51 4974.7 7363.91 4991.3C7360.51 5007.7 7359.31 5024.6 7360.31 5042H7325.81ZM7567.98 5042V4989.5H7470.78V4964.9C7473.38 4960.9 7476.78 4955.2 7480.98 4947.8C7485.18 4940.4 7489.68 4931.9 7494.48 4922.3C7499.48 4912.7 7504.38 4902.7 7509.18 4892.3C7513.98 4881.7 7518.48 4871.3 7522.68 4861.1C7527.08 4850.9 7530.68 4841.6 7533.48 4833.2H7562.28C7559.88 4842.2 7556.58 4851.9 7552.38 4862.3C7548.18 4872.5 7543.58 4882.8 7538.58 4893.2C7533.78 4903.4 7528.68 4913.2 7523.28 4922.6C7518.08 4932 7513.08 4940.4 7508.28 4947.8C7503.48 4955 7499.08 4960.8 7495.08 4965.2H7567.98V4903.7C7569.38 4901.5 7570.88 4898.7 7572.48 4895.3C7574.28 4891.7 7575.98 4888.1 7577.58 4884.5C7579.38 4880.7 7580.98 4877.1 7582.38 4873.7C7583.98 4870.1 7585.08 4867 7585.68 4864.4H7597.98V4965.2H7624.08V4989.5H7597.98V5042H7567.98ZM7694.95 5042C7694.95 5024 7697.15 5006.6 7701.55 4989.8C7705.95 4973 7711.75 4957 7718.95 4941.8C7726.15 4926.4 7734.15 4912.1 7742.95 4898.9C7751.75 4885.5 7760.45 4873.4 7769.05 4862.6H7661.95V4836.2H7807.15V4851.2C7794.95 4866 7783.85 4881 7773.85 4896.2C7764.05 4911.4 7755.65 4926.9 7748.65 4942.7C7741.85 4958.5 7736.65 4974.7 7733.05 4991.3C7729.65 5007.7 7728.45 5024.6 7729.45 5042H7694.95Z" fill="#B73F3F"/>
<circle cx="2473" cy="6377" r="435" fill="#B73F3F"/>
</svg>
