<svg width="311" height="8691" viewBox="0 0 311 8691" fill="none" xmlns="http://www.w3.org/2000/svg">
<path d="M9.00011 3394.65C9.00067 3403.56 19.7718 3408.02 26.0714 3401.72L305.418 3122.38C307.291 3120.51 308.344 3117.97 308.347 3115.32L308.626 2766.25C308.858 2765.4 308.984 2764.49 308.983 2763.52L308.768 2590.16L309 2300.62C309.001 2299.4 308.788 2298.25 308.404 2297.19L308.349 2251.56C308.345 2248.92 307.298 2246.39 305.438 2244.52L111.858 2049.92C109.995 2048.04 108.947 2045.51 108.947 2042.86L108.947 1063.39C108.947 1060.75 107.901 1058.21 106.037 1056.34L26.0898 975.969C19.7979 969.644 9.0002 974.099 9 983.02L9.00011 3394.65Z" fill="#B73F3F"/>
<path d="M307.571 981.093L26.0755 1262.57C19.7757 1268.87 9.00466 1264.41 9.00462 1255.5L9.00009 24.1423C9.00006 15.2332 19.7715 10.7715 26.0711 17.0711L307.571 298.571C309.446 300.446 310.5 302.99 310.5 305.642L310.5 974.021C310.5 976.674 309.446 979.217 307.571 981.093Z" fill="#B73F3F"/>
<path d="M97.089 6958.71L17.089 6878.31C10.7966 6871.99 0.000304845 6876.45 0.000303346 6885.37L0.000107625 8050.14L5.13559e-05 8385.01C5.09115e-05 8387.65 1.04755 8390.19 2.91336 8392.06L283.053 8673.45C289.351 8679.77 300.151 8675.3 300.14 8666.38L299.505 8154.26C299.502 8151.62 298.455 8149.09 296.594 8147.22L102.911 7952.56C101.047 7950.69 100 7948.15 100 7945.51L100 6965.77C100 6963.12 98.9535 6960.59 97.089 6958.71Z" fill="#B73F3F"/>
<path d="M308.778 7027.62C308.778 7036.53 298.006 7040.99 291.707 7034.69L12.373 6755.36C10.4997 6753.48 9.44644 6750.94 9.44424 6748.29L9.16496 6399.22C8.93348 6398.37 8.80732 6397.46 8.80852 6396.5L9.02337 6223.14L8.79096 5933.6C8.78998 5932.37 9.00285 5931.22 9.38666 5930.16L9.44233 5884.53C9.44562 5881.89 10.4926 5879.36 12.3535 5877.49L205.925 5682.89C207.788 5681.02 208.835 5678.48 208.835 5675.84L208.835 4696.36C208.835 4693.72 209.881 4691.18 211.745 4689.31L291.688 4608.94C297.98 4602.62 308.778 4607.07 308.778 4615.99L308.778 7027.62Z" fill="#B73F3F"/>
<path d="M8.79092 3530.98C8.79092 3528.33 9.83833 3525.8 11.704 3523.92L291.844 3242.54C298.141 3236.21 308.942 3240.68 308.931 3249.61L308.296 3761.73C308.293 3764.37 307.246 3766.9 305.385 3768.77L111.702 3963.42C109.838 3965.3 108.791 3967.83 108.791 3970.47L108.791 4108.4L291.844 3924.54C298.141 3918.21 308.942 3922.68 308.931 3931.61L308.296 4443.73C308.293 4446.37 307.246 4448.9 305.385 4450.77L111.702 4645.42C109.838 4647.3 108.791 4649.83 108.791 4652.47L108.791 5632.22C108.791 5634.86 107.744 5637.4 105.88 5639.27L25.8799 5719.67C19.5875 5726 8.79102 5721.54 8.79102 5712.62L8.79092 3530.98Z" fill="#B73F3F"/>
<path d="M297.068 7157.98L216.402 7081.04C210.037 7074.97 199.5 7079.48 199.5 7088.28L199.5 7904.24C199.5 7906.96 200.609 7909.57 202.571 7911.45L283.237 7988.96C289.592 7995.07 300.166 7990.56 300.166 7981.75L300.166 7165.22C300.166 7162.49 299.046 7159.87 297.068 7157.98Z" fill="#B73F3F"/>
<path d="M306.739 298.573L216.711 208.264C210.397 201.932 199.581 206.435 199.629 215.377L208.974 1984.35C208.988 1987.05 210.096 1989.64 212.046 1991.51L292.734 2069.04C299.089 2075.15 309.662 2070.64 309.662 2061.83L309.657 305.633C309.657 302.986 308.607 300.447 306.739 298.573Z" fill="#B73F3F"/>
</svg>
