<svg width="32" height="32" viewBox="0 0 32 32" fill="none" xmlns="http://www.w3.org/2000/svg">
<path d="M5.33366 26.6666C4.60033 26.6666 3.96699 26.411 3.43366 25.8999C2.92255 25.3666 2.66699 24.7333 2.66699 23.9999V7.99992C2.66699 7.26659 2.92255 6.64436 3.43366 6.13325C3.96699 5.59992 4.60033 5.33325 5.33366 5.33325H26.667C27.4003 5.33325 28.0226 5.59992 28.5337 6.13325C29.067 6.64436 29.3337 7.26659 29.3337 7.99992V23.9999C29.3337 24.7333 29.067 25.3666 28.5337 25.8999C28.0226 26.411 27.4003 26.6666 26.667 26.6666H5.33366ZM16.0003 17.3333L26.667 10.6666V7.99992L16.0003 14.6666L5.33366 7.99992V10.6666L16.0003 17.3333Z" fill="#717171"/>
</svg>
