<svg width="100" height="100" viewBox="0 0 100 100" fill="none" xmlns="http://www.w3.org/2000/svg">
<path d="M29.5 25.5L18.5 85.5L77.5 88.5L79.5 56L54 46L51 27L29.5 25.5Z" fill="white"/>
<path d="M54.167 37.5H77.0837L54.167 14.5833V37.5ZM25.0003 8.33334H58.3337L83.3337 33.3333V83.3333C83.3337 85.5435 82.4557 87.6631 80.8929 89.2259C79.3301 90.7887 77.2105 91.6667 75.0003 91.6667H25.0003C22.7902 91.6667 20.6706 90.7887 19.1078 89.2259C17.545 87.6631 16.667 85.5435 16.667 83.3333V16.6667C16.667 14.4565 17.545 12.3369 19.1078 10.7741C20.6706 9.21132 22.7902 8.33334 25.0003 8.33334ZM45.542 51.8333C47.2503 55.5833 49.417 58.6667 51.917 60.7917L53.6253 62.125C50.0003 62.7917 45.0003 63.9583 39.7087 66L39.2503 66.1667L41.3337 61.8333C43.2087 58.2083 44.5837 54.9167 45.542 51.8333ZM72.542 67.7083C73.292 66.9583 73.667 66 73.7087 64.9583C73.8337 64.125 73.6253 63.3333 73.2087 62.6667C72.0003 60.7083 68.8753 59.7917 63.7087 59.7917L58.3337 60.0833L54.7087 57.6667C52.0837 55.5 49.7087 51.7083 48.042 47L48.2087 46.4167C49.5837 40.875 50.8753 34.1667 48.1253 31.4167C47.789 31.0901 47.3911 30.8335 46.9548 30.6618C46.5185 30.4901 46.0524 30.4068 45.5837 30.4167H44.5837C43.042 30.4167 41.667 32.0417 41.292 33.625C39.7503 39.1667 40.667 42.2083 42.2087 47.25V47.2917C41.167 50.9583 39.8337 55.2083 37.7087 59.5L33.7087 67L30.0003 69.0417C25.0003 72.1667 22.6253 75.6667 22.167 77.875C22.0003 78.6667 22.0837 79.375 22.3753 80.125L22.5003 80.3333L24.5003 81.625L26.3337 82.0833C29.7087 82.0833 33.542 78.125 38.7087 69.2917L39.4587 69C43.7503 67.625 49.0837 66.6667 56.2503 65.875C60.542 68 65.5837 68.9583 68.7503 68.9583C70.5837 68.9583 71.8337 68.5 72.542 67.7083ZM70.8337 64.75L71.2087 65.2083C71.167 65.625 71.042 65.6667 70.8337 65.75H70.667L69.8753 65.8333C67.9587 65.8333 65.0003 65.0417 61.9587 63.7083C62.3337 63.2917 62.5003 63.2917 62.917 63.2917C68.7503 63.2917 70.417 64.3333 70.8337 64.75ZM32.6253 70.8333C29.917 75.7917 27.4587 78.5417 25.5837 79.1667C25.792 77.5833 27.667 74.8333 30.6253 72.125L32.6253 70.8333ZM45.2087 42.0417C44.2503 38.2917 44.2087 35.25 44.917 33.5L45.2087 33L45.8337 33.2083C46.542 34.2083 46.6253 35.5417 46.2087 37.7917L46.0837 38.4583L45.417 41.875L45.2087 42.0417Z" fill="#EF5350"/>
</svg>
