<svg width="32" height="32" viewBox="0 0 32 32" fill="none" xmlns="http://www.w3.org/2000/svg">
<path d="M5.33366 26.6667C4.60033 26.6667 3.96699 26.4112 3.43366 25.9C2.92255 25.3667 2.66699 24.7334 2.66699 24V8.00004C2.66699 7.26671 2.92255 6.64449 3.43366 6.13337C3.96699 5.60004 4.60033 5.33337 5.33366 5.33337H26.667C27.4003 5.33337 28.0226 5.60004 28.5337 6.13337C29.067 6.64449 29.3337 7.26671 29.3337 8.00004V24C29.3337 24.7334 29.067 25.3667 28.5337 25.9C28.0226 26.4112 27.4003 26.6667 26.667 26.6667H5.33366ZM16.0003 17.3334L26.667 10.6667V8.00004L16.0003 14.6667L5.33366 8.00004V10.6667L16.0003 17.3334Z" fill="#ED2000"/>
</svg>
