<svg width="100" height="100" viewBox="0 0 100 100" fill="none" xmlns="http://www.w3.org/2000/svg">
<mask id="mask0_7288_330" style="mask-type:alpha" maskUnits="userSpaceOnUse" x="16" y="8" width="68" height="84">
<path d="M54.166 37.5H77.0827L54.166 14.5833V37.5ZM24.9993 8.33331H58.3327L83.3327 33.3333V83.3333C83.3327 85.5435 82.4547 87.6631 80.8919 89.2259C79.3291 90.7887 77.2095 91.6666 74.9993 91.6666H24.9993C22.7892 91.6666 20.6696 90.7887 19.1068 89.2259C17.544 87.6631 16.666 85.5435 16.666 83.3333V16.6666C16.666 14.4565 17.544 12.3369 19.1068 10.7741C20.6696 9.21129 22.7892 8.33331 24.9993 8.33331Z" fill="#EF5350"/>
</mask>
<g mask="url(#mask0_7288_330)">
<path d="M79.6937 8.50002H18.8031C18.3038 8.49877 17.8093 8.59581 17.3477 8.78559C16.8861 8.97537 16.4667 9.25415 16.1133 9.60595C15.76 9.95775 15.4798 10.3757 15.2888 10.8357C15.0977 11.2957 14.9996 11.7888 15 12.2868V29.1667L50.286 39.5L83.5 29.1667V12.2868C83.5004 11.7886 83.4022 11.2952 83.2109 10.835C83.0197 10.3747 82.7392 9.95667 82.3855 9.60482C82.0319 9.25298 81.612 8.97427 81.1501 8.78467C80.6882 8.59508 80.1932 8.49835 79.6937 8.50002Z" fill="#41A5EE"/>
<path d="M83.5 29.5H15V49.8846L50.286 56L83.5 49.8846V29.5Z" fill="#2B7CD3"/>
<path d="M15 50V70.8333L48.2108 75L83.5 70.8333V50H15Z" fill="#185ABD"/>
<path d="M18.8031 91.5H79.6906C80.1903 91.5021 80.6856 91.4041 81.1479 91.2117C81.6102 91.0192 82.0304 90.7361 82.3844 90.3785C82.7384 90.0209 83.0192 89.596 83.2106 89.1281C83.4021 88.6602 83.5004 88.1586 83.5 87.6521V70.5H15V87.6521C14.9996 88.1581 15.0977 88.6592 15.2888 89.1266C15.4798 89.5941 15.76 90.0187 16.1133 90.3762C16.4667 90.7337 16.8861 91.017 17.3477 91.2098C17.8093 91.4026 18.3038 91.5012 18.8031 91.5Z" fill="#103F91"/>
<path d="M41.5754 67.4548C41.6621 68.1433 41.7191 68.7431 41.7464 69.2545H41.8505C41.8877 68.7681 41.9682 68.1819 42.0921 67.496C42.278 66.4671 42.3226 66.2314 42.423 65.7562L47.0889 45.5262H53.1267L57.9599 65.4532C58.239 66.6863 58.4402 67.9359 58.5622 69.1946H58.644C58.7367 67.9694 58.9044 66.7512 59.1459 65.5467L63.0087 45.5H68.5L61.7187 74.4888H55.2979L50.699 55.3101C50.5651 54.7564 50.4139 54.0355 50.2454 53.1475C50.0768 52.2596 49.9727 51.611 49.9331 51.202H49.855C49.803 51.6734 49.6989 52.373 49.5427 53.3009C49.3866 54.2288 49.2626 54.9172 49.1709 55.3662L44.8471 74.5H38.3185L31.5 45.5262H37.0768L41.2817 65.7974C41.4042 66.3452 41.5022 66.8982 41.5754 67.4548Z" fill="white"/>
</g>
</svg>
