<svg width="547" height="81" viewBox="0 0 547 81" fill="none" xmlns="http://www.w3.org/2000/svg">
<mask id="mask0_9_32953" style="mask-type:alpha" maskUnits="userSpaceOnUse" x="378" y="0" width="169" height="80">
<path d="M378 80C378 35.8172 413.817 0 458 0H547C547 44.1828 511.183 80 467 80H378Z" fill="#ED2000"/>
</mask>
<g mask="url(#mask0_9_32953)">
<path d="M378 80C378 35.8172 413.817 0 458 0L547 0V55C547 68.8071 535.807 80 522 80L378 80Z" fill="#ED2000"/>
<path d="M485 0L547 0V80L485 80V0Z" fill="white"/>
<path d="M469.481 0L452.239 0C444.932 0 439 5.97813 439 13.3414C439 20.7047 444.932 26.6829 452.239 26.6829L469.481 26.6829" fill="#FF6E4A"/>
<path d="M469.481 26.6586L452.239 26.6586C444.932 26.6586 439 32.6367 439 40C439 47.3633 444.932 53.3414 452.239 53.3414H469.481" fill="#FF6E4A"/>
<path d="M469.481 53.3414L452.239 53.3414C444.932 53.3414 439 59.3196 439 66.6829C439 74.0462 444.932 80.0243 452.239 80.0243H469.481" fill="#FF6E4A"/>
<path d="M486 0.0242977L469.12 0C461.813 0 455.88 5.97813 455.88 13.3414C455.88 20.7047 461.813 26.6829 469.12 26.6829L486 26.7072" fill="#FFB3A4"/>
<path d="M486 26.6829L469.12 26.6586C461.813 26.6586 455.88 32.6367 455.88 40C455.88 47.3633 461.813 53.3414 469.12 53.3414L486 53.3657" fill="#FFB3A4"/>
<path d="M486 53.3657L469.12 53.3414C461.813 53.3414 455.88 59.3196 455.88 66.6829C455.88 74.0462 461.813 80.0243 469.12 80.0243L486 80.0486" fill="#FFB3A4"/>
<path d="M486 0C478.693 0 472.761 5.97813 472.761 13.3414C472.761 20.7047 478.693 26.6829 486 26.6829" fill="white"/>
<path d="M486 26.6586C478.693 26.6586 472.761 32.6367 472.761 40C472.761 47.3633 478.693 53.3414 486 53.3414" fill="white"/>
<path d="M486 53.3414C478.693 53.3414 472.761 59.3196 472.761 66.6829C472.761 74.0462 478.693 80.0243 486 80.0243" fill="white"/>
</g>
<path d="M547 0C547 44.1828 511.183 80 467 80V67C499.555 67 526.686 43.781 532.738 13H458C425.445 13 398.314 36.219 392.262 67H467V80H378C378 35.8172 413.817 0 458 0H547Z" fill="#ED2000"/>
<path d="M22.7189 80.0826L0 21H18.0279L31.8248 60.0826L45.6217 21H63.7416L41.0227 80.0826H22.7189Z" fill="#ED2000"/>
<path d="M95.9925 81C90.4738 81 85.5989 80.1132 81.3678 78.3395C77.1981 76.5046 73.9175 73.844 71.526 70.3578C69.1346 66.8104 67.9389 62.4679 67.9389 57.3303V21H85.2309V55.4954C85.2309 62.7125 88.8181 66.3211 95.9925 66.3211C99.4264 66.3211 102.063 65.4343 103.903 63.6606C105.742 61.8869 106.662 59.1651 106.662 55.4954V21H123.954V57.3303C123.954 62.4679 122.758 66.8104 120.367 70.3578C118.037 73.844 114.756 76.5046 110.525 78.3395C106.356 80.1132 101.511 81 95.9925 81Z" fill="#ED2000"/>
<path d="M131.814 80.0826V21H149.106V66.8716H175.78V80.0826H131.814Z" fill="#ED2000"/>
<path d="M180.409 80.0826V21H210.946C215.79 21 219.776 21.9786 222.903 23.9358C226.092 25.8318 228.452 28.4312 229.985 31.7339C231.518 35.0367 232.285 38.7064 232.285 42.7431C232.285 46.9021 231.396 50.6024 229.617 53.844C227.839 57.0856 225.325 59.6239 222.075 61.4587C218.825 63.2936 214.993 64.211 210.578 64.211H197.701V80.0826H180.409ZM197.701 51H206.623C209.321 51 211.314 50.2355 212.601 48.7064C213.95 47.1774 214.625 45.1896 214.625 42.7431C214.625 40.1132 214.012 38.0336 212.785 36.5046C211.559 34.9755 209.658 34.211 207.083 34.211H197.701V51Z" fill="#ED2000"/>
<path d="M236.908 80.0826V21H254.2V80.0826H236.908Z" fill="#ED2000"/>
<path d="M262.507 80.0826V21H277.224L299.575 52.2844V21H316.867V80.0826H302.058L279.799 48.8899V80.0826H262.507Z" fill="#ED2000"/>
<path d="M325.114 80.0826V21H370V34.211H342.406V43.844H370V57.2385H342.406V66.8716H370V80.0826H325.114Z" fill="#ED2000"/>
</svg>
