<svg width="457" height="127" viewBox="0 0 457 127" fill="none" xmlns="http://www.w3.org/2000/svg">
<mask id="mask0_7111_158" style="mask-type:alpha" maskUnits="userSpaceOnUse" x="304" y="0" width="153" height="72">
<path d="M304.609 71.9563C304.609 32.216 336.825 6.10352e-05 376.565 6.10352e-05H456.616C456.616 39.7404 424.4 71.9563 384.66 71.9563H304.609Z" fill="#ED2000"/>
</mask>
<g mask="url(#mask0_7111_158)">
<path d="M304.609 71.9563C304.609 32.216 336.825 6.10352e-05 376.565 6.10352e-05L456.616 6.10352e-05V46.9563C456.616 60.7634 445.424 71.9563 431.616 71.9563L304.609 71.9563Z" fill="#ED2000"/>
<path d="M400.85 0.00012207L456.616 0.00012207V71.9564H400.85V0.00012207Z" fill="white"/>
<path d="M386.892 0.00012207L371.383 0.00012207C364.811 0.00012207 359.475 5.37717 359.475 12.0001C359.475 18.6231 364.811 24.0001 371.383 24.0001L386.892 24.0001" fill="#FF6E4A"/>
<path d="M386.892 23.9783L371.383 23.9783C364.811 23.9783 359.475 29.3554 359.475 35.9783C359.475 42.6013 364.811 47.9783 371.383 47.9783H386.892" fill="#FF6E4A"/>
<path d="M386.892 47.9783H371.383C364.811 47.9783 359.475 53.3553 359.475 59.9783C359.475 66.6012 364.811 71.9783 371.383 71.9783H386.892" fill="#FF6E4A"/>
<path d="M401.75 0.0220988L386.567 0.000244141C379.994 0.000244141 374.659 5.37729 374.659 12.0002C374.659 18.6232 379.994 24.0002 386.567 24.0002L401.75 24.0221" fill="#FFB3A4"/>
<path d="M401.75 24.0002L386.567 23.9784C379.994 23.9784 374.659 29.3554 374.659 35.9784C374.659 42.6013 379.994 47.9784 386.567 47.9784L401.75 48.0002" fill="#FFB3A4"/>
<path d="M401.75 48.0002L386.567 47.9783C379.994 47.9783 374.659 53.3554 374.659 59.9783C374.659 66.6013 379.994 71.9783 386.567 71.9783L401.75 72.0002" fill="#FFB3A4"/>
<path d="M401.75 0.000244141C395.178 0.000244141 389.842 5.37729 389.842 12.0002C389.842 18.6232 395.178 24.0002 401.75 24.0002" fill="white"/>
<path d="M401.75 23.9784C395.178 23.9784 389.842 29.3554 389.842 35.9784C389.842 42.6013 395.178 47.9784 401.75 47.9784" fill="white"/>
<path d="M401.75 47.9783C395.178 47.9783 389.842 53.3554 389.842 59.9783C389.842 66.6013 395.178 71.9783 401.75 71.9783" fill="white"/>
</g>
<path d="M456.616 6.10352e-05C456.616 39.7404 424.4 71.9563 384.66 71.9563V60.2634C413.942 60.2634 438.345 39.379 443.789 11.693H376.565C347.283 11.693 322.88 32.5774 317.437 60.2634H384.66V71.9563H304.609C304.609 32.216 336.825 6.10352e-05 376.565 6.10352e-05H456.616Z" fill="#ED2000"/>
<path d="M361.718 126.633C358.796 126.633 356.032 126.408 353.425 125.959C350.818 125.465 348.593 124.79 346.75 123.936V113.485C348.773 114.429 351.02 115.194 353.492 115.778C355.965 116.362 358.279 116.654 360.437 116.654C362.685 116.654 364.37 116.475 365.494 116.115C366.663 115.71 367.247 114.834 367.247 113.485C367.247 112.541 366.91 111.8 366.236 111.26C365.606 110.721 364.595 110.227 363.201 109.777C361.853 109.328 360.077 108.766 357.875 108.091C354.953 107.148 352.638 106.114 350.93 104.99C349.222 103.866 347.986 102.495 347.222 100.877C346.503 99.2589 346.143 97.2811 346.143 94.9437C346.143 90.6735 347.649 87.4371 350.661 85.2346C353.717 82.9871 358.235 81.8633 364.213 81.8633C366.595 81.8633 369.045 82.0656 371.562 82.4702C374.124 82.8747 376.192 83.3242 377.765 83.8187V94.3369C375.653 93.4828 373.63 92.876 371.697 92.5164C369.764 92.1568 367.944 91.977 366.236 91.977C364.258 91.977 362.572 92.1343 361.179 92.449C359.785 92.7636 359.089 93.5727 359.089 94.8763C359.089 96 359.673 96.8316 360.842 97.371C362.055 97.8654 364.19 98.5172 367.247 99.3263C370.798 100.27 373.495 101.416 375.338 102.765C377.226 104.113 378.507 105.687 379.181 107.485C379.855 109.238 380.192 111.238 380.192 113.485C380.192 117.441 378.664 120.632 375.608 123.06C372.551 125.442 367.921 126.633 361.718 126.633Z" fill="white"/>
<path d="M328.726 125.959V82.5375H341.402V125.959H328.726Z" fill="white"/>
<path d="M294.912 125.959L278.258 82.5375H291.473L301.587 111.26L311.7 82.5375H324.983L308.329 125.959H294.912Z" fill="white"/>
<path d="M255.403 126.633C248.211 126.633 242.705 124.88 238.884 121.374C235.108 117.868 233.22 112.204 233.22 104.383C233.22 98.9892 234.074 94.6515 235.782 91.3702C237.49 88.0439 239.985 85.6391 243.266 84.1558C246.593 82.6275 250.638 81.8633 255.403 81.8633C260.168 81.8633 264.191 82.6275 267.472 84.1558C270.798 85.6391 273.315 88.0439 275.023 91.3702C276.732 94.6515 277.586 98.9892 277.586 104.383C277.586 112.204 275.675 117.868 271.854 121.374C268.034 124.88 262.55 126.633 255.403 126.633ZM255.403 115.845C258.639 115.845 260.977 114.946 262.415 113.148C263.898 111.305 264.64 108.384 264.64 104.383C264.64 100.113 263.898 97.1013 262.415 95.3482C260.977 93.5503 258.639 92.6513 255.403 92.6513C252.167 92.6513 249.807 93.5503 248.323 95.3482C246.885 97.1013 246.166 100.113 246.166 104.383C246.166 108.384 246.885 111.305 248.323 113.148C249.807 114.946 252.167 115.845 255.403 115.845Z" fill="white"/>
<path d="M188.675 125.959V82.5375H199.463L215.847 105.529V82.5375H228.523V125.959H217.668L201.351 103.035V125.959H188.675Z" fill="white"/>
<path d="M169.91 125.959V82.5375H182.586V125.959H169.91Z" fill="white"/>
<path d="M141.688 125.959V91.977H129.484V82.5375H166.567V91.977H154.364V125.959H141.688Z" fill="white"/>
<path d="M89.3822 125.959V82.5375H111.969C115.52 82.5375 118.42 83.1893 120.667 84.4928C122.96 85.7964 124.668 87.6169 125.791 89.9542C126.915 92.2467 127.477 94.9212 127.477 97.9777C127.477 100.899 126.735 103.484 125.252 105.732C123.814 107.934 121.881 109.62 119.454 110.788C119.948 111.193 120.375 111.687 120.735 112.272C121.094 112.811 121.499 113.575 121.948 114.564L126.938 125.959H113.722L109.138 115.508C108.778 114.699 108.328 114.137 107.789 113.822C107.295 113.463 106.575 113.283 105.632 113.283H102.058V125.959H89.3822ZM102.058 103.574H108.733C110.576 103.574 111.992 103.102 112.981 102.158C114.015 101.169 114.532 99.7757 114.532 97.9777C114.532 94.157 112.734 92.2467 109.138 92.2467H102.058V103.574Z" fill="white"/>
<path d="M62.4793 126.633C55.2874 126.633 49.781 124.88 45.9603 121.374C42.1846 117.868 40.2967 112.204 40.2967 104.383C40.2967 98.9892 41.1507 94.6515 42.8588 91.3702C44.5669 88.0439 47.0616 85.6391 50.3429 84.1558C53.6692 82.6275 57.7147 81.8633 62.4793 81.8633C67.244 81.8633 71.267 82.6275 74.5483 84.1558C77.8746 85.6391 80.3918 88.0439 82.0999 91.3702C83.8079 94.6515 84.662 98.9892 84.662 104.383C84.662 112.204 82.7516 117.868 78.9309 121.374C75.1102 124.88 69.6263 126.633 62.4793 126.633ZM62.4793 115.845C65.7157 115.845 68.0531 114.946 69.4915 113.148C70.9748 111.305 71.7165 108.384 71.7165 104.383C71.7165 100.113 70.9748 97.1013 69.4915 95.3482C68.0531 93.5503 65.7157 92.6513 62.4793 92.6513C59.243 92.6513 56.8831 93.5503 55.3998 95.3482C53.9614 97.1013 53.2422 100.113 53.2422 104.383C53.2422 108.384 53.9614 111.305 55.3998 113.148C56.8831 114.946 59.243 115.845 62.4793 115.845Z" fill="white"/>
<path d="M24.2054 126.633C16.3392 126.633 10.3384 124.7 6.20305 120.835C2.06768 116.969 0 111.508 0 104.451C0 97.1687 2.02273 91.5949 6.0682 87.7293C10.1137 83.8187 16.1369 81.8633 24.138 81.8633C26.8349 81.8633 29.2398 82.0656 31.3524 82.4702C33.465 82.8747 35.4878 83.4366 37.4206 84.1558V95.2134C33.5549 93.5053 29.4196 92.6513 25.0145 92.6513C20.9241 92.6513 17.89 93.5952 15.9122 95.4831C13.9344 97.326 12.9455 100.315 12.9455 104.451C12.9455 108.496 13.9793 111.418 16.047 113.216C18.1597 114.969 21.1938 115.845 25.1493 115.845C27.3069 115.845 29.3971 115.643 31.4198 115.238C33.4875 114.834 35.5327 114.205 37.5554 113.351V124.476C35.6226 125.15 33.5774 125.667 31.4198 126.026C29.3072 126.431 26.9024 126.633 24.2054 126.633Z" fill="white"/>
<path d="M275.794 72.1614V56.2492L260.152 28.7401H273.367L282.132 45.1242L290.897 28.7401H304.112L288.47 56.2492V72.1614H275.794Z" fill="#ED2000"/>
<path d="M223.113 72.1614V28.7401H245.7C249.251 28.7401 252.151 29.3918 254.398 30.6954C256.69 31.9989 258.399 33.8194 259.522 36.1567C260.646 38.4492 261.208 41.1237 261.208 44.1803C261.208 47.102 260.466 49.6866 258.983 51.9341C257.544 54.1366 255.612 55.8222 253.184 56.9909C253.679 57.3955 254.106 57.8899 254.465 58.4742C254.825 59.0136 255.23 59.7778 255.679 60.7667L260.668 72.1614H247.453L242.868 61.7106C242.509 60.9015 242.059 60.3397 241.52 60.025C241.025 59.6654 240.306 59.4856 239.362 59.4856H235.789V72.1614H223.113ZM235.789 49.7765H242.464C244.307 49.7765 245.723 49.3045 246.712 48.3606C247.745 47.3717 248.262 45.9782 248.262 44.1803C248.262 40.3595 246.464 38.4492 242.868 38.4492H235.789V49.7765Z" fill="#ED2000"/>
<path d="M171.657 72.1614L188.311 28.7401H201.728L218.382 72.1614H205.167L201.526 62.9243H188.446L184.872 72.1614H171.657ZM190.131 53.822H199.84L194.986 41.0787L190.131 53.822Z" fill="#ED2000"/>
<path d="M126.585 72.1614V28.7401H139.261V44.9219H154.229V28.7401H166.905V72.1614H154.229V55.9795H139.261V72.1614H126.585Z" fill="#ED2000"/>
<path d="M108.487 72.8357C100.621 72.8357 94.6202 70.9028 90.4848 67.0371C86.3495 63.1715 84.2818 57.7101 84.2818 50.653C84.2818 43.3712 86.3045 37.7974 90.35 33.9317C94.3955 30.0211 100.419 28.0658 108.42 28.0658C111.117 28.0658 113.522 28.2681 115.634 28.6726C117.747 29.0772 119.77 29.639 121.702 30.3582V41.4158C117.837 39.7078 113.701 38.8537 109.296 38.8537C105.206 38.8537 102.172 39.7977 100.194 41.6855C98.2162 43.5285 97.2273 46.5176 97.2273 50.653C97.2273 54.6985 98.2611 57.6202 100.329 59.4182C102.441 61.1712 105.476 62.0477 109.431 62.0477C111.589 62.0477 113.679 61.8455 115.702 61.4409C117.769 61.0364 119.814 60.4071 121.837 59.553V70.6781C119.904 71.3523 117.859 71.8692 115.702 72.2288C113.589 72.6334 111.184 72.8357 108.487 72.8357Z" fill="#ED2000"/>
<path d="M37.8616 72.1614L54.5155 28.7401H67.9329L84.5868 72.1614H71.3716L67.7307 62.9243H54.6503L51.0768 72.1614H37.8616ZM56.3359 53.822H66.045L61.1905 41.0787L56.3359 53.822Z" fill="#ED2000"/>
<path d="M0.593781 72.1614V65.8235L19.4726 38.4492H1.60515V28.7401H36.1265V35.3477L17.4499 62.4523H36.531V72.1614H0.593781Z" fill="#ED2000"/>
</svg>
