<svg width="547" height="81" viewBox="0 0 547 81" fill="none" xmlns="http://www.w3.org/2000/svg">
<path d="M547 0C547 44.1828 511.183 80 467 80V67C499.555 67 526.686 43.781 532.738 13H458C425.445 13 398.314 36.219 392.262 67H467V80H378C378 35.8172 413.817 0 458 0H547Z" fill="white"/>
<mask id="mask0_9_32935" style="mask-type:alpha" maskUnits="userSpaceOnUse" x="378" y="0" width="169" height="80">
<path d="M378 80C378 35.8172 413.817 0 458 0H547C547 44.1828 511.183 80 467 80H378Z" fill="#ED2000"/>
</mask>
<g mask="url(#mask0_9_32935)">
<path d="M473 13.3414C473 6.09964 478.791 0.243013 486 0H469.415C462.011 0 456 5.97813 456 13.3414C456 20.7047 462.011 26.6829 469.415 26.6829H486C478.791 26.4399 473 20.5832 473 13.3414Z" fill="white"/>
<path d="M473 40C473 32.7825 478.791 26.9016 486 26.6829H469.415C462.011 26.6829 456 32.661 456 40.0243C456 47.3876 462.011 53.3657 469.415 53.3657H486C478.791 53.1227 473 47.2661 473 40.0243V40Z" fill="white"/>
<path d="M473 66.6829C473 59.4654 478.791 53.5844 486 53.3657H469.415C462.011 53.3657 456 59.3439 456 66.7072C456 74.0705 462.011 80.0486 469.415 80.0486H486C478.791 79.8056 473 73.949 473 66.7072V66.6829Z" fill="white"/>
<path d="M439 13.3414C439 6.09964 444.791 0.243013 452 0H439.415C432.011 0 426 5.97813 426 13.3414C426 20.7047 432.011 26.6829 439.415 26.6829H452C444.791 26.4399 439 20.5832 439 13.3414Z" fill="white"/>
<path d="M439 40C439 32.7825 444.791 26.9016 452 26.6829H439.415C432.011 26.6829 426 32.661 426 40.0243C426 47.3876 432.011 53.3657 439.415 53.3657H452C444.791 53.1227 439 47.2661 439 40.0243V40Z" fill="white"/>
<path d="M439 66.6829C439 59.4654 444.791 53.5844 452 53.3657H439.415C432.011 53.3657 426 59.3439 426 66.7072C426 74.0705 432.011 80.0486 439.415 80.0486H452C444.791 79.8056 439 73.949 439 66.7072V66.6829Z" fill="white"/>
<path d="M434 80L351 80V80C351 35.8172 386.817 3.50454e-06 431 7.36713e-06L434 7.62939e-06L434 80Z" fill="white"/>
<rect x="439" y="80" width="14" height="80" transform="rotate(-180 439 80)" fill="white"/>
</g>
<path d="M22.7189 80.0826L0 21H18.0279L31.8248 60.0826L45.6217 21H63.7416L41.0227 80.0826H22.7189Z" fill="white"/>
<path d="M95.9925 81C90.4738 81 85.5989 80.1132 81.3678 78.3395C77.1981 76.5046 73.9175 73.844 71.526 70.3578C69.1346 66.8104 67.9389 62.4679 67.9389 57.3303V21H85.2309V55.4954C85.2309 62.7125 88.8181 66.3211 95.9925 66.3211C99.4264 66.3211 102.063 65.4343 103.903 63.6606C105.742 61.8869 106.662 59.1651 106.662 55.4954V21H123.954V57.3303C123.954 62.4679 122.758 66.8104 120.367 70.3578C118.037 73.844 114.756 76.5046 110.525 78.3395C106.356 80.1132 101.511 81 95.9925 81Z" fill="white"/>
<path d="M131.814 80.0826V21H149.106V66.8716H175.78V80.0826H131.814Z" fill="white"/>
<path d="M180.409 80.0826V21H210.946C215.79 21 219.776 21.9786 222.903 23.9358C226.092 25.8318 228.452 28.4312 229.985 31.7339C231.518 35.0367 232.285 38.7064 232.285 42.7431C232.285 46.9021 231.396 50.6024 229.617 53.844C227.839 57.0856 225.325 59.6239 222.075 61.4587C218.825 63.2936 214.993 64.211 210.578 64.211H197.701V80.0826H180.409ZM197.701 51H206.623C209.321 51 211.314 50.2355 212.601 48.7064C213.95 47.1774 214.625 45.1896 214.625 42.7431C214.625 40.1132 214.012 38.0336 212.785 36.5046C211.559 34.9755 209.658 34.211 207.083 34.211H197.701V51Z" fill="white"/>
<path d="M236.908 80.0826V21H254.2V80.0826H236.908Z" fill="white"/>
<path d="M262.507 80.0826V21H277.224L299.575 52.2844V21H316.867V80.0826H302.058L279.799 48.8899V80.0826H262.507Z" fill="white"/>
<path d="M325.114 80.0826V21H370V34.211H342.406V43.844H370V57.2385H342.406V66.8716H370V80.0826H325.114Z" fill="white"/>
</svg>
