<svg width="385" height="107" viewBox="0 0 385 107" fill="none" xmlns="http://www.w3.org/2000/svg">
<mask id="mask0_7111_158" style="mask-type:alpha" maskUnits="userSpaceOnUse" x="257" y="0" width="128" height="61">
<path d="M257 60.9585C257 27.4947 284.128 0.366821 317.592 0.366821H385C385 33.8307 357.872 60.9585 324.408 60.9585H257Z" fill="#ED2000"/>
</mask>
<g mask="url(#mask0_7111_158)">
<path d="M257 60.9585C257 27.4947 284.128 0.366821 317.592 0.366821L385 0.366821V35.9585C385 49.7656 373.807 60.9585 360 60.9585L257 60.9585V60.9585Z" fill="#ED2000"/>
<path d="M338.041 0.366821L385 0.366821V60.9585L338.041 60.9585V0.366821Z" fill="white"/>
<path d="M326.288 0.366821L313.228 0.366821C307.694 0.366821 303.201 4.89463 303.201 10.4716C303.201 16.0485 307.694 20.5763 313.228 20.5763L326.288 20.5763" fill="#FF6E4A"/>
<path d="M326.288 20.558L313.228 20.558C307.694 20.558 303.201 25.0858 303.201 30.6627C303.201 36.2397 307.694 40.7675 313.228 40.7675H326.288" fill="#FF6E4A"/>
<path d="M326.288 40.7675H313.228C307.694 40.7675 303.201 45.2953 303.201 50.8722C303.201 56.4492 307.694 60.977 313.228 60.977H326.288" fill="#FF6E4A"/>
<path d="M338.799 0.385224L326.014 0.366821C320.479 0.366821 315.986 4.89463 315.986 10.4716C315.986 16.0485 320.479 20.5763 326.014 20.5763L338.799 20.5947" fill="#FFB3A4"/>
<path d="M338.799 20.5764L326.014 20.558C320.479 20.558 315.986 25.0858 315.986 30.6627C315.986 36.2397 320.479 40.7675 326.014 40.7675L338.799 40.7859" fill="#FFB3A4"/>
<path d="M338.799 40.7859L326.014 40.7675C320.479 40.7675 315.986 45.2953 315.986 50.8722C315.986 56.4492 320.479 60.977 326.014 60.977L338.799 60.9954" fill="#FFB3A4"/>
<path d="M338.799 0.366821C333.265 0.366821 328.772 4.89463 328.772 10.4716C328.772 16.0485 333.265 20.5763 338.799 20.5763" fill="white"/>
<path d="M338.799 20.558C333.265 20.558 328.772 25.0858 328.772 30.6627C328.772 36.2397 333.265 40.7675 338.799 40.7675" fill="white"/>
<path d="M338.799 40.7675C333.265 40.7675 328.772 45.2953 328.772 50.8722C328.772 56.4492 333.265 60.977 338.799 60.977" fill="white"/>
</g>
<path d="M385 0.366821C385 33.8307 357.872 60.9585 324.408 60.9585V51.1124C349.065 51.1124 369.614 33.5264 374.198 10.213H317.592C292.935 10.213 272.386 27.799 267.802 51.1124H324.408V60.9585H257C257 27.4947 284.128 0.366821 317.592 0.366821H385Z" fill="#ED2000"/>
<path d="M305.09 107C302.629 107 300.302 106.811 298.106 106.432C295.911 106.016 294.037 105.448 292.485 104.729V95.9287C294.189 96.7236 296.081 97.367 298.163 97.8591C300.245 98.3511 302.194 98.5972 304.011 98.5972C305.903 98.5972 307.323 98.4458 308.269 98.143C309.253 97.8023 309.745 97.0642 309.745 95.9287C309.745 95.1338 309.461 94.5093 308.894 94.0551C308.364 93.6009 307.512 93.1845 306.339 92.806C305.203 92.4275 303.708 91.9544 301.853 91.3866C299.393 90.5918 297.444 89.7212 296.006 88.775C294.567 87.8287 293.526 86.6743 292.883 85.3117C292.277 83.949 291.974 82.2836 291.974 80.3154C291.974 76.7196 293.242 73.9944 295.778 72.1397C298.352 70.2472 302.156 69.3009 307.19 69.3009C309.196 69.3009 311.259 69.4712 313.379 69.8119C315.536 70.1525 317.277 70.531 318.602 70.9474V79.8044C316.823 79.0852 315.12 78.5743 313.492 78.2715C311.865 77.9687 310.332 77.8173 308.894 77.8173C307.228 77.8173 305.809 77.9497 304.635 78.2147C303.462 78.4796 302.875 79.161 302.875 80.2586C302.875 81.2049 303.367 81.9051 304.352 82.3593C305.373 82.7757 307.171 83.3245 309.745 84.0058C312.735 84.8007 315.006 85.7659 316.558 86.9014C318.148 88.0369 319.227 89.3616 319.795 90.8757C320.362 92.3518 320.646 94.0362 320.646 95.9287C320.646 99.2595 319.359 101.947 316.785 103.991C314.212 105.997 310.313 107 305.09 107Z" fill="#342C2B"/>
<path d="M277.308 106.432V69.8687H287.982V106.432H277.308Z" fill="#342C2B"/>
<path d="M248.834 106.432L234.811 69.8687H245.939L254.455 94.0551L262.971 69.8687H274.156L260.133 106.432H248.834Z" fill="#342C2B"/>
<path d="M215.565 107C209.509 107 204.873 105.524 201.655 102.571C198.476 99.6191 196.886 94.85 196.886 88.264C196.886 83.7219 197.605 80.0694 199.044 77.3063C200.482 74.5053 202.583 72.4803 205.346 71.2313C208.147 69.9444 211.553 69.3009 215.565 69.3009C219.578 69.3009 222.965 69.9444 225.728 71.2313C228.529 72.4803 230.649 74.5053 232.087 77.3063C233.525 80.0694 234.245 83.7219 234.245 88.264C234.245 94.85 232.636 99.6191 229.419 102.571C226.201 105.524 221.584 107 215.565 107ZM215.565 97.9159C218.291 97.9159 220.259 97.1588 221.47 95.6448C222.719 94.093 223.344 91.6327 223.344 88.264C223.344 84.6682 222.719 82.1322 221.47 80.656C220.259 79.142 218.291 78.385 215.565 78.385C212.84 78.385 210.853 79.142 209.604 80.656C208.393 82.1322 207.787 84.6682 207.787 88.264C207.787 91.6327 208.393 94.093 209.604 95.6448C210.853 97.1588 212.84 97.9159 215.565 97.9159Z" fill="#342C2B"/>
<path d="M159.377 106.432V69.8687H168.461L182.257 89.2292V69.8687H192.931V106.432H183.79L170.05 87.1285V106.432H159.377Z" fill="#342C2B"/>
<path d="M143.575 106.432V69.8687H154.249V106.432H143.575Z" fill="#342C2B"/>
<path d="M119.81 106.432V77.8173H109.534V69.8687H140.76V77.8173H130.484V106.432H119.81Z" fill="#342C2B"/>
<path d="M75.7655 106.432V69.8687H94.7854C97.7756 69.8687 100.217 70.4175 102.109 71.5151C104.04 72.6128 105.478 74.1458 106.424 76.114C107.371 78.0444 107.844 80.2965 107.844 82.8703C107.844 85.3306 107.219 87.507 105.97 89.3995C104.759 91.2542 103.131 92.6736 101.087 93.6577C101.504 93.9983 101.863 94.4147 102.166 94.9067C102.469 95.3609 102.81 96.0044 103.188 96.8371L107.39 106.432H96.2615L92.4008 97.632C92.098 96.9507 91.7195 96.4775 91.2653 96.2126C90.8489 95.9098 90.2433 95.7584 89.4485 95.7584H86.4393V106.432H75.7655ZM86.4393 87.5827H92.0601C93.612 87.5827 94.8043 87.1852 95.637 86.3904C96.5076 85.5577 96.9428 84.3843 96.9428 82.8703C96.9428 79.653 95.4288 78.0444 92.4008 78.0444H86.4393V87.5827Z" fill="#342C2B"/>
<path d="M53.1115 107C47.0555 107 42.4188 105.524 39.2015 102.571C36.0221 99.6191 34.4323 94.85 34.4323 88.264C34.4323 83.7219 35.1515 80.0694 36.5898 77.3063C38.0281 74.5053 40.1288 72.4803 42.8919 71.2313C45.6929 69.9444 49.0994 69.3009 53.1115 69.3009C57.1237 69.3009 60.5113 69.9444 63.2744 71.2313C66.0753 72.4803 68.195 74.5053 69.6333 77.3063C71.0716 80.0694 71.7908 83.7219 71.7908 88.264C71.7908 94.85 70.1821 99.6191 66.9648 102.571C63.7475 105.524 59.1298 107 53.1115 107ZM53.1115 97.9159C55.8368 97.9159 57.805 97.1588 59.0162 95.6448C60.2653 94.093 60.8898 91.6327 60.8898 88.264C60.8898 84.6682 60.2653 82.1322 59.0162 80.656C57.805 79.142 55.8368 78.385 53.1115 78.385C50.3863 78.385 48.3992 79.142 47.1501 80.656C45.9389 82.1322 45.3333 84.6682 45.3333 88.264C45.3333 91.6327 45.9389 94.093 47.1501 95.6448C48.3992 97.1588 50.3863 97.9159 53.1115 97.9159Z" fill="#342C2B"/>
<path d="M20.8825 107C14.2586 107 9.20561 105.372 5.72336 102.117C2.24112 98.8621 0.5 94.2633 0.5 88.3208C0.5 82.189 2.20327 77.4955 5.60981 74.2404C9.01635 70.9474 14.0883 69.3009 20.8257 69.3009C23.0967 69.3009 25.1217 69.4712 26.9007 69.8119C28.6797 70.1525 30.3829 70.6257 32.0105 71.2313V80.5425C28.7554 79.1042 25.2731 78.385 21.5638 78.385C18.1194 78.385 15.5645 79.1799 13.8991 80.7696C12.2336 82.3215 11.4009 84.8385 11.4009 88.3208C11.4009 91.7273 12.2715 94.1876 14.0126 95.7016C15.7916 97.1778 18.3465 97.9159 21.6773 97.9159C23.4942 97.9159 25.2542 97.7455 26.9575 97.4049C28.6986 97.0642 30.4208 96.5343 32.1241 95.8152V105.183C30.4965 105.751 28.7743 106.186 26.9575 106.489C25.1785 106.83 23.1535 107 20.8825 107Z" fill="#342C2B"/>
<path d="M232.736 61.1313V47.7322L219.564 24.5677H230.692L238.073 38.3642L245.454 24.5677H256.582L243.41 47.7322V61.1313H232.736Z" fill="#ED2000"/>
<path d="M188.375 61.1313V24.5677H207.395C210.385 24.5677 212.827 25.1166 214.719 26.2142C216.65 27.3119 218.088 28.8449 219.034 30.8131C219.98 32.7435 220.454 34.9956 220.454 37.5694C220.454 40.0297 219.829 42.2061 218.58 44.0986C217.369 45.9533 215.741 47.3727 213.697 48.3568C214.114 48.6974 214.473 49.1138 214.776 49.6058C215.079 50.06 215.419 50.7035 215.798 51.5362L219.999 61.1313H208.871L205.011 52.3311C204.708 51.6498 204.329 51.1766 203.875 50.9117C203.459 50.6089 202.853 50.4575 202.058 50.4575H199.049V61.1313H188.375ZM199.049 42.2818H204.67C206.222 42.2818 207.414 41.8843 208.247 41.0895C209.117 40.2568 209.553 39.0834 209.553 37.5694C209.553 34.3521 208.039 32.7435 205.011 32.7435H199.049V42.2818Z" fill="#ED2000"/>
<path d="M145.046 61.1313L159.07 24.5677H170.368L184.392 61.1313H173.264L170.198 53.353H159.183L156.174 61.1313H145.046ZM160.603 45.6883H168.778L164.691 34.9577L160.603 45.6883Z" fill="#ED2000"/>
<path d="M107.093 61.1313V24.5677H117.767V38.1939H130.371V24.5677H141.045V61.1313H130.371V47.5051H117.767V61.1313H107.093Z" fill="#ED2000"/>
<path d="M91.8531 61.6991C85.2293 61.6991 80.1762 60.0715 76.694 56.8164C73.2117 53.5612 71.4706 48.9624 71.4706 43.0199C71.4706 36.8881 73.1739 32.1946 76.5804 28.9395C79.987 25.6465 85.0589 24 91.7963 24C94.0673 24 96.0923 24.1703 97.8713 24.511C99.6503 24.8516 101.354 25.3248 102.981 25.9304V35.2416C99.726 33.8033 96.2437 33.0841 92.5344 33.0841C89.09 33.0841 86.5351 33.879 84.8697 35.4687C83.2043 37.0206 82.3715 39.5376 82.3715 43.0199C82.3715 46.4264 83.2421 48.8867 84.9832 50.4007C86.7622 51.8769 89.3171 52.615 92.648 52.615C94.4648 52.615 96.2248 52.4446 97.9281 52.104C99.6692 51.7633 101.391 51.2334 103.095 50.5143V59.8822C101.467 60.45 99.7449 60.8853 97.9281 61.1881C96.1491 61.5287 94.1241 61.6991 91.8531 61.6991Z" fill="#ED2000"/>
<path d="M32.3819 61.1313L46.4055 24.5677H57.7038L71.7274 61.1313H60.5994L57.5335 53.353H46.519L43.5099 61.1313H32.3819ZM47.9384 45.6883H56.1141L52.0263 34.9577L47.9384 45.6883Z" fill="#ED2000"/>
<path d="M1 61.1313V55.7944L16.8972 32.7435H1.85164V24.5677H30.9208V30.1318L15.1939 52.9556H31.2614V61.1313H1Z" fill="#ED2000"/>
</svg>
