<svg width="80" height="80" viewBox="0 0 80 80" fill="none" xmlns="http://www.w3.org/2000/svg">
<rect width="80" height="80" fill="#F7FAFC"/>
<path d="M5 39.5V40.5H0V39.5H5ZM25 39.5V40.5H15V39.5H25ZM45 39.5V40.5H35V39.5H45ZM65 39.5V40.5H55V39.5H65ZM80 39.5V40.5H75V39.5H80Z" fill="#DCDCDC"/>
<path d="M40.5 5L39.5 5L39.5 -4.37114e-08L40.5 0L40.5 5ZM40.5 25L39.5 25L39.5 15L40.5 15L40.5 25ZM40.5 45L39.5 45L39.5 35L40.5 35L40.5 45ZM40.5 65L39.5 65L39.5 55L40.5 55L40.5 65ZM40.5 80L39.5 80L39.5 75L40.5 75L40.5 80Z" fill="#DCDCDC"/>
</svg>
