<svg width="80" height="80" viewBox="0 0 80 80" fill="none" xmlns="http://www.w3.org/2000/svg">
<g clip-path="url(#clip0_7257_2585)">
<path d="M80 0H0V80H80V0Z" fill="#F7FAFC"/>
<path d="M5 40V40.25H0V40H5ZM25 40V40.25H15V40H25ZM45 40V40.25H35V40H45ZM65 40V40.25H55V40H65ZM80 40V40.25H75V40H80Z" fill="#008FF0"/>
<path d="M40.25 5H40V0L40.25 4.37114e-08V5ZM40.25 25H40V15H40.25V25ZM40.25 45H40V35H40.25V45ZM40.25 65H40V55H40.25V65ZM40.25 80H40V75H40.25V80Z" fill="#008FF0"/>
</g>
<defs>
<clipPath id="clip0_7257_2585">
<rect width="80" height="80" fill="white"/>
</clipPath>
</defs>
</svg>
