<svg width="908" height="352" viewBox="0 0 908 352" fill="none" xmlns="http://www.w3.org/2000/svg">
<path d="M456.22 351.66C456.22 351.66 714.19 107.74 693.36 76.13C672.53 44.51 0.0999756 0.100006 0.0999756 0.100006M456.22 351.66C456.22 351.66 703.5 116.09 682.07 83.57C660.64 51.04 0.0999756 0.100006 0.0999756 0.100006M456.22 351.66C456.22 351.66 692.21 123.53 670.78 91.01C649.35 58.48 0.0999756 0.100006 0.0999756 0.100006M456.22 351.66C456.22 351.66 680.92 130.97 659.49 98.45C638.06 65.92 0.0999756 0.100006 0.0999756 0.100006M456.22 351.66C456.22 351.66 669.62 138.41 648.19 105.89C626.77 73.36 0.0999756 0.100006 0.0999756 0.100006M456.22 351.66C456.22 351.66 658.33 145.85 636.9 113.33C615.47 80.8 0.0999756 0.100006 0.0999756 0.100006M456.22 351.66C456.22 351.66 647.04 153.29 625.61 120.76C604.18 88.24 0.0999756 0.100006 0.0999756 0.100006M456.22 351.66C456.22 351.66 635.75 160.73 614.32 128.2C592.89 95.68 0.0999756 0.100006 0.0999756 0.100006M456.22 351.66C456.22 351.66 624.46 168.17 603.03 135.64C581.6 103.12 0.0999756 0.100006 0.0999756 0.100006M456.22 351.66C456.22 351.66 613.17 175.61 591.74 143.08C570.31 110.56 0.0999756 0.100006 0.0999756 0.100006M456.22 351.66C456.22 351.66 601.88 183.05 580.45 150.52C559.02 117.99 0.0999756 0.100006 0.0999756 0.100006M456.22 351.66C456.22 351.66 590.59 190.49 569.16 157.96C547.73 125.44 0.0999756 0.100006 0.0999756 0.100006M456.22 351.66C456.22 351.66 579.3 197.93 557.87 165.4C536.44 132.88 0.0999756 0.100006 0.0999756 0.100006M456.22 351.66C456.22 351.66 568.01 205.37 546.58 172.84C525.15 140.32 0.0999756 0.100006 0.0999756 0.100006M456.22 351.66C456.22 351.66 556.72 212.8 535.29 180.28C513.86 147.76 0.0999756 0.100006 0.0999756 0.100006M456.22 351.66C456.22 351.66 545.43 220.24 523.99 187.72C502.57 155.19 0.0999756 0.100006 0.0999756 0.100006M456.22 351.66C456.22 351.66 534.13 227.68 512.7 195.16C491.28 162.63 0.0999756 0.100006 0.0999756 0.100006M456.22 351.66C456.22 351.66 522.84 235.12 501.41 202.6C479.98 170.07 0.0999756 0.100006 0.0999756 0.100006M456.22 351.66C456.22 351.66 511.55 242.56 490.12 210.04C468.69 177.51 0.0999756 0.100006 0.0999756 0.100006M456.22 351.66C456.22 351.66 500.26 250 478.83 217.48C457.4 184.95 0.0999756 0.100006 0.0999756 0.100006M456.22 351.66C456.22 351.66 488.97 257.44 467.54 224.92C446.11 192.39 0.0999756 0.100006 0.0999756 0.100006M456.22 351.66C456.22 351.66 477.68 264.88 456.25 232.36C434.82 199.83 0.0999756 0.100006 0.0999756 0.100006M456.22 351.66C456.22 351.66 466.39 272.32 444.96 239.8C423.53 207.27 0.0999756 0.100006 0.0999756 0.100006M456.22 351.66C456.22 351.66 455.1 279.76 433.67 247.23C412.24 214.71 0.0999756 0.100006 0.0999756 0.100006M456.22 351.66C456.22 351.66 443.81 287.2 422.38 254.67C400.95 222.15 0.0999756 0.100006 0.0999756 0.100006M456.22 351.66C456.22 351.66 432.52 294.64 411.09 262.11C389.66 229.58 0.0999756 0.100006 0.0999756 0.100006M451.437 351.66C451.437 351.66 193.467 107.74 214.297 76.13C235.127 44.51 907.557 0.100006 907.557 0.100006M451.437 351.66C451.437 351.66 204.157 116.09 225.587 83.57C247.017 51.04 907.557 0.100006 907.557 0.100006M451.437 351.66C451.437 351.66 215.447 123.53 236.877 91.01C258.307 58.48 907.557 0.100006 907.557 0.100006M451.437 351.66C451.437 351.66 226.737 130.97 248.167 98.45C269.597 65.92 907.557 0.100006 907.557 0.100006M451.437 351.66C451.437 351.66 238.037 138.41 259.467 105.89C280.887 73.36 907.557 0.100006 907.557 0.100006M451.437 351.66C451.437 351.66 249.327 145.85 270.757 113.33C292.187 80.8 907.557 0.100006 907.557 0.100006M451.437 351.66C451.437 351.66 260.617 153.29 282.047 120.76C303.477 88.24 907.557 0.100006 907.557 0.100006M451.437 351.66C451.437 351.66 271.907 160.73 293.337 128.2C314.767 95.68 907.557 0.100006 907.557 0.100006M451.437 351.66C451.437 351.66 283.197 168.17 304.627 135.64C326.057 103.12 907.557 0.100006 907.557 0.100006M451.437 351.66C451.437 351.66 294.487 175.61 315.917 143.08C337.347 110.56 907.557 0.100006 907.557 0.100006M451.437 351.66C451.437 351.66 305.777 183.05 327.207 150.52C348.637 117.99 907.557 0.100006 907.557 0.100006M451.437 351.66C451.437 351.66 317.067 190.49 338.497 157.96C359.927 125.44 907.557 0.100006 907.557 0.100006M451.437 351.66C451.437 351.66 328.357 197.93 349.787 165.4C371.217 132.88 907.557 0.100006 907.557 0.100006M451.437 351.66C451.437 351.66 339.647 205.37 361.077 172.84C382.507 140.32 907.557 0.100006 907.557 0.100006M451.437 351.66C451.437 351.66 350.937 212.8 372.367 180.28C393.797 147.76 907.557 0.100006 907.557 0.100006M451.437 351.66C451.437 351.66 362.227 220.24 383.667 187.72C405.087 155.19 907.557 0.100006 907.557 0.100006M451.437 351.66C451.437 351.66 373.527 227.68 394.957 195.16C416.377 162.63 907.557 0.100006 907.557 0.100006M451.437 351.66C451.437 351.66 384.817 235.12 406.247 202.6C427.677 170.07 907.557 0.100006 907.557 0.100006M451.437 351.66C451.437 351.66 396.107 242.56 417.537 210.04C438.967 177.51 907.557 0.100006 907.557 0.100006M451.437 351.66C451.437 351.66 407.397 250 428.827 217.48C450.257 184.95 907.557 0.100006 907.557 0.100006M451.437 351.66C451.437 351.66 418.687 257.44 440.117 224.92C461.547 192.39 907.557 0.100006 907.557 0.100006M451.437 351.66C451.437 351.66 429.977 264.88 451.407 232.36C472.837 199.83 907.557 0.100006 907.557 0.100006M451.437 351.66C451.437 351.66 441.267 272.32 462.697 239.8C484.127 207.27 907.557 0.100006 907.557 0.100006M451.437 351.66C451.437 351.66 452.557 279.76 473.987 247.23C495.417 214.71 907.557 0.100006 907.557 0.100006M451.437 351.66C451.437 351.66 463.847 287.2 485.277 254.67C506.707 222.15 907.557 0.100006 907.557 0.100006M451.437 351.66C451.437 351.66 475.137 294.64 496.567 262.11C517.997 229.58 907.557 0.100006 907.557 0.100006" stroke="#ED2000" stroke-width="0.2" stroke-linecap="round" stroke-linejoin="round"/>
</svg>
