<svg width="728" height="687" viewBox="0 0 728 687" fill="none" xmlns="http://www.w3.org/2000/svg">
<path d="M373.75 686.714C373.75 686.714 747.35 35.3235 726.52 3.71352C705.69 -27.9065 0.250122 167.383 0.250122 167.383" stroke="#ED2000" stroke-width="0.5" stroke-linecap="round" stroke-linejoin="round"/>
<path d="M373.75 686.714C373.75 686.714 736.66 43.6735 715.23 11.1535C693.8 -21.3765 0.250122 167.383 0.250122 167.383" stroke="#ED2000" stroke-width="0.5" stroke-linecap="round" stroke-linejoin="round"/>
<path d="M373.75 686.714C373.75 686.714 725.37 51.1135 703.94 18.5935C682.51 -13.9365 0.250122 167.383 0.250122 167.383" stroke="#ED2000" stroke-width="0.5" stroke-linecap="round" stroke-linejoin="round"/>
<path d="M373.75 686.714C373.75 686.714 714.08 58.5535 692.65 26.0335C671.22 -6.49654 0.250122 167.383 0.250122 167.383" stroke="#ED2000" stroke-width="0.5" stroke-linecap="round" stroke-linejoin="round"/>
<path d="M373.75 686.714C373.75 686.714 702.78 65.9935 681.35 33.4735C659.93 0.943466 0.250122 167.383 0.250122 167.383" stroke="#ED2000" stroke-width="0.5" stroke-linecap="round" stroke-linejoin="round"/>
<path d="M373.75 686.714C373.75 686.714 691.49 73.4335 670.06 40.9135C648.63 8.38347 0.250122 167.383 0.250122 167.383" stroke="#ED2000" stroke-width="0.5" stroke-linecap="round" stroke-linejoin="round"/>
<path d="M373.75 686.714C373.75 686.714 680.2 80.8735 658.77 48.3435C637.34 15.8235 0.250122 167.383 0.250122 167.383" stroke="#ED2000" stroke-width="0.5" stroke-linecap="round" stroke-linejoin="round"/>
<path d="M373.75 686.714C373.75 686.714 668.91 88.3135 647.48 55.7835C626.05 23.2635 0.250122 167.383 0.250122 167.383" stroke="#ED2000" stroke-width="0.5" stroke-linecap="round" stroke-linejoin="round"/>
<path d="M373.75 686.714C373.75 686.714 657.62 95.7535 636.19 63.2235C614.76 30.7035 0.250122 167.383 0.250122 167.383" stroke="#ED2000" stroke-width="0.5" stroke-linecap="round" stroke-linejoin="round"/>
<path d="M373.75 686.714C373.75 686.714 646.33 103.193 624.9 70.6635C603.47 38.1435 0.250122 167.383 0.250122 167.383" stroke="#ED2000" stroke-width="0.5" stroke-linecap="round" stroke-linejoin="round"/>
<path d="M373.75 686.714C373.75 686.714 635.04 110.633 613.61 78.1035C592.18 45.5735 0.250122 167.383 0.250122 167.383" stroke="#ED2000" stroke-width="0.5" stroke-linecap="round" stroke-linejoin="round"/>
<path d="M373.75 686.714C373.75 686.714 623.75 118.073 602.32 85.5435C580.89 53.0235 0.250122 167.383 0.250122 167.383" stroke="#ED2000" stroke-width="0.5" stroke-linecap="round" stroke-linejoin="round"/>
<path d="M373.75 686.714C373.75 686.714 612.46 125.513 591.03 92.9835C569.6 60.4635 0.250122 167.383 0.250122 167.383" stroke="#ED2000" stroke-width="0.5" stroke-linecap="round" stroke-linejoin="round"/>
<path d="M373.75 686.714C373.75 686.714 601.17 132.953 579.74 100.423C558.31 67.9035 0.250122 167.383 0.250122 167.383" stroke="#ED2000" stroke-width="0.5" stroke-linecap="round" stroke-linejoin="round"/>
<path d="M373.75 686.714C373.75 686.714 589.88 140.383 568.45 107.863C547.02 75.3435 0.250122 167.383 0.250122 167.383" stroke="#ED2000" stroke-width="0.5" stroke-linecap="round" stroke-linejoin="round"/>
<path d="M373.75 686.714C373.75 686.714 578.59 147.823 557.15 115.303C535.73 82.7735 0.250122 167.383 0.250122 167.383" stroke="#ED2000" stroke-width="0.5" stroke-linecap="round" stroke-linejoin="round"/>
<path d="M373.75 686.714C373.75 686.714 567.29 155.263 545.86 122.743C524.44 90.2135 0.250122 167.383 0.250122 167.383" stroke="#ED2000" stroke-width="0.5" stroke-linecap="round" stroke-linejoin="round"/>
<path d="M373.75 686.714C373.75 686.714 556 162.703 534.57 130.183C513.14 97.6535 0.250122 167.383 0.250122 167.383" stroke="#ED2000" stroke-width="0.5" stroke-linecap="round" stroke-linejoin="round"/>
<path d="M373.75 686.714C373.75 686.714 544.71 170.143 523.28 137.623C501.85 105.093 0.250122 167.383 0.250122 167.383" stroke="#ED2000" stroke-width="0.5" stroke-linecap="round" stroke-linejoin="round"/>
<path d="M373.75 686.714C373.75 686.714 533.42 177.583 511.99 145.063C490.56 112.533 0.250122 167.383 0.250122 167.383" stroke="#ED2000" stroke-width="0.5" stroke-linecap="round" stroke-linejoin="round"/>
<path d="M373.75 686.714C373.75 686.714 522.13 185.023 500.7 152.503C479.27 119.973 0.250122 167.383 0.250122 167.383" stroke="#ED2000" stroke-width="0.5" stroke-linecap="round" stroke-linejoin="round"/>
<path d="M373.75 686.714C373.75 686.714 510.84 192.463 489.41 159.943C467.98 127.413 0.250122 167.383 0.250122 167.383" stroke="#ED2000" stroke-width="0.5" stroke-linecap="round" stroke-linejoin="round"/>
<path d="M373.75 686.714C373.75 686.714 499.55 199.903 478.12 167.383C456.69 134.854 0.250122 167.383 0.250122 167.383" stroke="#ED2000" stroke-width="0.5" stroke-linecap="round" stroke-linejoin="round"/>
<path d="M373.75 686.714C373.75 686.714 488.26 207.343 466.83 174.813C445.4 142.293 0.250122 167.383 0.250122 167.383" stroke="#ED2000" stroke-width="0.5" stroke-linecap="round" stroke-linejoin="round"/>
<path d="M373.75 686.714C373.75 686.714 476.97 214.783 455.54 182.253C434.11 149.733 0.250122 167.383 0.250122 167.383" stroke="#ED2000" stroke-width="0.5" stroke-linecap="round" stroke-linejoin="round"/>
<path d="M373.75 686.714C373.75 686.714 465.68 222.223 444.25 189.693C422.82 157.163 0.250122 167.383 0.250122 167.383" stroke="#ED2000" stroke-width="0.5" stroke-linecap="round" stroke-linejoin="round"/>
<path d="M373.75 686.714C373.75 686.714 601.17 132.953 579.74 100.423C558.31 67.9035 0.250122 167.383 0.250122 167.383" stroke="#ED2000" stroke-width="0.5" stroke-linecap="round" stroke-linejoin="round"/>
</svg>
