<svg width="695" height="353" viewBox="0 0 695 353" fill="none" xmlns="http://www.w3.org/2000/svg">
<path d="M238.587 0.250069C238.587 0.250069 -19.3833 244.17 1.44672 275.78C22.2767 307.4 694.707 351.81 694.707 351.81" stroke="#ED2000" stroke-width="0.5" stroke-linecap="round" stroke-linejoin="round"/>
<path d="M238.587 0.250069C238.587 0.250069 -8.69324 235.82 12.7368 268.34C34.1668 300.87 694.707 351.81 694.707 351.81" stroke="#ED2000" stroke-width="0.5" stroke-linecap="round" stroke-linejoin="round"/>
<path d="M238.587 0.250069C238.587 0.250069 2.59673 228.38 24.0267 260.9C45.4567 293.43 694.707 351.81 694.707 351.81" stroke="#ED2000" stroke-width="0.5" stroke-linecap="round" stroke-linejoin="round"/>
<path d="M238.587 0.250069C238.587 0.250069 13.8867 220.94 35.3167 253.46C56.7467 285.99 694.707 351.81 694.707 351.81" stroke="#ED2000" stroke-width="0.5" stroke-linecap="round" stroke-linejoin="round"/>
<path d="M238.587 0.250069C238.587 0.250069 25.1867 213.5 46.6167 246.02C68.0367 278.55 694.707 351.81 694.707 351.81" stroke="#ED2000" stroke-width="0.5" stroke-linecap="round" stroke-linejoin="round"/>
<path d="M238.587 0.250069C238.587 0.250069 36.4767 206.06 57.9067 238.58C79.3367 271.11 694.707 351.81 694.707 351.81" stroke="#ED2000" stroke-width="0.5" stroke-linecap="round" stroke-linejoin="round"/>
<path d="M238.587 0.250069C238.587 0.250069 47.7667 198.62 69.1967 231.15C90.6267 263.67 694.707 351.81 694.707 351.81" stroke="#ED2000" stroke-width="0.5" stroke-linecap="round" stroke-linejoin="round"/>
<path d="M238.587 0.250069C238.587 0.250069 59.0568 191.18 80.4868 223.71C101.917 256.23 694.707 351.81 694.707 351.81" stroke="#ED2000" stroke-width="0.5" stroke-linecap="round" stroke-linejoin="round"/>
<path d="M238.587 0.250069C238.587 0.250069 70.3467 183.74 91.7767 216.27C113.207 248.79 694.707 351.81 694.707 351.81" stroke="#ED2000" stroke-width="0.5" stroke-linecap="round" stroke-linejoin="round"/>
<path d="M238.587 0.250069C238.587 0.250069 81.6367 176.3 103.067 208.83C124.497 241.35 694.707 351.81 694.707 351.81" stroke="#ED2000" stroke-width="0.5" stroke-linecap="round" stroke-linejoin="round"/>
<path d="M238.587 0.250069C238.587 0.250069 92.9268 168.86 114.357 201.39C135.787 233.92 694.707 351.81 694.707 351.81" stroke="#ED2000" stroke-width="0.5" stroke-linecap="round" stroke-linejoin="round"/>
<path d="M238.587 0.250069C238.587 0.250069 104.217 161.42 125.647 193.95C147.077 226.47 694.707 351.81 694.707 351.81" stroke="#ED2000" stroke-width="0.5" stroke-linecap="round" stroke-linejoin="round"/>
<path d="M238.587 0.250069C238.587 0.250069 115.507 153.98 136.937 186.51C158.367 219.03 694.707 351.81 694.707 351.81" stroke="#ED2000" stroke-width="0.5" stroke-linecap="round" stroke-linejoin="round"/>
<path d="M238.587 0.250069C238.587 0.250069 126.797 146.54 148.227 179.07C169.657 211.59 694.707 351.81 694.707 351.81" stroke="#ED2000" stroke-width="0.5" stroke-linecap="round" stroke-linejoin="round"/>
<path d="M238.587 0.250069C238.587 0.250069 138.087 139.11 159.517 171.63C180.947 204.15 694.707 351.81 694.707 351.81" stroke="#ED2000" stroke-width="0.5" stroke-linecap="round" stroke-linejoin="round"/>
<path d="M238.587 0.250069C238.587 0.250069 149.377 131.67 170.817 164.19C192.237 196.72 694.707 351.81 694.707 351.81" stroke="#ED2000" stroke-width="0.5" stroke-linecap="round" stroke-linejoin="round"/>
<path d="M238.587 0.250069C238.587 0.250069 160.677 124.23 182.107 156.75C203.527 189.28 694.707 351.81 694.707 351.81" stroke="#ED2000" stroke-width="0.5" stroke-linecap="round" stroke-linejoin="round"/>
<path d="M238.587 0.250069C238.587 0.250069 171.967 116.79 193.397 149.31C214.827 181.84 694.707 351.81 694.707 351.81" stroke="#ED2000" stroke-width="0.5" stroke-linecap="round" stroke-linejoin="round"/>
<path d="M238.587 0.250069C238.587 0.250069 183.257 109.35 204.687 141.87C226.117 174.4 694.707 351.81 694.707 351.81" stroke="#ED2000" stroke-width="0.5" stroke-linecap="round" stroke-linejoin="round"/>
<path d="M238.587 0.250069C238.587 0.250069 194.547 101.91 215.977 134.43C237.407 166.96 694.707 351.81 694.707 351.81" stroke="#ED2000" stroke-width="0.5" stroke-linecap="round" stroke-linejoin="round"/>
<path d="M238.587 0.250069C238.587 0.250069 205.837 94.4701 227.267 126.99C248.697 159.52 694.707 351.81 694.707 351.81" stroke="#ED2000" stroke-width="0.5" stroke-linecap="round" stroke-linejoin="round"/>
<path d="M238.587 0.250069C238.587 0.250069 217.127 87.0301 238.557 119.55C259.987 152.08 694.707 351.81 694.707 351.81" stroke="#ED2000" stroke-width="0.5" stroke-linecap="round" stroke-linejoin="round"/>
<path d="M238.587 0.250069C238.587 0.250069 228.417 79.5901 249.847 112.11C271.277 144.64 694.707 351.81 694.707 351.81" stroke="#ED2000" stroke-width="0.5" stroke-linecap="round" stroke-linejoin="round"/>
<path d="M238.587 0.250069C238.587 0.250069 239.707 72.1501 261.137 104.68C282.567 137.2 694.707 351.81 694.707 351.81" stroke="#ED2000" stroke-width="0.5" stroke-linecap="round" stroke-linejoin="round"/>
<path d="M238.587 0.250069C238.587 0.250069 250.997 64.7101 272.427 97.2401C293.857 129.76 694.707 351.81 694.707 351.81" stroke="#ED2000" stroke-width="0.5" stroke-linecap="round" stroke-linejoin="round"/>
<path d="M238.587 0.250069C238.587 0.250069 262.287 57.2701 283.717 89.8001C305.147 122.33 694.707 351.81 694.707 351.81" stroke="#ED2000" stroke-width="0.5" stroke-linecap="round" stroke-linejoin="round"/>
<path d="M238.587 0.250069C238.587 0.250069 126.797 146.54 148.227 179.07C169.657 211.59 694.707 351.81 694.707 351.81" stroke="#ED2000" stroke-width="0.5" stroke-linecap="round" stroke-linejoin="round"/>
</svg>
